M48
;Layer_Color=9474304
;FILE_FORMAT=4:4
METRIC,LZ
;TYPE=PLATED
T1F00S00C0.3000
T3F00S00C0.8000
T4F00S00C0.8500
T5F00S00C0.8900
T6F00S00C1.5700
T7F00S00C2.0000
;TYPE=NON_PLATED
T8F00S00C1.2000
T9F00S00C3.0000
T10F00S00C3.2500
%
T01
X0281Y02715
Y02735
X02826Y02737
X02832
X02838
X0285Y02735
Y02715
X0287
Y02695
Y02675
X02876Y02737
X02882
X02888
Y02757
X02882
X02876
X02838
X02832
X02826
X0281Y02755
Y02775
X02966Y02765
Y02756
X02989Y02757
Y0275
Y02743
X02983Y02737
X02975
X0297Y02695
X0299
X0301
X0303
X0305
X0307
X0309
X0307Y02675
X0305
X0303
X0301
X0299
X0297
X02938Y02704
X02932
Y0271
X02938
X02932Y02716
X02926
Y0271
Y02704
X0303Y02751
Y02758
Y02765
X0303Y02772
X0305Y02775
X03062Y02769
X0305Y02755
X03076Y02752
X03088Y0275
X03096525Y02751525
X0313Y02755
X0315
Y02775
X03138Y0274
X03177Y02754
X03189Y027
X032233Y02684
X03236
X0323Y02675
X0325
X0327
X0329
X0331
X0333
X0335
X0339
X0343
X0347
X0351
Y02695
Y02715
X0349Y02695
X0353
X0355Y02715
Y02735
Y02755
Y02775
X0353
X0351
Y02755
X0349Y02735
X0353
X0347Y02715
X0345Y02695
X0343Y02715
Y02755
X0345Y02735
Y02775
X0341
X0339Y02755
X0341Y02735
Y02695
X0339Y02715
X0337Y02695
X0335Y02715
X0337Y02735
X0333
Y02755
X03321Y02772
X03302Y02763
X03293
X0329Y02738
X03284
X03278
X03272
X03263Y02763
Y0277
X03267Y02776
X03274
X0325Y02775
Y02755
Y02695
X0327
X0329
X0331
Y02715
X0329
X0331Y02735
X0333Y02695
X0359Y02715
Y02935
Y02955
Y02975
Y02995
Y03115
Y03135
X0353
X03522Y03135
X0351Y03115
X0347
X034702Y031532
X034922Y031592
X035032Y031652
X034812Y031722
X034592
X034482Y031472
X034372Y031412
X034262Y031352
X0339Y03135
X03384Y03141
X03378Y03147
X03372Y03153
X03366Y03159
X0336Y03165
X0335Y03155
Y03135
X0333
Y03115
X0331
Y03095
X0329
X03285Y03064
X0331Y03055
Y03035
Y03015
X0333
X0335
X0337
Y03035
X0339
Y03015
X0341
Y03035
X0343Y03047
X03438
X0343Y03015
Y0299
Y02975
Y02955
X0345
Y02935
X0343
X0339
X03361Y02929
X03355Y02923
X03349Y02931
X03355Y02937
X03341Y02938
X03332Y02942
X03322Y02945
X03311Y02947
X033Y0295
X0329Y02952
X03266Y02955
Y02943
X03265Y02926
Y02916
X03266Y02907
X03265Y02893
Y02885
X03270999Y02855
X0327Y02846
X03272Y02827
X03279
X03286
X0329Y02835
X0331
X0333
Y02855
X0335
Y02835
X0337
X03375Y02841
X03395Y02841
X03415Y02841
X03436
X03456Y02841
X03476Y02841
X0349Y02835
X0351
Y02855
Y02875
Y02895
Y02915
X0349
X0347
X0345
X0341
X0337
X03339Y02911
X03338Y02919
X0333Y02922
X03322
X03314
X03306
X03304Y02876
X03297
X03288Y02872
X03311Y02876
X03318
X03325
X03332
X0335Y02875
X03344Y02884
X0337Y02815
X0335Y02795
X0339
X0341Y02815
X0345
X0343Y02795
X0347
X0349Y02815
X0351
Y02795
X0353Y02815
X0355
Y02795
Y02835
Y02855
Y02875
Y02895
Y02915
X0353
Y02935
X0351
Y02955
X0349
Y02935
X0347
Y02955
X0345575Y0298325
X0345Y02995
X03415Y0299
X034
X03385
X0337
X03355
X03318Y02993
Y02987
X03312
Y02993
X0327975Y0299425
X03258Y02991
X0325
X03242Y0299
X03234Y02991
X03221Y0299
X03211
X03202
X03194
X03185Y02989
X03177Y02987
X0318Y02965
X0323
Y02945
X0324Y02955
Y02935
X0323Y02915
Y02895
X0321
X0319
X03194Y02859
X03203Y0286
X03213
X0323Y02862
X03238
X03249
X03258Y02836
X03265Y02827
X0325Y02815
Y02795
X03226Y02797
X0323Y02815
X0323Y02835
X03205Y02815
X03189Y02815
X03197Y02801
X0318Y02801
X03184Y02781
X03191
X0321Y0279
X03301Y02786
X03308
X03315
X03321Y0278
X03466Y02858
X0349Y02875
X0353
Y02835
X03568Y02924
X0357Y02935
Y02955
Y02975
Y02995
Y03015
X03547Y03007
X03519Y03003
X03521175Y02993175
X03519Y02978
X03488825Y02986825
X03489525Y02999525
X0349025Y0302125
Y0304675
X0349Y03095
X0347Y03075
X0345Y03095
X0343
X0339
X0337
Y03075
X0335
X0337Y03055
X0341Y03075
Y03115
X03314Y03141
Y03146
X03284Y03145
X0325Y03155
X03233
X0323Y03095
X0321
X0320975Y0307225
X03203Y03055
X0321125Y0303625
X03182Y03017
X03265Y02984
X03265Y02975
X0325Y02965
X03256Y03109533
X0353Y03095
X0355Y03115
X0357Y03095
X0355Y02955
X0341
X0317
Y02935
X0315
X03145Y02953
X03136Y02955
X03141Y02962
X03133999Y02942999
X03138Y02919
Y02911
Y02903
X03135Y02894
Y02884
X03133999Y02875
X0317
Y02895
Y02915
X03158Y02859
X03129Y02842
X03121
X03113
X03105
X0309Y02835
X0307
Y02855
X03055Y02858
Y02865
Y02872
Y02879
X0305Y02895
X0303
X0301
X03004Y02877
Y0287
X02998Y02881
X02991
X02991Y02851
Y02842
X03014Y02843
Y02836
Y02829
X03008Y02823
X03
X02979Y02791
Y02784
X02973Y02795
X02966
X0303Y02793
Y02786
Y02779
X0305Y02795
X03071125Y02805
X0307Y02815
X0309
X03083825Y02782175
X03096525Y02781475
X0312775Y0280175
X03146Y02801
X03163
X03172Y02815
X03154
X0309Y02855
X03092Y02898
X03086Y02903
X03078
X0307
X03066Y02931
X03055Y02931
X03047Y02931
X03039
X03031
X03023
X03015Y02935
X03004Y02953
X0299672Y0294728
X0299Y02942
X02983Y02936
X02977Y0293
X02971Y02924
X0297Y02955
X0303
X03017Y02997
X0303Y03035
X0306Y0303
X0307
X03075Y03036
X0308Y03044
X0309Y03035
Y03055
X03087Y0307
X03105Y03047
X0311Y03015
X0313Y02995
X03139Y0299
X03149
X03158Y0299
X03169Y0299
X03164Y02984
X03174Y03034
X03165Y03046
X03156
X0315Y03055
X0317
Y03075
X0315
Y03095
X0317
X03171Y03155
X0315
X0309
X0307
X0305
X03052Y03128
X0306
X03056Y03123
X0306Y03118
X03052
X0305Y03095
X0307
X03055Y03023
X0306Y03016
X0309Y02995
X03081Y02963
X03098Y02893
X03105Y02889
X02869Y02884
X02869Y02876
X02868Y02896
X02874Y02906
X02869Y02916
X02869Y02924
X02868Y02936
X02874Y02946
X02869Y02956
X02869Y02964
X02868Y02976
X02874Y02986
X02869Y02996
X02879Y03005
X02877Y03014
X02873Y03021
X02893Y0301
X02887Y0299972
X02897Y02997
X0291Y03025
X02907Y03041
X02892
X02878Y03051
Y03065
Y03079
X0287Y03095
X0291
X0293Y03075
Y03055
Y03035
X0295
Y03055
X0297Y03035
Y03075
Y03115
X02981Y03139
X0299Y03135
X03Y03145
X03008Y03152
X02994Y03157
X029912Y031732
X02979Y03166
X02973Y03158
X0296
X02953Y03166
X029692Y031732
X0295Y03135
X0293Y03155
Y03115
X0295Y03095
X0289Y03115
X0291Y03135
X0289Y03155
X0287Y03135
X0285Y03115
X0281
Y03075
Y03055
Y03035
X0283
X02848Y03036
Y03001
X02848Y02991
Y02981
X02844001Y02974
X0283Y02975
Y02995
Y03015
X0281
Y02995
Y02975
Y02955
Y02935
Y02915
Y02895
Y02875
Y02855
Y02835
Y02815
Y02795
X0283Y028
X02838
X02846
X02854
X02863Y02824
X0287
X02901Y02842
X02908
X02848Y02871
X0283Y02875
Y02895
X02844001Y02894
X02848Y02901
Y02911
X0283Y02915
Y02935
X02844001Y02934
X02848Y02941
Y02951
X0283Y02955
X0289
X0291
X0283Y03055
Y03095
X0302625Y0314425
X0305Y03175
X0307
X0311
X0313
X0315
X0317
X0291Y03175
X0287
X0323Y03175
X0325
X0335
X0337
X0341
X0353
T03
X028445Y02747
X028695
X031895Y03168
X032145
T04
X02901Y02692
X02951
X03103
X03153
X03275Y03158
X03325
X03558Y03075
Y03025
T05
X0337475Y028718
X0339505
X0341535
X0343565
X0345595
X0347625
X034724Y028963
X034978
X033786
X033532
T06
X0334485Y027283
X0350615
T07
X032Y02925
T08
X03085Y031
Y0317
T09
X02835Y02685
X03565
Y03165
X02835
T10
X03362Y0276
X03489
M30
