G04 Layer_Color=8388736*
%FSLAX44Y44*%
%MOMM*%
G71*
G01*
G75*
%ADD68R,1.1500X3.7500*%
%ADD69C,1.0500*%
%ADD70R,1.5000X1.2500*%
%ADD71R,0.6500X1.1500*%
%ADD72R,0.6000X0.6500*%
%ADD73R,0.7500X1.1500*%
%ADD74R,0.9100X2.8500*%
%ADD75R,1.1900X1.8800*%
%ADD76R,1.1000X0.8300*%
%ADD77R,0.9500X0.9800*%
%ADD78R,0.7500X3.3800*%
%ADD79R,0.6500X0.6000*%
G04:AMPARAMS|DCode=80|XSize=0.35mm|YSize=1.15mm|CornerRadius=0.1mm|HoleSize=0mm|Usage=FLASHONLY|Rotation=270.000|XOffset=0mm|YOffset=0mm|HoleType=Round|Shape=RoundedRectangle|*
%AMROUNDEDRECTD80*
21,1,0.3500,0.9500,0,0,270.0*
21,1,0.1500,1.1500,0,0,270.0*
1,1,0.2000,-0.4750,-0.0750*
1,1,0.2000,-0.4750,0.0750*
1,1,0.2000,0.4750,0.0750*
1,1,0.2000,0.4750,-0.0750*
%
%ADD80ROUNDEDRECTD80*%
G04:AMPARAMS|DCode=81|XSize=2.35mm|YSize=3.15mm|CornerRadius=0.255mm|HoleSize=0mm|Usage=FLASHONLY|Rotation=270.000|XOffset=0mm|YOffset=0mm|HoleType=Round|Shape=RoundedRectangle|*
%AMROUNDEDRECTD81*
21,1,2.3500,2.6400,0,0,270.0*
21,1,1.8400,3.1500,0,0,270.0*
1,1,0.5100,-1.3200,-0.9200*
1,1,0.5100,-1.3200,0.9200*
1,1,0.5100,1.3200,0.9200*
1,1,0.5100,1.3200,-0.9200*
%
%ADD81ROUNDEDRECTD81*%
%ADD82R,0.8500X1.0000*%
%ADD83R,3.7500X1.1500*%
%ADD84R,0.6500X1.1000*%
%ADD85R,1.0500X0.7000*%
%ADD86O,1.5000X0.5000*%
%ADD87O,0.5000X1.5000*%
%ADD88R,0.4500X1.0000*%
%ADD89R,4.3300X3.4300*%
%ADD90R,1.8500X1.0500*%
%ADD91R,1.2000X1.4500*%
%ADD92R,3.5500X3.5500*%
%ADD93O,0.3500X1.5000*%
%ADD94O,1.5000X0.3500*%
%ADD95R,0.7000X1.0500*%
%ADD96R,2.5000X1.4500*%
%ADD97R,0.4500X1.4000*%
%ADD98R,1.5500X1.9500*%
%ADD99R,2.5500X2.2500*%
%ADD100R,2.8500X2.2500*%
%ADD101R,1.4000X0.4500*%
%ADD102R,1.9500X1.5500*%
%ADD103R,1.1500X0.6500*%
%ADD104R,1.2500X1.5000*%
%ADD105C,1.5500*%
%ADD106O,1.2500X1.9500*%
%ADD107C,1.5000*%
%ADD108C,3.3000*%
%ADD109C,2.0500*%
%ADD110C,1.2500*%
%ADD111O,1.2500X1.5500*%
%ADD112O,1.9500X1.2500*%
%ADD113C,3.0500*%
D68*
X3046000Y2867000D02*
D03*
X3016000D02*
D03*
X3021000Y2781000D02*
D03*
X2991000D02*
D03*
D69*
X3065000Y2879000D02*
D03*
X3040000Y2793000D02*
D03*
X3430000Y2990000D02*
D03*
X3415000D02*
D03*
X3400000D02*
D03*
X3385000D02*
D03*
X3370000D02*
D03*
X3355000D02*
D03*
X3237000Y2785000D02*
D03*
X3196000Y2680000D02*
D03*
X3223000Y2785000D02*
D03*
X3210000Y2680000D02*
D03*
X3257000Y3041000D02*
D03*
X3560000Y2935000D02*
D03*
X3114000Y2818000D02*
D03*
X3134000Y2810000D02*
D03*
X3445000Y3005000D02*
D03*
X3458000Y3020000D02*
D03*
X3320000Y2843000D02*
D03*
X3220000Y3080000D02*
D03*
X2965000Y2812000D02*
D03*
X2881000Y2699000D02*
D03*
D70*
X3275000Y2747000D02*
D03*
Y2765000D02*
D03*
X3307000Y2817000D02*
D03*
Y2799000D02*
D03*
D71*
X3311500Y2751000D02*
D03*
X3292500D02*
D03*
Y2775000D02*
D03*
X3302000D02*
D03*
X3311500D02*
D03*
D72*
X3321000Y2799250D02*
D03*
Y2788750D02*
D03*
X2877000Y2889250D02*
D03*
Y2878750D02*
D03*
X3547000Y2999250D02*
D03*
Y2988750D02*
D03*
X3463000Y2983250D02*
D03*
Y2972750D02*
D03*
X3076000Y2712750D02*
D03*
Y2723250D02*
D03*
X3138000Y2758250D02*
D03*
Y2747750D02*
D03*
X3117000Y2719250D02*
D03*
Y2708750D02*
D03*
X3126000Y2719250D02*
D03*
Y2708750D02*
D03*
X3135000Y2719250D02*
D03*
Y2708750D02*
D03*
X3108000Y2719250D02*
D03*
Y2708750D02*
D03*
X3177000Y2760750D02*
D03*
Y2771250D02*
D03*
Y2704500D02*
D03*
Y2694000D02*
D03*
X3249000Y2823500D02*
D03*
Y2834000D02*
D03*
X3294000Y2984750D02*
D03*
Y2995250D02*
D03*
X3293000Y2882750D02*
D03*
Y2893250D02*
D03*
X3303000Y2986000D02*
D03*
Y2975500D02*
D03*
Y2994000D02*
D03*
Y3004500D02*
D03*
X3302000Y2888500D02*
D03*
Y2899000D02*
D03*
X3299000Y2918250D02*
D03*
Y2907750D02*
D03*
X3286000Y2844750D02*
D03*
Y2855250D02*
D03*
X3278000Y2844750D02*
D03*
Y2855250D02*
D03*
X3237000Y2823500D02*
D03*
Y2834000D02*
D03*
X3203000Y3061750D02*
D03*
Y3072250D02*
D03*
X3200000Y3026250D02*
D03*
Y3015750D02*
D03*
X3192000Y3026250D02*
D03*
Y3015750D02*
D03*
X3165000Y3028750D02*
D03*
Y3039250D02*
D03*
X3211000Y3061250D02*
D03*
Y3050750D02*
D03*
X3143000Y3028750D02*
D03*
Y3039250D02*
D03*
X3134000Y3028750D02*
D03*
Y3039250D02*
D03*
X3181000Y3023500D02*
D03*
Y3034000D02*
D03*
X3156000Y3028750D02*
D03*
Y3039250D02*
D03*
X3329000Y2807750D02*
D03*
Y2818250D02*
D03*
X3321000D02*
D03*
Y2807750D02*
D03*
D73*
X3013200Y3182700D02*
D03*
X3002200D02*
D03*
X2991200D02*
D03*
X2980200D02*
D03*
X2969200D02*
D03*
X2958200D02*
D03*
X2947200D02*
D03*
X2936200D02*
D03*
X3503200D02*
D03*
X3492200D02*
D03*
X3481200D02*
D03*
X3470200D02*
D03*
X3459200D02*
D03*
X3448200D02*
D03*
X3437200D02*
D03*
X3426200D02*
D03*
D74*
X3024000Y3177700D02*
D03*
X3514000D02*
D03*
D75*
X2897400Y3182550D02*
D03*
X3387400D02*
D03*
D76*
X2960950Y3057300D02*
D03*
X3450950D02*
D03*
D77*
X2918300Y3058050D02*
D03*
X3408300D02*
D03*
D78*
X2895200Y3070050D02*
D03*
X3024800D02*
D03*
X3385200D02*
D03*
X3514800D02*
D03*
D79*
X3191250Y3042000D02*
D03*
X3200750D02*
D03*
X3559250Y2979000D02*
D03*
X3548750D02*
D03*
X3479750Y3028000D02*
D03*
X3490250D02*
D03*
X3479750Y3040000D02*
D03*
X3490250D02*
D03*
X3544250Y3043000D02*
D03*
Y3051000D02*
D03*
X3533750Y3060000D02*
D03*
X3544250D02*
D03*
X3531750Y3034000D02*
D03*
X3542250D02*
D03*
X3096250Y2726000D02*
D03*
X3085750D02*
D03*
X3127500Y2769000D02*
D03*
X3138000D02*
D03*
X3127750Y2780000D02*
D03*
X3138250D02*
D03*
Y2793000D02*
D03*
X3127750D02*
D03*
X3267500Y3021000D02*
D03*
X3257000D02*
D03*
X3267500Y3030000D02*
D03*
X3257000D02*
D03*
X3273750Y3012000D02*
D03*
X3284250D02*
D03*
X3122250Y3038000D02*
D03*
X3111750D02*
D03*
X3586250Y2924000D02*
D03*
X3575750D02*
D03*
X3586250Y2875000D02*
D03*
X3575750D02*
D03*
X3586250Y2825000D02*
D03*
X3575750D02*
D03*
X3586250Y2775000D02*
D03*
X3575750D02*
D03*
X3211250Y3042000D02*
D03*
X3122250Y3047000D02*
D03*
X3111750D02*
D03*
X3122250Y3029000D02*
D03*
X3111750D02*
D03*
X3180750Y3042000D02*
D03*
X3533750Y3051000D02*
D03*
Y3043000D02*
D03*
X3347750Y2914000D02*
D03*
X3358250D02*
D03*
X3021250Y2715000D02*
D03*
X3010750D02*
D03*
X2997250D02*
D03*
X2986750D02*
D03*
X3010750Y2729000D02*
D03*
X3021250D02*
D03*
Y2737000D02*
D03*
X3010750D02*
D03*
X3002250D02*
D03*
X2991750D02*
D03*
X3035750Y2815000D02*
D03*
X3046250D02*
D03*
Y2823000D02*
D03*
X3035750D02*
D03*
X3027250D02*
D03*
X3016750D02*
D03*
D80*
X2858000Y3056000D02*
D03*
Y3051000D02*
D03*
Y3046000D02*
D03*
Y3041000D02*
D03*
Y3036000D02*
D03*
Y3031000D02*
D03*
Y3026000D02*
D03*
Y3021000D02*
D03*
Y3016000D02*
D03*
Y3011000D02*
D03*
Y3006000D02*
D03*
Y3001000D02*
D03*
Y2996000D02*
D03*
Y2991000D02*
D03*
Y2986000D02*
D03*
Y2981000D02*
D03*
Y2976000D02*
D03*
Y2971000D02*
D03*
Y2966000D02*
D03*
Y2961000D02*
D03*
Y2956000D02*
D03*
Y2951000D02*
D03*
Y2946000D02*
D03*
Y2941000D02*
D03*
Y2936000D02*
D03*
Y2931000D02*
D03*
Y2926000D02*
D03*
Y2921000D02*
D03*
Y2916000D02*
D03*
Y2911000D02*
D03*
Y2906000D02*
D03*
Y2901000D02*
D03*
Y2896000D02*
D03*
Y2891000D02*
D03*
Y2886000D02*
D03*
Y2881000D02*
D03*
Y2876000D02*
D03*
Y2871000D02*
D03*
Y2866000D02*
D03*
Y2861000D02*
D03*
D81*
X2841000Y2844300D02*
D03*
Y3072700D02*
D03*
D82*
X2889000Y2827000D02*
D03*
Y2863000D02*
D03*
D83*
X2891000Y2813000D02*
D03*
Y2783000D02*
D03*
X3277000Y2818000D02*
D03*
Y2788000D02*
D03*
D84*
X2851500Y2813750D02*
D03*
X2842000D02*
D03*
X2832500D02*
D03*
Y2786250D02*
D03*
X2842000D02*
D03*
X2851500D02*
D03*
D85*
X2864000Y2784000D02*
D03*
Y2800000D02*
D03*
X2873000Y2831000D02*
D03*
Y2847000D02*
D03*
X2906000Y2865000D02*
D03*
Y2849000D02*
D03*
D86*
X3532250Y2967775D02*
D03*
Y2974125D02*
D03*
Y2980475D02*
D03*
Y2986825D02*
D03*
Y2993175D02*
D03*
Y2999525D02*
D03*
Y3005875D02*
D03*
Y3012225D02*
D03*
X3477750Y2967775D02*
D03*
Y2974125D02*
D03*
Y2980475D02*
D03*
Y2986825D02*
D03*
Y2993175D02*
D03*
Y2999525D02*
D03*
Y3005875D02*
D03*
Y3012225D02*
D03*
D87*
X3064775Y2738750D02*
D03*
X3071125D02*
D03*
X3077475D02*
D03*
X3083825D02*
D03*
X3090175D02*
D03*
X3096525D02*
D03*
X3102875D02*
D03*
X3109225D02*
D03*
X3064775Y2793250D02*
D03*
X3071125D02*
D03*
X3077475D02*
D03*
X3083825D02*
D03*
X3090175D02*
D03*
X3096525D02*
D03*
X3102875D02*
D03*
X3109225D02*
D03*
D88*
X3197600Y2694000D02*
D03*
X3210300D02*
D03*
X3223000D02*
D03*
X3235700D02*
D03*
X3197600Y2770900D02*
D03*
X3210300D02*
D03*
X3223000D02*
D03*
X3235700D02*
D03*
D89*
X3216650Y2732450D02*
D03*
D90*
X3317000Y3002750D02*
D03*
Y2977250D02*
D03*
D91*
X3313000Y2910000D02*
D03*
Y2888000D02*
D03*
X3329000D02*
D03*
Y2910000D02*
D03*
D92*
X3200000Y2925000D02*
D03*
D93*
X3138000Y3002250D02*
D03*
X3142000D02*
D03*
X3146000D02*
D03*
X3150000D02*
D03*
X3154000D02*
D03*
X3158000D02*
D03*
X3162000D02*
D03*
X3166000D02*
D03*
X3170000D02*
D03*
X3174000D02*
D03*
X3178000D02*
D03*
X3182000D02*
D03*
X3186000D02*
D03*
X3190000D02*
D03*
X3194000D02*
D03*
X3198000D02*
D03*
X3202000D02*
D03*
X3206000D02*
D03*
X3210000D02*
D03*
X3214000D02*
D03*
X3218000D02*
D03*
X3222000D02*
D03*
X3226000D02*
D03*
X3230000D02*
D03*
X3234000D02*
D03*
X3238000D02*
D03*
X3242000D02*
D03*
X3246000D02*
D03*
X3250000D02*
D03*
X3254000D02*
D03*
X3258000D02*
D03*
X3262000D02*
D03*
Y2847750D02*
D03*
X3258000D02*
D03*
X3254000D02*
D03*
X3250000D02*
D03*
X3246000D02*
D03*
X3242000D02*
D03*
X3238000D02*
D03*
X3234000D02*
D03*
X3230000D02*
D03*
X3226000D02*
D03*
X3222000D02*
D03*
X3218000D02*
D03*
X3214000D02*
D03*
X3210000D02*
D03*
X3206000D02*
D03*
X3202000D02*
D03*
X3198000D02*
D03*
X3194000D02*
D03*
X3190000D02*
D03*
X3186000D02*
D03*
X3182000D02*
D03*
X3178000D02*
D03*
X3174000D02*
D03*
X3170000D02*
D03*
X3166000D02*
D03*
X3162000D02*
D03*
X3158000D02*
D03*
X3154000D02*
D03*
X3150000D02*
D03*
X3146000D02*
D03*
X3142000D02*
D03*
X3138000D02*
D03*
D94*
X3277250Y2987000D02*
D03*
Y2983000D02*
D03*
Y2979000D02*
D03*
Y2975000D02*
D03*
Y2963000D02*
D03*
Y2959000D02*
D03*
Y2955000D02*
D03*
Y2951000D02*
D03*
Y2947000D02*
D03*
Y2943000D02*
D03*
Y2939000D02*
D03*
Y2935000D02*
D03*
Y2931000D02*
D03*
Y2927000D02*
D03*
Y2923000D02*
D03*
Y2919000D02*
D03*
Y2915000D02*
D03*
Y2911000D02*
D03*
Y2907000D02*
D03*
Y2903000D02*
D03*
Y2899000D02*
D03*
Y2895000D02*
D03*
Y2891000D02*
D03*
Y2887000D02*
D03*
Y2883000D02*
D03*
Y2879000D02*
D03*
Y2875000D02*
D03*
Y2871000D02*
D03*
Y2867000D02*
D03*
Y2863000D02*
D03*
X3122750D02*
D03*
Y2867000D02*
D03*
Y2871000D02*
D03*
Y2875000D02*
D03*
Y2879000D02*
D03*
Y2883000D02*
D03*
Y2887000D02*
D03*
Y2891000D02*
D03*
Y2895000D02*
D03*
Y2899000D02*
D03*
Y2903000D02*
D03*
Y2907000D02*
D03*
Y2911000D02*
D03*
Y2915000D02*
D03*
Y2919000D02*
D03*
Y2923000D02*
D03*
Y2927000D02*
D03*
Y2931000D02*
D03*
Y2935000D02*
D03*
Y2939000D02*
D03*
Y2943000D02*
D03*
Y2947000D02*
D03*
Y2951000D02*
D03*
Y2955000D02*
D03*
Y2959000D02*
D03*
Y2963000D02*
D03*
Y2967000D02*
D03*
Y2971000D02*
D03*
Y2975000D02*
D03*
Y2979000D02*
D03*
Y2983000D02*
D03*
Y2987000D02*
D03*
X3277250Y2971000D02*
D03*
Y2967000D02*
D03*
D95*
X3291000Y2865000D02*
D03*
X3307000D02*
D03*
D96*
X2878000Y2747000D02*
D03*
X2836000D02*
D03*
D97*
X2913000Y2692000D02*
D03*
X2919500D02*
D03*
X2926000D02*
D03*
X2932500D02*
D03*
X2939000D02*
D03*
X3313000Y3158000D02*
D03*
X3306500D02*
D03*
X3300000D02*
D03*
X3293500D02*
D03*
X3287000D02*
D03*
X3115000Y2692000D02*
D03*
X3121500D02*
D03*
X3128000D02*
D03*
X3134500D02*
D03*
X3141000D02*
D03*
D98*
X2936000Y2665000D02*
D03*
X2916000D02*
D03*
X3290000Y3185000D02*
D03*
X3310000D02*
D03*
X3138000Y2665000D02*
D03*
X3118000D02*
D03*
D99*
X3050500Y3070000D02*
D03*
X3121500Y3155000D02*
D03*
Y3125000D02*
D03*
X3119500Y3085000D02*
D03*
D100*
X3579000Y2900000D02*
D03*
X3531000D02*
D03*
X3579000Y2850000D02*
D03*
X3531000D02*
D03*
X3579000Y2800000D02*
D03*
X3531000D02*
D03*
X3579000Y2750000D02*
D03*
X3531000D02*
D03*
X3288000Y3045000D02*
D03*
X3336000D02*
D03*
D101*
X3558000Y3037000D02*
D03*
Y3043500D02*
D03*
Y3050000D02*
D03*
Y3056500D02*
D03*
Y3063000D02*
D03*
D102*
X3585000Y3060000D02*
D03*
Y3040000D02*
D03*
D103*
X2954000Y2746500D02*
D03*
Y2765500D02*
D03*
X2978000D02*
D03*
Y2756000D02*
D03*
Y2746500D02*
D03*
X2979000Y2832500D02*
D03*
Y2851500D02*
D03*
X3003000D02*
D03*
Y2842000D02*
D03*
Y2832500D02*
D03*
D104*
X2950000Y2783000D02*
D03*
X2968000D02*
D03*
X3045000Y2837000D02*
D03*
X3027000D02*
D03*
X3020000Y2751000D02*
D03*
X3002000D02*
D03*
X2975000Y2869000D02*
D03*
X2993000D02*
D03*
D105*
X2869500Y2747000D02*
D03*
X2844500D02*
D03*
X3353200Y2896300D02*
D03*
X3476250Y2871800D02*
D03*
X3455950D02*
D03*
X3435650D02*
D03*
X3415350D02*
D03*
X3395050D02*
D03*
X3374750D02*
D03*
X3497800Y2896300D02*
D03*
X3472400D02*
D03*
X3378600D02*
D03*
D106*
X2891000Y2665000D02*
D03*
X2961000D02*
D03*
X3335000Y3185000D02*
D03*
X3265000D02*
D03*
X3093000Y2665000D02*
D03*
X3163000D02*
D03*
D107*
X2901000Y2692000D02*
D03*
X2951000D02*
D03*
X3325000Y3158000D02*
D03*
X3275000D02*
D03*
X3558000Y3025000D02*
D03*
Y3075000D02*
D03*
X3103000Y2692000D02*
D03*
X3153000D02*
D03*
D108*
X3362000Y2760000D02*
D03*
X3489000D02*
D03*
D109*
X3344850Y2728300D02*
D03*
X3506150D02*
D03*
D110*
X3085000Y3100000D02*
D03*
Y3170000D02*
D03*
D111*
X3214500Y3168000D02*
D03*
X3189500D02*
D03*
D112*
X3585000Y3015000D02*
D03*
Y3085000D02*
D03*
D113*
X3565000Y2685000D02*
D03*
Y3165000D02*
D03*
X2835000D02*
D03*
Y2685000D02*
D03*
X3200000Y2925000D02*
D03*
M02*
