G04 Layer_Physical_Order=2*
G04 Layer_Color=36540*
%FSLAX44Y44*%
%MOMM*%
G71*
G01*
G75*
%ADD52C,1.5000*%
%ADD53O,1.2000X1.9000*%
%ADD54C,1.4500*%
%ADD56C,2.0000*%
%ADD60C,3.0000*%
%ADD61C,0.6000*%
G36*
X3596941Y3087590D02*
X3595671Y3087338D01*
X3595069Y3088792D01*
X3593863Y3090363D01*
X3592292Y3091569D01*
X3590463Y3092326D01*
X3588500Y3092585D01*
X3581500D01*
X3579537Y3092326D01*
X3577708Y3091569D01*
X3576136Y3090363D01*
X3574931Y3088792D01*
X3574174Y3086963D01*
X3573915Y3085000D01*
X3574174Y3083037D01*
X3574931Y3081208D01*
X3576136Y3079637D01*
X3577708Y3078431D01*
X3579537Y3077674D01*
X3581500Y3077415D01*
X3588500D01*
X3590463Y3077674D01*
X3592292Y3078431D01*
X3593863Y3079637D01*
X3595069Y3081208D01*
X3595671Y3082662D01*
X3596941Y3082410D01*
Y3017590D01*
X3595671Y3017338D01*
X3595069Y3018792D01*
X3593863Y3020363D01*
X3592292Y3021569D01*
X3590463Y3022326D01*
X3588500Y3022585D01*
X3581500D01*
X3579537Y3022326D01*
X3577708Y3021569D01*
X3576136Y3020363D01*
X3574931Y3018792D01*
X3574174Y3016963D01*
X3573915Y3015000D01*
X3574174Y3013037D01*
X3574931Y3011208D01*
X3576136Y3009637D01*
X3577708Y3008431D01*
X3579537Y3007674D01*
X3581500Y3007415D01*
X3588500D01*
X3590463Y3007674D01*
X3592292Y3008431D01*
X3593863Y3009637D01*
X3595069Y3011208D01*
X3595671Y3012662D01*
X3596941Y3012410D01*
Y2653058D01*
X3165590D01*
X3165338Y2654329D01*
X3166792Y2654931D01*
X3168363Y2656137D01*
X3169569Y2657708D01*
X3170327Y2659537D01*
X3170585Y2661500D01*
Y2668500D01*
X3170327Y2670463D01*
X3169569Y2672292D01*
X3168363Y2673863D01*
X3166792Y2675069D01*
X3164963Y2675826D01*
X3163000Y2676085D01*
X3161037Y2675826D01*
X3159207Y2675069D01*
X3157637Y2673863D01*
X3156431Y2672292D01*
X3155674Y2670463D01*
X3155415Y2668500D01*
Y2661500D01*
X3155674Y2659537D01*
X3156431Y2657708D01*
X3157637Y2656137D01*
X3159207Y2654931D01*
X3160663Y2654329D01*
X3160410Y2653058D01*
X3095590D01*
X3095338Y2654329D01*
X3096792Y2654931D01*
X3098363Y2656137D01*
X3099569Y2657708D01*
X3100327Y2659537D01*
X3100585Y2661500D01*
Y2668500D01*
X3100327Y2670463D01*
X3099569Y2672292D01*
X3098363Y2673863D01*
X3096792Y2675069D01*
X3094963Y2675826D01*
X3093000Y2676085D01*
X3091037Y2675826D01*
X3089207Y2675069D01*
X3087637Y2673863D01*
X3086431Y2672292D01*
X3085674Y2670463D01*
X3085415Y2668500D01*
Y2661500D01*
X3085674Y2659537D01*
X3086431Y2657708D01*
X3087637Y2656137D01*
X3089207Y2654931D01*
X3090663Y2654329D01*
X3090410Y2653058D01*
X2963590D01*
X2963337Y2654329D01*
X2964792Y2654931D01*
X2966363Y2656137D01*
X2967569Y2657708D01*
X2968326Y2659537D01*
X2968585Y2661500D01*
Y2668500D01*
X2968326Y2670463D01*
X2967569Y2672292D01*
X2966363Y2673863D01*
X2964792Y2675069D01*
X2962963Y2675826D01*
X2961000Y2676085D01*
X2959037Y2675826D01*
X2957208Y2675069D01*
X2955637Y2673863D01*
X2954431Y2672292D01*
X2953673Y2670463D01*
X2953415Y2668500D01*
Y2661500D01*
X2953673Y2659537D01*
X2954431Y2657708D01*
X2955637Y2656137D01*
X2957208Y2654931D01*
X2958662Y2654329D01*
X2958410Y2653058D01*
X2893590D01*
X2893337Y2654329D01*
X2894792Y2654931D01*
X2896363Y2656137D01*
X2897569Y2657708D01*
X2898326Y2659537D01*
X2898585Y2661500D01*
Y2668500D01*
X2898326Y2670463D01*
X2897569Y2672292D01*
X2896363Y2673863D01*
X2894792Y2675069D01*
X2892963Y2675826D01*
X2891000Y2676085D01*
X2889037Y2675826D01*
X2887208Y2675069D01*
X2885637Y2673863D01*
X2884431Y2672292D01*
X2883673Y2670463D01*
X2883415Y2668500D01*
Y2661500D01*
X2883673Y2659537D01*
X2884431Y2657708D01*
X2885637Y2656137D01*
X2887208Y2654931D01*
X2888662Y2654329D01*
X2888410Y2653058D01*
X2803058D01*
Y3196941D01*
X3596941D01*
Y3087590D01*
D02*
G37*
%LPC*%
G36*
X3238000Y2866609D02*
X3236236Y2866258D01*
X3234772Y2865280D01*
X3234457Y2865100D01*
X3233543D01*
X3233228Y2865280D01*
X3231764Y2866258D01*
X3230000Y2866609D01*
X3228236Y2866258D01*
X3226741Y2865259D01*
X3225742Y2863764D01*
X3225392Y2862000D01*
X3225742Y2860237D01*
X3226741Y2858741D01*
X3228236Y2857742D01*
X3230000Y2857391D01*
X3231764Y2857742D01*
X3233259Y2858741D01*
X3233365Y2858900D01*
X3234635D01*
X3234741Y2858741D01*
X3236236Y2857742D01*
X3238000Y2857391D01*
X3239763Y2857742D01*
X3241259Y2858741D01*
X3242258Y2860237D01*
X3242609Y2862000D01*
X3242258Y2863764D01*
X3241259Y2865259D01*
X3239763Y2866258D01*
X3238000Y2866609D01*
D02*
G37*
G36*
X3288000Y2876609D02*
X3286236Y2876258D01*
X3284741Y2875259D01*
X3283742Y2873764D01*
X3283391Y2872000D01*
X3283742Y2870236D01*
X3284741Y2868741D01*
X3286236Y2867742D01*
X3288000Y2867391D01*
X3289763Y2867742D01*
X3291259Y2868741D01*
X3292258Y2870236D01*
X3292609Y2872000D01*
X3292258Y2873764D01*
X3291259Y2875259D01*
X3289763Y2876258D01*
X3288000Y2876609D01*
D02*
G37*
G36*
X3455950Y2880898D02*
X3453595Y2880588D01*
X3451401Y2879679D01*
X3449517Y2878233D01*
X3448071Y2876349D01*
X3447162Y2874155D01*
X3446852Y2871800D01*
X3447162Y2869445D01*
X3448071Y2867251D01*
X3449517Y2865367D01*
X3451401Y2863921D01*
X3453595Y2863012D01*
X3455950Y2862702D01*
X3458305Y2863012D01*
X3460499Y2863921D01*
X3462383Y2865367D01*
X3463829Y2867251D01*
X3464738Y2869445D01*
X3465048Y2871800D01*
X3464738Y2874155D01*
X3463829Y2876349D01*
X3462383Y2878233D01*
X3460499Y2879679D01*
X3458305Y2880588D01*
X3455950Y2880898D01*
D02*
G37*
G36*
X3476250D02*
X3473895Y2880588D01*
X3471701Y2879679D01*
X3469817Y2878233D01*
X3468371Y2876349D01*
X3467462Y2874155D01*
X3467152Y2871800D01*
X3467462Y2869445D01*
X3468371Y2867251D01*
X3469817Y2865367D01*
X3471701Y2863921D01*
X3473895Y2863012D01*
X3476250Y2862702D01*
X3478605Y2863012D01*
X3480799Y2863921D01*
X3482683Y2865367D01*
X3484129Y2867251D01*
X3485038Y2869445D01*
X3485348Y2871800D01*
X3485038Y2874155D01*
X3484129Y2876349D01*
X3482683Y2878233D01*
X3480799Y2879679D01*
X3478605Y2880588D01*
X3476250Y2880898D01*
D02*
G37*
G36*
X3344000Y2888608D02*
X3342236Y2888258D01*
X3340741Y2887259D01*
X3339742Y2885764D01*
X3339391Y2884000D01*
X3339742Y2882236D01*
X3340741Y2880741D01*
X3342236Y2879742D01*
X3344000Y2879391D01*
X3345764Y2879742D01*
X3347259Y2880741D01*
X3348258Y2882236D01*
X3348608Y2884000D01*
X3348258Y2885764D01*
X3347259Y2887259D01*
X3345764Y2888258D01*
X3344000Y2888608D01*
D02*
G37*
G36*
X3265000Y2897609D02*
X3263236Y2897258D01*
X3261741Y2896259D01*
X3260742Y2894763D01*
X3260392Y2893000D01*
X3260742Y2891236D01*
X3261721Y2889772D01*
X3261900Y2889457D01*
Y2888543D01*
X3261721Y2888228D01*
X3260742Y2886764D01*
X3260392Y2885000D01*
X3260742Y2883236D01*
X3261741Y2881741D01*
X3263236Y2880742D01*
X3265000Y2880392D01*
X3266764Y2880742D01*
X3268259Y2881741D01*
X3269258Y2883236D01*
X3269608Y2885000D01*
X3269258Y2886764D01*
X3268279Y2888228D01*
X3268100Y2888543D01*
Y2889457D01*
X3268279Y2889772D01*
X3269258Y2891236D01*
X3269608Y2893000D01*
X3269258Y2894763D01*
X3268259Y2896259D01*
X3266764Y2897258D01*
X3265000Y2897609D01*
D02*
G37*
G36*
X3138000Y2923608D02*
X3136236Y2923258D01*
X3134741Y2922259D01*
X3133742Y2920764D01*
X3133391Y2919000D01*
X3133742Y2917236D01*
X3134720Y2915772D01*
X3134900Y2915457D01*
Y2914543D01*
X3134720Y2914228D01*
X3133742Y2912764D01*
X3133391Y2911000D01*
X3133742Y2909236D01*
X3134720Y2907772D01*
X3134900Y2907457D01*
Y2906543D01*
X3134720Y2906228D01*
X3133742Y2904763D01*
X3133391Y2903000D01*
X3133742Y2901236D01*
X3134676Y2899839D01*
X3134591Y2899261D01*
X3134345Y2898478D01*
X3133236Y2898258D01*
X3131741Y2897259D01*
X3130742Y2895764D01*
X3130392Y2894000D01*
X3130742Y2892236D01*
X3131741Y2890741D01*
X3133236Y2889742D01*
X3133713Y2889648D01*
Y2888353D01*
X3133236Y2888258D01*
X3131741Y2887259D01*
X3130742Y2885764D01*
X3130392Y2884000D01*
X3130742Y2882236D01*
X3131741Y2880741D01*
X3132072Y2880520D01*
X3132127Y2880094D01*
X3131955Y2879071D01*
X3130740Y2878259D01*
X3129741Y2876764D01*
X3129390Y2875000D01*
X3129741Y2873236D01*
X3130740Y2871741D01*
X3132235Y2870742D01*
X3133999Y2870392D01*
X3135762Y2870742D01*
X3137257Y2871741D01*
X3138257Y2873236D01*
X3138607Y2875000D01*
X3138257Y2876764D01*
X3137257Y2878259D01*
X3136927Y2878480D01*
X3136872Y2878906D01*
X3137043Y2879929D01*
X3138259Y2880741D01*
X3139258Y2882236D01*
X3139608Y2884000D01*
X3139258Y2885764D01*
X3138259Y2887259D01*
X3136764Y2888258D01*
X3136287Y2888353D01*
Y2889648D01*
X3136764Y2889742D01*
X3138259Y2890741D01*
X3139258Y2892236D01*
X3139608Y2894000D01*
X3139258Y2895764D01*
X3138324Y2897161D01*
X3138409Y2897739D01*
X3138655Y2898522D01*
X3139763Y2898742D01*
X3141259Y2899741D01*
X3142258Y2901236D01*
X3142609Y2903000D01*
X3142258Y2904763D01*
X3141280Y2906228D01*
X3141100Y2906543D01*
Y2907457D01*
X3141280Y2907772D01*
X3142258Y2909236D01*
X3142609Y2911000D01*
X3142258Y2912764D01*
X3141280Y2914228D01*
X3141100Y2914543D01*
Y2915457D01*
X3141280Y2915772D01*
X3142258Y2917236D01*
X3142609Y2919000D01*
X3142258Y2920764D01*
X3141259Y2922259D01*
X3139763Y2923258D01*
X3138000Y2923608D01*
D02*
G37*
G36*
X2869000Y2880609D02*
X2867236Y2880258D01*
X2865741Y2879259D01*
X2864742Y2877764D01*
X2864391Y2876000D01*
X2864742Y2874236D01*
X2865741Y2872741D01*
X2867236Y2871742D01*
X2869000Y2871391D01*
X2870764Y2871742D01*
X2872259Y2872741D01*
X2873258Y2874236D01*
X2873609Y2876000D01*
X2873258Y2877764D01*
X2872259Y2879259D01*
X2870764Y2880258D01*
X2869000Y2880609D01*
D02*
G37*
G36*
X3435650Y2880898D02*
X3433295Y2880588D01*
X3431101Y2879679D01*
X3429217Y2878233D01*
X3427771Y2876349D01*
X3426862Y2874155D01*
X3426552Y2871800D01*
X3426862Y2869445D01*
X3427771Y2867251D01*
X3429217Y2865367D01*
X3431101Y2863921D01*
X3433295Y2863012D01*
X3435650Y2862702D01*
X3438004Y2863012D01*
X3440199Y2863921D01*
X3442083Y2865367D01*
X3443529Y2867251D01*
X3444438Y2869445D01*
X3444748Y2871800D01*
X3444438Y2874155D01*
X3443529Y2876349D01*
X3442083Y2878233D01*
X3440199Y2879679D01*
X3438004Y2880588D01*
X3435650Y2880898D01*
D02*
G37*
G36*
X3249000Y2866609D02*
X3247236Y2866258D01*
X3245741Y2865259D01*
X3244742Y2863764D01*
X3244391Y2862000D01*
X3244742Y2860237D01*
X3245741Y2858741D01*
X3247236Y2857742D01*
X3249000Y2857391D01*
X3250764Y2857742D01*
X3252259Y2858741D01*
X3253258Y2860237D01*
X3253608Y2862000D01*
X3253258Y2863764D01*
X3252259Y2865259D01*
X3250764Y2866258D01*
X3249000Y2866609D01*
D02*
G37*
G36*
X3213000Y2864608D02*
X3211236Y2864258D01*
X3209741Y2863259D01*
X3208742Y2861764D01*
X3208647Y2861287D01*
X3207353D01*
X3207258Y2861764D01*
X3206259Y2863259D01*
X3204763Y2864258D01*
X3203000Y2864608D01*
X3201236Y2864258D01*
X3199741Y2863259D01*
X3198929Y2862044D01*
X3197905Y2861872D01*
X3197480Y2861927D01*
X3197259Y2862259D01*
X3195764Y2863258D01*
X3194000Y2863608D01*
X3192236Y2863258D01*
X3190741Y2862259D01*
X3189742Y2860764D01*
X3189391Y2859000D01*
X3189742Y2857236D01*
X3190741Y2855741D01*
X3192236Y2854742D01*
X3194000Y2854391D01*
X3195764Y2854742D01*
X3197259Y2855741D01*
X3198070Y2856956D01*
X3199095Y2857128D01*
X3199520Y2857072D01*
X3199741Y2856741D01*
X3201236Y2855742D01*
X3203000Y2855392D01*
X3204763Y2855742D01*
X3206259Y2856741D01*
X3207258Y2858236D01*
X3207353Y2858713D01*
X3208647D01*
X3208742Y2858236D01*
X3209741Y2856741D01*
X3211236Y2855742D01*
X3213000Y2855392D01*
X3214763Y2855742D01*
X3216259Y2856741D01*
X3217258Y2858236D01*
X3217609Y2860000D01*
X3217258Y2861764D01*
X3216259Y2863259D01*
X3214763Y2864258D01*
X3213000Y2864608D01*
D02*
G37*
G36*
X3466000Y2862609D02*
X3464236Y2862258D01*
X3462741Y2861259D01*
X3461742Y2859763D01*
X3461391Y2858000D01*
X3461742Y2856236D01*
X3462741Y2854741D01*
X3464236Y2853742D01*
X3466000Y2853391D01*
X3467764Y2853742D01*
X3469259Y2854741D01*
X3470258Y2856236D01*
X3470609Y2858000D01*
X3470258Y2859763D01*
X3469259Y2861259D01*
X3467764Y2862258D01*
X3466000Y2862609D01*
D02*
G37*
G36*
X3158000Y2863608D02*
X3156236Y2863258D01*
X3154741Y2862259D01*
X3153742Y2860764D01*
X3153391Y2859000D01*
X3153742Y2857236D01*
X3154741Y2855741D01*
X3156236Y2854742D01*
X3158000Y2854391D01*
X3159763Y2854742D01*
X3161259Y2855741D01*
X3162258Y2857236D01*
X3162609Y2859000D01*
X3162258Y2860764D01*
X3161259Y2862259D01*
X3159763Y2863258D01*
X3158000Y2863608D01*
D02*
G37*
G36*
X3415350Y2880898D02*
X3412995Y2880588D01*
X3410801Y2879679D01*
X3408917Y2878233D01*
X3407471Y2876349D01*
X3406562Y2874155D01*
X3406252Y2871800D01*
X3406562Y2869445D01*
X3407471Y2867251D01*
X3408917Y2865367D01*
X3410801Y2863921D01*
X3412995Y2863012D01*
X3415350Y2862702D01*
X3417704Y2863012D01*
X3419899Y2863921D01*
X3421783Y2865367D01*
X3423229Y2867251D01*
X3424138Y2869445D01*
X3424448Y2871800D01*
X3424138Y2874155D01*
X3423229Y2876349D01*
X3421783Y2878233D01*
X3419899Y2879679D01*
X3417704Y2880588D01*
X3415350Y2880898D01*
D02*
G37*
G36*
X3055000Y2883608D02*
X3053236Y2883258D01*
X3051741Y2882259D01*
X3050742Y2880764D01*
X3050392Y2879000D01*
X3050742Y2877236D01*
X3051741Y2875741D01*
Y2875259D01*
X3050742Y2873764D01*
X3050392Y2872000D01*
X3050742Y2870236D01*
X3051741Y2868741D01*
Y2868259D01*
X3050742Y2866764D01*
X3050392Y2865000D01*
X3050742Y2863236D01*
X3051259Y2862464D01*
X3051645Y2861500D01*
X3051259Y2860536D01*
X3050742Y2859763D01*
X3050392Y2858000D01*
X3050742Y2856236D01*
X3051741Y2854741D01*
X3053236Y2853742D01*
X3055000Y2853391D01*
X3056764Y2853742D01*
X3058259Y2854741D01*
X3059258Y2856236D01*
X3059608Y2858000D01*
X3059258Y2859763D01*
X3058741Y2860536D01*
X3058355Y2861500D01*
X3058741Y2862464D01*
X3059258Y2863236D01*
X3059608Y2865000D01*
X3059258Y2866764D01*
X3058259Y2868259D01*
Y2868741D01*
X3059258Y2870236D01*
X3059608Y2872000D01*
X3059258Y2873764D01*
X3058259Y2875259D01*
Y2875741D01*
X3059258Y2877236D01*
X3059608Y2879000D01*
X3059258Y2880764D01*
X3058259Y2882259D01*
X3056764Y2883258D01*
X3055000Y2883608D01*
D02*
G37*
G36*
X3374750Y2880898D02*
X3372395Y2880588D01*
X3370201Y2879679D01*
X3368317Y2878233D01*
X3366871Y2876349D01*
X3365962Y2874155D01*
X3365652Y2871800D01*
X3365962Y2869445D01*
X3366871Y2867251D01*
X3368317Y2865367D01*
X3370201Y2863921D01*
X3372395Y2863012D01*
X3374750Y2862702D01*
X3377105Y2863012D01*
X3379299Y2863921D01*
X3381183Y2865367D01*
X3382629Y2867251D01*
X3383538Y2869445D01*
X3383848Y2871800D01*
X3383538Y2874155D01*
X3382629Y2876349D01*
X3381183Y2878233D01*
X3379299Y2879679D01*
X3377105Y2880588D01*
X3374750Y2880898D01*
D02*
G37*
G36*
X3395050D02*
X3392695Y2880588D01*
X3390501Y2879679D01*
X3388617Y2878233D01*
X3387171Y2876349D01*
X3386262Y2874155D01*
X3385952Y2871800D01*
X3386262Y2869445D01*
X3387171Y2867251D01*
X3388617Y2865367D01*
X3390501Y2863921D01*
X3392695Y2863012D01*
X3395050Y2862702D01*
X3397404Y2863012D01*
X3399599Y2863921D01*
X3401483Y2865367D01*
X3402929Y2867251D01*
X3403838Y2869445D01*
X3404148Y2871800D01*
X3403838Y2874155D01*
X3402929Y2876349D01*
X3401483Y2878233D01*
X3399599Y2879679D01*
X3397404Y2880588D01*
X3395050Y2880898D01*
D02*
G37*
G36*
X2848000Y2955609D02*
X2846236Y2955258D01*
X2844741Y2954259D01*
X2843742Y2952764D01*
X2843391Y2951000D01*
X2843742Y2949236D01*
X2844741Y2947741D01*
X2846236Y2946742D01*
X2846713Y2946647D01*
Y2945352D01*
X2846236Y2945258D01*
X2844741Y2944259D01*
X2843742Y2942764D01*
X2843391Y2941000D01*
X2843742Y2939236D01*
X2842795Y2938368D01*
X2842237Y2938257D01*
X2840742Y2937258D01*
X2839743Y2935763D01*
X2839392Y2934000D01*
X2839743Y2932236D01*
X2840742Y2930741D01*
X2842237Y2929742D01*
X2844001Y2929391D01*
X2845764Y2929742D01*
X2847259Y2930741D01*
X2848258Y2932236D01*
X2848609Y2934000D01*
X2848258Y2935763D01*
X2849206Y2936631D01*
X2849763Y2936742D01*
X2851259Y2937741D01*
X2852258Y2939236D01*
X2852609Y2941000D01*
X2852258Y2942764D01*
X2851259Y2944259D01*
X2849763Y2945258D01*
X2849287Y2945352D01*
Y2946647D01*
X2849763Y2946742D01*
X2851259Y2947741D01*
X2852258Y2949236D01*
X2852609Y2951000D01*
X2852258Y2952764D01*
X2851259Y2954259D01*
X2849763Y2955258D01*
X2848000Y2955609D01*
D02*
G37*
G36*
X2868000Y2940609D02*
X2866236Y2940258D01*
X2864741Y2939259D01*
X2863742Y2937764D01*
X2863391Y2936000D01*
X2863742Y2934236D01*
X2864741Y2932741D01*
X2866236Y2931742D01*
X2868000Y2931391D01*
X2869763Y2931742D01*
X2871259Y2932741D01*
X2872258Y2934236D01*
X2872609Y2936000D01*
X2872258Y2937764D01*
X2871259Y2939259D01*
X2869763Y2940258D01*
X2868000Y2940609D01*
D02*
G37*
G36*
X3568000Y2928608D02*
X3566236Y2928258D01*
X3564741Y2927259D01*
X3563742Y2925764D01*
X3563391Y2924000D01*
X3563742Y2922236D01*
X3564741Y2920741D01*
X3566236Y2919742D01*
X3568000Y2919391D01*
X3569763Y2919742D01*
X3571259Y2920741D01*
X3572258Y2922236D01*
X3572609Y2924000D01*
X3572258Y2925764D01*
X3571259Y2927259D01*
X3569763Y2928258D01*
X3568000Y2928608D01*
D02*
G37*
G36*
X3015000Y2939608D02*
X3013236Y2939258D01*
X3011741Y2938259D01*
X3010742Y2936764D01*
X3010392Y2935000D01*
X3010742Y2933236D01*
X3011741Y2931741D01*
X3013236Y2930742D01*
X3015000Y2930392D01*
X3016764Y2930742D01*
X3017190Y2931027D01*
X3017220Y2931026D01*
X3018514Y2930384D01*
X3018742Y2929236D01*
X3019741Y2927741D01*
X3021236Y2926742D01*
X3023000Y2926391D01*
X3024763Y2926742D01*
X3026228Y2927721D01*
X3026543Y2927900D01*
X3027457D01*
X3027772Y2927721D01*
X3029236Y2926742D01*
X3031000Y2926391D01*
X3032764Y2926742D01*
X3034228Y2927721D01*
X3034543Y2927900D01*
X3035457D01*
X3035772Y2927721D01*
X3037236Y2926742D01*
X3039000Y2926391D01*
X3040764Y2926742D01*
X3042228Y2927721D01*
X3042543Y2927900D01*
X3043457D01*
X3043772Y2927721D01*
X3045237Y2926742D01*
X3047000Y2926391D01*
X3048764Y2926742D01*
X3050259Y2927741D01*
X3050365Y2927900D01*
X3051457D01*
X3051772Y2927721D01*
X3053236Y2926742D01*
X3055000Y2926392D01*
X3056764Y2926742D01*
X3058259Y2927741D01*
X3059258Y2929236D01*
X3059608Y2931000D01*
X3059258Y2932764D01*
X3058259Y2934259D01*
X3056764Y2935258D01*
X3055000Y2935609D01*
X3053236Y2935258D01*
X3051741Y2934259D01*
X3051635Y2934100D01*
X3050543D01*
X3050228Y2934279D01*
X3048764Y2935258D01*
X3047000Y2935609D01*
X3045237Y2935258D01*
X3043772Y2934279D01*
X3043457Y2934100D01*
X3042543D01*
X3042228Y2934279D01*
X3040764Y2935258D01*
X3039000Y2935609D01*
X3037236Y2935258D01*
X3035772Y2934279D01*
X3035457Y2934100D01*
X3034543D01*
X3034228Y2934279D01*
X3032764Y2935258D01*
X3031000Y2935609D01*
X3029236Y2935258D01*
X3027772Y2934279D01*
X3027457Y2934100D01*
X3026543D01*
X3026228Y2934279D01*
X3024763Y2935258D01*
X3023000Y2935609D01*
X3021236Y2935258D01*
X3020810Y2934973D01*
X3020780Y2934974D01*
X3019486Y2935616D01*
X3019258Y2936764D01*
X3018259Y2938259D01*
X3016764Y2939258D01*
X3015000Y2939608D01*
D02*
G37*
G36*
X3332000Y2946609D02*
X3330236Y2946258D01*
X3328741Y2945259D01*
X3327742Y2943764D01*
X3327391Y2942000D01*
X3327742Y2940237D01*
X3328741Y2938741D01*
X3330236Y2937742D01*
X3332000Y2937391D01*
X3333764Y2937742D01*
X3335242Y2938730D01*
X3335323Y2938712D01*
X3336434Y2938214D01*
X3336391Y2938000D01*
X3336742Y2936236D01*
X3337741Y2934741D01*
X3339236Y2933742D01*
X3341000Y2933391D01*
X3342764Y2933742D01*
X3344259Y2934741D01*
X3345258Y2936236D01*
X3345609Y2938000D01*
X3345258Y2939763D01*
X3344259Y2941259D01*
X3342764Y2942258D01*
X3341000Y2942609D01*
X3339236Y2942258D01*
X3337758Y2941270D01*
X3337677Y2941288D01*
X3336566Y2941786D01*
X3336609Y2942000D01*
X3336258Y2943764D01*
X3335259Y2945259D01*
X3333764Y2946258D01*
X3332000Y2946609D01*
D02*
G37*
G36*
X3230000Y2949608D02*
X3228236Y2949258D01*
X3226741Y2948259D01*
X3225742Y2946764D01*
X3225392Y2945000D01*
X3225742Y2943236D01*
X3226741Y2941741D01*
X3228236Y2940742D01*
X3230000Y2940392D01*
X3231764Y2940742D01*
X3233259Y2941741D01*
X3234258Y2943236D01*
X3234608Y2945000D01*
X3234258Y2946764D01*
X3233259Y2948259D01*
X3231764Y2949258D01*
X3230000Y2949608D01*
D02*
G37*
G36*
X3322000D02*
X3320237Y2949258D01*
X3318741Y2948259D01*
X3317742Y2946764D01*
X3317391Y2945000D01*
X3317742Y2943236D01*
X3318741Y2941741D01*
X3320237Y2940742D01*
X3322000Y2940392D01*
X3323764Y2940742D01*
X3325259Y2941741D01*
X3326258Y2943236D01*
X3326609Y2945000D01*
X3326258Y2946764D01*
X3325259Y2948259D01*
X3323764Y2949258D01*
X3322000Y2949608D01*
D02*
G37*
G36*
X3133999Y2947608D02*
X3132236Y2947257D01*
X3130741Y2946258D01*
X3129742Y2944763D01*
X3129391Y2942999D01*
X3129742Y2941236D01*
X3130741Y2939741D01*
X3132236Y2938741D01*
X3133999Y2938391D01*
X3135763Y2938741D01*
X3137258Y2939741D01*
X3138257Y2941236D01*
X3138608Y2942999D01*
X3138257Y2944763D01*
X3137258Y2946258D01*
X3135763Y2947257D01*
X3133999Y2947608D01*
D02*
G37*
G36*
X3266000Y2947609D02*
X3264236Y2947258D01*
X3262741Y2946259D01*
X3261742Y2944763D01*
X3261391Y2943000D01*
X3261742Y2941236D01*
X3262741Y2939741D01*
X3264236Y2938742D01*
X3266000Y2938391D01*
X3267764Y2938742D01*
X3269259Y2939741D01*
X3270258Y2941236D01*
X3270609Y2943000D01*
X3270258Y2944763D01*
X3269259Y2946259D01*
X3267764Y2947258D01*
X3266000Y2947609D01*
D02*
G37*
G36*
X2848000Y2915609D02*
X2846236Y2915258D01*
X2844741Y2914259D01*
X2843742Y2912764D01*
X2843391Y2911000D01*
X2843742Y2909236D01*
X2844741Y2907741D01*
X2846236Y2906742D01*
X2846713Y2906647D01*
Y2905352D01*
X2846236Y2905258D01*
X2844741Y2904259D01*
X2843742Y2902764D01*
X2843391Y2901000D01*
X2843742Y2899236D01*
X2842795Y2898368D01*
X2842237Y2898257D01*
X2840742Y2897258D01*
X2839743Y2895763D01*
X2839392Y2894000D01*
X2839743Y2892236D01*
X2840742Y2890741D01*
X2842237Y2889742D01*
X2844001Y2889391D01*
X2845764Y2889742D01*
X2847259Y2890741D01*
X2848258Y2892236D01*
X2848609Y2894000D01*
X2848258Y2895763D01*
X2849206Y2896631D01*
X2849763Y2896742D01*
X2851259Y2897741D01*
X2852258Y2899236D01*
X2852609Y2901000D01*
X2852258Y2902764D01*
X2851259Y2904259D01*
X2849763Y2905258D01*
X2849287Y2905352D01*
Y2906647D01*
X2849763Y2906742D01*
X2851259Y2907741D01*
X2852258Y2909236D01*
X2852609Y2911000D01*
X2852258Y2912764D01*
X2851259Y2914259D01*
X2849763Y2915258D01*
X2848000Y2915609D01*
D02*
G37*
G36*
X2868000Y2900609D02*
X2866236Y2900258D01*
X2864741Y2899259D01*
X2863742Y2897764D01*
X2863391Y2896000D01*
X2863742Y2894236D01*
X2864741Y2892741D01*
X2866236Y2891742D01*
X2868000Y2891391D01*
X2869763Y2891742D01*
X2871259Y2892741D01*
X2872258Y2894236D01*
X2872609Y2896000D01*
X2872258Y2897764D01*
X2871259Y2899259D01*
X2869763Y2900258D01*
X2868000Y2900609D01*
D02*
G37*
G36*
X3353200Y2905398D02*
X3350845Y2905088D01*
X3348651Y2904179D01*
X3346767Y2902733D01*
X3345321Y2900849D01*
X3344412Y2898655D01*
X3344102Y2896300D01*
X3344412Y2893945D01*
X3345321Y2891751D01*
X3346767Y2889867D01*
X3348651Y2888421D01*
X3350845Y2887512D01*
X3353200Y2887202D01*
X3355555Y2887512D01*
X3357749Y2888421D01*
X3359633Y2889867D01*
X3361079Y2891751D01*
X3361988Y2893945D01*
X3362298Y2896300D01*
X3361988Y2898655D01*
X3361079Y2900849D01*
X3359633Y2902733D01*
X3357749Y2904179D01*
X3355555Y2905088D01*
X3353200Y2905398D01*
D02*
G37*
G36*
X3472400D02*
X3470045Y2905088D01*
X3467851Y2904179D01*
X3465967Y2902733D01*
X3464521Y2900849D01*
X3463612Y2898655D01*
X3463302Y2896300D01*
X3463612Y2893945D01*
X3464521Y2891751D01*
X3465967Y2889867D01*
X3467851Y2888421D01*
X3470045Y2887512D01*
X3472400Y2887202D01*
X3474755Y2887512D01*
X3476949Y2888421D01*
X3478833Y2889867D01*
X3480279Y2891751D01*
X3481188Y2893945D01*
X3481498Y2896300D01*
X3481188Y2898655D01*
X3480279Y2900849D01*
X3478833Y2902733D01*
X3476949Y2904179D01*
X3474755Y2905088D01*
X3472400Y2905398D01*
D02*
G37*
G36*
X2874000Y2910609D02*
X2872236Y2910258D01*
X2870741Y2909259D01*
X2869742Y2907764D01*
X2869391Y2906000D01*
X2869742Y2904236D01*
X2870741Y2902741D01*
X2872236Y2901742D01*
X2874000Y2901391D01*
X2875764Y2901742D01*
X2877259Y2902741D01*
X2878258Y2904236D01*
X2878608Y2906000D01*
X2878258Y2907764D01*
X2877259Y2909259D01*
X2875764Y2910258D01*
X2874000Y2910609D01*
D02*
G37*
G36*
X2869000Y2920609D02*
X2867236Y2920258D01*
X2865741Y2919259D01*
X2864742Y2917764D01*
X2864391Y2916000D01*
X2864742Y2914236D01*
X2865741Y2912741D01*
X2867236Y2911742D01*
X2869000Y2911391D01*
X2870764Y2911742D01*
X2872259Y2912741D01*
X2873258Y2914236D01*
X2873609Y2916000D01*
X2873258Y2917764D01*
X2872259Y2919259D01*
X2870764Y2920258D01*
X2869000Y2920609D01*
D02*
G37*
G36*
X3355000Y2927609D02*
X3353236Y2927258D01*
X3351741Y2926259D01*
X3350742Y2924763D01*
X3350392Y2923000D01*
X3350742Y2921236D01*
X3351741Y2919741D01*
X3353236Y2918742D01*
X3355000Y2918391D01*
X3356764Y2918742D01*
X3358259Y2919741D01*
X3359258Y2921236D01*
X3359608Y2923000D01*
X3359258Y2924763D01*
X3358259Y2926259D01*
X3356764Y2927258D01*
X3355000Y2927609D01*
D02*
G37*
G36*
X3265000Y2930609D02*
X3263236Y2930258D01*
X3261741Y2929259D01*
X3260742Y2927764D01*
X3260392Y2926000D01*
X3260742Y2924236D01*
X3261741Y2922741D01*
X3263236Y2921742D01*
X3263713Y2921647D01*
Y2920352D01*
X3263236Y2920258D01*
X3261741Y2919259D01*
X3260742Y2917764D01*
X3260392Y2916000D01*
X3260742Y2914236D01*
X3261741Y2912741D01*
X3262956Y2911930D01*
X3263127Y2910905D01*
X3263072Y2910480D01*
X3262741Y2910259D01*
X3261742Y2908764D01*
X3261391Y2907000D01*
X3261742Y2905237D01*
X3262741Y2903741D01*
X3264236Y2902742D01*
X3266000Y2902391D01*
X3267764Y2902742D01*
X3269259Y2903741D01*
X3270258Y2905237D01*
X3270609Y2907000D01*
X3270258Y2908764D01*
X3269259Y2910259D01*
X3268044Y2911070D01*
X3267872Y2912095D01*
X3267928Y2912520D01*
X3268259Y2912741D01*
X3269258Y2914236D01*
X3269608Y2916000D01*
X3269258Y2917764D01*
X3268259Y2919259D01*
X3266764Y2920258D01*
X3266287Y2920352D01*
Y2921647D01*
X3266764Y2921742D01*
X3268259Y2922741D01*
X3269258Y2924236D01*
X3269608Y2926000D01*
X3269258Y2927764D01*
X3268259Y2929259D01*
X3266764Y2930258D01*
X3265000Y2930609D01*
D02*
G37*
G36*
X3086000Y2907609D02*
X3084236Y2907258D01*
X3082772Y2906280D01*
X3082457Y2906100D01*
X3081543D01*
X3081228Y2906280D01*
X3079763Y2907258D01*
X3078000Y2907609D01*
X3076236Y2907258D01*
X3074772Y2906280D01*
X3074457Y2906100D01*
X3073543D01*
X3073228Y2906280D01*
X3071764Y2907258D01*
X3070000Y2907609D01*
X3068236Y2907258D01*
X3066741Y2906259D01*
X3065742Y2904763D01*
X3065392Y2903000D01*
X3065742Y2901236D01*
X3066741Y2899741D01*
X3068236Y2898742D01*
X3070000Y2898391D01*
X3071764Y2898742D01*
X3073228Y2899720D01*
X3073543Y2899900D01*
X3074457D01*
X3074772Y2899720D01*
X3076236Y2898742D01*
X3078000Y2898391D01*
X3079763Y2898742D01*
X3081228Y2899720D01*
X3081543Y2899900D01*
X3082457D01*
X3082772Y2899720D01*
X3084236Y2898742D01*
X3086000Y2898391D01*
X3086284Y2898448D01*
X3087511Y2897397D01*
X3087742Y2896236D01*
X3088741Y2894741D01*
X3090236Y2893742D01*
X3092000Y2893391D01*
X3092285Y2893448D01*
X3093511Y2892397D01*
X3093742Y2891236D01*
X3094742Y2889741D01*
X3096237Y2888742D01*
X3098000Y2888391D01*
X3099764Y2888742D01*
X3100631Y2887794D01*
X3100742Y2887236D01*
X3101741Y2885741D01*
X3103236Y2884742D01*
X3105000Y2884391D01*
X3106764Y2884742D01*
X3108259Y2885741D01*
X3109258Y2887236D01*
X3109608Y2889000D01*
X3109258Y2890764D01*
X3108259Y2892259D01*
X3106764Y2893258D01*
X3105000Y2893608D01*
X3103236Y2893258D01*
X3102369Y2894206D01*
X3102258Y2894764D01*
X3101259Y2896259D01*
X3099764Y2897258D01*
X3098000Y2897609D01*
X3097716Y2897552D01*
X3096489Y2898603D01*
X3096258Y2899763D01*
X3095259Y2901259D01*
X3093764Y2902258D01*
X3092000Y2902609D01*
X3091716Y2902552D01*
X3090489Y2903603D01*
X3090258Y2904763D01*
X3089259Y2906259D01*
X3087764Y2907258D01*
X3086000Y2907609D01*
D02*
G37*
G36*
X3489000Y2777856D02*
X3485516Y2777513D01*
X3482167Y2776497D01*
X3479080Y2774847D01*
X3476374Y2772626D01*
X3474153Y2769920D01*
X3472503Y2766833D01*
X3471487Y2763484D01*
X3471144Y2760000D01*
X3471487Y2756516D01*
X3472503Y2753167D01*
X3474153Y2750080D01*
X3476374Y2747374D01*
X3479080Y2745153D01*
X3482167Y2743503D01*
X3485516Y2742487D01*
X3489000Y2742144D01*
X3492484Y2742487D01*
X3495833Y2743503D01*
X3498920Y2745153D01*
X3501626Y2747374D01*
X3503847Y2750080D01*
X3505497Y2753167D01*
X3506513Y2756516D01*
X3506856Y2760000D01*
X3506513Y2763484D01*
X3505497Y2766833D01*
X3503847Y2769920D01*
X3501626Y2772626D01*
X3498920Y2774847D01*
X3495833Y2776497D01*
X3492484Y2777513D01*
X3489000Y2777856D01*
D02*
G37*
G36*
X3030000Y2797609D02*
X3028236Y2797258D01*
X3026741Y2796259D01*
X3025742Y2794763D01*
X3025392Y2793000D01*
X3025742Y2791236D01*
X3026741Y2789741D01*
Y2789259D01*
X3025742Y2787764D01*
X3025392Y2786000D01*
X3025742Y2784236D01*
X3026741Y2782741D01*
Y2782259D01*
X3025742Y2780764D01*
X3025392Y2779000D01*
X3025742Y2777236D01*
X3026259Y2776464D01*
X3026645Y2775500D01*
X3026259Y2774536D01*
X3025742Y2773764D01*
X3025392Y2772000D01*
X3025742Y2770237D01*
X3026741Y2768741D01*
X3026259Y2767536D01*
X3025742Y2766764D01*
X3025392Y2765000D01*
X3025742Y2763236D01*
X3026259Y2762464D01*
X3026645Y2761500D01*
X3026259Y2760536D01*
X3025742Y2759763D01*
X3025392Y2758000D01*
X3025742Y2756236D01*
X3026741Y2754741D01*
Y2754259D01*
X3025742Y2752764D01*
X3025392Y2751000D01*
X3025742Y2749236D01*
X3026741Y2747741D01*
X3028236Y2746742D01*
X3030000Y2746391D01*
X3031764Y2746742D01*
X3033259Y2747741D01*
X3034258Y2749236D01*
X3034608Y2751000D01*
X3034258Y2752764D01*
X3033259Y2754259D01*
Y2754741D01*
X3034258Y2756236D01*
X3034608Y2758000D01*
X3034258Y2759763D01*
X3033741Y2760536D01*
X3033355Y2761500D01*
X3033741Y2762464D01*
X3034258Y2763236D01*
X3034608Y2765000D01*
X3034258Y2766764D01*
X3033259Y2768259D01*
X3033741Y2769464D01*
X3034258Y2770237D01*
X3034608Y2772000D01*
X3034258Y2773764D01*
X3033741Y2774536D01*
X3033355Y2775500D01*
X3033741Y2776464D01*
X3034258Y2777236D01*
X3034608Y2779000D01*
X3034258Y2780764D01*
X3033259Y2782259D01*
Y2782741D01*
X3034258Y2784236D01*
X3034608Y2786000D01*
X3034258Y2787764D01*
X3033259Y2789259D01*
Y2789741D01*
X3034258Y2791236D01*
X3034608Y2793000D01*
X3034258Y2794763D01*
X3033259Y2796259D01*
X3031764Y2797258D01*
X3030000Y2797609D01*
D02*
G37*
G36*
X3290000Y2742609D02*
X3288236Y2742258D01*
X3287000Y2741432D01*
X3285764Y2742258D01*
X3284000Y2742609D01*
X3282236Y2742258D01*
X3281000Y2741432D01*
X3279763Y2742258D01*
X3278000Y2742609D01*
X3276236Y2742258D01*
X3275000Y2741432D01*
X3273764Y2742258D01*
X3272000Y2742609D01*
X3270237Y2742258D01*
X3268741Y2741259D01*
X3267742Y2739763D01*
X3267391Y2738000D01*
X3267742Y2736236D01*
X3268741Y2734741D01*
X3270237Y2733742D01*
X3272000Y2733391D01*
X3273764Y2733742D01*
X3275000Y2734568D01*
X3276236Y2733742D01*
X3278000Y2733391D01*
X3279763Y2733742D01*
X3281000Y2734568D01*
X3282236Y2733742D01*
X3284000Y2733391D01*
X3285764Y2733742D01*
X3287000Y2734568D01*
X3288236Y2733742D01*
X3290000Y2733391D01*
X3291764Y2733742D01*
X3293259Y2734741D01*
X3294258Y2736236D01*
X3294608Y2738000D01*
X3294258Y2739763D01*
X3293259Y2741259D01*
X3291764Y2742258D01*
X3290000Y2742609D01*
D02*
G37*
G36*
X3362000Y2777856D02*
X3358517Y2777513D01*
X3355167Y2776497D01*
X3352080Y2774847D01*
X3349374Y2772626D01*
X3347153Y2769920D01*
X3345503Y2766833D01*
X3344487Y2763484D01*
X3344144Y2760000D01*
X3344487Y2756516D01*
X3345503Y2753167D01*
X3347153Y2750080D01*
X3349374Y2747374D01*
X3352080Y2745153D01*
X3355167Y2743503D01*
X3358517Y2742487D01*
X3362000Y2742144D01*
X3365483Y2742487D01*
X3368833Y2743503D01*
X3371920Y2745153D01*
X3374626Y2747374D01*
X3376847Y2750080D01*
X3378497Y2753167D01*
X3379513Y2756516D01*
X3379856Y2760000D01*
X3379513Y2763484D01*
X3378497Y2766833D01*
X3376847Y2769920D01*
X3374626Y2772626D01*
X3371920Y2774847D01*
X3368833Y2776497D01*
X3365483Y2777513D01*
X3362000Y2777856D01*
D02*
G37*
G36*
X2888000Y2761609D02*
X2886236Y2761258D01*
X2885000Y2760432D01*
X2883764Y2761258D01*
X2882000Y2761609D01*
X2880237Y2761258D01*
X2879000Y2760432D01*
X2877764Y2761258D01*
X2876000Y2761609D01*
X2874236Y2761258D01*
X2872741Y2760259D01*
X2871742Y2758764D01*
X2871391Y2757000D01*
X2871414Y2756887D01*
X2870546Y2755960D01*
X2869500Y2756098D01*
X2867145Y2755788D01*
X2864951Y2754879D01*
X2863067Y2753433D01*
X2861621Y2751549D01*
X2860712Y2749355D01*
X2860402Y2747000D01*
X2860712Y2744645D01*
X2861621Y2742451D01*
X2863067Y2740567D01*
X2864951Y2739121D01*
X2867145Y2738212D01*
X2869500Y2737902D01*
X2870546Y2738040D01*
X2871414Y2737113D01*
X2871391Y2737000D01*
X2871742Y2735237D01*
X2872741Y2733741D01*
X2874236Y2732742D01*
X2876000Y2732391D01*
X2877764Y2732742D01*
X2879000Y2733568D01*
X2880237Y2732742D01*
X2882000Y2732391D01*
X2883764Y2732742D01*
X2885000Y2733568D01*
X2886236Y2732742D01*
X2888000Y2732391D01*
X2889763Y2732742D01*
X2891259Y2733741D01*
X2892258Y2735237D01*
X2892609Y2737000D01*
X2892258Y2738764D01*
X2891259Y2740259D01*
X2889763Y2741258D01*
X2888000Y2741609D01*
X2886236Y2741258D01*
X2885000Y2740432D01*
X2883764Y2741258D01*
X2882000Y2741609D01*
X2880237Y2741258D01*
X2879000Y2740432D01*
X2877962Y2741125D01*
X2877563Y2741895D01*
X2877447Y2742616D01*
X2878288Y2744645D01*
X2878598Y2747000D01*
X2878288Y2749355D01*
X2877447Y2751384D01*
X2877563Y2752104D01*
X2877962Y2752875D01*
X2879000Y2753568D01*
X2880237Y2752742D01*
X2882000Y2752391D01*
X2883764Y2752742D01*
X2885000Y2753568D01*
X2886236Y2752742D01*
X2888000Y2752391D01*
X2889763Y2752742D01*
X2891259Y2753741D01*
X2892258Y2755237D01*
X2892609Y2757000D01*
X2892258Y2758764D01*
X2891259Y2760259D01*
X2889763Y2761258D01*
X2888000Y2761609D01*
D02*
G37*
G36*
X3096525Y2786083D02*
X3094761Y2785733D01*
X3093266Y2784734D01*
X3092267Y2783239D01*
X3091917Y2781475D01*
X3092267Y2779711D01*
X3093266Y2778216D01*
X3094761Y2777217D01*
X3096525Y2776866D01*
X3098289Y2777217D01*
X3099784Y2778216D01*
X3100783Y2779711D01*
X3101133Y2781475D01*
X3100783Y2783239D01*
X3099784Y2784734D01*
X3098289Y2785733D01*
X3096525Y2786083D01*
D02*
G37*
G36*
Y2756133D02*
X3094761Y2755783D01*
X3093266Y2754784D01*
X3092267Y2753289D01*
X3091917Y2751525D01*
X3092267Y2749761D01*
X3093266Y2748266D01*
X3094761Y2747267D01*
X3096525Y2746917D01*
X3098289Y2747267D01*
X3099784Y2748266D01*
X3100783Y2749761D01*
X3101133Y2751525D01*
X3100783Y2753289D01*
X3099784Y2754784D01*
X3098289Y2755783D01*
X3096525Y2756133D01*
D02*
G37*
G36*
X3076000Y2756609D02*
X3074236Y2756258D01*
X3072741Y2755259D01*
X3071742Y2753764D01*
X3071391Y2752000D01*
X3071742Y2750236D01*
X3072741Y2748741D01*
X3074236Y2747742D01*
X3076000Y2747391D01*
X3077764Y2747742D01*
X3079259Y2748741D01*
X3080258Y2750236D01*
X3080609Y2752000D01*
X3080258Y2753764D01*
X3079259Y2755259D01*
X3077764Y2756258D01*
X3076000Y2756609D01*
D02*
G37*
G36*
X3138000Y2744608D02*
X3136236Y2744258D01*
X3134741Y2743259D01*
X3133742Y2741764D01*
X3133391Y2740000D01*
X3133742Y2738236D01*
X3134741Y2736741D01*
X3136236Y2735742D01*
X3138000Y2735392D01*
X3139763Y2735742D01*
X3141259Y2736741D01*
X3142258Y2738236D01*
X3142609Y2740000D01*
X3142258Y2741764D01*
X3141259Y2743259D01*
X3139763Y2744258D01*
X3138000Y2744608D01*
D02*
G37*
G36*
X3223300Y2688608D02*
X3221536Y2688258D01*
X3220041Y2687259D01*
X3219042Y2685764D01*
X3218691Y2684000D01*
X3219042Y2682236D01*
X3220041Y2680741D01*
X3221536Y2679742D01*
X3223300Y2679391D01*
X3225063Y2679742D01*
X3226559Y2680741D01*
X3227558Y2682236D01*
X3227909Y2684000D01*
X3227558Y2685764D01*
X3226559Y2687259D01*
X3225063Y2688258D01*
X3223300Y2688608D01*
D02*
G37*
G36*
X2901000Y2700846D02*
X2898711Y2700544D01*
X2896577Y2699661D01*
X2894745Y2698255D01*
X2893340Y2696423D01*
X2892456Y2694290D01*
X2892154Y2692000D01*
X2892456Y2689711D01*
X2893340Y2687577D01*
X2894745Y2685745D01*
X2896577Y2684339D01*
X2898711Y2683456D01*
X2901000Y2683154D01*
X2903289Y2683456D01*
X2905423Y2684339D01*
X2907255Y2685745D01*
X2908661Y2687577D01*
X2909544Y2689711D01*
X2909846Y2692000D01*
X2909544Y2694290D01*
X2908661Y2696423D01*
X2907255Y2698255D01*
X2905423Y2699661D01*
X2903289Y2700544D01*
X2901000Y2700846D01*
D02*
G37*
G36*
X2835000Y2701600D02*
X2831761Y2701281D01*
X2828647Y2700336D01*
X2825778Y2698802D01*
X2823262Y2696738D01*
X2821198Y2694222D01*
X2819664Y2691353D01*
X2818719Y2688239D01*
X2818400Y2685000D01*
X2818719Y2681761D01*
X2819664Y2678647D01*
X2821198Y2675778D01*
X2823262Y2673262D01*
X2825778Y2671198D01*
X2828647Y2669664D01*
X2831761Y2668719D01*
X2835000Y2668400D01*
X2838239Y2668719D01*
X2841353Y2669664D01*
X2844222Y2671198D01*
X2846738Y2673262D01*
X2848802Y2675778D01*
X2850336Y2678647D01*
X2851281Y2681761D01*
X2851600Y2685000D01*
X2851281Y2688239D01*
X2850336Y2691353D01*
X2848802Y2694222D01*
X2846738Y2696738D01*
X2844222Y2698802D01*
X2841353Y2700336D01*
X2838239Y2701281D01*
X2835000Y2701600D01*
D02*
G37*
G36*
X3565000D02*
X3561761Y2701281D01*
X3558647Y2700336D01*
X3555778Y2698802D01*
X3553262Y2696738D01*
X3551198Y2694222D01*
X3549664Y2691353D01*
X3548719Y2688239D01*
X3548400Y2685000D01*
X3548719Y2681761D01*
X3549664Y2678647D01*
X3551198Y2675778D01*
X3553262Y2673262D01*
X3555778Y2671198D01*
X3558647Y2669664D01*
X3561761Y2668719D01*
X3565000Y2668400D01*
X3568239Y2668719D01*
X3571353Y2669664D01*
X3574222Y2671198D01*
X3576738Y2673262D01*
X3578802Y2675778D01*
X3580336Y2678647D01*
X3581281Y2681761D01*
X3581600Y2685000D01*
X3581281Y2688239D01*
X3580336Y2691353D01*
X3578802Y2694222D01*
X3576738Y2696738D01*
X3574222Y2698802D01*
X3571353Y2700336D01*
X3568239Y2701281D01*
X3565000Y2701600D01*
D02*
G37*
G36*
X3153000Y2700846D02*
X3150710Y2700544D01*
X3148577Y2699661D01*
X3146745Y2698255D01*
X3145339Y2696423D01*
X3144456Y2694290D01*
X3144154Y2692000D01*
X3144456Y2689711D01*
X3145339Y2687577D01*
X3146745Y2685745D01*
X3148577Y2684339D01*
X3150710Y2683456D01*
X3153000Y2683154D01*
X3155289Y2683456D01*
X3157423Y2684339D01*
X3159255Y2685745D01*
X3160661Y2687577D01*
X3161544Y2689711D01*
X3161846Y2692000D01*
X3161544Y2694290D01*
X3160661Y2696423D01*
X3159255Y2698255D01*
X3157423Y2699661D01*
X3155289Y2700544D01*
X3153000Y2700846D01*
D02*
G37*
G36*
X3189000Y2704608D02*
X3187236Y2704258D01*
X3185741Y2703259D01*
X3184742Y2701764D01*
X3184391Y2700000D01*
X3184742Y2698236D01*
X3185741Y2696741D01*
X3187236Y2695742D01*
X3189000Y2695392D01*
X3190764Y2695742D01*
X3192259Y2696741D01*
X3193258Y2698236D01*
X3193608Y2700000D01*
X3193258Y2701764D01*
X3192259Y2703259D01*
X3190764Y2704258D01*
X3189000Y2704608D01*
D02*
G37*
G36*
X2951000Y2700846D02*
X2948711Y2700544D01*
X2946577Y2699661D01*
X2944745Y2698255D01*
X2943340Y2696423D01*
X2942456Y2694290D01*
X2942154Y2692000D01*
X2942456Y2689711D01*
X2943340Y2687577D01*
X2944745Y2685745D01*
X2946577Y2684339D01*
X2948711Y2683456D01*
X2951000Y2683154D01*
X2953289Y2683456D01*
X2955423Y2684339D01*
X2957255Y2685745D01*
X2958661Y2687577D01*
X2959544Y2689711D01*
X2959846Y2692000D01*
X2959544Y2694290D01*
X2958661Y2696423D01*
X2957255Y2698255D01*
X2955423Y2699661D01*
X2953289Y2700544D01*
X2951000Y2700846D01*
D02*
G37*
G36*
X3103000D02*
X3100710Y2700544D01*
X3098577Y2699661D01*
X3096745Y2698255D01*
X3095339Y2696423D01*
X3094456Y2694290D01*
X3094154Y2692000D01*
X3094456Y2689711D01*
X3095339Y2687577D01*
X3096745Y2685745D01*
X3098577Y2684339D01*
X3100710Y2683456D01*
X3103000Y2683154D01*
X3105289Y2683456D01*
X3107423Y2684339D01*
X3109255Y2685745D01*
X3110661Y2687577D01*
X3111544Y2689711D01*
X3111846Y2692000D01*
X3111544Y2694290D01*
X3110661Y2696423D01*
X3109255Y2698255D01*
X3107423Y2699661D01*
X3105289Y2700544D01*
X3103000Y2700846D01*
D02*
G37*
G36*
X3191000Y2785609D02*
X3189236Y2785258D01*
X3187741Y2784259D01*
X3187259D01*
X3185764Y2785258D01*
X3184000Y2785609D01*
X3182236Y2785258D01*
X3180741Y2784259D01*
X3179742Y2782764D01*
X3179391Y2781000D01*
X3179742Y2779236D01*
X3180741Y2777741D01*
X3182236Y2776742D01*
X3184000Y2776391D01*
X3185764Y2776742D01*
X3187259Y2777741D01*
X3187741D01*
X3189236Y2776742D01*
X3191000Y2776391D01*
X3192764Y2776742D01*
X3194259Y2777741D01*
X3195258Y2779236D01*
X3195609Y2781000D01*
X3195258Y2782764D01*
X3194259Y2784259D01*
X3192764Y2785258D01*
X3191000Y2785609D01*
D02*
G37*
G36*
X3189000Y2819608D02*
X3187236Y2819258D01*
X3185741Y2818259D01*
X3184742Y2816764D01*
X3184391Y2815000D01*
X3184742Y2813236D01*
X3185741Y2811741D01*
X3187236Y2810742D01*
X3189000Y2810392D01*
X3190764Y2810742D01*
X3192259Y2811741D01*
X3193258Y2813236D01*
X3193608Y2815000D01*
X3193258Y2816764D01*
X3192259Y2818259D01*
X3190764Y2819258D01*
X3189000Y2819608D01*
D02*
G37*
G36*
X3286000Y2831609D02*
X3284236Y2831258D01*
X3283464Y2830741D01*
X3282500Y2830356D01*
X3281536Y2830741D01*
X3280764Y2831258D01*
X3279000Y2831609D01*
X3277236Y2831258D01*
X3275741Y2830259D01*
X3275259D01*
X3273764Y2831258D01*
X3272000Y2831609D01*
X3270236Y2831258D01*
X3268741Y2830259D01*
X3268259D01*
X3266764Y2831258D01*
X3265000Y2831609D01*
X3263236Y2831258D01*
X3261741Y2830259D01*
X3260742Y2828764D01*
X3260392Y2827000D01*
X3260742Y2825236D01*
X3261741Y2823741D01*
X3263236Y2822742D01*
X3265000Y2822391D01*
X3266764Y2822742D01*
X3268259Y2823741D01*
X3268741D01*
X3270236Y2822742D01*
X3272000Y2822391D01*
X3273764Y2822742D01*
X3275259Y2823741D01*
X3275741D01*
X3277236Y2822742D01*
X3279000Y2822391D01*
X3280764Y2822742D01*
X3281536Y2823258D01*
X3282500Y2823644D01*
X3283464Y2823258D01*
X3284236Y2822742D01*
X3286000Y2822391D01*
X3287764Y2822742D01*
X3289259Y2823741D01*
X3290258Y2825236D01*
X3290609Y2827000D01*
X3290258Y2828764D01*
X3289259Y2830259D01*
X3287764Y2831258D01*
X3286000Y2831609D01*
D02*
G37*
G36*
X3172000Y2819608D02*
X3170237Y2819258D01*
X3168741Y2818259D01*
X3167742Y2816764D01*
X3167391Y2815000D01*
X3167742Y2813236D01*
X3168741Y2811741D01*
X3170237Y2810742D01*
X3172000Y2810392D01*
X3173764Y2810742D01*
X3175259Y2811741D01*
X3176258Y2813236D01*
X3176609Y2815000D01*
X3176258Y2816764D01*
X3175259Y2818259D01*
X3173764Y2819258D01*
X3172000Y2819608D01*
D02*
G37*
G36*
X3205000D02*
X3203236Y2819258D01*
X3201741Y2818259D01*
X3200742Y2816764D01*
X3200392Y2815000D01*
X3200742Y2813236D01*
X3201741Y2811741D01*
X3203236Y2810742D01*
X3205000Y2810392D01*
X3206764Y2810742D01*
X3208259Y2811741D01*
X3209258Y2813236D01*
X3209608Y2815000D01*
X3209258Y2816764D01*
X3208259Y2818259D01*
X3206764Y2819258D01*
X3205000Y2819608D01*
D02*
G37*
G36*
X3270999Y2859608D02*
X3269236Y2859257D01*
X3267740Y2858258D01*
X3266741Y2856763D01*
X3266390Y2855000D01*
X3266741Y2853236D01*
X3267740Y2851741D01*
X3268071Y2851520D01*
X3268127Y2851096D01*
X3267955Y2850070D01*
X3266741Y2849259D01*
X3265742Y2847764D01*
X3265392Y2846000D01*
X3265742Y2844236D01*
X3266741Y2842741D01*
X3268236Y2841742D01*
X3270000Y2841391D01*
X3271764Y2841742D01*
X3273259Y2842741D01*
X3274258Y2844236D01*
X3274608Y2846000D01*
X3274258Y2847764D01*
X3273259Y2849259D01*
X3272928Y2849480D01*
X3272872Y2849904D01*
X3273044Y2850930D01*
X3274258Y2851741D01*
X3275257Y2853236D01*
X3275608Y2855000D01*
X3275257Y2856763D01*
X3274258Y2858258D01*
X3272763Y2859257D01*
X3270999Y2859608D01*
D02*
G37*
G36*
X3129000Y2846609D02*
X3127236Y2846258D01*
X3125772Y2845280D01*
X3125457Y2845100D01*
X3124543D01*
X3124228Y2845280D01*
X3122764Y2846258D01*
X3121000Y2846609D01*
X3119236Y2846258D01*
X3117772Y2845280D01*
X3117457Y2845100D01*
X3116543D01*
X3116228Y2845280D01*
X3114763Y2846258D01*
X3113000Y2846609D01*
X3111236Y2846258D01*
X3109772Y2845280D01*
X3109457Y2845100D01*
X3108543D01*
X3108228Y2845280D01*
X3106764Y2846258D01*
X3105000Y2846609D01*
X3103236Y2846258D01*
X3101741Y2845259D01*
X3100742Y2843764D01*
X3100392Y2842000D01*
X3100742Y2840237D01*
X3101741Y2838741D01*
X3103236Y2837742D01*
X3105000Y2837391D01*
X3106764Y2837742D01*
X3108228Y2838720D01*
X3108543Y2838900D01*
X3109457D01*
X3109772Y2838720D01*
X3111236Y2837742D01*
X3113000Y2837391D01*
X3114763Y2837742D01*
X3116228Y2838720D01*
X3116543Y2838900D01*
X3117457D01*
X3117772Y2838720D01*
X3119236Y2837742D01*
X3121000Y2837391D01*
X3122764Y2837742D01*
X3124228Y2838720D01*
X3124543Y2838900D01*
X3125457D01*
X3125772Y2838720D01*
X3127236Y2837742D01*
X3129000Y2837391D01*
X3130764Y2837742D01*
X3132259Y2838741D01*
X3133258Y2840237D01*
X3133608Y2842000D01*
X3133258Y2843764D01*
X3132259Y2845259D01*
X3130764Y2846258D01*
X3129000Y2846609D01*
D02*
G37*
G36*
X3230000Y2839608D02*
X3228236Y2839258D01*
X3226741Y2838259D01*
X3225742Y2836764D01*
X3225392Y2835000D01*
X3225742Y2833236D01*
X3226741Y2831741D01*
X3228236Y2830742D01*
X3230000Y2830392D01*
X3231764Y2830742D01*
X3233259Y2831741D01*
X3234258Y2833236D01*
X3234608Y2835000D01*
X3234258Y2836764D01*
X3233259Y2838259D01*
X3231764Y2839258D01*
X3230000Y2839608D01*
D02*
G37*
G36*
X3258000Y2840609D02*
X3256236Y2840258D01*
X3254741Y2839259D01*
X3253742Y2837764D01*
X3253391Y2836000D01*
X3253742Y2834236D01*
X3254741Y2832741D01*
X3256236Y2831742D01*
X3258000Y2831391D01*
X3259763Y2831742D01*
X3261259Y2832741D01*
X3262258Y2834236D01*
X3262609Y2836000D01*
X3262258Y2837764D01*
X3261259Y2839259D01*
X3259763Y2840258D01*
X3258000Y2840609D01*
D02*
G37*
G36*
X3154000Y2819608D02*
X3152236Y2819258D01*
X3150741Y2818259D01*
X3149742Y2816764D01*
X3149391Y2815000D01*
X3149742Y2813236D01*
X3150741Y2811741D01*
X3152236Y2810742D01*
X3154000Y2810392D01*
X3155764Y2810742D01*
X3157259Y2811741D01*
X3158258Y2813236D01*
X3158608Y2815000D01*
X3158258Y2816764D01*
X3157259Y2818259D01*
X3155764Y2819258D01*
X3154000Y2819608D01*
D02*
G37*
G36*
X3146000Y2805609D02*
X3144236Y2805258D01*
X3142741Y2804259D01*
X3141742Y2802764D01*
X3141392Y2801000D01*
X3141742Y2799236D01*
X3142741Y2797741D01*
X3144236Y2796742D01*
X3146000Y2796391D01*
X3147764Y2796742D01*
X3149259Y2797741D01*
X3150258Y2799236D01*
X3150609Y2801000D01*
X3150258Y2802764D01*
X3149259Y2804259D01*
X3147764Y2805258D01*
X3146000Y2805609D01*
D02*
G37*
G36*
X3163000D02*
X3161236Y2805258D01*
X3159741Y2804259D01*
X3158742Y2802764D01*
X3158391Y2801000D01*
X3158742Y2799236D01*
X3159741Y2797741D01*
X3161236Y2796742D01*
X3163000Y2796391D01*
X3164763Y2796742D01*
X3166259Y2797741D01*
X3167258Y2799236D01*
X3167609Y2801000D01*
X3167258Y2802764D01*
X3166259Y2804259D01*
X3164763Y2805258D01*
X3163000Y2805609D01*
D02*
G37*
G36*
X3210000Y2794608D02*
X3208236Y2794258D01*
X3206741Y2793259D01*
X3205742Y2791764D01*
X3205392Y2790000D01*
X3205742Y2788236D01*
X3206741Y2786741D01*
X3208236Y2785742D01*
X3210000Y2785392D01*
X3211764Y2785742D01*
X3213259Y2786741D01*
X3214258Y2788236D01*
X3214608Y2790000D01*
X3214258Y2791764D01*
X3213259Y2793259D01*
X3211764Y2794258D01*
X3210000Y2794608D01*
D02*
G37*
G36*
X3226000Y2801609D02*
X3224236Y2801258D01*
X3222741Y2800259D01*
X3221742Y2798764D01*
X3221391Y2797000D01*
X3221742Y2795237D01*
X3222741Y2793741D01*
X3224236Y2792742D01*
X3226000Y2792391D01*
X3227764Y2792742D01*
X3229259Y2793741D01*
X3230258Y2795237D01*
X3230609Y2797000D01*
X3230258Y2798764D01*
X3229259Y2800259D01*
X3227764Y2801258D01*
X3226000Y2801609D01*
D02*
G37*
G36*
X3127750Y2806359D02*
X3125986Y2806008D01*
X3124491Y2805009D01*
X3123492Y2803513D01*
X3123141Y2801750D01*
X3123492Y2799986D01*
X3124491Y2798491D01*
X3125986Y2797492D01*
X3127750Y2797141D01*
X3129514Y2797492D01*
X3131009Y2798491D01*
X3132008Y2799986D01*
X3132358Y2801750D01*
X3132008Y2803513D01*
X3131009Y2805009D01*
X3129514Y2806008D01*
X3127750Y2806359D01*
D02*
G37*
G36*
X3071125Y2809608D02*
X3069361Y2809258D01*
X3067866Y2808259D01*
X3066867Y2806764D01*
X3066516Y2805000D01*
X3066867Y2803236D01*
X3067866Y2801741D01*
X3069361Y2800742D01*
X3071125Y2800392D01*
X3072888Y2800742D01*
X3074384Y2801741D01*
X3075383Y2803236D01*
X3075734Y2805000D01*
X3075383Y2806764D01*
X3074384Y2808259D01*
X3072888Y2809258D01*
X3071125Y2809608D01*
D02*
G37*
G36*
X3180000Y2805609D02*
X3178236Y2805258D01*
X3176741Y2804259D01*
X3175742Y2802764D01*
X3175392Y2801000D01*
X3175742Y2799236D01*
X3176741Y2797741D01*
X3178236Y2796742D01*
X3180000Y2796391D01*
X3181764Y2796742D01*
X3183259Y2797741D01*
X3184258Y2799236D01*
X3184608Y2801000D01*
X3184258Y2802764D01*
X3183259Y2804259D01*
X3181764Y2805258D01*
X3180000Y2805609D01*
D02*
G37*
G36*
X3197000Y2805609D02*
X3195237Y2805258D01*
X3193741Y2804259D01*
X3192742Y2802764D01*
X3192391Y2801000D01*
X3192742Y2799236D01*
X3193741Y2797741D01*
X3195237Y2796742D01*
X3197000Y2796392D01*
X3198764Y2796742D01*
X3200259Y2797741D01*
X3201258Y2799236D01*
X3201609Y2801000D01*
X3201258Y2802764D01*
X3200259Y2804259D01*
X3198764Y2805258D01*
X3197000Y2805609D01*
D02*
G37*
G36*
X2874000Y2950609D02*
X2872236Y2950258D01*
X2870741Y2949259D01*
X2869742Y2947764D01*
X2869391Y2946000D01*
X2869742Y2944236D01*
X2870741Y2942741D01*
X2872236Y2941742D01*
X2874000Y2941391D01*
X2875764Y2941742D01*
X2877259Y2942741D01*
X2878258Y2944236D01*
X2878608Y2946000D01*
X2878258Y2947764D01*
X2877259Y2949259D01*
X2875764Y2950258D01*
X2874000Y2950609D01*
D02*
G37*
G36*
X3522000Y3139608D02*
X3520236Y3139258D01*
X3518741Y3138259D01*
X3517742Y3136764D01*
X3517391Y3135000D01*
X3517742Y3133236D01*
X3518741Y3131741D01*
X3520236Y3130742D01*
X3522000Y3130392D01*
X3523764Y3130742D01*
X3525259Y3131741D01*
X3526258Y3133236D01*
X3526609Y3135000D01*
X3526258Y3136764D01*
X3525259Y3138259D01*
X3523764Y3139258D01*
X3522000Y3139608D01*
D02*
G37*
G36*
X3426200Y3139809D02*
X3424436Y3139458D01*
X3422941Y3138459D01*
X3421942Y3136964D01*
X3421591Y3135200D01*
X3421942Y3133436D01*
X3422941Y3131941D01*
X3424436Y3130942D01*
X3426200Y3130591D01*
X3427964Y3130942D01*
X3429459Y3131941D01*
X3430458Y3133436D01*
X3430809Y3135200D01*
X3430458Y3136964D01*
X3429459Y3138459D01*
X3427964Y3139458D01*
X3426200Y3139809D01*
D02*
G37*
G36*
X3256000Y3114142D02*
X3254236Y3113791D01*
X3252741Y3112792D01*
X3251742Y3111296D01*
X3251391Y3109533D01*
X3251742Y3107769D01*
X3252741Y3106274D01*
X3254236Y3105275D01*
X3256000Y3104924D01*
X3257764Y3105275D01*
X3259259Y3106274D01*
X3260258Y3107769D01*
X3260609Y3109533D01*
X3260258Y3111296D01*
X3259259Y3112792D01*
X3257764Y3113791D01*
X3256000Y3114142D01*
D02*
G37*
G36*
X3360000Y3169608D02*
X3358236Y3169258D01*
X3356741Y3168259D01*
X3355742Y3166764D01*
X3355392Y3165000D01*
X3355742Y3163236D01*
X3356741Y3161741D01*
X3358236Y3160742D01*
X3360000Y3160392D01*
X3360616Y3160514D01*
X3361514Y3159616D01*
X3361391Y3159000D01*
X3361742Y3157236D01*
X3362741Y3155741D01*
X3364236Y3154742D01*
X3366000Y3154391D01*
X3366616Y3154514D01*
X3367514Y3153616D01*
X3367391Y3153000D01*
X3367742Y3151236D01*
X3368741Y3149741D01*
X3370237Y3148742D01*
X3372000Y3148391D01*
X3372616Y3148514D01*
X3373514Y3147616D01*
X3373391Y3147000D01*
X3373742Y3145237D01*
X3374741Y3143741D01*
X3376236Y3142742D01*
X3378000Y3142391D01*
X3378616Y3142514D01*
X3379514Y3141616D01*
X3379391Y3141000D01*
X3379742Y3139236D01*
X3380741Y3137741D01*
X3382236Y3136742D01*
X3384000Y3136391D01*
X3384616Y3136514D01*
X3385514Y3135616D01*
X3385392Y3135000D01*
X3385742Y3133236D01*
X3386741Y3131741D01*
X3388236Y3130742D01*
X3390000Y3130392D01*
X3391764Y3130742D01*
X3393259Y3131741D01*
X3394258Y3133236D01*
X3394608Y3135000D01*
X3394258Y3136764D01*
X3393259Y3138259D01*
X3391764Y3139258D01*
X3390000Y3139608D01*
X3389384Y3139486D01*
X3388486Y3140384D01*
X3388608Y3141000D01*
X3388258Y3142764D01*
X3387259Y3144259D01*
X3385764Y3145258D01*
X3384000Y3145609D01*
X3383384Y3145486D01*
X3382486Y3146384D01*
X3382609Y3147000D01*
X3382258Y3148764D01*
X3381259Y3150259D01*
X3379763Y3151258D01*
X3378000Y3151609D01*
X3377384Y3151486D01*
X3376486Y3152384D01*
X3376609Y3153000D01*
X3376258Y3154763D01*
X3375259Y3156259D01*
X3373764Y3157258D01*
X3372000Y3157609D01*
X3371384Y3157486D01*
X3370486Y3158384D01*
X3370609Y3159000D01*
X3370258Y3160764D01*
X3369259Y3162259D01*
X3367764Y3163258D01*
X3366000Y3163608D01*
X3365384Y3163486D01*
X3364486Y3164384D01*
X3364608Y3165000D01*
X3364258Y3166764D01*
X3363259Y3168259D01*
X3361764Y3169258D01*
X3360000Y3169608D01*
D02*
G37*
G36*
X3314000Y3150609D02*
X3312236Y3150258D01*
X3310741Y3149259D01*
X3309742Y3147764D01*
X3309391Y3146000D01*
X3309742Y3144236D01*
X3310234Y3143500D01*
X3309742Y3142764D01*
X3309391Y3141000D01*
X3309742Y3139236D01*
X3310741Y3137741D01*
X3312236Y3136742D01*
X3314000Y3136391D01*
X3315764Y3136742D01*
X3317259Y3137741D01*
X3318258Y3139236D01*
X3318608Y3141000D01*
X3318258Y3142764D01*
X3317766Y3143500D01*
X3318258Y3144236D01*
X3318608Y3146000D01*
X3318258Y3147764D01*
X3317259Y3149259D01*
X3315764Y3150258D01*
X3314000Y3150609D01*
D02*
G37*
G36*
X3437200Y3145809D02*
X3435436Y3145458D01*
X3433941Y3144459D01*
X3432942Y3142964D01*
X3432592Y3141200D01*
X3432942Y3139436D01*
X3433941Y3137941D01*
X3435436Y3136942D01*
X3437200Y3136591D01*
X3438964Y3136942D01*
X3440459Y3137941D01*
X3441458Y3139436D01*
X3441808Y3141200D01*
X3441458Y3142964D01*
X3440459Y3144459D01*
X3438964Y3145458D01*
X3437200Y3145809D01*
D02*
G37*
G36*
X3060000Y3132609D02*
X3058236Y3132258D01*
X3056772Y3131280D01*
X3056457Y3131100D01*
X3055543D01*
X3055228Y3131280D01*
X3053764Y3132258D01*
X3052000Y3132609D01*
X3050236Y3132258D01*
X3048741Y3131259D01*
X3047742Y3129763D01*
X3047391Y3128000D01*
X3047742Y3126236D01*
X3048741Y3124741D01*
X3050236Y3123742D01*
X3050713Y3123647D01*
Y3122353D01*
X3050236Y3122258D01*
X3048741Y3121259D01*
X3047742Y3119763D01*
X3047391Y3118000D01*
X3047742Y3116236D01*
X3048741Y3114741D01*
X3050236Y3113742D01*
X3052000Y3113391D01*
X3053764Y3113742D01*
X3055228Y3114720D01*
X3055543Y3114900D01*
X3056457D01*
X3056772Y3114720D01*
X3058236Y3113742D01*
X3060000Y3113391D01*
X3061764Y3113742D01*
X3063259Y3114741D01*
X3064258Y3116236D01*
X3064608Y3118000D01*
X3064258Y3119763D01*
X3063259Y3121259D01*
X3061764Y3122258D01*
X3061287Y3122353D01*
Y3123647D01*
X3061764Y3123742D01*
X3063259Y3124741D01*
X3064258Y3126236D01*
X3064608Y3128000D01*
X3064258Y3129763D01*
X3063259Y3131259D01*
X3061764Y3132258D01*
X3060000Y3132609D01*
D02*
G37*
G36*
X2981000Y3143608D02*
X2979236Y3143258D01*
X2977741Y3142259D01*
X2976742Y3140764D01*
X2976391Y3139000D01*
X2976742Y3137236D01*
X2977741Y3135741D01*
X2979236Y3134742D01*
X2981000Y3134391D01*
X2982764Y3134742D01*
X2984259Y3135741D01*
X2985258Y3137236D01*
X2985609Y3139000D01*
X2985258Y3140764D01*
X2984259Y3142259D01*
X2982764Y3143258D01*
X2981000Y3143608D01*
D02*
G37*
G36*
X3085000Y3107585D02*
X3083037Y3107326D01*
X3081208Y3106569D01*
X3079637Y3105363D01*
X3078431Y3103792D01*
X3077674Y3101963D01*
X3077415Y3100000D01*
X3077674Y3098037D01*
X3078431Y3096208D01*
X3079637Y3094637D01*
X3081208Y3093431D01*
X3083037Y3092674D01*
X3085000Y3092415D01*
X3086963Y3092674D01*
X3088792Y3093431D01*
X3090363Y3094637D01*
X3091569Y3096208D01*
X3092326Y3098037D01*
X3092585Y3100000D01*
X3092326Y3101963D01*
X3091569Y3103792D01*
X3090363Y3105363D01*
X3088792Y3106569D01*
X3086963Y3107326D01*
X3085000Y3107585D01*
D02*
G37*
G36*
X3203000Y3059608D02*
X3201236Y3059258D01*
X3199741Y3058259D01*
X3198742Y3056764D01*
X3198391Y3055000D01*
X3198742Y3053236D01*
X3199741Y3051741D01*
X3201236Y3050742D01*
X3203000Y3050392D01*
X3204763Y3050742D01*
X3206259Y3051741D01*
X3207258Y3053236D01*
X3207609Y3055000D01*
X3207258Y3056764D01*
X3206259Y3058259D01*
X3204763Y3059258D01*
X3203000Y3059608D01*
D02*
G37*
G36*
X3285000Y3068608D02*
X3283236Y3068258D01*
X3281741Y3067259D01*
X3280742Y3065764D01*
X3280392Y3064000D01*
X3280742Y3062236D01*
X3281741Y3060741D01*
X3283236Y3059742D01*
X3285000Y3059391D01*
X3286764Y3059742D01*
X3288259Y3060741D01*
X3289258Y3062236D01*
X3289608Y3064000D01*
X3289258Y3065764D01*
X3288259Y3067259D01*
X3286764Y3068258D01*
X3285000Y3068608D01*
D02*
G37*
G36*
X2878000Y3055609D02*
X2876236Y3055258D01*
X2874741Y3054259D01*
X2873742Y3052764D01*
X2873391Y3051000D01*
X2873742Y3049236D01*
X2874741Y3047741D01*
X2876236Y3046742D01*
X2878000Y3046391D01*
X2879763Y3046742D01*
X2881259Y3047741D01*
X2882258Y3049236D01*
X2882609Y3051000D01*
X2882258Y3052764D01*
X2881259Y3054259D01*
X2879763Y3055258D01*
X2878000Y3055609D01*
D02*
G37*
G36*
X3438000Y3051609D02*
X3436236Y3051258D01*
X3434772Y3050280D01*
X3434457Y3050100D01*
X3433543D01*
X3433228Y3050280D01*
X3431764Y3051258D01*
X3430000Y3051609D01*
X3428236Y3051258D01*
X3426741Y3050259D01*
X3425742Y3048764D01*
X3425392Y3047000D01*
X3425742Y3045237D01*
X3426741Y3043741D01*
X3428236Y3042742D01*
X3430000Y3042391D01*
X3431764Y3042742D01*
X3433228Y3043720D01*
X3433543Y3043900D01*
X3434457D01*
X3434772Y3043720D01*
X3436236Y3042742D01*
X3438000Y3042391D01*
X3439763Y3042742D01*
X3441259Y3043741D01*
X3442258Y3045237D01*
X3442609Y3047000D01*
X3442258Y3048764D01*
X3441259Y3050259D01*
X3439763Y3051258D01*
X3438000Y3051609D01*
D02*
G37*
G36*
X3558000Y3083846D02*
X3555710Y3083544D01*
X3553577Y3082661D01*
X3551745Y3081255D01*
X3550339Y3079423D01*
X3549456Y3077289D01*
X3549154Y3075000D01*
X3549456Y3072711D01*
X3550339Y3070577D01*
X3551745Y3068745D01*
X3553577Y3067339D01*
X3555710Y3066456D01*
X3558000Y3066154D01*
X3560289Y3066456D01*
X3562423Y3067339D01*
X3564255Y3068745D01*
X3565661Y3070577D01*
X3566544Y3072711D01*
X3566846Y3075000D01*
X3566544Y3077289D01*
X3565661Y3079423D01*
X3564255Y3081255D01*
X3562423Y3082661D01*
X3560289Y3083544D01*
X3558000Y3083846D01*
D02*
G37*
G36*
X2878000Y3083608D02*
X2876236Y3083258D01*
X2874741Y3082259D01*
X2873742Y3080764D01*
X2873391Y3079000D01*
X2873742Y3077236D01*
X2874741Y3075741D01*
X2876236Y3074742D01*
X2878000Y3074391D01*
X2879763Y3074742D01*
X2881259Y3075741D01*
X2882258Y3077236D01*
X2882609Y3079000D01*
X2882258Y3080764D01*
X2881259Y3082259D01*
X2879763Y3083258D01*
X2878000Y3083608D01*
D02*
G37*
G36*
Y3069608D02*
X2876236Y3069258D01*
X2874741Y3068259D01*
X2873742Y3066764D01*
X2873391Y3065000D01*
X2873742Y3063236D01*
X2874741Y3061741D01*
X2876236Y3060742D01*
X2878000Y3060392D01*
X2879763Y3060742D01*
X2881259Y3061741D01*
X2882258Y3063236D01*
X2882609Y3065000D01*
X2882258Y3066764D01*
X2881259Y3068259D01*
X2879763Y3069258D01*
X2878000Y3069608D01*
D02*
G37*
G36*
X3087000Y3074608D02*
X3085236Y3074258D01*
X3083741Y3073259D01*
X3082742Y3071764D01*
X3082391Y3070000D01*
X3082742Y3068236D01*
X3083741Y3066741D01*
X3085236Y3065742D01*
X3087000Y3065392D01*
X3088764Y3065742D01*
X3090259Y3066741D01*
X3091258Y3068236D01*
X3091609Y3070000D01*
X3091258Y3071764D01*
X3090259Y3073259D01*
X3088764Y3074258D01*
X3087000Y3074608D01*
D02*
G37*
G36*
X3026250Y3148859D02*
X3024486Y3148508D01*
X3022991Y3147509D01*
X3021992Y3146013D01*
X3021642Y3144250D01*
X3021992Y3142486D01*
X3022991Y3140991D01*
X3024486Y3139992D01*
X3026250Y3139641D01*
X3028014Y3139992D01*
X3029509Y3140991D01*
X3030508Y3142486D01*
X3030858Y3144250D01*
X3030508Y3146013D01*
X3029509Y3147509D01*
X3028014Y3148508D01*
X3026250Y3148859D01*
D02*
G37*
G36*
X3503200Y3169809D02*
X3501436Y3169458D01*
X3499941Y3168459D01*
X3498942Y3166964D01*
X3498592Y3165200D01*
X3498942Y3163436D01*
X3499941Y3161941D01*
X3501436Y3160942D01*
X3503200Y3160591D01*
X3504964Y3160942D01*
X3506459Y3161941D01*
X3507458Y3163436D01*
X3507809Y3165200D01*
X3507458Y3166964D01*
X3506459Y3168459D01*
X3504964Y3169458D01*
X3503200Y3169809D01*
D02*
G37*
G36*
X2953000Y3170609D02*
X2951236Y3170258D01*
X2949741Y3169259D01*
X2948742Y3167764D01*
X2948391Y3166000D01*
X2948742Y3164236D01*
X2949741Y3162741D01*
X2951236Y3161742D01*
X2953000Y3161391D01*
X2954763Y3161742D01*
X2956259Y3162741D01*
X2957258Y3164236D01*
X2957609Y3166000D01*
X2957258Y3167764D01*
X2956259Y3169259D01*
X2954763Y3170258D01*
X2953000Y3170609D01*
D02*
G37*
G36*
X3189500Y3177085D02*
X3187537Y3176826D01*
X3185707Y3176069D01*
X3184137Y3174863D01*
X3182931Y3173293D01*
X3182173Y3171463D01*
X3181915Y3169500D01*
Y3166500D01*
X3182173Y3164537D01*
X3182931Y3162708D01*
X3184137Y3161136D01*
X3185707Y3159931D01*
X3187537Y3159174D01*
X3189500Y3158915D01*
X3191463Y3159174D01*
X3193293Y3159931D01*
X3194863Y3161136D01*
X3196069Y3162708D01*
X3196826Y3164537D01*
X3197085Y3166500D01*
Y3169500D01*
X3196826Y3171463D01*
X3196069Y3173293D01*
X3194863Y3174863D01*
X3193293Y3176069D01*
X3191463Y3176826D01*
X3189500Y3177085D01*
D02*
G37*
G36*
X3214500D02*
X3212537Y3176826D01*
X3210707Y3176069D01*
X3209137Y3174863D01*
X3207931Y3173293D01*
X3207173Y3171463D01*
X3206915Y3169500D01*
Y3166500D01*
X3207173Y3164537D01*
X3207931Y3162708D01*
X3209137Y3161136D01*
X3210707Y3159931D01*
X3212537Y3159174D01*
X3214500Y3158915D01*
X3216463Y3159174D01*
X3218293Y3159931D01*
X3219863Y3161136D01*
X3221069Y3162708D01*
X3221826Y3164537D01*
X3222085Y3166500D01*
Y3169500D01*
X3221826Y3171463D01*
X3221069Y3173293D01*
X3219863Y3174863D01*
X3218293Y3176069D01*
X3216463Y3176826D01*
X3214500Y3177085D01*
D02*
G37*
G36*
X3459200Y3176808D02*
X3457437Y3176458D01*
X3455941Y3175459D01*
X3454942Y3173964D01*
X3454591Y3172200D01*
X3454942Y3170436D01*
X3455941Y3168941D01*
X3457437Y3167942D01*
X3459200Y3167592D01*
X3460964Y3167942D01*
X3462459Y3168941D01*
X3463458Y3170436D01*
X3463809Y3172200D01*
X3463458Y3173964D01*
X3462459Y3175459D01*
X3460964Y3176458D01*
X3459200Y3176808D01*
D02*
G37*
G36*
X2969200Y3177809D02*
X2967437Y3177458D01*
X2965941Y3176459D01*
X2964942Y3174964D01*
X2964591Y3173200D01*
X2964942Y3171436D01*
X2965941Y3169941D01*
X2967437Y3168942D01*
X2969200Y3168592D01*
X2970964Y3168942D01*
X2972459Y3169941D01*
X2973458Y3171436D01*
X2973809Y3173200D01*
X2973458Y3174964D01*
X2972459Y3176459D01*
X2970964Y3177458D01*
X2969200Y3177809D01*
D02*
G37*
G36*
X2979000Y3170609D02*
X2977236Y3170258D01*
X2975741Y3169259D01*
X2974742Y3167764D01*
X2974391Y3166000D01*
X2974742Y3164236D01*
X2975342Y3163339D01*
X2975139Y3162961D01*
X2974502Y3162310D01*
X2973000Y3162609D01*
X2971236Y3162258D01*
X2969741Y3161259D01*
X2968742Y3159763D01*
X2968391Y3158000D01*
X2968742Y3156236D01*
X2969741Y3154741D01*
X2971236Y3153742D01*
X2973000Y3153391D01*
X2974763Y3153742D01*
X2976259Y3154741D01*
X2977258Y3156236D01*
X2977609Y3158000D01*
X2977258Y3159763D01*
X2976658Y3160661D01*
X2976860Y3161039D01*
X2977498Y3161690D01*
X2979000Y3161391D01*
X2980764Y3161742D01*
X2982259Y3162741D01*
X2983258Y3164236D01*
X2983608Y3166000D01*
X2983258Y3167764D01*
X2982259Y3169259D01*
X2980764Y3170258D01*
X2979000Y3170609D01*
D02*
G37*
G36*
X3085000Y3177585D02*
X3083037Y3177326D01*
X3081208Y3176569D01*
X3079637Y3175363D01*
X3078431Y3173792D01*
X3077674Y3171963D01*
X3077415Y3170000D01*
X3077674Y3168037D01*
X3078431Y3166208D01*
X3079637Y3164637D01*
X3081208Y3163431D01*
X3083037Y3162674D01*
X3085000Y3162415D01*
X3086963Y3162674D01*
X3088792Y3163431D01*
X3090363Y3164637D01*
X3091569Y3166208D01*
X3092326Y3168037D01*
X3092585Y3170000D01*
X3092326Y3171963D01*
X3091569Y3173792D01*
X3090363Y3175363D01*
X3088792Y3176569D01*
X3086963Y3177326D01*
X3085000Y3177585D01*
D02*
G37*
G36*
X3492200Y3163809D02*
X3490436Y3163458D01*
X3488941Y3162459D01*
X3487942Y3160964D01*
X3487591Y3159200D01*
X3487942Y3157437D01*
X3488941Y3155941D01*
X3490436Y3154942D01*
X3492200Y3154591D01*
X3493964Y3154942D01*
X3495459Y3155941D01*
X3496458Y3157437D01*
X3496808Y3159200D01*
X3496458Y3160964D01*
X3495459Y3162459D01*
X3493964Y3163458D01*
X3492200Y3163809D01*
D02*
G37*
G36*
X3008000Y3156609D02*
X3006236Y3156258D01*
X3004741Y3155259D01*
X3003742Y3153764D01*
X3003391Y3152000D01*
X3003742Y3150237D01*
X3004741Y3148741D01*
X3006236Y3147742D01*
X3008000Y3147391D01*
X3009763Y3147742D01*
X3011259Y3148741D01*
X3012258Y3150237D01*
X3012609Y3152000D01*
X3012258Y3153764D01*
X3011259Y3155259D01*
X3009763Y3156258D01*
X3008000Y3156609D01*
D02*
G37*
G36*
X2835000Y3181600D02*
X2831761Y3181281D01*
X2828647Y3180336D01*
X2825778Y3178802D01*
X2823262Y3176738D01*
X2821198Y3174222D01*
X2819664Y3171353D01*
X2818719Y3168239D01*
X2818400Y3165000D01*
X2818719Y3161761D01*
X2819664Y3158647D01*
X2821198Y3155778D01*
X2823262Y3153262D01*
X2825778Y3151198D01*
X2828647Y3149664D01*
X2831761Y3148719D01*
X2835000Y3148400D01*
X2838239Y3148719D01*
X2841353Y3149664D01*
X2844222Y3151198D01*
X2846738Y3153262D01*
X2848802Y3155778D01*
X2850336Y3158647D01*
X2851281Y3161761D01*
X2851600Y3165000D01*
X2851281Y3168239D01*
X2850336Y3171353D01*
X2848802Y3174222D01*
X2846738Y3176738D01*
X2844222Y3178802D01*
X2841353Y3180336D01*
X2838239Y3181281D01*
X2835000Y3181600D01*
D02*
G37*
G36*
X3000000Y3149608D02*
X2998236Y3149258D01*
X2996741Y3148259D01*
X2995742Y3146764D01*
X2995392Y3145000D01*
X2995742Y3143236D01*
X2996741Y3141741D01*
X2998236Y3140742D01*
X3000000Y3140392D01*
X3001764Y3140742D01*
X3003259Y3141741D01*
X3004258Y3143236D01*
X3004608Y3145000D01*
X3004258Y3146764D01*
X3003259Y3148259D01*
X3001764Y3149258D01*
X3000000Y3149608D01*
D02*
G37*
G36*
X3448200Y3151808D02*
X3446436Y3151458D01*
X3444941Y3150459D01*
X3443942Y3148964D01*
X3443592Y3147200D01*
X3443942Y3145436D01*
X3444941Y3143941D01*
X3446436Y3142942D01*
X3448200Y3142592D01*
X3449964Y3142942D01*
X3451459Y3143941D01*
X3452458Y3145436D01*
X3452809Y3147200D01*
X3452458Y3148964D01*
X3451459Y3150459D01*
X3449964Y3151458D01*
X3448200Y3151808D01*
D02*
G37*
G36*
X2994000Y3161609D02*
X2992236Y3161258D01*
X2990741Y3160259D01*
X2989742Y3158764D01*
X2989391Y3157000D01*
X2989742Y3155237D01*
X2990741Y3153741D01*
X2992236Y3152742D01*
X2994000Y3152391D01*
X2995764Y3152742D01*
X2997259Y3153741D01*
X2998258Y3155237D01*
X2998608Y3157000D01*
X2998258Y3158764D01*
X2997259Y3160259D01*
X2995764Y3161258D01*
X2994000Y3161609D01*
D02*
G37*
G36*
X2960000Y3162609D02*
X2958236Y3162258D01*
X2956741Y3161259D01*
X2955742Y3159763D01*
X2955392Y3158000D01*
X2955742Y3156236D01*
X2956741Y3154741D01*
X2958236Y3153742D01*
X2960000Y3153391D01*
X2961764Y3153742D01*
X2963259Y3154741D01*
X2964258Y3156236D01*
X2964608Y3158000D01*
X2964258Y3159763D01*
X2963259Y3161259D01*
X2961764Y3162258D01*
X2960000Y3162609D01*
D02*
G37*
G36*
X3565000Y3181600D02*
X3561761Y3181281D01*
X3558647Y3180336D01*
X3555778Y3178802D01*
X3553262Y3176738D01*
X3551198Y3174222D01*
X3549664Y3171353D01*
X3548719Y3168239D01*
X3548400Y3165000D01*
X3548719Y3161761D01*
X3549664Y3158647D01*
X3551198Y3155778D01*
X3553262Y3153262D01*
X3555778Y3151198D01*
X3558647Y3149664D01*
X3561761Y3148719D01*
X3565000Y3148400D01*
X3568239Y3148719D01*
X3571353Y3149664D01*
X3574222Y3151198D01*
X3576738Y3153262D01*
X3578802Y3155778D01*
X3580336Y3158647D01*
X3581281Y3161761D01*
X3581600Y3165000D01*
X3581281Y3168239D01*
X3580336Y3171353D01*
X3578802Y3174222D01*
X3576738Y3176738D01*
X3574222Y3178802D01*
X3571353Y3180336D01*
X3568239Y3181281D01*
X3565000Y3181600D01*
D02*
G37*
G36*
X3470200Y3157809D02*
X3468436Y3157458D01*
X3466941Y3156459D01*
X3465942Y3154964D01*
X3465591Y3153200D01*
X3465942Y3151436D01*
X3466941Y3149941D01*
X3468436Y3148942D01*
X3470200Y3148592D01*
X3471964Y3148942D01*
X3473459Y3149941D01*
X3474458Y3151436D01*
X3474809Y3153200D01*
X3474458Y3154964D01*
X3473459Y3156459D01*
X3471964Y3157458D01*
X3470200Y3157809D01*
D02*
G37*
G36*
X3355000Y2994608D02*
X3353236Y2994258D01*
X3351741Y2993259D01*
X3350742Y2991764D01*
X3350392Y2990000D01*
X3350742Y2988236D01*
X3351741Y2986741D01*
X3353236Y2985742D01*
X3355000Y2985392D01*
X3356764Y2985742D01*
X3358259Y2986741D01*
X3359258Y2988236D01*
X3359608Y2990000D01*
X3359258Y2991764D01*
X3358259Y2993259D01*
X3356764Y2994258D01*
X3355000Y2994608D01*
D02*
G37*
G36*
X3370000D02*
X3368236Y2994258D01*
X3366741Y2993259D01*
X3365742Y2991764D01*
X3365392Y2990000D01*
X3365742Y2988236D01*
X3366741Y2986741D01*
X3368236Y2985742D01*
X3370000Y2985392D01*
X3371764Y2985742D01*
X3373259Y2986741D01*
X3374258Y2988236D01*
X3374608Y2990000D01*
X3374258Y2991764D01*
X3373259Y2993259D01*
X3371764Y2994258D01*
X3370000Y2994608D01*
D02*
G37*
G36*
X3455750Y2987859D02*
X3453987Y2987508D01*
X3452491Y2986509D01*
X3451492Y2985014D01*
X3451141Y2983250D01*
X3451492Y2981487D01*
X3452491Y2979991D01*
X3453987Y2978992D01*
X3455750Y2978641D01*
X3457514Y2978992D01*
X3459009Y2979991D01*
X3460008Y2981487D01*
X3460359Y2983250D01*
X3460008Y2985014D01*
X3459009Y2986509D01*
X3457514Y2987508D01*
X3455750Y2987859D01*
D02*
G37*
G36*
X2874000Y2990609D02*
X2872236Y2990258D01*
X2870741Y2989259D01*
X2869742Y2987764D01*
X2869391Y2986000D01*
X2869742Y2984236D01*
X2870741Y2982741D01*
X2872236Y2981742D01*
X2874000Y2981391D01*
X2875764Y2981742D01*
X2877259Y2982741D01*
X2878258Y2984236D01*
X2878608Y2986000D01*
X2878258Y2987764D01*
X2877259Y2989259D01*
X2875764Y2990258D01*
X2874000Y2990609D01*
D02*
G37*
G36*
X3415000Y2994608D02*
X3413236Y2994258D01*
X3411741Y2993259D01*
X3410742Y2991764D01*
X3410392Y2990000D01*
X3410742Y2988236D01*
X3411741Y2986741D01*
X3413236Y2985742D01*
X3415000Y2985392D01*
X3416764Y2985742D01*
X3418259Y2986741D01*
X3419258Y2988236D01*
X3419608Y2990000D01*
X3419258Y2991764D01*
X3418259Y2993259D01*
X3416764Y2994258D01*
X3415000Y2994608D01*
D02*
G37*
G36*
X3430000D02*
X3428236Y2994258D01*
X3426741Y2993259D01*
X3425742Y2991764D01*
X3425392Y2990000D01*
X3425742Y2988236D01*
X3426741Y2986741D01*
X3428236Y2985742D01*
X3430000Y2985392D01*
X3431764Y2985742D01*
X3433259Y2986741D01*
X3434258Y2988236D01*
X3434608Y2990000D01*
X3434258Y2991764D01*
X3433259Y2993259D01*
X3431764Y2994258D01*
X3430000Y2994608D01*
D02*
G37*
G36*
X3385000D02*
X3383236Y2994258D01*
X3381741Y2993259D01*
X3380742Y2991764D01*
X3380392Y2990000D01*
X3380742Y2988236D01*
X3381741Y2986741D01*
X3383236Y2985742D01*
X3385000Y2985392D01*
X3386764Y2985742D01*
X3388259Y2986741D01*
X3389258Y2988236D01*
X3389608Y2990000D01*
X3389258Y2991764D01*
X3388259Y2993259D01*
X3386764Y2994258D01*
X3385000Y2994608D01*
D02*
G37*
G36*
X3400000D02*
X3398236Y2994258D01*
X3396741Y2993259D01*
X3395742Y2991764D01*
X3395392Y2990000D01*
X3395742Y2988236D01*
X3396741Y2986741D01*
X3398236Y2985742D01*
X3400000Y2985392D01*
X3401764Y2985742D01*
X3403259Y2986741D01*
X3404258Y2988236D01*
X3404608Y2990000D01*
X3404258Y2991764D01*
X3403259Y2993259D01*
X3401764Y2994258D01*
X3400000Y2994608D01*
D02*
G37*
G36*
X3519000Y2982609D02*
X3517236Y2982258D01*
X3515741Y2981259D01*
X3514742Y2979763D01*
X3514391Y2978000D01*
X3514742Y2976236D01*
X3515741Y2974741D01*
X3517236Y2973742D01*
X3519000Y2973391D01*
X3520764Y2973742D01*
X3522259Y2974741D01*
X3523258Y2976236D01*
X3523608Y2978000D01*
X3523258Y2979763D01*
X3522259Y2981259D01*
X3520764Y2982258D01*
X3519000Y2982609D01*
D02*
G37*
G36*
X3141000Y2966609D02*
X3139236Y2966258D01*
X3137741Y2965259D01*
X3136742Y2963764D01*
X3136391Y2962000D01*
X3136635Y2960777D01*
X3136121Y2959831D01*
X3135683Y2959546D01*
X3134236Y2959258D01*
X3132741Y2958259D01*
X3131742Y2956764D01*
X3131391Y2955000D01*
X3131742Y2953236D01*
X3132741Y2951741D01*
X3134236Y2950742D01*
X3136000Y2950392D01*
X3137764Y2950742D01*
X3139259Y2951741D01*
X3139327Y2951843D01*
X3140675Y2951575D01*
X3140742Y2951236D01*
X3141741Y2949741D01*
X3143236Y2948742D01*
X3145000Y2948391D01*
X3146764Y2948742D01*
X3148259Y2949741D01*
X3149258Y2951236D01*
X3149608Y2953000D01*
X3149258Y2954763D01*
X3148259Y2956259D01*
X3146764Y2957258D01*
X3145000Y2957609D01*
X3144785Y2957566D01*
X3144288Y2958677D01*
X3144270Y2958758D01*
X3145258Y2960237D01*
X3145609Y2962000D01*
X3145258Y2963764D01*
X3144259Y2965259D01*
X3142764Y2966258D01*
X3141000Y2966609D01*
D02*
G37*
G36*
X3266000Y2959608D02*
X3264236Y2959258D01*
X3262741Y2958259D01*
X3261742Y2956764D01*
X3261391Y2955000D01*
X3261742Y2953236D01*
X3262741Y2951741D01*
X3264236Y2950742D01*
X3266000Y2950392D01*
X3267764Y2950742D01*
X3269259Y2951741D01*
X3270258Y2953236D01*
X3270609Y2955000D01*
X3270258Y2956764D01*
X3269259Y2958259D01*
X3267764Y2959258D01*
X3266000Y2959608D01*
D02*
G37*
G36*
X3311000Y2951609D02*
X3309236Y2951258D01*
X3307741Y2950259D01*
X3306742Y2948764D01*
X3306391Y2947000D01*
X3306742Y2945237D01*
X3307741Y2943741D01*
X3309236Y2942742D01*
X3311000Y2942391D01*
X3312764Y2942742D01*
X3314259Y2943741D01*
X3315258Y2945237D01*
X3315609Y2947000D01*
X3315258Y2948764D01*
X3314259Y2950259D01*
X3312764Y2951258D01*
X3311000Y2951609D01*
D02*
G37*
G36*
X3290000Y2956609D02*
X3288236Y2956258D01*
X3286741Y2955259D01*
X3285742Y2953764D01*
X3285392Y2952000D01*
X3285742Y2950237D01*
X3286741Y2948741D01*
X3288236Y2947742D01*
X3290000Y2947391D01*
X3291764Y2947742D01*
X3293259Y2948741D01*
X3294173Y2950110D01*
X3294836Y2950050D01*
X3295419Y2949862D01*
X3295742Y2948236D01*
X3296741Y2946741D01*
X3298236Y2945742D01*
X3300000Y2945392D01*
X3301764Y2945742D01*
X3303259Y2946741D01*
X3304258Y2948236D01*
X3304608Y2950000D01*
X3304258Y2951764D01*
X3303259Y2953259D01*
X3301764Y2954258D01*
X3300000Y2954608D01*
X3298236Y2954258D01*
X3296741Y2953259D01*
X3295827Y2951890D01*
X3295164Y2951950D01*
X3294581Y2952138D01*
X3294258Y2953764D01*
X3293259Y2955259D01*
X3291764Y2956258D01*
X3290000Y2956609D01*
D02*
G37*
G36*
X2848000Y2995609D02*
X2846236Y2995258D01*
X2844741Y2994259D01*
X2843742Y2992764D01*
X2843391Y2991000D01*
X2843742Y2989236D01*
X2844741Y2987741D01*
X2846236Y2986742D01*
X2846713Y2986647D01*
Y2985352D01*
X2846236Y2985258D01*
X2844741Y2984259D01*
X2843742Y2982764D01*
X2843391Y2981000D01*
X2843742Y2979236D01*
X2842795Y2978368D01*
X2842237Y2978257D01*
X2840742Y2977258D01*
X2839743Y2975763D01*
X2839392Y2974000D01*
X2839743Y2972236D01*
X2840742Y2970741D01*
X2842237Y2969742D01*
X2844001Y2969391D01*
X2845764Y2969742D01*
X2847259Y2970741D01*
X2848258Y2972236D01*
X2848609Y2974000D01*
X2848258Y2975763D01*
X2849206Y2976631D01*
X2849763Y2976742D01*
X2851259Y2977741D01*
X2852258Y2979236D01*
X2852609Y2981000D01*
X2852258Y2982764D01*
X2851259Y2984259D01*
X2849763Y2985258D01*
X2849287Y2985352D01*
Y2986647D01*
X2849763Y2986742D01*
X2851259Y2987741D01*
X2852258Y2989236D01*
X2852609Y2991000D01*
X2852258Y2992764D01*
X2851259Y2994259D01*
X2849763Y2995258D01*
X2848000Y2995609D01*
D02*
G37*
G36*
X2868000Y2980609D02*
X2866236Y2980258D01*
X2864741Y2979259D01*
X2863742Y2977764D01*
X2863391Y2976000D01*
X2863742Y2974236D01*
X2864741Y2972741D01*
X2866236Y2971742D01*
X2868000Y2971391D01*
X2869763Y2971742D01*
X2871259Y2972741D01*
X2872258Y2974236D01*
X2872609Y2976000D01*
X2872258Y2977764D01*
X2871259Y2979259D01*
X2869763Y2980258D01*
X2868000Y2980609D01*
D02*
G37*
G36*
X2869000Y2960609D02*
X2867236Y2960258D01*
X2865741Y2959259D01*
X2864742Y2957764D01*
X2864391Y2956000D01*
X2864742Y2954236D01*
X2865741Y2952741D01*
X2867236Y2951742D01*
X2869000Y2951391D01*
X2870764Y2951742D01*
X2872259Y2952741D01*
X2873258Y2954236D01*
X2873609Y2956000D01*
X2873258Y2957764D01*
X2872259Y2959259D01*
X2870764Y2960258D01*
X2869000Y2960609D01*
D02*
G37*
G36*
X3004000Y2957609D02*
X3002236Y2957258D01*
X3000741Y2956259D01*
X2999742Y2954763D01*
X2999391Y2953000D01*
X2999516Y2952375D01*
X2998484Y2951538D01*
X2996720Y2951889D01*
X2994956Y2951538D01*
X2993461Y2950539D01*
X2992462Y2949044D01*
X2992131Y2947381D01*
X2992094Y2947267D01*
X2990989Y2946412D01*
X2990000Y2946609D01*
X2988236Y2946258D01*
X2986741Y2945259D01*
X2985742Y2943764D01*
X2985392Y2942000D01*
X2985537Y2941269D01*
X2985278Y2940930D01*
X2984430Y2940324D01*
X2983000Y2940609D01*
X2981236Y2940258D01*
X2979741Y2939259D01*
X2978742Y2937764D01*
X2978391Y2936000D01*
X2978514Y2935384D01*
X2977616Y2934486D01*
X2977000Y2934608D01*
X2975236Y2934258D01*
X2973741Y2933259D01*
X2972742Y2931764D01*
X2972391Y2930000D01*
X2972514Y2929384D01*
X2971616Y2928486D01*
X2971000Y2928608D01*
X2969236Y2928258D01*
X2967741Y2927259D01*
X2966742Y2925764D01*
X2966391Y2924000D01*
X2966742Y2922236D01*
X2967741Y2920741D01*
X2969236Y2919742D01*
X2971000Y2919391D01*
X2972764Y2919742D01*
X2974259Y2920741D01*
X2975258Y2922236D01*
X2975609Y2924000D01*
X2975486Y2924616D01*
X2976384Y2925514D01*
X2977000Y2925392D01*
X2978764Y2925742D01*
X2980259Y2926741D01*
X2981258Y2928236D01*
X2981609Y2930000D01*
X2981486Y2930616D01*
X2982384Y2931514D01*
X2983000Y2931391D01*
X2984763Y2931742D01*
X2986259Y2932741D01*
X2987258Y2934236D01*
X2987609Y2936000D01*
X2987463Y2936732D01*
X2987722Y2937069D01*
X2988570Y2937676D01*
X2990000Y2937391D01*
X2991764Y2937742D01*
X2993259Y2938741D01*
X2994258Y2940237D01*
X2994588Y2941899D01*
X2994626Y2942014D01*
X2995731Y2942868D01*
X2996720Y2942672D01*
X2998484Y2943022D01*
X2999979Y2944021D01*
X3000978Y2945516D01*
X3001328Y2947280D01*
X3001204Y2947904D01*
X3002236Y2948742D01*
X3004000Y2948391D01*
X3005764Y2948742D01*
X3007259Y2949741D01*
X3008258Y2951236D01*
X3008608Y2953000D01*
X3008258Y2954763D01*
X3007259Y2956259D01*
X3005764Y2957258D01*
X3004000Y2957609D01*
D02*
G37*
G36*
X3234000Y2995609D02*
X3232236Y2995258D01*
X3230741Y2994259D01*
X3229742Y2992764D01*
X3229391Y2991000D01*
X3229742Y2989236D01*
X3230741Y2987741D01*
X3232236Y2986742D01*
X3234000Y2986391D01*
X3235764Y2986742D01*
X3237259Y2987741D01*
X3238258Y2989236D01*
X3238608Y2991000D01*
X3238258Y2992764D01*
X3237259Y2994259D01*
X3235764Y2995258D01*
X3234000Y2995609D01*
D02*
G37*
G36*
X3211250Y3040858D02*
X3209486Y3040508D01*
X3207991Y3039509D01*
X3206992Y3038014D01*
X3206642Y3036250D01*
X3206992Y3034486D01*
X3207991Y3032991D01*
X3209486Y3031992D01*
X3211250Y3031642D01*
X3213014Y3031992D01*
X3214509Y3032991D01*
X3215508Y3034486D01*
X3215858Y3036250D01*
X3215508Y3038014D01*
X3214509Y3039509D01*
X3213014Y3040508D01*
X3211250Y3040858D01*
D02*
G37*
G36*
X2892000Y3045609D02*
X2890237Y3045258D01*
X2888741Y3044259D01*
X2887742Y3042764D01*
X2887391Y3041000D01*
X2887742Y3039236D01*
X2888741Y3037741D01*
X2890237Y3036742D01*
X2892000Y3036391D01*
X2893764Y3036742D01*
X2895259Y3037741D01*
X2896258Y3039236D01*
X2896609Y3041000D01*
X2896258Y3042764D01*
X2895259Y3044259D01*
X2893764Y3045258D01*
X2892000Y3045609D01*
D02*
G37*
G36*
X3490250Y3025858D02*
X3488486Y3025508D01*
X3486991Y3024509D01*
X3485992Y3023014D01*
X3485641Y3021250D01*
X3485992Y3019486D01*
X3486991Y3017991D01*
X3488486Y3016992D01*
X3490250Y3016642D01*
X3492014Y3016992D01*
X3493509Y3017991D01*
X3494508Y3019486D01*
X3494858Y3021250D01*
X3494508Y3023014D01*
X3493509Y3024509D01*
X3492014Y3025508D01*
X3490250Y3025858D01*
D02*
G37*
G36*
X3174000Y3038609D02*
X3172236Y3038258D01*
X3170741Y3037259D01*
X3169742Y3035764D01*
X3169391Y3034000D01*
X3169742Y3032236D01*
X3170741Y3030741D01*
X3172236Y3029742D01*
X3174000Y3029391D01*
X3175764Y3029742D01*
X3177259Y3030741D01*
X3178258Y3032236D01*
X3178608Y3034000D01*
X3178258Y3035764D01*
X3177259Y3037259D01*
X3175764Y3038258D01*
X3174000Y3038609D01*
D02*
G37*
G36*
X3156000Y3050609D02*
X3154236Y3050258D01*
X3152741Y3049259D01*
X3151742Y3047764D01*
X3151391Y3046000D01*
X3151742Y3044236D01*
X3152741Y3042741D01*
X3154236Y3041742D01*
X3156000Y3041392D01*
X3157764Y3041742D01*
X3159259Y3042741D01*
X3160258Y3044236D01*
X3160609Y3046000D01*
X3160258Y3047764D01*
X3159259Y3049259D01*
X3157764Y3050258D01*
X3156000Y3050609D01*
D02*
G37*
G36*
X3490250Y3051359D02*
X3488486Y3051008D01*
X3486991Y3050009D01*
X3485992Y3048513D01*
X3485641Y3046750D01*
X3485992Y3044986D01*
X3486991Y3043491D01*
X3488486Y3042492D01*
X3490250Y3042141D01*
X3492014Y3042492D01*
X3493509Y3043491D01*
X3494508Y3044986D01*
X3494858Y3046750D01*
X3494508Y3048513D01*
X3493509Y3050009D01*
X3492014Y3051008D01*
X3490250Y3051359D01*
D02*
G37*
G36*
X2907000Y3045609D02*
X2905237Y3045258D01*
X2903741Y3044259D01*
X2902742Y3042764D01*
X2902391Y3041000D01*
X2902742Y3039236D01*
X2903741Y3037741D01*
X2905237Y3036742D01*
X2907000Y3036391D01*
X2908764Y3036742D01*
X2910259Y3037741D01*
X2911258Y3039236D01*
X2911609Y3041000D01*
X2911258Y3042764D01*
X2910259Y3044259D01*
X2908764Y3045258D01*
X2907000Y3045609D01*
D02*
G37*
G36*
X3080000Y3048608D02*
X3078236Y3048258D01*
X3076741Y3047259D01*
X3075742Y3045764D01*
X3075392Y3044000D01*
X3075742Y3042236D01*
X3076112Y3041682D01*
X3075349Y3040539D01*
X3075000Y3040609D01*
X3073236Y3040258D01*
X3071741Y3039259D01*
X3070742Y3037764D01*
X3070392Y3036000D01*
X3070448Y3035716D01*
X3069397Y3034489D01*
X3068236Y3034258D01*
X3066741Y3033259D01*
X3065742Y3031764D01*
X3065647Y3031287D01*
X3064352D01*
X3064258Y3031764D01*
X3063259Y3033259D01*
X3061764Y3034258D01*
X3060000Y3034608D01*
X3058236Y3034258D01*
X3056741Y3033259D01*
X3055742Y3031764D01*
X3055392Y3030000D01*
X3055635Y3028777D01*
X3055121Y3027831D01*
X3054683Y3027545D01*
X3053236Y3027258D01*
X3051741Y3026259D01*
X3050742Y3024763D01*
X3050392Y3023000D01*
X3050742Y3021236D01*
X3051741Y3019741D01*
X3053236Y3018742D01*
X3054683Y3018454D01*
X3055121Y3018169D01*
X3055635Y3017223D01*
X3055392Y3016000D01*
X3055742Y3014236D01*
X3056741Y3012741D01*
X3058236Y3011742D01*
X3060000Y3011391D01*
X3061764Y3011742D01*
X3063259Y3012741D01*
X3064258Y3014236D01*
X3064608Y3016000D01*
X3064258Y3017764D01*
X3063259Y3019259D01*
X3061764Y3020258D01*
X3060316Y3020545D01*
X3059879Y3020831D01*
X3059365Y3021777D01*
X3059608Y3023000D01*
X3059365Y3024223D01*
X3059879Y3025169D01*
X3060317Y3025454D01*
X3061764Y3025742D01*
X3063259Y3026741D01*
X3064258Y3028236D01*
X3064352Y3028713D01*
X3065647D01*
X3065742Y3028236D01*
X3066741Y3026741D01*
X3068236Y3025742D01*
X3070000Y3025392D01*
X3071764Y3025742D01*
X3073259Y3026741D01*
X3074258Y3028236D01*
X3074608Y3030000D01*
X3074552Y3030284D01*
X3075603Y3031512D01*
X3076764Y3031742D01*
X3078259Y3032741D01*
X3079258Y3034236D01*
X3079608Y3036000D01*
X3079258Y3037764D01*
X3078887Y3038318D01*
X3079651Y3039461D01*
X3080000Y3039391D01*
X3081764Y3039742D01*
X3083259Y3040741D01*
X3084258Y3042236D01*
X3084608Y3044000D01*
X3084258Y3045764D01*
X3083259Y3047259D01*
X3081764Y3048258D01*
X3080000Y3048608D01*
D02*
G37*
G36*
X3558000Y3033846D02*
X3555710Y3033544D01*
X3553577Y3032661D01*
X3551745Y3031255D01*
X3550339Y3029423D01*
X3549456Y3027289D01*
X3549154Y3025000D01*
X3549456Y3022711D01*
X3550339Y3020577D01*
X3551745Y3018745D01*
X3553577Y3017339D01*
X3555710Y3016456D01*
X3558000Y3016154D01*
X3560289Y3016456D01*
X3562423Y3017339D01*
X3564255Y3018745D01*
X3565661Y3020577D01*
X3566544Y3022711D01*
X3566846Y3025000D01*
X3566544Y3027289D01*
X3565661Y3029423D01*
X3564255Y3031255D01*
X3562423Y3032661D01*
X3560289Y3033544D01*
X3558000Y3033846D01*
D02*
G37*
G36*
X3158000Y2994608D02*
X3156236Y2994258D01*
X3154741Y2993259D01*
X3154264Y2992544D01*
X3152736D01*
X3152259Y2993259D01*
X3150764Y2994258D01*
X3149000Y2994608D01*
X3147236Y2994258D01*
X3145741Y2993259D01*
X3144742Y2991764D01*
X3144648Y2991287D01*
X3143352D01*
X3143258Y2991764D01*
X3142259Y2993259D01*
X3140764Y2994258D01*
X3139000Y2994608D01*
X3137236Y2994258D01*
X3135741Y2993259D01*
X3134742Y2991764D01*
X3134391Y2990000D01*
X3134742Y2988236D01*
X3135741Y2986741D01*
X3137236Y2985742D01*
X3139000Y2985392D01*
X3140764Y2985742D01*
X3142259Y2986741D01*
X3143258Y2988236D01*
X3143352Y2988713D01*
X3144648D01*
X3144742Y2988236D01*
X3145741Y2986741D01*
X3147236Y2985742D01*
X3149000Y2985392D01*
X3150764Y2985742D01*
X3152259Y2986741D01*
X3152736Y2987456D01*
X3154264D01*
X3154741Y2986741D01*
X3156236Y2985742D01*
X3158000Y2985392D01*
X3158616Y2985514D01*
X3159514Y2984616D01*
X3159391Y2984000D01*
X3159742Y2982236D01*
X3160741Y2980741D01*
X3162236Y2979742D01*
X3164000Y2979391D01*
X3165764Y2979742D01*
X3167259Y2980741D01*
X3168258Y2982236D01*
X3168608Y2984000D01*
X3168443Y2984834D01*
X3169000Y2985392D01*
X3170764Y2985742D01*
X3171278Y2986086D01*
X3172690Y2985502D01*
X3172742Y2985237D01*
X3173741Y2983741D01*
X3175236Y2982742D01*
X3177000Y2982391D01*
X3178764Y2982742D01*
X3180259Y2983741D01*
X3181258Y2985237D01*
X3181609Y2987000D01*
X3181258Y2988764D01*
X3180259Y2990259D01*
X3178764Y2991258D01*
X3177000Y2991609D01*
X3175236Y2991258D01*
X3174722Y2990914D01*
X3173311Y2991498D01*
X3173258Y2991764D01*
X3172259Y2993259D01*
X3170764Y2994258D01*
X3169000Y2994608D01*
X3167236Y2994258D01*
X3165741Y2993259D01*
X3164742Y2991764D01*
X3164391Y2990000D01*
X3163481Y2989167D01*
X3162609Y2990000D01*
X3162258Y2991764D01*
X3161259Y2993259D01*
X3159763Y2994258D01*
X3158000Y2994608D01*
D02*
G37*
G36*
X3258000Y2995609D02*
X3256236Y2995258D01*
X3254772Y2994279D01*
X3254457Y2994100D01*
X3253543D01*
X3253228Y2994279D01*
X3251764Y2995258D01*
X3250000Y2995609D01*
X3248236Y2995258D01*
X3246741Y2994259D01*
X3245742Y2992764D01*
X3245392Y2991000D01*
X3245742Y2989236D01*
X3246741Y2987741D01*
X3248236Y2986742D01*
X3250000Y2986391D01*
X3251764Y2986742D01*
X3253228Y2987721D01*
X3253543Y2987900D01*
X3254457D01*
X3254772Y2987721D01*
X3256236Y2986742D01*
X3258000Y2986391D01*
X3259763Y2986742D01*
X3259953Y2986869D01*
X3260869Y2985953D01*
X3260742Y2985764D01*
X3260392Y2984000D01*
X3260742Y2982236D01*
X3261741Y2980741D01*
X3262456Y2980264D01*
Y2978736D01*
X3261741Y2978259D01*
X3260742Y2976764D01*
X3260392Y2975000D01*
X3260742Y2973236D01*
X3261741Y2971741D01*
X3263236Y2970742D01*
X3265000Y2970392D01*
X3266764Y2970742D01*
X3268259Y2971741D01*
X3269258Y2973236D01*
X3269608Y2975000D01*
X3269258Y2976764D01*
X3268259Y2978259D01*
X3267544Y2978736D01*
Y2980264D01*
X3268259Y2980741D01*
X3269258Y2982236D01*
X3269608Y2984000D01*
X3269258Y2985764D01*
X3268259Y2987259D01*
X3266764Y2988258D01*
X3265000Y2988609D01*
X3263236Y2988258D01*
X3263047Y2988131D01*
X3262131Y2989047D01*
X3262258Y2989236D01*
X3262609Y2991000D01*
X3262258Y2992764D01*
X3261259Y2994259D01*
X3259763Y2995258D01*
X3258000Y2995609D01*
D02*
G37*
G36*
X3221000Y2994608D02*
X3219236Y2994258D01*
X3217741Y2993259D01*
X3216742Y2991764D01*
X3216647Y2991287D01*
X3215352D01*
X3215258Y2991764D01*
X3214259Y2993259D01*
X3212764Y2994258D01*
X3211000Y2994608D01*
X3209236Y2994258D01*
X3207741Y2993259D01*
X3207264Y2992544D01*
X3205736D01*
X3205259Y2993259D01*
X3203764Y2994258D01*
X3202000Y2994608D01*
X3200236Y2994258D01*
X3198741Y2993259D01*
X3198635Y2993100D01*
X3197365D01*
X3197259Y2993259D01*
X3195764Y2994258D01*
X3194000Y2994608D01*
X3192236Y2994258D01*
X3190741Y2993259D01*
X3189742Y2991764D01*
X3189391Y2990000D01*
X3189742Y2988236D01*
X3190741Y2986741D01*
X3192236Y2985742D01*
X3194000Y2985392D01*
X3195764Y2985742D01*
X3197259Y2986741D01*
X3197365Y2986900D01*
X3198635D01*
X3198741Y2986741D01*
X3200236Y2985742D01*
X3202000Y2985392D01*
X3203764Y2985742D01*
X3205259Y2986741D01*
X3205736Y2987456D01*
X3207264D01*
X3207741Y2986741D01*
X3209236Y2985742D01*
X3211000Y2985392D01*
X3212764Y2985742D01*
X3214259Y2986741D01*
X3215258Y2988236D01*
X3215352Y2988713D01*
X3216647D01*
X3216742Y2988236D01*
X3217741Y2986741D01*
X3219236Y2985742D01*
X3221000Y2985392D01*
X3222764Y2985742D01*
X3224259Y2986741D01*
X3225258Y2988236D01*
X3225609Y2990000D01*
X3225258Y2991764D01*
X3224259Y2993259D01*
X3222764Y2994258D01*
X3221000Y2994608D01*
D02*
G37*
G36*
X2869000Y3000609D02*
X2867236Y3000258D01*
X2865741Y2999259D01*
X2864742Y2997764D01*
X2864391Y2996000D01*
X2864742Y2994236D01*
X2865741Y2992741D01*
X2867236Y2991742D01*
X2869000Y2991392D01*
X2870764Y2991742D01*
X2872259Y2992741D01*
X2873258Y2994236D01*
X2873609Y2996000D01*
X2873258Y2997764D01*
X2872259Y2999259D01*
X2870764Y3000258D01*
X2869000Y3000609D01*
D02*
G37*
G36*
X3519000Y3007609D02*
X3517236Y3007258D01*
X3515741Y3006259D01*
X3514742Y3004763D01*
X3514391Y3003000D01*
X3514742Y3001236D01*
X3515741Y2999741D01*
X3517236Y2998742D01*
X3519000Y2998391D01*
X3520764Y2998742D01*
X3522259Y2999741D01*
X3523258Y3001236D01*
X3523608Y3003000D01*
X3523258Y3004763D01*
X3522259Y3006259D01*
X3520764Y3007258D01*
X3519000Y3007609D01*
D02*
G37*
G36*
X2893000Y3014608D02*
X2891236Y3014258D01*
X2889741Y3013259D01*
X2888742Y3011764D01*
X2888391Y3010000D01*
X2888742Y3008236D01*
X2889741Y3006741D01*
X2891236Y3005742D01*
X2893000Y3005392D01*
X2894763Y3005742D01*
X2896259Y3006741D01*
X2897258Y3008236D01*
X2897609Y3010000D01*
X2897258Y3011764D01*
X2896259Y3013259D01*
X2894763Y3014258D01*
X2893000Y3014608D01*
D02*
G37*
G36*
X3489525Y3004134D02*
X3487762Y3003783D01*
X3486266Y3002784D01*
X3485267Y3001288D01*
X3484916Y2999525D01*
X3485267Y2997762D01*
X3486266Y2996266D01*
X3487762Y2995267D01*
X3489525Y2994916D01*
X3491288Y2995267D01*
X3492784Y2996266D01*
X3493783Y2997762D01*
X3494134Y2999525D01*
X3493783Y3001288D01*
X3492784Y3002784D01*
X3491288Y3003783D01*
X3489525Y3004134D01*
D02*
G37*
G36*
X2873000Y3025609D02*
X2871237Y3025258D01*
X2869742Y3024258D01*
X2868743Y3022763D01*
X2868392Y3021000D01*
X2868743Y3019236D01*
X2869742Y3017741D01*
X2871237Y3016742D01*
X2871794Y3016631D01*
X2872742Y3015764D01*
X2872391Y3014000D01*
X2872742Y3012236D01*
X2873741Y3010741D01*
X2875237Y3009742D01*
X2875575Y3009675D01*
X2875843Y3008327D01*
X2875741Y3008259D01*
X2874742Y3006764D01*
X2874391Y3005000D01*
X2874742Y3003236D01*
X2875741Y3001741D01*
X2877236Y3000742D01*
X2879000Y3000392D01*
X2880764Y3000742D01*
X2881382Y3001155D01*
X2882525Y3000392D01*
X2882391Y2999720D01*
X2882742Y2997956D01*
X2883741Y2996461D01*
X2885236Y2995462D01*
X2887000Y2995111D01*
X2888764Y2995462D01*
X2890259Y2996461D01*
X2891258Y2997956D01*
X2891609Y2999720D01*
X2891258Y3001483D01*
X2890259Y3002979D01*
X2888764Y3003978D01*
X2887000Y3004329D01*
X2885236Y3003978D01*
X2884618Y3003564D01*
X2883475Y3004328D01*
X2883608Y3005000D01*
X2883258Y3006764D01*
X2882259Y3008259D01*
X2880764Y3009258D01*
X2880425Y3009325D01*
X2880157Y3010673D01*
X2880259Y3010741D01*
X2881258Y3012236D01*
X2881609Y3014000D01*
X2881258Y3015764D01*
X2880259Y3017259D01*
X2878764Y3018258D01*
X2878206Y3018369D01*
X2877258Y3019236D01*
X2877609Y3021000D01*
X2877258Y3022763D01*
X2876259Y3024258D01*
X2874764Y3025258D01*
X2873000Y3025609D01*
D02*
G37*
%LPD*%
D52*
X2844500Y2747000D02*
D03*
X3497800Y2896300D02*
D03*
X3378600D02*
D03*
D53*
X3335000Y3185000D02*
D03*
X3265000D02*
D03*
D54*
X3325000Y3158000D02*
D03*
X3275000D02*
D03*
D56*
X3344850Y2728300D02*
D03*
X3506150D02*
D03*
D60*
X3200000Y2925000D02*
D03*
D61*
X3547000Y3007000D02*
D03*
X2932000Y2716000D02*
D03*
X2926000D02*
D03*
X3180000Y2965000D02*
D03*
X3240000Y2935000D02*
D03*
Y2955000D02*
D03*
X3250000Y2965000D02*
D03*
X3230000D02*
D03*
X3150000Y2935000D02*
D03*
X3170000Y2875000D02*
D03*
X3190000Y2895000D02*
D03*
X3210000D02*
D03*
X3230000D02*
D03*
Y2915000D02*
D03*
X3170000Y2955000D02*
D03*
Y2935000D02*
D03*
Y2915000D02*
D03*
Y2895000D02*
D03*
X3370000Y2915000D02*
D03*
X3350000Y2875000D02*
D03*
X3370000Y2835000D02*
D03*
X3350000Y2855000D02*
D03*
Y2835000D02*
D03*
X3330000D02*
D03*
Y2855000D02*
D03*
X3290000Y2835000D02*
D03*
X3310000D02*
D03*
X3230000Y2815000D02*
D03*
X3250000D02*
D03*
Y2795000D02*
D03*
Y2775000D02*
D03*
Y2755000D02*
D03*
X3150000Y2775000D02*
D03*
Y2755000D02*
D03*
X3130000D02*
D03*
X3050000D02*
D03*
Y2775000D02*
D03*
Y2795000D02*
D03*
X3070000Y2815000D02*
D03*
X3090000D02*
D03*
Y2835000D02*
D03*
X3070000D02*
D03*
Y2855000D02*
D03*
X3090000D02*
D03*
X3050000Y2895000D02*
D03*
X3030000D02*
D03*
X3010000D02*
D03*
X2970000Y2955000D02*
D03*
X3030000D02*
D03*
X3090000Y2995000D02*
D03*
X3030000Y3035000D02*
D03*
X2990000Y3135000D02*
D03*
X3130000Y2995000D02*
D03*
X3110000Y3015000D02*
D03*
X3090000Y3035000D02*
D03*
Y3055000D02*
D03*
X3070000Y3095000D02*
D03*
X3050000D02*
D03*
X3090000Y3155000D02*
D03*
X3070000D02*
D03*
X3050000D02*
D03*
Y3175000D02*
D03*
X3070000D02*
D03*
X3110000D02*
D03*
X3130000D02*
D03*
X3150000Y3055000D02*
D03*
X3170000D02*
D03*
X3150000Y3075000D02*
D03*
X3170000D02*
D03*
Y3095000D02*
D03*
X3150000D02*
D03*
Y3155000D02*
D03*
Y3175000D02*
D03*
X3170000D02*
D03*
X3230000D02*
D03*
X3250000D02*
D03*
Y3155000D02*
D03*
X3210000Y3095000D02*
D03*
X3230000D02*
D03*
X3310000Y3115000D02*
D03*
X3290000Y3095000D02*
D03*
X3310000D02*
D03*
X3330000Y3115000D02*
D03*
Y3135000D02*
D03*
X3350000D02*
D03*
Y3155000D02*
D03*
Y3175000D02*
D03*
X3370000D02*
D03*
X3410000D02*
D03*
X3330000Y3015000D02*
D03*
X3310000D02*
D03*
Y3035000D02*
D03*
Y3055000D02*
D03*
X3350000Y3075000D02*
D03*
X3450000Y2995000D02*
D03*
X3350000Y3015000D02*
D03*
X3370000D02*
D03*
X3390000D02*
D03*
X3430000D02*
D03*
X3410000D02*
D03*
Y3035000D02*
D03*
X3390000D02*
D03*
X3370000D02*
D03*
Y3055000D02*
D03*
Y3075000D02*
D03*
Y3095000D02*
D03*
X3390000D02*
D03*
X3410000Y3075000D02*
D03*
Y3115000D02*
D03*
X3430000Y3095000D02*
D03*
X3450000D02*
D03*
X3470000Y3075000D02*
D03*
Y3115000D02*
D03*
X3490000Y3095000D02*
D03*
X3530000D02*
D03*
X3510000Y3115000D02*
D03*
X3530000Y3175000D02*
D03*
Y3135000D02*
D03*
X3550000Y3115000D02*
D03*
X3570000Y3095000D02*
D03*
X3590000Y3135000D02*
D03*
Y3115000D02*
D03*
Y2995000D02*
D03*
Y2975000D02*
D03*
X3570000Y3015000D02*
D03*
Y2995000D02*
D03*
Y2975000D02*
D03*
X3510000Y2955000D02*
D03*
X3490000D02*
D03*
X3470000D02*
D03*
X3430000Y2975000D02*
D03*
X3410000Y2915000D02*
D03*
X3390000Y2935000D02*
D03*
X3450000Y2955000D02*
D03*
X3430000D02*
D03*
X3410000D02*
D03*
X3430000Y2935000D02*
D03*
X3450000Y2915000D02*
D03*
Y2935000D02*
D03*
X3470000D02*
D03*
Y2915000D02*
D03*
X3490000D02*
D03*
Y2935000D02*
D03*
X3510000D02*
D03*
X3550000Y2955000D02*
D03*
X3590000D02*
D03*
X3570000D02*
D03*
Y2935000D02*
D03*
X3590000D02*
D03*
X3530000D02*
D03*
X3510000Y2915000D02*
D03*
X3530000D02*
D03*
X3550000D02*
D03*
Y2895000D02*
D03*
X3510000D02*
D03*
X3490000Y2835000D02*
D03*
Y2875000D02*
D03*
X3550000Y2855000D02*
D03*
Y2875000D02*
D03*
X3530000D02*
D03*
X3510000D02*
D03*
Y2855000D02*
D03*
Y2835000D02*
D03*
X3530000Y2815000D02*
D03*
Y2835000D02*
D03*
X3550000D02*
D03*
Y2815000D02*
D03*
Y2795000D02*
D03*
X3510000Y2815000D02*
D03*
X3490000D02*
D03*
X3450000D02*
D03*
X3410000D02*
D03*
X3370000D02*
D03*
X3350000Y2795000D02*
D03*
X3390000D02*
D03*
Y2755000D02*
D03*
X3410000Y2775000D02*
D03*
X3430000Y2795000D02*
D03*
X3510000D02*
D03*
X3470000D02*
D03*
X3450000Y2775000D02*
D03*
X3430000Y2755000D02*
D03*
X3550000Y2735000D02*
D03*
Y2755000D02*
D03*
Y2775000D02*
D03*
X3530000D02*
D03*
X3510000D02*
D03*
Y2755000D02*
D03*
X3590000Y2715000D02*
D03*
X3530000Y2735000D02*
D03*
X3550000Y2715000D02*
D03*
X3530000Y2695000D02*
D03*
X3510000Y2715000D02*
D03*
Y2695000D02*
D03*
Y2675000D02*
D03*
X3490000Y2695000D02*
D03*
Y2735000D02*
D03*
X3470000Y2715000D02*
D03*
Y2675000D02*
D03*
X3450000Y2695000D02*
D03*
Y2735000D02*
D03*
X3430000Y2715000D02*
D03*
Y2675000D02*
D03*
X3410000Y2695000D02*
D03*
Y2735000D02*
D03*
X3390000Y2715000D02*
D03*
Y2675000D02*
D03*
X3330000Y2755000D02*
D03*
X3370000Y2735000D02*
D03*
Y2695000D02*
D03*
X3350000Y2715000D02*
D03*
Y2675000D02*
D03*
X3330000D02*
D03*
Y2695000D02*
D03*
Y2735000D02*
D03*
X3310000D02*
D03*
Y2715000D02*
D03*
Y2695000D02*
D03*
Y2675000D02*
D03*
X3290000Y2715000D02*
D03*
Y2695000D02*
D03*
Y2675000D02*
D03*
X3270000D02*
D03*
Y2695000D02*
D03*
X3250000D02*
D03*
Y2675000D02*
D03*
X3230000D02*
D03*
X3090000Y2695000D02*
D03*
X3070000D02*
D03*
Y2675000D02*
D03*
X3050000D02*
D03*
Y2695000D02*
D03*
X3030000D02*
D03*
Y2675000D02*
D03*
X3010000D02*
D03*
Y2695000D02*
D03*
X2990000D02*
D03*
Y2675000D02*
D03*
X2970000D02*
D03*
Y2695000D02*
D03*
X2870000Y2675000D02*
D03*
Y2695000D02*
D03*
Y2715000D02*
D03*
X2850000Y2735000D02*
D03*
Y2715000D02*
D03*
X2810000D02*
D03*
Y2735000D02*
D03*
Y2755000D02*
D03*
Y2775000D02*
D03*
Y2795000D02*
D03*
Y2815000D02*
D03*
Y2835000D02*
D03*
Y2855000D02*
D03*
X2890000Y2955000D02*
D03*
X2910000D02*
D03*
Y3025000D02*
D03*
X2930000Y3035000D02*
D03*
X2950000D02*
D03*
X2970000D02*
D03*
X2950000Y3055000D02*
D03*
X2930000D02*
D03*
Y3075000D02*
D03*
X2970000D02*
D03*
Y3115000D02*
D03*
X2950000Y3095000D02*
D03*
Y3135000D02*
D03*
X2910000Y3095000D02*
D03*
X2930000Y3115000D02*
D03*
X2910000Y3135000D02*
D03*
X2930000Y3155000D02*
D03*
X2910000Y3175000D02*
D03*
X2890000Y3155000D02*
D03*
X2870000Y3175000D02*
D03*
X2890000Y3115000D02*
D03*
X2870000Y3135000D02*
D03*
Y3095000D02*
D03*
X2850000Y3115000D02*
D03*
X2810000D02*
D03*
X2830000Y3095000D02*
D03*
X2810000Y3075000D02*
D03*
Y3035000D02*
D03*
Y3055000D02*
D03*
X2830000D02*
D03*
Y3035000D02*
D03*
Y3015000D02*
D03*
X2810000D02*
D03*
Y2995000D02*
D03*
X2830000D02*
D03*
Y2975000D02*
D03*
X2810000D02*
D03*
Y2875000D02*
D03*
X2830000D02*
D03*
Y2895000D02*
D03*
X2810000D02*
D03*
Y2915000D02*
D03*
X2830000D02*
D03*
Y2935000D02*
D03*
Y2955000D02*
D03*
X2810000D02*
D03*
Y2935000D02*
D03*
X2966000Y2765000D02*
D03*
Y2756000D02*
D03*
X2979000Y2791000D02*
D03*
X2966000Y2795000D02*
D03*
X2973000D02*
D03*
X2979000Y2784000D02*
D03*
X2989000Y2757000D02*
D03*
Y2750000D02*
D03*
Y2743000D02*
D03*
X2983000Y2737000D02*
D03*
X2975000D02*
D03*
X3000000Y2823000D02*
D03*
X3008000D02*
D03*
X3014000Y2829000D02*
D03*
Y2836000D02*
D03*
Y2843000D02*
D03*
X3004000Y2870000D02*
D03*
X2998000Y2881000D02*
D03*
X2991000D02*
D03*
X3004000Y2877000D02*
D03*
X2991000Y2842000D02*
D03*
Y2851000D02*
D03*
X3293000Y2763000D02*
D03*
X3302000D02*
D03*
X3267000Y2776000D02*
D03*
X3263000Y2763000D02*
D03*
Y2770000D02*
D03*
X3274000Y2776000D02*
D03*
X3301000Y2786000D02*
D03*
X3308000D02*
D03*
X3315000D02*
D03*
X3321000Y2780000D02*
D03*
Y2772000D02*
D03*
X2991200Y3173200D02*
D03*
X3105000Y3047000D02*
D03*
X3165000Y3046000D02*
D03*
X3171000Y3155000D02*
D03*
X3233000D02*
D03*
X3209750Y3072250D02*
D03*
X3182000Y3017000D02*
D03*
X3185000Y2989000D02*
D03*
X3062000Y2769000D02*
D03*
X2848000Y2871000D02*
D03*
Y3036000D02*
D03*
Y3001000D02*
D03*
X3177000Y2754000D02*
D03*
X3236000Y2684000D02*
D03*
X3318000Y2993000D02*
D03*
Y2987000D02*
D03*
X3312000D02*
D03*
Y2993000D02*
D03*
X3083825Y2782175D02*
D03*
X3488825Y2986825D02*
D03*
X3521175Y2993175D02*
D03*
X3481200Y3172200D02*
D03*
X3242000Y2990000D02*
D03*
X3284000Y3145000D02*
D03*
X3314000Y3146000D02*
D03*
X3279750Y2994250D02*
D03*
X3395000Y2841000D02*
D03*
X3415000Y2841000D02*
D03*
X3436000D02*
D03*
X3456000Y2841000D02*
D03*
X3375000Y2841000D02*
D03*
X3476000D02*
D03*
X3314000Y2922000D02*
D03*
X3322000D02*
D03*
X3330000D02*
D03*
X3306000D02*
D03*
X3338000Y2919000D02*
D03*
X3339000Y2911000D02*
D03*
X3361000Y2929000D02*
D03*
X3297000Y2876000D02*
D03*
X3304000D02*
D03*
X3311000D02*
D03*
X3318000D02*
D03*
X3325000D02*
D03*
X3332000D02*
D03*
X3349000Y2931000D02*
D03*
X3355000Y2937000D02*
D03*
X2830000Y2800000D02*
D03*
X2838000D02*
D03*
X2846000D02*
D03*
X2854000D02*
D03*
X2869000Y2924000D02*
D03*
Y2964000D02*
D03*
Y2884000D02*
D03*
X2863000Y2824000D02*
D03*
X2870000D02*
D03*
X2908000Y2842000D02*
D03*
X2901000D02*
D03*
X2926000Y2710000D02*
D03*
Y2704000D02*
D03*
X2932000Y2710000D02*
D03*
X2838000Y2737000D02*
D03*
X2832000D02*
D03*
X2826000D02*
D03*
X2838000Y2757000D02*
D03*
X2832000D02*
D03*
X2826000D02*
D03*
X2882000Y2737000D02*
D03*
X2888000D02*
D03*
X2882000Y2757000D02*
D03*
X2888000D02*
D03*
X3290000Y2738000D02*
D03*
X3272000D02*
D03*
X3278000D02*
D03*
X3284000D02*
D03*
X3314000Y3141000D02*
D03*
X2932000Y2704000D02*
D03*
X3088000Y2750000D02*
D03*
X2938000Y2710000D02*
D03*
Y2704000D02*
D03*
X3066000Y2931000D02*
D03*
X2897000Y2997000D02*
D03*
X3017000D02*
D03*
X3081000Y2963000D02*
D03*
M02*
