G04 Layer_Physical_Order=1*
G04 Layer_Color=255*
%FSLAX44Y44*%
%MOMM*%
G71*
G01*
G75*
%ADD10C,0.1520*%
%ADD11R,1.1000X3.7000*%
%ADD12C,1.0000*%
%ADD13R,1.4500X1.2000*%
%ADD14R,0.6000X1.1000*%
%ADD15R,0.5500X0.6000*%
%ADD16R,0.7000X1.1000*%
%ADD17R,0.8600X2.8000*%
%ADD18R,1.1400X1.8300*%
%ADD19R,1.0500X0.7800*%
%ADD20R,0.9000X0.9300*%
%ADD21R,0.7000X3.3300*%
%ADD22R,0.6000X0.5500*%
G04:AMPARAMS|DCode=23|XSize=0.3mm|YSize=1.1mm|CornerRadius=0.075mm|HoleSize=0mm|Usage=FLASHONLY|Rotation=270.000|XOffset=0mm|YOffset=0mm|HoleType=Round|Shape=RoundedRectangle|*
%AMROUNDEDRECTD23*
21,1,0.3000,0.9500,0,0,270.0*
21,1,0.1500,1.1000,0,0,270.0*
1,1,0.1500,-0.4750,-0.0750*
1,1,0.1500,-0.4750,0.0750*
1,1,0.1500,0.4750,0.0750*
1,1,0.1500,0.4750,-0.0750*
%
%ADD23ROUNDEDRECTD23*%
G04:AMPARAMS|DCode=24|XSize=2.3mm|YSize=3.1mm|CornerRadius=0.23mm|HoleSize=0mm|Usage=FLASHONLY|Rotation=270.000|XOffset=0mm|YOffset=0mm|HoleType=Round|Shape=RoundedRectangle|*
%AMROUNDEDRECTD24*
21,1,2.3000,2.6400,0,0,270.0*
21,1,1.8400,3.1000,0,0,270.0*
1,1,0.4600,-1.3200,-0.9200*
1,1,0.4600,-1.3200,0.9200*
1,1,0.4600,1.3200,0.9200*
1,1,0.4600,1.3200,-0.9200*
%
%ADD24ROUNDEDRECTD24*%
%ADD25R,0.8000X0.9500*%
%ADD26R,3.7000X1.1000*%
%ADD27R,0.6000X1.0500*%
%ADD28R,1.0000X0.6500*%
%ADD29O,1.4500X0.4500*%
%ADD30O,0.4500X1.4500*%
%ADD31R,0.4000X0.9500*%
%ADD32R,4.2800X3.3800*%
%ADD33R,1.8000X1.0000*%
%ADD34R,1.1500X1.4000*%
%ADD35R,3.5000X3.5000*%
%ADD36O,0.3000X1.4500*%
%ADD37O,1.4500X0.3000*%
%ADD38R,0.6500X1.0000*%
%ADD39R,2.4500X1.4000*%
%ADD40R,0.4000X1.3500*%
%ADD41R,1.5000X1.9000*%
%ADD42R,2.5000X2.2000*%
%ADD43R,2.8000X2.2000*%
%ADD44R,1.3500X0.4000*%
%ADD45R,1.9000X1.5000*%
%ADD46R,1.1000X0.6000*%
%ADD47R,1.2000X1.4500*%
%ADD48C,2.0000*%
%ADD49C,0.3000*%
%ADD50C,0.2000*%
%ADD51C,0.6000*%
%ADD52C,1.5000*%
%ADD53O,1.2000X1.9000*%
%ADD54C,1.4500*%
%ADD55C,3.2500*%
%ADD56C,2.0000*%
%ADD57C,1.2000*%
%ADD58O,1.2000X1.5000*%
%ADD59O,1.9000X1.2000*%
%ADD60C,3.0000*%
%ADD61C,0.6000*%
G36*
X3596941Y3090312D02*
X3595165Y3088957D01*
X3594941Y3088958D01*
X3593863Y3090363D01*
X3592292Y3091569D01*
X3590463Y3092326D01*
X3588500Y3092585D01*
X3581500D01*
X3579537Y3092326D01*
X3577708Y3091569D01*
X3576136Y3090363D01*
X3574931Y3088792D01*
X3574174Y3086963D01*
X3573915Y3085000D01*
X3574174Y3083037D01*
X3574931Y3081208D01*
X3576136Y3079637D01*
X3577708Y3078431D01*
X3579537Y3077674D01*
X3581500Y3077415D01*
X3588500D01*
X3590463Y3077674D01*
X3592292Y3078431D01*
X3593863Y3079637D01*
X3594941Y3081042D01*
X3595165Y3081043D01*
X3596941Y3079688D01*
Y3070638D01*
X3596020Y3069020D01*
X3594941Y3069020D01*
X3573980D01*
Y3051020D01*
X3573980Y3050980D01*
Y3049020D01*
X3573980Y3048980D01*
Y3030980D01*
X3594941D01*
X3596020Y3030980D01*
X3596941Y3029362D01*
Y3020312D01*
X3595165Y3018957D01*
X3594941Y3018958D01*
X3593863Y3020363D01*
X3592292Y3021569D01*
X3590463Y3022326D01*
X3588500Y3022585D01*
X3581500D01*
X3579537Y3022326D01*
X3577708Y3021569D01*
X3576136Y3020363D01*
X3574931Y3018792D01*
X3574174Y3016963D01*
X3573915Y3015000D01*
X3574174Y3013037D01*
X3574931Y3011208D01*
X3576136Y3009637D01*
X3577708Y3008431D01*
X3579537Y3007674D01*
X3581500Y3007415D01*
X3588500D01*
X3590463Y3007674D01*
X3592292Y3008431D01*
X3593863Y3009637D01*
X3594941Y3011042D01*
X3595165Y3011043D01*
X3596941Y3009688D01*
Y2653058D01*
X3168312D01*
X3166956Y2654835D01*
X3166958Y2655059D01*
X3168363Y2656137D01*
X3169569Y2657708D01*
X3170327Y2659537D01*
X3170585Y2661500D01*
Y2668500D01*
X3170327Y2670463D01*
X3169569Y2672292D01*
X3168363Y2673863D01*
X3166792Y2675069D01*
X3164963Y2675826D01*
X3163000Y2676085D01*
X3161037Y2675826D01*
X3159207Y2675069D01*
X3157637Y2673863D01*
X3156431Y2672292D01*
X3155674Y2670463D01*
X3155415Y2668500D01*
Y2661500D01*
X3155674Y2659537D01*
X3156431Y2657708D01*
X3157637Y2656137D01*
X3159042Y2655059D01*
X3159043Y2654835D01*
X3157688Y2653058D01*
X3148638D01*
X3147020Y2653980D01*
X3147020Y2655059D01*
Y2676020D01*
X3129020D01*
X3128980Y2676020D01*
X3127020D01*
X3126980Y2676020D01*
X3108980D01*
Y2655059D01*
X3108980Y2653980D01*
X3107361Y2653058D01*
X3098312D01*
X3096956Y2654835D01*
X3096958Y2655059D01*
X3098363Y2656137D01*
X3099569Y2657708D01*
X3100327Y2659537D01*
X3100585Y2661500D01*
Y2668500D01*
X3100327Y2670463D01*
X3099569Y2672292D01*
X3098363Y2673863D01*
X3096792Y2675069D01*
X3094963Y2675826D01*
X3093000Y2676085D01*
X3091037Y2675826D01*
X3089207Y2675069D01*
X3087637Y2673863D01*
X3086431Y2672292D01*
X3085674Y2670463D01*
X3085415Y2668500D01*
Y2661500D01*
X3085674Y2659537D01*
X3086431Y2657708D01*
X3087637Y2656137D01*
X3089041Y2655059D01*
X3089043Y2654835D01*
X3087688Y2653058D01*
X2966312D01*
X2964957Y2654835D01*
X2964958Y2655059D01*
X2966363Y2656137D01*
X2967569Y2657708D01*
X2968326Y2659537D01*
X2968585Y2661500D01*
Y2668500D01*
X2968326Y2670463D01*
X2967569Y2672292D01*
X2966363Y2673863D01*
X2964792Y2675069D01*
X2962963Y2675826D01*
X2961000Y2676085D01*
X2959037Y2675826D01*
X2957208Y2675069D01*
X2955637Y2673863D01*
X2954431Y2672292D01*
X2953673Y2670463D01*
X2953415Y2668500D01*
Y2661500D01*
X2953673Y2659537D01*
X2954431Y2657708D01*
X2955637Y2656137D01*
X2957042Y2655059D01*
X2957043Y2654835D01*
X2955688Y2653058D01*
X2946638D01*
X2945020Y2653980D01*
X2945020Y2655059D01*
Y2676020D01*
X2927020D01*
X2926980Y2676020D01*
X2925020D01*
X2924980Y2676020D01*
X2906980D01*
Y2655059D01*
X2906980Y2653980D01*
X2905362Y2653058D01*
X2896312D01*
X2894957Y2654835D01*
X2894958Y2655059D01*
X2896363Y2656137D01*
X2897569Y2657708D01*
X2898326Y2659537D01*
X2898585Y2661500D01*
Y2668500D01*
X2898326Y2670463D01*
X2897569Y2672292D01*
X2896363Y2673863D01*
X2894792Y2675069D01*
X2892963Y2675826D01*
X2891000Y2676085D01*
X2889037Y2675826D01*
X2887208Y2675069D01*
X2885637Y2673863D01*
X2884431Y2672292D01*
X2883673Y2670463D01*
X2883415Y2668500D01*
Y2661500D01*
X2883673Y2659537D01*
X2884431Y2657708D01*
X2885637Y2656137D01*
X2887042Y2655059D01*
X2887043Y2654835D01*
X2885688Y2653058D01*
X2803058D01*
Y3196941D01*
X3596941D01*
Y3090312D01*
D02*
G37*
%LPC*%
G36*
X3466000Y2862609D02*
X3464236Y2862258D01*
X3462741Y2861259D01*
X3461742Y2859763D01*
X3461391Y2858000D01*
X3461742Y2856236D01*
X3462741Y2854741D01*
X3464236Y2853742D01*
X3466000Y2853391D01*
X3467764Y2853742D01*
X3469259Y2854741D01*
X3470258Y2856236D01*
X3470609Y2858000D01*
X3470258Y2859763D01*
X3469259Y2861259D01*
X3467764Y2862258D01*
X3466000Y2862609D01*
D02*
G37*
G36*
X3374750Y2880898D02*
X3372395Y2880588D01*
X3370201Y2879679D01*
X3368317Y2878233D01*
X3366871Y2876349D01*
X3365962Y2874155D01*
X3365652Y2871800D01*
X3365962Y2869445D01*
X3366871Y2867251D01*
X3368317Y2865367D01*
X3370201Y2863921D01*
X3372395Y2863012D01*
X3374750Y2862702D01*
X3377105Y2863012D01*
X3379299Y2863921D01*
X3381183Y2865367D01*
X3382629Y2867251D01*
X3383538Y2869445D01*
X3383848Y2871800D01*
X3383538Y2874155D01*
X3382629Y2876349D01*
X3381183Y2878233D01*
X3379299Y2879679D01*
X3377105Y2880588D01*
X3374750Y2880898D01*
D02*
G37*
G36*
X2894520Y2833270D02*
X2883480D01*
Y2820730D01*
X2881774Y2820020D01*
X2870980D01*
Y2818358D01*
X2856020D01*
Y2820520D01*
X2846980D01*
Y2814195D01*
X2846891Y2813750D01*
X2846980Y2813305D01*
Y2806980D01*
X2856020D01*
Y2809142D01*
X2870980D01*
Y2805980D01*
X2911020D01*
Y2820020D01*
X2896226D01*
X2894520Y2820730D01*
Y2833270D01*
D02*
G37*
G36*
X3022000Y2887645D02*
X3010000D01*
X3008837Y2887163D01*
X3008355Y2886000D01*
Y2869681D01*
X2998837Y2860163D01*
X2998837Y2860163D01*
X2995836Y2857163D01*
X2995355Y2856000D01*
Y2848000D01*
X2995836Y2846837D01*
X2997000Y2846355D01*
X3022000D01*
X3023163Y2846837D01*
X3023645Y2848000D01*
Y2886000D01*
X3023163Y2887163D01*
X3022000Y2887645D01*
D02*
G37*
G36*
X3476250Y2880898D02*
X3473895Y2880588D01*
X3471701Y2879679D01*
X3469817Y2878233D01*
X3468371Y2876349D01*
X3467462Y2874155D01*
X3467152Y2871800D01*
X3467462Y2869445D01*
X3468371Y2867251D01*
X3469817Y2865367D01*
X3471701Y2863921D01*
X3473895Y2863012D01*
X3476250Y2862702D01*
X3478605Y2863012D01*
X3480799Y2863921D01*
X3482683Y2865367D01*
X3484129Y2867251D01*
X3485038Y2869445D01*
X3485348Y2871800D01*
X3485038Y2874155D01*
X3484129Y2876349D01*
X3482683Y2878233D01*
X3480799Y2879679D01*
X3478605Y2880588D01*
X3476250Y2880898D01*
D02*
G37*
G36*
X2869000Y2920609D02*
X2867236Y2920258D01*
X2865741Y2919259D01*
X2863636Y2918888D01*
X2862750Y2919064D01*
X2853250D01*
X2852364Y2918888D01*
X2851613Y2918387D01*
X2851112Y2917636D01*
X2850935Y2916750D01*
X2850852Y2916644D01*
X2848936Y2915422D01*
X2848000Y2915609D01*
X2846236Y2915258D01*
X2844741Y2914259D01*
X2843742Y2912764D01*
X2843391Y2911000D01*
X2843742Y2909236D01*
X2844741Y2907741D01*
X2845684Y2907111D01*
X2845776Y2906804D01*
Y2905196D01*
X2845684Y2904889D01*
X2844741Y2904259D01*
X2843742Y2902764D01*
X2843391Y2901000D01*
X2843742Y2899236D01*
X2842237Y2898257D01*
X2840742Y2897258D01*
X2839743Y2895763D01*
X2839392Y2894000D01*
X2839743Y2892236D01*
X2840742Y2890741D01*
X2842237Y2889742D01*
X2844001Y2889391D01*
X2845764Y2889742D01*
X2846123Y2889982D01*
X2848076Y2889636D01*
X2848830Y2889132D01*
X2849720Y2888955D01*
X2851385D01*
X2851613Y2888613D01*
X2852364Y2888112D01*
X2853250Y2887935D01*
X2862750D01*
X2863636Y2888112D01*
X2864387Y2888613D01*
X2864888Y2889364D01*
X2865064Y2890250D01*
X2865148Y2890356D01*
X2867065Y2891577D01*
X2868000Y2891391D01*
X2869763Y2891742D01*
X2871259Y2892741D01*
X2872258Y2894236D01*
X2872609Y2896000D01*
X2872258Y2897764D01*
X2871259Y2899259D01*
X2869763Y2900258D01*
X2868000Y2900609D01*
X2867065Y2900422D01*
X2866727Y2900638D01*
X2866512Y2901697D01*
X2868152Y2903675D01*
X2870117D01*
X2870741Y2902741D01*
X2872236Y2901742D01*
X2874000Y2901391D01*
X2875764Y2901742D01*
X2877259Y2902741D01*
X2878258Y2904236D01*
X2878608Y2906000D01*
X2878258Y2907764D01*
X2877259Y2909259D01*
X2875764Y2910258D01*
X2874000Y2910609D01*
X2872236Y2910258D01*
X2870741Y2909259D01*
X2870117Y2908325D01*
X2867668D01*
X2866162Y2910128D01*
X2867236Y2911742D01*
X2869000Y2911391D01*
X2870764Y2911742D01*
X2872259Y2912741D01*
X2873258Y2914236D01*
X2873609Y2916000D01*
X2873258Y2917764D01*
X2872259Y2919259D01*
X2870764Y2920258D01*
X2869000Y2920609D01*
D02*
G37*
G36*
Y2960609D02*
X2867236Y2960258D01*
X2865741Y2959259D01*
X2863636Y2958888D01*
X2862750Y2959064D01*
X2853250D01*
X2852364Y2958888D01*
X2851613Y2958387D01*
X2851112Y2957636D01*
X2850935Y2956750D01*
X2850852Y2956644D01*
X2848936Y2955422D01*
X2848000Y2955609D01*
X2846236Y2955258D01*
X2844741Y2954259D01*
X2843742Y2952764D01*
X2843391Y2951000D01*
X2843742Y2949236D01*
X2844741Y2947741D01*
X2845684Y2947111D01*
X2845776Y2946804D01*
Y2945196D01*
X2845684Y2944889D01*
X2844741Y2944259D01*
X2843742Y2942764D01*
X2843391Y2941000D01*
X2843742Y2939236D01*
X2842237Y2938257D01*
X2840742Y2937258D01*
X2839743Y2935763D01*
X2839392Y2934000D01*
X2839743Y2932236D01*
X2840742Y2930741D01*
X2842237Y2929742D01*
X2844001Y2929391D01*
X2845764Y2929742D01*
X2846123Y2929982D01*
X2848076Y2929636D01*
X2848830Y2929132D01*
X2849720Y2928955D01*
X2851385D01*
X2851613Y2928613D01*
X2852364Y2928112D01*
X2853250Y2927935D01*
X2862750D01*
X2863636Y2928112D01*
X2864387Y2928613D01*
X2864888Y2929364D01*
X2865064Y2930250D01*
X2865148Y2930356D01*
X2867065Y2931577D01*
X2868000Y2931391D01*
X2869763Y2931742D01*
X2871259Y2932741D01*
X2872258Y2934236D01*
X2872609Y2936000D01*
X2872258Y2937764D01*
X2871259Y2939259D01*
X2869763Y2940258D01*
X2868000Y2940609D01*
X2867065Y2940422D01*
X2866727Y2940638D01*
X2866512Y2941697D01*
X2868152Y2943675D01*
X2870117D01*
X2870741Y2942741D01*
X2872236Y2941742D01*
X2874000Y2941391D01*
X2875764Y2941742D01*
X2877259Y2942741D01*
X2878258Y2944236D01*
X2878608Y2946000D01*
X2878258Y2947764D01*
X2877259Y2949259D01*
X2875764Y2950258D01*
X2874000Y2950609D01*
X2872236Y2950258D01*
X2870741Y2949259D01*
X2870117Y2948325D01*
X2867668D01*
X2866162Y2950128D01*
X2867236Y2951742D01*
X2869000Y2951391D01*
X2870764Y2951742D01*
X2872259Y2952741D01*
X2873258Y2954236D01*
X2873609Y2956000D01*
X2873258Y2957764D01*
X2872259Y2959259D01*
X2870764Y2960258D01*
X2869000Y2960609D01*
D02*
G37*
G36*
X3472400Y2905398D02*
X3470045Y2905088D01*
X3467851Y2904179D01*
X3465967Y2902733D01*
X3464521Y2900849D01*
X3463612Y2898655D01*
X3463302Y2896300D01*
X3463612Y2893945D01*
X3464521Y2891751D01*
X3465967Y2889867D01*
X3467851Y2888421D01*
X3470045Y2887512D01*
X3472400Y2887202D01*
X3474755Y2887512D01*
X3476949Y2888421D01*
X3478833Y2889867D01*
X3480279Y2891751D01*
X3481188Y2893945D01*
X3481498Y2896300D01*
X3481188Y2898655D01*
X3480279Y2900849D01*
X3478833Y2902733D01*
X3476949Y2904179D01*
X3474755Y2905088D01*
X3472400Y2905398D01*
D02*
G37*
G36*
X2912520Y2869770D02*
X2899480D01*
Y2869079D01*
X2894520D01*
Y2869270D01*
X2883480D01*
Y2869079D01*
X2858000D01*
X2857926Y2869064D01*
X2853250D01*
X2852364Y2868888D01*
X2851613Y2868387D01*
X2851112Y2867636D01*
X2850935Y2866750D01*
Y2865250D01*
X2851112Y2864364D01*
X2851555Y2863500D01*
X2851112Y2862636D01*
X2850935Y2861750D01*
Y2860250D01*
X2851112Y2859364D01*
X2851613Y2858613D01*
X2852364Y2858112D01*
X2853250Y2857935D01*
X2857926D01*
X2858000Y2857921D01*
X2863725D01*
X2866921Y2854725D01*
Y2851770D01*
X2866480D01*
Y2851226D01*
X2866000Y2849325D01*
X2865110Y2849148D01*
X2864356Y2848644D01*
X2864356Y2848644D01*
X2859356Y2843644D01*
X2858852Y2842890D01*
X2858675Y2842000D01*
X2858675Y2842000D01*
Y2832963D01*
X2856037Y2830325D01*
X2836000D01*
X2836000Y2830325D01*
X2835110Y2830148D01*
X2834356Y2829644D01*
X2834356Y2829644D01*
X2830856Y2826144D01*
X2830352Y2825390D01*
X2830175Y2824500D01*
X2830175Y2824500D01*
Y2820520D01*
X2827980D01*
Y2806980D01*
X2837020D01*
Y2820520D01*
X2834825D01*
Y2823537D01*
X2836963Y2825675D01*
X2857000D01*
X2857000Y2825675D01*
X2857890Y2825852D01*
X2858644Y2826356D01*
X2862644Y2830356D01*
X2862644Y2830356D01*
X2863148Y2831110D01*
X2863325Y2832000D01*
Y2841037D01*
X2865092Y2842805D01*
X2866480Y2842230D01*
Y2842230D01*
X2879520D01*
Y2851770D01*
X2873079D01*
Y2856000D01*
X2872845Y2857178D01*
X2872177Y2858177D01*
X2869282Y2861073D01*
X2870047Y2862921D01*
X2883480D01*
Y2856730D01*
X2894520D01*
Y2862921D01*
X2899480D01*
Y2860230D01*
X2912520D01*
Y2869770D01*
D02*
G37*
G36*
X2881270Y2883270D02*
X2872730D01*
Y2881349D01*
X2870764Y2880258D01*
X2869000Y2880609D01*
X2867236Y2880258D01*
X2865741Y2879259D01*
X2865621Y2879079D01*
X2858000D01*
X2857926Y2879064D01*
X2853250D01*
X2852364Y2878888D01*
X2851613Y2878387D01*
X2851112Y2877636D01*
X2850935Y2876750D01*
Y2875250D01*
X2851112Y2874364D01*
X2851613Y2873613D01*
X2852364Y2873112D01*
X2853250Y2872935D01*
X2857926D01*
X2858000Y2872921D01*
X2865621D01*
X2865741Y2872741D01*
X2867236Y2871742D01*
X2869000Y2871391D01*
X2870764Y2871742D01*
X2872259Y2872741D01*
X2872392Y2872941D01*
X2874270D01*
X2875448Y2873175D01*
X2876447Y2873843D01*
X2876835Y2874230D01*
X2881270D01*
Y2883270D01*
D02*
G37*
G36*
X2951000Y2700846D02*
X2948711Y2700544D01*
X2946577Y2699661D01*
X2944745Y2698255D01*
X2943340Y2696423D01*
X2942456Y2694290D01*
X2942154Y2692000D01*
X2942456Y2689711D01*
X2943340Y2687577D01*
X2944745Y2685745D01*
X2946577Y2684339D01*
X2948711Y2683456D01*
X2951000Y2683154D01*
X2953289Y2683456D01*
X2955423Y2684339D01*
X2957255Y2685745D01*
X2958661Y2687577D01*
X2959544Y2689711D01*
X2959846Y2692000D01*
X2959544Y2694290D01*
X2958661Y2696423D01*
X2957255Y2698255D01*
X2955423Y2699661D01*
X2953289Y2700544D01*
X2951000Y2700846D01*
D02*
G37*
G36*
X3153000D02*
X3150710Y2700544D01*
X3148577Y2699661D01*
X3146745Y2698255D01*
X3145339Y2696423D01*
X3144456Y2694290D01*
X3144154Y2692000D01*
X3144456Y2689711D01*
X3145339Y2687577D01*
X3146745Y2685745D01*
X3148577Y2684339D01*
X3150710Y2683456D01*
X3153000Y2683154D01*
X3155289Y2683456D01*
X3157423Y2684339D01*
X3159255Y2685745D01*
X3160661Y2687577D01*
X3161544Y2689711D01*
X3161846Y2692000D01*
X3161544Y2694290D01*
X3160661Y2696423D01*
X3159255Y2698255D01*
X3157423Y2699661D01*
X3155289Y2700544D01*
X3153000Y2700846D01*
D02*
G37*
G36*
X3226520Y2700270D02*
X3219480D01*
Y2687730D01*
X3219480Y2687730D01*
X3219480D01*
X3219480Y2687730D01*
X3219120Y2685879D01*
X3219042Y2685764D01*
X3218691Y2684000D01*
X3219042Y2682236D01*
X3220041Y2680741D01*
X3221536Y2679742D01*
X3223300Y2679391D01*
X3225063Y2679742D01*
X3226559Y2680741D01*
X3227558Y2682236D01*
X3227909Y2684000D01*
X3227558Y2685764D01*
X3227350Y2686074D01*
X3226520Y2687730D01*
Y2700270D01*
D02*
G37*
G36*
X2835000Y2712876D02*
X2830639Y2712533D01*
X2826386Y2711512D01*
X2822344Y2709838D01*
X2818615Y2707552D01*
X2815289Y2704711D01*
X2812448Y2701385D01*
X2810162Y2697655D01*
X2808488Y2693614D01*
X2807467Y2689361D01*
X2807124Y2685000D01*
X2807467Y2680639D01*
X2808488Y2676386D01*
X2810162Y2672345D01*
X2812448Y2668615D01*
X2815289Y2665289D01*
X2818615Y2662448D01*
X2822344Y2660162D01*
X2826386Y2658488D01*
X2830639Y2657467D01*
X2835000Y2657124D01*
X2839361Y2657467D01*
X2843614Y2658488D01*
X2847655Y2660162D01*
X2851385Y2662448D01*
X2854711Y2665289D01*
X2857552Y2668615D01*
X2859838Y2672345D01*
X2861512Y2676386D01*
X2862533Y2680639D01*
X2862876Y2685000D01*
X2862533Y2689361D01*
X2861512Y2693614D01*
X2859838Y2697655D01*
X2857552Y2701385D01*
X2854711Y2704711D01*
X2851385Y2707552D01*
X2847655Y2709838D01*
X2843614Y2711512D01*
X2839361Y2712533D01*
X2835000Y2712876D01*
D02*
G37*
G36*
X3565000D02*
X3560639Y2712533D01*
X3556386Y2711512D01*
X3552345Y2709838D01*
X3548615Y2707552D01*
X3545289Y2704711D01*
X3542448Y2701385D01*
X3540162Y2697655D01*
X3538488Y2693614D01*
X3537467Y2689361D01*
X3537124Y2685000D01*
X3537467Y2680639D01*
X3538488Y2676386D01*
X3540162Y2672345D01*
X3542448Y2668615D01*
X3545289Y2665289D01*
X3548615Y2662448D01*
X3552345Y2660162D01*
X3556386Y2658488D01*
X3560639Y2657467D01*
X3565000Y2657124D01*
X3569361Y2657467D01*
X3573614Y2658488D01*
X3577655Y2660162D01*
X3581385Y2662448D01*
X3584711Y2665289D01*
X3587552Y2668615D01*
X3589838Y2672345D01*
X3591512Y2676386D01*
X3592533Y2680639D01*
X3592876Y2685000D01*
X3592533Y2689361D01*
X3591512Y2693614D01*
X3589838Y2697655D01*
X3587552Y2701385D01*
X3584711Y2704711D01*
X3581385Y2707552D01*
X3577655Y2709838D01*
X3573614Y2711512D01*
X3569361Y2712533D01*
X3565000Y2712876D01*
D02*
G37*
G36*
X3239570Y2750870D02*
X3193730D01*
Y2714030D01*
X3239570D01*
Y2750870D01*
D02*
G37*
G36*
X2997000Y2801645D02*
X2985000D01*
X2983837Y2801163D01*
X2983355Y2800000D01*
Y2783681D01*
X2973837Y2774164D01*
X2973837Y2774163D01*
X2970836Y2771163D01*
X2970355Y2770000D01*
Y2762000D01*
X2970836Y2760836D01*
X2972000Y2760355D01*
X2997000D01*
X2998163Y2760836D01*
X2998645Y2762000D01*
Y2800000D01*
X2998163Y2801163D01*
X2997000Y2801645D01*
D02*
G37*
G36*
X3296000Y2795645D02*
X3258000D01*
X3256837Y2795163D01*
X3256355Y2794000D01*
Y2782000D01*
X3256837Y2780836D01*
X3258000Y2780355D01*
X3274319D01*
X3283837Y2770836D01*
X3283837Y2770836D01*
X3286837Y2767837D01*
X3288000Y2767355D01*
X3296000D01*
X3297163Y2767837D01*
X3297645Y2769000D01*
Y2794000D01*
X3297163Y2795163D01*
X3296000Y2795645D01*
D02*
G37*
G36*
X3489000Y2777856D02*
X3485516Y2777513D01*
X3482167Y2776497D01*
X3479080Y2774847D01*
X3476374Y2772626D01*
X3474153Y2769920D01*
X3472503Y2766833D01*
X3471487Y2763484D01*
X3471144Y2760000D01*
X3471487Y2756516D01*
X3472503Y2753167D01*
X3474153Y2750080D01*
X3476374Y2747374D01*
X3479080Y2745153D01*
X3482167Y2743503D01*
X3485516Y2742487D01*
X3489000Y2742144D01*
X3492484Y2742487D01*
X3495833Y2743503D01*
X3498920Y2745153D01*
X3501626Y2747374D01*
X3503847Y2750080D01*
X3505497Y2753167D01*
X3506513Y2756516D01*
X3506856Y2760000D01*
X3506513Y2763484D01*
X3505497Y2766833D01*
X3503847Y2769920D01*
X3501626Y2772626D01*
X3498920Y2774847D01*
X3495833Y2776497D01*
X3492484Y2777513D01*
X3489000Y2777856D01*
D02*
G37*
G36*
X3560000Y2941576D02*
X3558298Y2941352D01*
X3556712Y2940695D01*
X3555350Y2939650D01*
X3554305Y2938288D01*
X3553648Y2936702D01*
X3553424Y2935000D01*
X3553648Y2933298D01*
X3554305Y2931712D01*
X3555350Y2930350D01*
X3556712Y2929305D01*
X3558298Y2928648D01*
X3560000Y2928424D01*
X3561139Y2928574D01*
X3563825Y2925887D01*
X3563742Y2925764D01*
X3563391Y2924000D01*
X3563742Y2922236D01*
X3564741Y2920741D01*
X3566236Y2919742D01*
X3568000Y2919391D01*
X3569266Y2919643D01*
X3571230Y2919730D01*
X3571230Y2919730D01*
X3571230Y2919730D01*
X3579730D01*
X3580270Y2919730D01*
X3581925D01*
X3583925Y2918898D01*
Y2912520D01*
X3563480D01*
Y2887480D01*
X3573425D01*
Y2879270D01*
X3571230D01*
Y2870730D01*
X3579730D01*
X3580270Y2870730D01*
X3581925D01*
X3583925Y2869898D01*
Y2862520D01*
X3563480D01*
Y2837480D01*
X3573425D01*
Y2829270D01*
X3571230D01*
Y2820730D01*
X3579730D01*
X3580270Y2820730D01*
X3581925D01*
X3583925Y2819898D01*
Y2812520D01*
X3563480D01*
Y2787480D01*
X3573425D01*
Y2779270D01*
X3571230D01*
Y2770730D01*
X3579730D01*
X3580270Y2770730D01*
X3581925D01*
X3583925Y2769898D01*
Y2762520D01*
X3563480D01*
Y2737480D01*
X3594520D01*
Y2762520D01*
X3588575D01*
Y2770730D01*
X3590770D01*
Y2779270D01*
X3582270D01*
X3581730Y2779270D01*
X3580075D01*
X3578075Y2780102D01*
Y2787480D01*
X3594520D01*
Y2812520D01*
X3588575D01*
Y2820730D01*
X3590770D01*
Y2829270D01*
X3582270D01*
X3581730Y2829270D01*
X3580075D01*
X3578075Y2830102D01*
Y2837480D01*
X3594520D01*
Y2862520D01*
X3588575D01*
Y2870730D01*
X3590770D01*
Y2879270D01*
X3582270D01*
X3581730Y2879270D01*
X3580075D01*
X3578075Y2880102D01*
Y2887480D01*
X3594520D01*
Y2912520D01*
X3588575D01*
Y2919730D01*
X3590770D01*
Y2928270D01*
X3582270D01*
X3581730Y2928270D01*
X3580270D01*
X3579730Y2928270D01*
X3571230D01*
X3571230Y2928270D01*
X3569266Y2928357D01*
X3568000Y2928608D01*
X3567732Y2928555D01*
X3565209Y2931078D01*
X3565695Y2931712D01*
X3566352Y2933298D01*
X3566576Y2935000D01*
X3566352Y2936702D01*
X3565695Y2938288D01*
X3564650Y2939650D01*
X3563288Y2940695D01*
X3561702Y2941352D01*
X3560000Y2941576D01*
D02*
G37*
G36*
X3362000Y2777856D02*
X3358517Y2777513D01*
X3355167Y2776497D01*
X3352080Y2774847D01*
X3349374Y2772626D01*
X3347153Y2769920D01*
X3345503Y2766833D01*
X3344487Y2763484D01*
X3344144Y2760000D01*
X3344487Y2756516D01*
X3345503Y2753167D01*
X3347153Y2750080D01*
X3349374Y2747374D01*
X3352080Y2745153D01*
X3355167Y2743503D01*
X3358517Y2742487D01*
X3362000Y2742144D01*
X3365483Y2742487D01*
X3368833Y2743503D01*
X3371920Y2745153D01*
X3374626Y2747374D01*
X3376847Y2750080D01*
X3378497Y2753167D01*
X3379513Y2756516D01*
X3379856Y2760000D01*
X3379513Y2763484D01*
X3378497Y2766833D01*
X3376847Y2769920D01*
X3374626Y2772626D01*
X3371920Y2774847D01*
X3368833Y2776497D01*
X3365483Y2777513D01*
X3362000Y2777856D01*
D02*
G37*
G36*
X3430000Y2996576D02*
X3428298Y2996352D01*
X3426712Y2995695D01*
X3425350Y2994650D01*
X3424305Y2993288D01*
X3423648Y2991702D01*
X3423509Y2990645D01*
X3421491D01*
X3421352Y2991702D01*
X3420695Y2993288D01*
X3419650Y2994650D01*
X3418288Y2995695D01*
X3416702Y2996352D01*
X3415000Y2996576D01*
X3413298Y2996352D01*
X3411712Y2995695D01*
X3410350Y2994650D01*
X3409305Y2993288D01*
X3408648Y2991702D01*
X3408509Y2990645D01*
X3406491D01*
X3406352Y2991702D01*
X3405695Y2993288D01*
X3404650Y2994650D01*
X3403288Y2995695D01*
X3401702Y2996352D01*
X3400000Y2996576D01*
X3398298Y2996352D01*
X3396712Y2995695D01*
X3395350Y2994650D01*
X3394305Y2993288D01*
X3393648Y2991702D01*
X3393509Y2990645D01*
X3391491D01*
X3391352Y2991702D01*
X3390695Y2993288D01*
X3389650Y2994650D01*
X3388288Y2995695D01*
X3386702Y2996352D01*
X3385000Y2996576D01*
X3383298Y2996352D01*
X3381712Y2995695D01*
X3380350Y2994650D01*
X3379305Y2993288D01*
X3378648Y2991702D01*
X3378509Y2990645D01*
X3376491D01*
X3376352Y2991702D01*
X3375695Y2993288D01*
X3374650Y2994650D01*
X3373288Y2995695D01*
X3371702Y2996352D01*
X3370000Y2996576D01*
X3368298Y2996352D01*
X3366712Y2995695D01*
X3365350Y2994650D01*
X3364305Y2993288D01*
X3363648Y2991702D01*
X3363509Y2990645D01*
X3361491D01*
X3361352Y2991702D01*
X3360695Y2993288D01*
X3359650Y2994650D01*
X3358288Y2995695D01*
X3356702Y2996352D01*
X3355000Y2996576D01*
X3353298Y2996352D01*
X3351712Y2995695D01*
X3350350Y2994650D01*
X3349305Y2993288D01*
X3348648Y2991702D01*
X3348424Y2990000D01*
X3348648Y2988298D01*
X3349305Y2986712D01*
X3350350Y2985350D01*
X3351712Y2984305D01*
X3353298Y2983648D01*
X3355000Y2983424D01*
X3356702Y2983648D01*
X3358288Y2984305D01*
X3359650Y2985350D01*
X3360695Y2986712D01*
X3361352Y2988298D01*
X3361491Y2989355D01*
X3363509D01*
X3363648Y2988298D01*
X3364305Y2986712D01*
X3365350Y2985350D01*
X3366712Y2984305D01*
X3368298Y2983648D01*
X3370000Y2983424D01*
X3371702Y2983648D01*
X3373288Y2984305D01*
X3374650Y2985350D01*
X3375695Y2986712D01*
X3376352Y2988298D01*
X3376491Y2989355D01*
X3378509D01*
X3378648Y2988298D01*
X3379305Y2986712D01*
X3380350Y2985350D01*
X3381712Y2984305D01*
X3383298Y2983648D01*
X3385000Y2983424D01*
X3386702Y2983648D01*
X3388288Y2984305D01*
X3389650Y2985350D01*
X3390695Y2986712D01*
X3391352Y2988298D01*
X3391491Y2989355D01*
X3393509D01*
X3393648Y2988298D01*
X3394305Y2986712D01*
X3395350Y2985350D01*
X3396712Y2984305D01*
X3398298Y2983648D01*
X3400000Y2983424D01*
X3401702Y2983648D01*
X3403288Y2984305D01*
X3404650Y2985350D01*
X3405695Y2986712D01*
X3406352Y2988298D01*
X3406491Y2989355D01*
X3408509D01*
X3408648Y2988298D01*
X3409305Y2986712D01*
X3410350Y2985350D01*
X3411712Y2984305D01*
X3413298Y2983648D01*
X3415000Y2983424D01*
X3416702Y2983648D01*
X3418288Y2984305D01*
X3419650Y2985350D01*
X3420695Y2986712D01*
X3421352Y2988298D01*
X3421491Y2989355D01*
X3423509D01*
X3423648Y2988298D01*
X3424305Y2986712D01*
X3425350Y2985350D01*
X3426712Y2984305D01*
X3428298Y2983648D01*
X3430000Y2983424D01*
X3431702Y2983648D01*
X3433288Y2984305D01*
X3434650Y2985350D01*
X3435695Y2986712D01*
X3436352Y2988298D01*
X3436576Y2990000D01*
X3436352Y2991702D01*
X3435695Y2993288D01*
X3434650Y2994650D01*
X3433288Y2995695D01*
X3431702Y2996352D01*
X3430000Y2996576D01*
D02*
G37*
G36*
X3558000Y3083846D02*
X3555710Y3083544D01*
X3553577Y3082661D01*
X3551745Y3081255D01*
X3550339Y3079423D01*
X3549456Y3077289D01*
X3549154Y3075000D01*
X3549456Y3072711D01*
X3550339Y3070577D01*
X3551745Y3068745D01*
X3553577Y3067339D01*
X3555710Y3066456D01*
X3558000Y3066154D01*
X3560289Y3066456D01*
X3562423Y3067339D01*
X3564255Y3068745D01*
X3565661Y3070577D01*
X3566544Y3072711D01*
X3566846Y3075000D01*
X3566544Y3077289D01*
X3565661Y3079423D01*
X3564255Y3081255D01*
X3562423Y3082661D01*
X3560289Y3083544D01*
X3558000Y3083846D01*
D02*
G37*
G36*
X2878000Y3083608D02*
X2876236Y3083258D01*
X2874741Y3082259D01*
X2873742Y3080764D01*
X2873391Y3079000D01*
X2873611Y3077898D01*
X2868356Y3072644D01*
X2867852Y3071890D01*
X2867675Y3071000D01*
X2867675Y3071000D01*
Y3064963D01*
X2861777Y3059064D01*
X2853250D01*
X2852364Y3058888D01*
X2851613Y3058387D01*
X2851112Y3057636D01*
X2850935Y3056750D01*
Y3055250D01*
X2851112Y3054364D01*
X2851555Y3053500D01*
X2851112Y3052636D01*
X2850935Y3051750D01*
Y3050250D01*
X2851112Y3049364D01*
X2851555Y3048500D01*
X2851112Y3047636D01*
X2850935Y3046750D01*
Y3045250D01*
X2851112Y3044364D01*
X2851613Y3043613D01*
Y3043387D01*
X2851112Y3042636D01*
X2850935Y3041750D01*
Y3040250D01*
X2851112Y3039364D01*
X2851613Y3038613D01*
X2852364Y3038112D01*
X2853250Y3037935D01*
X2862750D01*
X2863636Y3038112D01*
X2864387Y3038613D01*
X2864428Y3038675D01*
X2888117D01*
X2888741Y3037741D01*
X2890237Y3036742D01*
X2892000Y3036391D01*
X2893764Y3036742D01*
X2895259Y3037741D01*
X2896258Y3039236D01*
X2896609Y3041000D01*
X2896258Y3042764D01*
X2895259Y3044259D01*
X2893764Y3045258D01*
X2892000Y3045609D01*
X2890237Y3045258D01*
X2888741Y3044259D01*
X2888117Y3043325D01*
X2876441D01*
X2875656Y3045218D01*
X2876950Y3046600D01*
X2878000Y3046391D01*
X2879763Y3046742D01*
X2881259Y3047741D01*
X2882258Y3049236D01*
X2882609Y3051000D01*
X2882258Y3052764D01*
X2881259Y3054259D01*
X2879763Y3055258D01*
X2878000Y3055609D01*
X2876236Y3055258D01*
X2874741Y3054259D01*
X2874729Y3054240D01*
X2874498Y3054226D01*
X2872415Y3056107D01*
X2872414Y3056126D01*
X2876898Y3060611D01*
X2878000Y3060392D01*
X2879763Y3060742D01*
X2881259Y3061741D01*
X2882258Y3063236D01*
X2882609Y3065000D01*
X2882258Y3066764D01*
X2881259Y3068259D01*
X2879763Y3069258D01*
X2878000Y3069608D01*
X2876236Y3069258D01*
X2874741Y3068259D01*
X2874428Y3067790D01*
X2872586Y3068369D01*
X2872393Y3070105D01*
X2876898Y3074611D01*
X2878000Y3074391D01*
X2879763Y3074742D01*
X2881259Y3075741D01*
X2882258Y3077236D01*
X2882609Y3079000D01*
X2882258Y3080764D01*
X2881259Y3082259D01*
X2879763Y3083258D01*
X2878000Y3083608D01*
D02*
G37*
G36*
X3026250Y3148859D02*
X3024486Y3148508D01*
X3022991Y3147509D01*
X3021992Y3146013D01*
X3021642Y3144250D01*
X3021992Y3142486D01*
X3022991Y3140991D01*
X3024486Y3139992D01*
X3026250Y3139641D01*
X3028014Y3139992D01*
X3029509Y3140991D01*
X3030508Y3142486D01*
X3030858Y3144250D01*
X3030508Y3146013D01*
X3029509Y3147509D01*
X3028014Y3148508D01*
X3026250Y3148859D01*
D02*
G37*
G36*
X3457720Y3062720D02*
X3444180D01*
Y3051880D01*
X3457720D01*
Y3062720D01*
D02*
G37*
G36*
X3064520Y3082520D02*
X3036480D01*
Y3057480D01*
X3064520D01*
Y3067675D01*
X3083117D01*
X3083741Y3066741D01*
X3085236Y3065742D01*
X3087000Y3065392D01*
X3088764Y3065742D01*
X3090259Y3066741D01*
X3091258Y3068236D01*
X3091609Y3070000D01*
X3091258Y3071764D01*
X3090259Y3073259D01*
X3088764Y3074258D01*
X3087000Y3074608D01*
X3085236Y3074258D01*
X3083741Y3073259D01*
X3083117Y3072325D01*
X3064520D01*
Y3082520D01*
D02*
G37*
G36*
X3522000Y3139608D02*
X3520236Y3139258D01*
X3518741Y3138259D01*
X3517742Y3136764D01*
X3517391Y3135000D01*
X3517742Y3133236D01*
X3518741Y3131741D01*
X3520236Y3130742D01*
X3522000Y3130392D01*
X3523764Y3130742D01*
X3525259Y3131741D01*
X3526258Y3133236D01*
X3526609Y3135000D01*
X3526258Y3136764D01*
X3525259Y3138259D01*
X3523764Y3139258D01*
X3522000Y3139608D01*
D02*
G37*
G36*
X3036000Y3134619D02*
X3036000Y3134619D01*
X3020000D01*
X3020000Y3134619D01*
X3016992Y3134224D01*
X3014190Y3133063D01*
X3011784Y3131216D01*
X2981784Y3101216D01*
X2979937Y3098810D01*
X2978777Y3096007D01*
X2978380Y3093000D01*
Y3029813D01*
X2925784Y2977216D01*
X2923937Y2974810D01*
X2922776Y2972007D01*
X2922380Y2969000D01*
Y2818000D01*
Y2776813D01*
X2907187Y2761619D01*
X2890062D01*
X2890000Y2761645D01*
X2871872Y2761645D01*
X2868608Y2764909D01*
Y2778631D01*
X2869529Y2778747D01*
X2870980Y2776967D01*
Y2775980D01*
X2911020D01*
Y2790020D01*
X2870980D01*
X2870520Y2788770D01*
X2857480D01*
X2856020Y2790074D01*
Y2793020D01*
X2846980D01*
Y2793020D01*
X2846520D01*
Y2793020D01*
X2837480D01*
Y2793020D01*
X2837020D01*
Y2793020D01*
X2827980D01*
Y2779480D01*
X2830179D01*
X2830352Y2778611D01*
X2830856Y2777856D01*
X2832356Y2776356D01*
X2832356Y2776356D01*
X2833110Y2775852D01*
X2834000Y2775675D01*
X2850000D01*
X2850000Y2775675D01*
X2850890Y2775852D01*
X2851644Y2776356D01*
X2853144Y2777856D01*
X2853144Y2777856D01*
X2853648Y2778610D01*
X2853803Y2779391D01*
X2857480D01*
Y2779230D01*
X2859391D01*
Y2763000D01*
X2859742Y2761236D01*
X2860741Y2759741D01*
X2863578Y2756905D01*
X2859836Y2753163D01*
X2859355Y2752000D01*
X2859355Y2742000D01*
X2859520Y2741601D01*
X2859837Y2740837D01*
X2867837Y2732837D01*
X2869000Y2732355D01*
X2890000Y2732355D01*
X2890062Y2732381D01*
X2893355D01*
X2893355Y2711000D01*
X2893837Y2709837D01*
X2900883Y2702790D01*
X2900115Y2700729D01*
X2898711Y2700544D01*
X2896577Y2699661D01*
X2894745Y2698255D01*
X2893340Y2696423D01*
X2892456Y2694290D01*
X2892154Y2692000D01*
X2892456Y2689711D01*
X2893340Y2687577D01*
X2894745Y2685745D01*
X2896577Y2684339D01*
X2898711Y2683456D01*
X2901000Y2683154D01*
X2903289Y2683456D01*
X2905423Y2684339D01*
X2906355Y2685055D01*
X2906859Y2685041D01*
X2908607Y2684391D01*
X2908837Y2683837D01*
X2910000Y2683355D01*
X2915980D01*
X2916886Y2683730D01*
X2936020D01*
Y2700270D01*
X2917645D01*
X2917645Y2732466D01*
X2920007Y2732776D01*
X2922810Y2733937D01*
X2925216Y2735784D01*
X2942216Y2752784D01*
X2942216Y2752784D01*
X2949787Y2760355D01*
X2954261Y2760355D01*
X2955675Y2758940D01*
Y2755000D01*
X2955675Y2755000D01*
X2955852Y2754110D01*
X2956356Y2753356D01*
X2956844Y2752868D01*
X2956079Y2751020D01*
X2946980D01*
Y2741980D01*
X2955665D01*
X2970823Y2726823D01*
X2971822Y2726155D01*
X2973000Y2725921D01*
X3006230D01*
Y2724730D01*
X3014467D01*
X3015117Y2724730D01*
X3016837Y2723837D01*
X3016891Y2723814D01*
X3018000Y2723355D01*
X3018171D01*
Y2720684D01*
X3016757Y2719270D01*
X3015270D01*
X3014730Y2719270D01*
X3006230D01*
Y2718079D01*
X3001770D01*
Y2719270D01*
X2992730D01*
Y2710730D01*
X3001770D01*
Y2711921D01*
X3006230D01*
Y2710730D01*
X3014730D01*
X3015270Y2710730D01*
X3016730D01*
X3017270Y2710730D01*
X3025770D01*
Y2719270D01*
X3024329D01*
Y2723355D01*
X3028000D01*
X3029163Y2723837D01*
X3034163Y2728837D01*
X3034645Y2730000D01*
X3034645Y2786370D01*
X3036645Y2787356D01*
X3036712Y2787305D01*
X3038298Y2786648D01*
X3040000Y2786424D01*
X3041702Y2786648D01*
X3043288Y2787305D01*
X3044650Y2788350D01*
X3045695Y2789712D01*
X3046352Y2791298D01*
X3046576Y2793000D01*
X3046352Y2794702D01*
X3045695Y2796288D01*
X3044650Y2797650D01*
X3043288Y2798695D01*
X3041702Y2799352D01*
X3040000Y2799576D01*
X3038298Y2799352D01*
X3036712Y2798695D01*
X3035350Y2797650D01*
X3032763Y2797564D01*
X3029163Y2801163D01*
X3028000Y2801645D01*
X3014000Y2801645D01*
X3012837Y2801163D01*
X3011837Y2800163D01*
X3011355Y2799000D01*
Y2743270D01*
X3011355Y2743000D01*
X3009907Y2741270D01*
X2997730D01*
Y2732730D01*
X2995999Y2732079D01*
X2974276D01*
X2962024Y2744330D01*
X2962112Y2744772D01*
X2964282Y2745430D01*
X2966356Y2743356D01*
X2966356Y2743356D01*
X2967110Y2742852D01*
X2968000Y2742675D01*
X2970980D01*
Y2741980D01*
X2985020D01*
Y2751020D01*
X2970980D01*
Y2747325D01*
X2968963D01*
X2960325Y2755963D01*
Y2760489D01*
X2961163Y2760836D01*
X2961645Y2762000D01*
Y2769000D01*
X2961163Y2770163D01*
X2958645Y2772681D01*
Y2791000D01*
X2958619Y2791063D01*
Y2806320D01*
X2959569Y2806885D01*
X2960620Y2807143D01*
X2961712Y2806305D01*
X2963298Y2805648D01*
X2965000Y2805424D01*
X2966702Y2805648D01*
X2968288Y2806305D01*
X2969650Y2807350D01*
X2970695Y2808712D01*
X2971352Y2810298D01*
X2971576Y2812000D01*
X2971352Y2813702D01*
X2970695Y2815288D01*
X2969650Y2816650D01*
X2968288Y2817695D01*
X2966702Y2818352D01*
X2965000Y2818576D01*
X2963298Y2818352D01*
X2961712Y2817695D01*
X2960620Y2816857D01*
X2959569Y2817115D01*
X2958619Y2817680D01*
Y2826187D01*
X2968216Y2835784D01*
X2968216Y2835784D01*
X2970063Y2838190D01*
X2971223Y2840993D01*
X2971619Y2844000D01*
Y2846355D01*
X2979261Y2846355D01*
X2980675Y2844940D01*
Y2841000D01*
X2980675Y2841000D01*
X2980852Y2840110D01*
X2981356Y2839356D01*
X2981844Y2838868D01*
X2981079Y2837020D01*
X2971980D01*
Y2827980D01*
X2980665D01*
X2995822Y2812823D01*
X2996822Y2812155D01*
X2998000Y2811921D01*
X3031230D01*
Y2810730D01*
X3039467D01*
X3040117Y2810730D01*
X3041837Y2809837D01*
X3041891Y2809814D01*
X3043000Y2809355D01*
X3053000D01*
X3054163Y2809837D01*
X3059163Y2814837D01*
X3059645Y2816000D01*
X3059645Y2872370D01*
X3061645Y2873356D01*
X3061712Y2873305D01*
X3063298Y2872648D01*
X3065000Y2872424D01*
X3066702Y2872648D01*
X3068288Y2873305D01*
X3069650Y2874350D01*
X3070695Y2875712D01*
X3071352Y2877298D01*
X3071576Y2879000D01*
X3071352Y2880702D01*
X3070695Y2882288D01*
X3069650Y2883650D01*
X3068288Y2884695D01*
X3066702Y2885352D01*
X3065000Y2885576D01*
X3063298Y2885352D01*
X3061712Y2884695D01*
X3060350Y2883650D01*
X3057763Y2883564D01*
X3054163Y2887163D01*
X3053000Y2887645D01*
X3039000Y2887645D01*
X3037837Y2887163D01*
X3036837Y2886163D01*
X3036355Y2885000D01*
Y2829270D01*
X3036355Y2829000D01*
X3034907Y2827270D01*
X3022730D01*
Y2818730D01*
X3020999Y2818079D01*
X2999276D01*
X2987024Y2830331D01*
X2987112Y2830772D01*
X2989282Y2831430D01*
X2991356Y2829356D01*
X2991356Y2829356D01*
X2992110Y2828852D01*
X2993000Y2828675D01*
X2995980D01*
Y2827980D01*
X3010020D01*
Y2837020D01*
X2995980D01*
Y2833325D01*
X2993963D01*
X2985325Y2841963D01*
Y2846489D01*
X2986163Y2846837D01*
X2986645Y2848000D01*
Y2855000D01*
X2986163Y2856163D01*
X2983645Y2858681D01*
Y2877000D01*
X2983163Y2878163D01*
X2982000Y2878645D01*
X2971619Y2878645D01*
Y2879000D01*
X2971223Y2882007D01*
X2970063Y2884810D01*
X2968216Y2887216D01*
X2968216Y2887216D01*
X2959619Y2895813D01*
Y2960187D01*
X2998216Y2998784D01*
X3009216Y3009784D01*
X3011063Y3012190D01*
X3012224Y3014993D01*
X3012619Y3018000D01*
X3012619Y3018000D01*
Y3083187D01*
X3040813Y3111381D01*
X3056000D01*
X3059007Y3111776D01*
X3061810Y3112937D01*
X3064216Y3114784D01*
X3066063Y3117190D01*
X3067224Y3119993D01*
X3067619Y3123000D01*
X3067224Y3126007D01*
X3066063Y3128810D01*
X3064216Y3131216D01*
X3061810Y3133063D01*
X3059007Y3134224D01*
X3056000Y3134619D01*
X3036000D01*
X3036000Y3134619D01*
D02*
G37*
G36*
X2835000Y3192876D02*
X2830639Y3192533D01*
X2826386Y3191512D01*
X2822344Y3189838D01*
X2818615Y3187552D01*
X2815289Y3184711D01*
X2812448Y3181385D01*
X2810162Y3177655D01*
X2808488Y3173614D01*
X2807467Y3169361D01*
X2807124Y3165000D01*
X2807467Y3160639D01*
X2808488Y3156386D01*
X2810162Y3152345D01*
X2812448Y3148615D01*
X2815289Y3145289D01*
X2818615Y3142448D01*
X2822344Y3140162D01*
X2826386Y3138488D01*
X2830639Y3137467D01*
X2835000Y3137124D01*
X2839361Y3137467D01*
X2843614Y3138488D01*
X2847655Y3140162D01*
X2851385Y3142448D01*
X2854711Y3145289D01*
X2857552Y3148615D01*
X2859838Y3152345D01*
X2861512Y3156386D01*
X2862533Y3160639D01*
X2862876Y3165000D01*
X2862533Y3169361D01*
X2861512Y3173614D01*
X2859838Y3177655D01*
X2857552Y3181385D01*
X2854711Y3184711D01*
X2851385Y3187552D01*
X2847655Y3189838D01*
X2843614Y3191512D01*
X2839361Y3192533D01*
X2835000Y3192876D01*
D02*
G37*
G36*
X3085000Y3107585D02*
X3083037Y3107326D01*
X3081208Y3106569D01*
X3079637Y3105363D01*
X3078431Y3103792D01*
X3077674Y3101963D01*
X3077415Y3100000D01*
X3077674Y3098037D01*
X3078431Y3096208D01*
X3079637Y3094637D01*
X3081208Y3093431D01*
X3083037Y3092674D01*
X3085000Y3092415D01*
X3086963Y3092674D01*
X3088792Y3093431D01*
X3090363Y3094637D01*
X3091569Y3096208D01*
X3092326Y3098037D01*
X3092585Y3100000D01*
X3092326Y3101963D01*
X3091569Y3103792D01*
X3090363Y3105363D01*
X3088792Y3106569D01*
X3086963Y3107326D01*
X3085000Y3107585D01*
D02*
G37*
G36*
X3565000Y3192876D02*
X3560639Y3192533D01*
X3556386Y3191512D01*
X3552345Y3189838D01*
X3548615Y3187552D01*
X3545289Y3184711D01*
X3542448Y3181385D01*
X3540162Y3177655D01*
X3538488Y3173614D01*
X3537467Y3169361D01*
X3537124Y3165000D01*
X3537467Y3160639D01*
X3538488Y3156386D01*
X3540162Y3152345D01*
X3542448Y3148615D01*
X3545289Y3145289D01*
X3548615Y3142448D01*
X3552345Y3140162D01*
X3556386Y3138488D01*
X3560639Y3137467D01*
X3565000Y3137124D01*
X3569361Y3137467D01*
X3573614Y3138488D01*
X3577655Y3140162D01*
X3581385Y3142448D01*
X3584711Y3145289D01*
X3587552Y3148615D01*
X3589838Y3152345D01*
X3591512Y3156386D01*
X3592533Y3160639D01*
X3592876Y3165000D01*
X3592533Y3169361D01*
X3591512Y3173614D01*
X3589838Y3177655D01*
X3587552Y3181385D01*
X3584711Y3184711D01*
X3581385Y3187552D01*
X3577655Y3189838D01*
X3573614Y3191512D01*
X3569361Y3192533D01*
X3565000Y3192876D01*
D02*
G37*
G36*
X3498180Y3189720D02*
X3496180Y3189720D01*
X3487180D01*
Y3175680D01*
X3489875D01*
Y3163083D01*
X3488941Y3162459D01*
X3487942Y3160964D01*
X3487591Y3159200D01*
X3487942Y3157437D01*
X3488941Y3155941D01*
X3490436Y3154942D01*
X3492200Y3154591D01*
X3493964Y3154942D01*
X3495459Y3155941D01*
X3496458Y3157437D01*
X3496808Y3159200D01*
X3496458Y3160964D01*
X3495459Y3162459D01*
X3494525Y3163083D01*
Y3174266D01*
X3495939Y3175680D01*
X3497220D01*
X3499461Y3175680D01*
X3500875Y3174266D01*
Y3169083D01*
X3499941Y3168459D01*
X3498942Y3166964D01*
X3498592Y3165200D01*
X3498942Y3163436D01*
X3499941Y3161941D01*
X3501436Y3160942D01*
X3503200Y3160591D01*
X3504964Y3160942D01*
X3506459Y3161941D01*
X3507458Y3163436D01*
X3507809Y3165200D01*
X3507458Y3166964D01*
X3506459Y3168459D01*
X3505525Y3169083D01*
Y3175680D01*
X3508220D01*
Y3189720D01*
X3498180Y3189720D01*
D02*
G37*
G36*
X2942180Y3189720D02*
X2941220D01*
Y3189720D01*
X2931180D01*
Y3175680D01*
X2933875D01*
Y3155800D01*
X2933875Y3155800D01*
X2934052Y3154910D01*
X2934556Y3154156D01*
X2945356Y3143356D01*
X2945356Y3143356D01*
X2946111Y3142852D01*
X2947000Y3142675D01*
X2947000Y3142675D01*
X2975614D01*
X2976733Y3140779D01*
X2976725Y3140675D01*
X2976391Y3139000D01*
X2976742Y3137236D01*
X2977741Y3135741D01*
X2979236Y3134742D01*
X2981000Y3134391D01*
X2982764Y3134742D01*
X2984259Y3135741D01*
X2985258Y3137236D01*
X2985609Y3139000D01*
X2985275Y3140675D01*
X2985267Y3140779D01*
X2986386Y3142675D01*
X2996117D01*
X2996741Y3141741D01*
X2998236Y3140742D01*
X3000000Y3140392D01*
X3001764Y3140742D01*
X3003259Y3141741D01*
X3004258Y3143236D01*
X3004608Y3145000D01*
X3004282Y3146643D01*
X3004553Y3147000D01*
X3005826Y3148016D01*
X3006236Y3147742D01*
X3008000Y3147391D01*
X3009763Y3147742D01*
X3011259Y3148741D01*
X3012258Y3150237D01*
X3012609Y3152000D01*
X3012258Y3153764D01*
X3011259Y3155259D01*
X3009763Y3156258D01*
X3008000Y3156609D01*
X3007656Y3156540D01*
X3006671Y3158383D01*
X3014844Y3166556D01*
X3014844Y3166556D01*
X3015348Y3167310D01*
X3015525Y3168200D01*
X3015525Y3168200D01*
Y3175680D01*
X3018220D01*
Y3189720D01*
X3008180D01*
Y3189720D01*
X3007220D01*
Y3189720D01*
X2997180D01*
Y3175680D01*
X2997180D01*
X2997828Y3174116D01*
X2984106Y3160393D01*
X2982368Y3160587D01*
X2981790Y3162428D01*
X2982259Y3162741D01*
X2983258Y3164236D01*
X2983608Y3166000D01*
X2983258Y3167764D01*
X2982259Y3169259D01*
X2980764Y3170258D01*
X2980439Y3170322D01*
X2979780Y3172493D01*
X2981844Y3174556D01*
X2981844Y3174556D01*
X2982348Y3175310D01*
X2982421Y3175680D01*
X2985220D01*
Y3189720D01*
X2975180D01*
Y3189720D01*
X2974220D01*
Y3189720D01*
X2964180Y3189720D01*
X2962180Y3189720D01*
X2953180D01*
Y3189720D01*
X2952220D01*
Y3189720D01*
X2943220D01*
X2942180Y3189720D01*
Y3189720D01*
D02*
G37*
G36*
X3548770Y3064270D02*
X3539730D01*
Y3056574D01*
X3538409Y3055394D01*
X3537921Y3055270D01*
X3529230D01*
Y3053174D01*
X3529100Y3053148D01*
X3528346Y3052644D01*
X3528346Y3052644D01*
X3527585Y3051883D01*
X3526000Y3050881D01*
X3521870Y3050556D01*
X3517841Y3049589D01*
X3514014Y3048004D01*
X3510482Y3045839D01*
X3507332Y3043148D01*
X3504641Y3039998D01*
X3502476Y3036466D01*
X3500891Y3032639D01*
X3499924Y3028610D01*
X3499599Y3024480D01*
X3499635D01*
Y2979000D01*
X3499622D01*
X3499346Y2976896D01*
X3498534Y2974936D01*
X3497242Y2973253D01*
X3495559Y2971961D01*
X3493599Y2971149D01*
X3491495Y2970872D01*
Y2970860D01*
X3487508D01*
X3486421Y2972477D01*
X3486342Y2972860D01*
X3486594Y2974125D01*
X3486301Y2975596D01*
X3486157Y2975812D01*
X3485630Y2977300D01*
X3486157Y2978788D01*
X3486301Y2979004D01*
X3486594Y2980475D01*
X3486301Y2981946D01*
X3485468Y2983193D01*
X3484221Y2984026D01*
X3482750Y2984319D01*
X3472750D01*
X3471279Y2984026D01*
X3470032Y2983193D01*
X3469270Y2982053D01*
X3469122Y2982028D01*
X3467270Y2982901D01*
Y2987770D01*
X3458730D01*
X3458730Y2987770D01*
X3456730Y2987664D01*
X3455750Y2987859D01*
X3453987Y2987508D01*
X3452491Y2986509D01*
X3451492Y2985014D01*
X3451141Y2983250D01*
X3451492Y2981487D01*
X3452491Y2979991D01*
X3453987Y2978992D01*
X3455750Y2978641D01*
X3456730Y2978836D01*
X3458730Y2978730D01*
Y2977270D01*
X3458730Y2976730D01*
Y2968230D01*
X3466957Y2968230D01*
X3467627Y2968074D01*
X3468963Y2967489D01*
X3468981Y2967398D01*
X3469199Y2966304D01*
X3470032Y2965057D01*
X3471279Y2964224D01*
X3472750Y2963931D01*
X3482750D01*
X3484221Y2964224D01*
X3485468Y2965057D01*
X3486239Y2966210D01*
X3491495D01*
Y2966145D01*
X3494822Y2966583D01*
X3497922Y2967867D01*
X3500585Y2969910D01*
X3502288Y2972130D01*
X3504000Y2972177D01*
X3504562Y2972015D01*
X3506593Y2969368D01*
X3509414Y2967203D01*
X3512700Y2965843D01*
X3516225Y2965378D01*
Y2965450D01*
X3524269D01*
X3524532Y2965057D01*
X3525779Y2964224D01*
X3527250Y2963931D01*
X3537250D01*
X3538721Y2964224D01*
X3539968Y2965057D01*
X3540801Y2966304D01*
X3541094Y2967775D01*
X3540801Y2969246D01*
X3540657Y2969462D01*
X3540483Y2969952D01*
X3540932Y2971243D01*
X3541282Y2971821D01*
X3541294Y2971834D01*
X3542014Y2971977D01*
X3542769Y2972481D01*
X3544644Y2974356D01*
X3544644Y2974356D01*
X3544893Y2974730D01*
X3553270D01*
Y2983270D01*
X3553270D01*
X3553474Y2985186D01*
X3556644Y2988356D01*
X3556644Y2988356D01*
X3557148Y2989110D01*
X3557325Y2990000D01*
X3557325Y2990000D01*
Y3009000D01*
X3557325Y3009000D01*
X3557148Y3009890D01*
X3556644Y3010644D01*
X3556644Y3010644D01*
X3551474Y3015814D01*
X3551584Y3016347D01*
X3553280Y3017192D01*
X3553813Y3017242D01*
X3555710Y3016456D01*
X3558000Y3016154D01*
X3560289Y3016456D01*
X3562423Y3017339D01*
X3564255Y3018745D01*
X3565661Y3020577D01*
X3566544Y3022711D01*
X3566846Y3025000D01*
X3566544Y3027289D01*
X3565661Y3029423D01*
X3564255Y3031255D01*
X3563961Y3031480D01*
X3564640Y3033480D01*
X3566270D01*
Y3039980D01*
Y3046480D01*
Y3052980D01*
Y3060020D01*
X3549730D01*
X3548770Y3061622D01*
Y3064270D01*
D02*
G37*
G36*
X3214500Y3177085D02*
X3212537Y3176826D01*
X3210707Y3176069D01*
X3209137Y3174863D01*
X3207931Y3173293D01*
X3207173Y3171463D01*
X3206915Y3169500D01*
Y3166500D01*
X3207173Y3164537D01*
X3207342Y3164130D01*
X3203356Y3160144D01*
X3201228Y3159780D01*
X3200938Y3159850D01*
X3196658Y3164130D01*
X3196826Y3164537D01*
X3197085Y3166500D01*
Y3169500D01*
X3196826Y3171463D01*
X3196069Y3173293D01*
X3194863Y3174863D01*
X3193293Y3176069D01*
X3191463Y3176826D01*
X3189500Y3177085D01*
X3187537Y3176826D01*
X3185707Y3176069D01*
X3184137Y3174863D01*
X3182931Y3173293D01*
X3182173Y3171463D01*
X3181915Y3169500D01*
Y3166500D01*
X3182173Y3164537D01*
X3182931Y3162708D01*
X3184137Y3161136D01*
X3185707Y3159931D01*
X3187537Y3159174D01*
X3189500Y3158915D01*
X3191463Y3159174D01*
X3193293Y3159931D01*
X3193852Y3160360D01*
X3199469Y3154744D01*
Y3152646D01*
X3189726Y3142903D01*
X3189222Y3142149D01*
X3189045Y3141259D01*
X3189045Y3141259D01*
Y3047684D01*
X3187631Y3046270D01*
X3185270Y3046270D01*
X3184730Y3046270D01*
X3176230D01*
Y3040168D01*
X3174230Y3038563D01*
X3174000Y3038609D01*
X3172236Y3038258D01*
X3170741Y3037259D01*
X3169742Y3035764D01*
X3169391Y3034000D01*
X3167497Y3033270D01*
X3161574D01*
X3160394Y3034591D01*
X3160270Y3035079D01*
X3160270Y3035270D01*
Y3043770D01*
X3160270Y3043770D01*
X3160540Y3045658D01*
X3160609Y3046000D01*
X3160258Y3047764D01*
X3159259Y3049259D01*
X3157764Y3050258D01*
X3156000Y3050609D01*
X3154236Y3050258D01*
X3152741Y3049259D01*
X3151742Y3047764D01*
X3151391Y3046000D01*
X3151459Y3045658D01*
X3151730Y3043770D01*
X3151730Y3043770D01*
X3151730Y3043770D01*
Y3035270D01*
X3151730Y3034730D01*
Y3033270D01*
X3151730Y3032730D01*
Y3025325D01*
X3149713D01*
X3147270Y3027768D01*
Y3032730D01*
X3147270Y3033270D01*
Y3034730D01*
X3147270Y3035270D01*
Y3043770D01*
X3145325D01*
Y3105000D01*
X3145325Y3105000D01*
X3145148Y3105890D01*
X3144644Y3106644D01*
X3144644Y3106644D01*
X3135520Y3115768D01*
Y3137520D01*
X3107480D01*
Y3112480D01*
X3132232D01*
X3140675Y3104037D01*
Y3045184D01*
X3139261Y3043770D01*
X3137739D01*
X3136325Y3045184D01*
Y3072000D01*
X3136325Y3072000D01*
X3136148Y3072890D01*
X3135644Y3073644D01*
X3135644Y3073644D01*
X3133520Y3075768D01*
Y3097520D01*
X3105480D01*
Y3072480D01*
X3130233D01*
X3131675Y3071037D01*
Y3043770D01*
X3129730D01*
Y3035270D01*
X3129730Y3034730D01*
Y3033270D01*
X3129730Y3032730D01*
Y3028273D01*
X3127745Y3027385D01*
X3126770Y3028156D01*
X3126770Y3033270D01*
X3126770Y3035270D01*
Y3042270D01*
X3126770D01*
Y3042730D01*
X3126770D01*
Y3051270D01*
X3117730D01*
Y3043574D01*
X3116409Y3042394D01*
X3115920Y3042270D01*
X3115730Y3042270D01*
X3107230D01*
Y3040325D01*
X3103963D01*
X3100325Y3043963D01*
Y3148037D01*
X3104963Y3152675D01*
X3107480D01*
Y3142480D01*
X3135520D01*
Y3167520D01*
X3107480D01*
Y3157325D01*
X3104000D01*
X3104000Y3157325D01*
X3103110Y3157148D01*
X3102356Y3156644D01*
X3102356Y3156644D01*
X3096356Y3150644D01*
X3095852Y3149890D01*
X3095675Y3149000D01*
X3095675Y3149000D01*
Y3043000D01*
X3095675Y3043000D01*
X3095852Y3042110D01*
X3096356Y3041356D01*
X3101356Y3036356D01*
X3101356Y3036356D01*
X3102110Y3035852D01*
X3103000Y3035675D01*
X3103000Y3035675D01*
X3107098D01*
X3107230Y3033730D01*
Y3033270D01*
X3107230D01*
Y3024730D01*
X3112732D01*
X3117106Y3020356D01*
X3117106Y3020356D01*
X3117860Y3019852D01*
X3118750Y3019675D01*
X3118750Y3019675D01*
X3123988D01*
X3131427Y3012236D01*
X3131427Y3012236D01*
X3132181Y3011732D01*
X3133071Y3011555D01*
X3133071Y3011555D01*
X3134521D01*
X3134590Y3011483D01*
X3135407Y3009555D01*
X3135155Y3009178D01*
X3134921Y3008000D01*
Y3004575D01*
X3114713D01*
X3082605Y3036683D01*
Y3040304D01*
X3083259Y3040741D01*
X3084258Y3042236D01*
X3084608Y3044000D01*
X3084258Y3045764D01*
X3083259Y3047259D01*
X3081764Y3048258D01*
X3080000Y3048608D01*
X3078236Y3048258D01*
X3076741Y3047259D01*
X3075742Y3045764D01*
X3075392Y3044000D01*
X3075688Y3042511D01*
X3075435Y3041811D01*
X3074492Y3040508D01*
X3073236Y3040258D01*
X3071741Y3039259D01*
X3070742Y3037764D01*
X3070500Y3036548D01*
X3070348Y3035958D01*
X3068681Y3034346D01*
X3068236Y3034258D01*
X3066741Y3033259D01*
X3066111Y3032316D01*
X3065804Y3032224D01*
X3064196D01*
X3063889Y3032316D01*
X3063259Y3033259D01*
X3061764Y3034258D01*
X3060000Y3034608D01*
X3058236Y3034258D01*
X3056741Y3033259D01*
X3055742Y3031764D01*
X3055392Y3030000D01*
X3055481Y3029552D01*
X3055077Y3027918D01*
X3054022Y3027414D01*
X3053236Y3027258D01*
X3051741Y3026259D01*
X3050742Y3024763D01*
X3050392Y3023000D01*
X3050742Y3021236D01*
X3051741Y3019741D01*
X3053236Y3018742D01*
X3054022Y3018586D01*
X3055077Y3018082D01*
X3055481Y3016448D01*
X3055392Y3016000D01*
X3055742Y3014236D01*
X3056741Y3012741D01*
X3058236Y3011742D01*
X3060000Y3011391D01*
X3061764Y3011742D01*
X3063259Y3012741D01*
X3063883Y3013675D01*
X3076140D01*
X3093515Y2996299D01*
Y2984160D01*
X3093515Y2984160D01*
X3093692Y2983271D01*
X3094196Y2982516D01*
X3107148Y2969564D01*
X3107394Y2969049D01*
X3107577Y2967566D01*
X3107518Y2967191D01*
X3107471Y2967057D01*
X3095818Y2955405D01*
X3041314D01*
X3040424Y2955228D01*
X3039670Y2954724D01*
X3039670Y2954724D01*
X3026271Y2941325D01*
X3019000D01*
X3018110Y2941148D01*
X3017356Y2940644D01*
X3017356Y2940644D01*
X3016102Y2939389D01*
X3015000Y2939608D01*
X3013236Y2939258D01*
X3011741Y2938259D01*
X3010742Y2936764D01*
X3010611Y2936104D01*
X3008441Y2935445D01*
X3006325Y2937561D01*
Y2949117D01*
X3007259Y2949741D01*
X3008258Y2951236D01*
X3008608Y2953000D01*
X3008258Y2954763D01*
X3007259Y2956259D01*
X3005764Y2957258D01*
X3004000Y2957609D01*
X3002236Y2957258D01*
X3000741Y2956259D01*
X2999742Y2954763D01*
X2999438Y2953232D01*
X2999249Y2952897D01*
X2997609Y2951712D01*
X2996720Y2951889D01*
X2994956Y2951538D01*
X2993461Y2950539D01*
X2992462Y2949044D01*
X2992263Y2948042D01*
X2992043Y2947254D01*
X2990214Y2946566D01*
X2990000Y2946609D01*
X2988236Y2946258D01*
X2986741Y2945259D01*
X2985742Y2943764D01*
X2985395Y2942016D01*
X2985388Y2941997D01*
X2983655Y2940478D01*
X2983000Y2940609D01*
X2981236Y2940258D01*
X2979741Y2939259D01*
X2978742Y2937764D01*
X2978463Y2936357D01*
X2977798Y2935407D01*
X2977593Y2935202D01*
X2976643Y2934538D01*
X2975236Y2934258D01*
X2973741Y2933259D01*
X2972742Y2931764D01*
X2972391Y2930000D01*
X2971000Y2928608D01*
X2969236Y2928258D01*
X2967741Y2927259D01*
X2966742Y2925764D01*
X2966391Y2924000D01*
X2966742Y2922236D01*
X2967741Y2920741D01*
X2969236Y2919742D01*
X2971000Y2919391D01*
X2972764Y2919742D01*
X2974259Y2920741D01*
X2974883Y2921675D01*
X2994139D01*
X3007578Y2908236D01*
X3007578Y2908236D01*
X3008333Y2907732D01*
X3009222Y2907555D01*
X3009222Y2907555D01*
X3065356D01*
X3066271Y2905555D01*
X3065742Y2904763D01*
X3065392Y2903000D01*
X3065742Y2901236D01*
X3066741Y2899741D01*
X3068236Y2898742D01*
X3070000Y2898391D01*
X3071102Y2898611D01*
X3076635Y2893077D01*
Y2888040D01*
X3076635Y2888040D01*
X3076812Y2887150D01*
X3077316Y2886396D01*
X3106356Y2857356D01*
X3106356Y2857356D01*
X3107110Y2856852D01*
X3108000Y2856675D01*
X3133037D01*
X3135135Y2854577D01*
X3134921Y2853500D01*
Y2844874D01*
X3132921Y2844268D01*
X3132259Y2845259D01*
X3130764Y2846258D01*
X3129000Y2846609D01*
X3127236Y2846258D01*
X3126379Y2845685D01*
X3125000Y2845408D01*
X3123621Y2845685D01*
X3122764Y2846258D01*
X3121000Y2846609D01*
X3119236Y2846258D01*
X3118379Y2845685D01*
X3117000Y2845408D01*
X3115621Y2845685D01*
X3114763Y2846258D01*
X3113000Y2846609D01*
X3111236Y2846258D01*
X3110379Y2845685D01*
X3109000Y2845408D01*
X3107621Y2845685D01*
X3106764Y2846258D01*
X3105000Y2846609D01*
X3103236Y2846258D01*
X3101741Y2845259D01*
X3100742Y2843764D01*
X3100392Y2842000D01*
X3100742Y2840237D01*
X3101741Y2838741D01*
X3103236Y2837742D01*
X3105000Y2837391D01*
X3106102Y2837610D01*
X3116356Y2827356D01*
X3116356Y2827356D01*
X3117110Y2826852D01*
X3118000Y2826675D01*
X3118000Y2826675D01*
X3138107D01*
X3139176Y2824675D01*
X3138968Y2824365D01*
X3129741D01*
X3129741Y2824365D01*
X3128851Y2824188D01*
X3128097Y2823684D01*
X3128097Y2823684D01*
X3122517Y2818104D01*
X3120461Y2818876D01*
X3120352Y2819702D01*
X3119695Y2821288D01*
X3118650Y2822650D01*
X3117288Y2823695D01*
X3115702Y2824352D01*
X3114000Y2824576D01*
X3112298Y2824352D01*
X3110712Y2823695D01*
X3109350Y2822650D01*
X3108305Y2821288D01*
X3107648Y2819702D01*
X3107424Y2818000D01*
X3107648Y2816298D01*
X3108305Y2814712D01*
X3109350Y2813350D01*
X3110712Y2812305D01*
X3112298Y2811648D01*
X3112911Y2811567D01*
X3113609Y2809756D01*
X3112449Y2808325D01*
X3094000D01*
X3094000Y2808325D01*
X3093110Y2808148D01*
X3092356Y2807644D01*
X3092356Y2807644D01*
X3088531Y2803819D01*
X3088027Y2803065D01*
X3087850Y2802175D01*
X3087850Y2802175D01*
Y2801231D01*
X3087457Y2800968D01*
X3086624Y2799721D01*
X3086331Y2798250D01*
Y2788250D01*
X3086624Y2786779D01*
X3087457Y2785532D01*
X3088704Y2784699D01*
X3090175Y2784406D01*
X3090714Y2784513D01*
X3091324Y2784012D01*
X3092188Y2782838D01*
X3091917Y2781475D01*
X3092267Y2779711D01*
X3093266Y2778216D01*
X3094761Y2777217D01*
X3096525Y2776866D01*
X3098289Y2777217D01*
X3099784Y2778216D01*
X3100408Y2779150D01*
X3123230D01*
Y2775730D01*
X3125425D01*
Y2773270D01*
X3122980D01*
X3122980Y2766352D01*
Y2766340D01*
Y2766340D01*
X3122980Y2765905D01*
X3120980Y2765190D01*
X3119713Y2766733D01*
X3116774Y2769145D01*
X3113422Y2770937D01*
X3109783Y2772041D01*
X3106000Y2772413D01*
Y2772365D01*
X3071000D01*
Y2772372D01*
X3069510Y2772668D01*
X3068247Y2773512D01*
X3067404Y2774775D01*
X3067107Y2776265D01*
X3067100D01*
Y2784163D01*
X3068968Y2785009D01*
X3069438Y2784843D01*
X3069654Y2784699D01*
X3071125Y2784406D01*
X3072596Y2784699D01*
X3072812Y2784843D01*
X3074300Y2785370D01*
X3075788Y2784843D01*
X3076004Y2784699D01*
X3077475Y2784406D01*
X3078946Y2784699D01*
X3080193Y2785532D01*
X3081026Y2786779D01*
X3081319Y2788250D01*
Y2798250D01*
X3081026Y2799721D01*
X3080193Y2800968D01*
X3078946Y2801801D01*
X3077475Y2802094D01*
X3076956Y2801990D01*
X3076366Y2802457D01*
X3075468Y2803665D01*
X3075734Y2805000D01*
X3075383Y2806764D01*
X3074384Y2808259D01*
X3072888Y2809258D01*
X3071125Y2809608D01*
X3069361Y2809258D01*
X3067866Y2808259D01*
X3066867Y2806764D01*
X3066516Y2805000D01*
X3066782Y2803665D01*
X3065884Y2802457D01*
X3065294Y2801990D01*
X3064775Y2802094D01*
X3063304Y2801801D01*
X3062057Y2800968D01*
X3061224Y2799721D01*
X3060931Y2798250D01*
Y2788250D01*
X3061224Y2786779D01*
X3062057Y2785532D01*
X3062450Y2785269D01*
Y2776265D01*
X3062422D01*
X3062714Y2774045D01*
X3063571Y2771976D01*
X3064934Y2770199D01*
X3065480Y2769781D01*
Y2767260D01*
X3064934Y2766841D01*
X3063571Y2765064D01*
X3062714Y2762995D01*
X3062422Y2760775D01*
X3062450D01*
Y2746731D01*
X3062057Y2746468D01*
X3061224Y2745221D01*
X3060931Y2743750D01*
Y2733750D01*
X3061224Y2732279D01*
X3062057Y2731032D01*
X3063304Y2730199D01*
X3064775Y2729906D01*
X3066246Y2730199D01*
X3066462Y2730343D01*
X3067132Y2730580D01*
X3068828Y2730034D01*
X3069062Y2729858D01*
X3069481Y2729231D01*
X3071356Y2727356D01*
X3071356Y2727356D01*
X3071730Y2727106D01*
Y2718730D01*
X3080270D01*
X3081500Y2717240D01*
Y2714175D01*
X3081500Y2714175D01*
X3081677Y2713286D01*
X3082181Y2712531D01*
X3093356Y2701356D01*
X3094110Y2700852D01*
X3095000Y2700675D01*
X3095000Y2700675D01*
X3096614D01*
X3097293Y2698675D01*
X3096745Y2698255D01*
X3095339Y2696423D01*
X3094456Y2694290D01*
X3094154Y2692000D01*
X3094456Y2689711D01*
X3095339Y2687577D01*
X3096745Y2685745D01*
X3098577Y2684339D01*
X3100710Y2683456D01*
X3103000Y2683154D01*
X3105289Y2683456D01*
X3107423Y2684339D01*
X3109255Y2685745D01*
X3109480Y2686039D01*
X3111480Y2685360D01*
Y2683730D01*
X3138020D01*
Y2700270D01*
X3132059D01*
X3130325Y2701000D01*
X3130148Y2701890D01*
X3129920Y2702230D01*
X3130112Y2703324D01*
X3130886Y2704230D01*
X3139270D01*
Y2713270D01*
X3131573D01*
X3130394Y2714591D01*
X3130270Y2715079D01*
Y2723770D01*
X3128174D01*
X3128148Y2723900D01*
X3127644Y2724654D01*
X3127644Y2724654D01*
X3125345Y2726953D01*
Y2753020D01*
X3125393D01*
X3125021Y2756804D01*
X3123917Y2760442D01*
X3122613Y2762882D01*
X3123893Y2764730D01*
X3124435Y2764730D01*
X3124435Y2764730D01*
X3124493Y2764730D01*
X3131480D01*
X3132020Y2764730D01*
X3133633D01*
X3133730Y2762770D01*
X3133730D01*
Y2754270D01*
X3133730Y2753730D01*
Y2752270D01*
X3133730Y2751730D01*
Y2743230D01*
X3133730Y2743230D01*
X3133643Y2741266D01*
X3133391Y2740000D01*
X3133742Y2738236D01*
X3134741Y2736741D01*
X3136236Y2735742D01*
X3138000Y2735392D01*
X3139763Y2735742D01*
X3141259Y2736741D01*
X3142258Y2738236D01*
X3142609Y2740000D01*
X3142357Y2741266D01*
X3142270Y2743230D01*
X3142270Y2743230D01*
X3142270Y2743230D01*
Y2751730D01*
X3142270Y2752270D01*
Y2753730D01*
X3142270Y2754270D01*
Y2762770D01*
X3142270D01*
X3142367Y2764730D01*
X3142520D01*
Y2773270D01*
X3134020D01*
X3133480Y2773270D01*
X3132020D01*
X3131533Y2773625D01*
X3131476Y2774358D01*
X3132040Y2775730D01*
X3133730D01*
X3134270Y2775730D01*
X3142770D01*
Y2784270D01*
X3140575D01*
Y2788730D01*
X3142770D01*
Y2795317D01*
X3143223Y2795757D01*
X3144770Y2796636D01*
X3146000Y2796391D01*
X3147764Y2796742D01*
X3149259Y2797741D01*
X3150258Y2799236D01*
X3150609Y2801000D01*
X3150258Y2802764D01*
X3149259Y2804259D01*
X3148325Y2804883D01*
Y2811758D01*
X3150325Y2812365D01*
X3150741Y2811741D01*
X3152236Y2810742D01*
X3154000Y2810392D01*
X3155764Y2810742D01*
X3157259Y2811741D01*
X3158258Y2813236D01*
X3158675Y2813456D01*
X3160675Y2812246D01*
Y2804883D01*
X3159741Y2804259D01*
X3158742Y2802764D01*
X3158391Y2801000D01*
X3158742Y2799236D01*
X3159741Y2797741D01*
X3161236Y2796742D01*
X3163000Y2796391D01*
X3164763Y2796742D01*
X3166259Y2797741D01*
X3167258Y2799236D01*
X3167609Y2801000D01*
X3167258Y2802764D01*
X3166259Y2804259D01*
X3165325Y2804883D01*
Y2816916D01*
X3165903Y2817337D01*
X3167612Y2816107D01*
X3167391Y2815000D01*
X3167742Y2813236D01*
X3168741Y2811741D01*
X3170237Y2810742D01*
X3172000Y2810392D01*
X3173764Y2810742D01*
X3175259Y2811741D01*
X3175675Y2812365D01*
X3177675Y2811758D01*
Y2804883D01*
X3176741Y2804259D01*
X3175742Y2802764D01*
X3175392Y2801000D01*
X3175742Y2799236D01*
X3176741Y2797741D01*
X3177305Y2797365D01*
X3176698Y2795365D01*
X3175741D01*
X3175741Y2795365D01*
X3174851Y2795188D01*
X3174097Y2794684D01*
X3174097Y2794684D01*
X3161356Y2781943D01*
X3160852Y2781189D01*
X3160675Y2780299D01*
X3160675Y2780299D01*
Y2703000D01*
X3160675Y2703000D01*
X3160852Y2702110D01*
X3161356Y2701356D01*
X3166675Y2696037D01*
Y2689000D01*
X3166675Y2689000D01*
X3166852Y2688110D01*
X3167356Y2687356D01*
X3187356Y2667356D01*
X3187356Y2667356D01*
X3188110Y2666852D01*
X3189000Y2666675D01*
X3189000Y2666675D01*
X3199000D01*
X3199000Y2666675D01*
X3199890Y2666852D01*
X3200644Y2667356D01*
X3207335Y2674047D01*
X3208298Y2673648D01*
X3210000Y2673424D01*
X3211702Y2673648D01*
X3213288Y2674305D01*
X3214650Y2675350D01*
X3215695Y2676712D01*
X3216352Y2678298D01*
X3216576Y2680000D01*
X3216352Y2681702D01*
X3215695Y2683288D01*
X3214650Y2684650D01*
X3213288Y2685695D01*
X3213204Y2685730D01*
X3213602Y2687730D01*
X3213820D01*
Y2700270D01*
X3206780D01*
Y2687730D01*
X3206780D01*
X3206796Y2685730D01*
X3206712Y2685695D01*
X3205350Y2684650D01*
X3204305Y2683288D01*
X3204082Y2682751D01*
X3201918D01*
X3201695Y2683288D01*
X3200650Y2684650D01*
X3199925Y2685207D01*
Y2687730D01*
X3201120D01*
Y2700270D01*
X3194080D01*
X3193258Y2701764D01*
X3192259Y2703259D01*
X3190764Y2704258D01*
X3189000Y2704608D01*
X3188788Y2704566D01*
X3186677Y2706677D01*
X3185678Y2707345D01*
X3184500Y2707579D01*
X3181270D01*
Y2709020D01*
X3172730D01*
Y2703926D01*
X3170865Y2703205D01*
X3169325Y2704899D01*
Y2779037D01*
X3177963Y2787675D01*
X3206117D01*
X3206741Y2786741D01*
X3207732Y2786079D01*
X3207126Y2784079D01*
X3194379D01*
X3194259Y2784259D01*
X3192764Y2785258D01*
X3191000Y2785609D01*
X3189236Y2785258D01*
X3189053Y2785135D01*
X3187500Y2784377D01*
X3185947Y2785135D01*
X3185764Y2785258D01*
X3184000Y2785609D01*
X3182236Y2785258D01*
X3180741Y2784259D01*
X3180621Y2784079D01*
X3180000D01*
X3178822Y2783845D01*
X3177823Y2783177D01*
X3174823Y2780177D01*
X3174155Y2779178D01*
X3173921Y2778000D01*
Y2775770D01*
X3172730D01*
Y2766730D01*
X3181270D01*
Y2775050D01*
X3181401Y2775280D01*
X3182924Y2776606D01*
X3184000Y2776391D01*
X3185764Y2776742D01*
X3185947Y2776865D01*
X3187500Y2777623D01*
X3189053Y2776865D01*
X3189236Y2776742D01*
X3191000Y2776391D01*
X3192080Y2776606D01*
X3193751Y2775598D01*
X3194080Y2775216D01*
Y2764630D01*
X3201120D01*
Y2777170D01*
X3202809Y2777921D01*
X3205091D01*
X3206780Y2777170D01*
Y2764630D01*
X3213820D01*
Y2777170D01*
X3213379D01*
Y2778700D01*
X3213145Y2779878D01*
X3212477Y2780877D01*
X3210177Y2783177D01*
X3209756Y2783459D01*
X3209866Y2784328D01*
X3210357Y2785463D01*
X3211764Y2785742D01*
X3213259Y2786741D01*
X3213580Y2787222D01*
X3215927Y2787472D01*
X3216301Y2787072D01*
X3216617Y2786471D01*
X3216424Y2785000D01*
X3216648Y2783298D01*
X3217305Y2781712D01*
X3218350Y2780350D01*
X3219712Y2779305D01*
X3220037Y2779170D01*
X3219639Y2777170D01*
X3219480D01*
Y2764630D01*
X3226520D01*
Y2777170D01*
X3226360D01*
X3225963Y2779170D01*
X3226288Y2779305D01*
X3227650Y2780350D01*
X3228695Y2781712D01*
X3228918Y2782249D01*
X3231082D01*
X3231305Y2781712D01*
X3232350Y2780350D01*
X3233375Y2779563D01*
Y2777170D01*
X3232180D01*
Y2764630D01*
X3239220D01*
Y2777170D01*
X3239220Y2777170D01*
X3239591Y2779016D01*
X3240288Y2779305D01*
X3241650Y2780350D01*
X3242695Y2781712D01*
X3243352Y2783298D01*
X3243576Y2785000D01*
X3243352Y2786702D01*
X3242695Y2788288D01*
X3241650Y2789650D01*
X3240288Y2790695D01*
X3239325Y2791094D01*
Y2795000D01*
X3239325Y2795000D01*
X3239148Y2795890D01*
X3238644Y2796644D01*
X3238644Y2796644D01*
X3227045Y2808243D01*
Y2829316D01*
X3229045Y2830581D01*
X3230000Y2830392D01*
X3230730Y2830537D01*
X3232730Y2829480D01*
Y2829480D01*
X3241270D01*
Y2833790D01*
X3243118Y2834555D01*
X3244730Y2832943D01*
Y2829480D01*
X3253270D01*
Y2831502D01*
X3253522Y2831714D01*
X3255270Y2832388D01*
X3256236Y2831742D01*
X3258000Y2831391D01*
X3259946Y2829745D01*
X3260011Y2829338D01*
X3256837Y2826163D01*
X3256355Y2825000D01*
X3256355Y2811000D01*
X3256837Y2809837D01*
X3257837Y2808837D01*
X3259000Y2808355D01*
X3314730D01*
X3315000Y2808355D01*
X3316730Y2806906D01*
Y2794730D01*
X3325270D01*
X3325921Y2793000D01*
Y2771275D01*
X3313669Y2759024D01*
X3313228Y2759112D01*
X3312570Y2761282D01*
X3314644Y2763356D01*
X3314644Y2763356D01*
X3315148Y2764110D01*
X3315325Y2765000D01*
Y2767980D01*
X3316020D01*
Y2782020D01*
X3306980D01*
Y2767980D01*
X3310675D01*
Y2765963D01*
X3302037Y2757325D01*
X3297511D01*
X3297163Y2758163D01*
X3296000Y2758645D01*
X3289000D01*
X3287837Y2758163D01*
X3285319Y2755645D01*
X3267000D01*
X3265836Y2755163D01*
X3265355Y2754000D01*
X3265355Y2738000D01*
X3265836Y2736837D01*
X3268837Y2733837D01*
X3270000Y2733355D01*
X3292000Y2733355D01*
X3293163Y2733837D01*
X3297163Y2737837D01*
X3297645Y2739000D01*
X3297645Y2751261D01*
X3299059Y2752675D01*
X3303000D01*
X3303000Y2752675D01*
X3303889Y2752852D01*
X3304644Y2753356D01*
X3305132Y2753845D01*
X3306980Y2753079D01*
Y2743980D01*
X3316020D01*
Y2752665D01*
X3331177Y2767823D01*
X3331845Y2768822D01*
X3332079Y2770000D01*
Y2803230D01*
X3333270D01*
Y2811466D01*
X3333270Y2812117D01*
X3334164Y2813837D01*
X3334186Y2813891D01*
X3334645Y2815000D01*
Y2825000D01*
X3334163Y2826163D01*
X3329163Y2831163D01*
X3328000Y2831645D01*
X3322325D01*
Y2836906D01*
X3323288Y2837305D01*
X3324650Y2838350D01*
X3325695Y2839712D01*
X3326352Y2841298D01*
X3326576Y2843000D01*
X3326352Y2844702D01*
X3325695Y2846288D01*
X3324650Y2847650D01*
X3323288Y2848695D01*
X3321702Y2849352D01*
X3320000Y2849576D01*
X3318298Y2849352D01*
X3316712Y2848695D01*
X3315350Y2847650D01*
X3314305Y2846288D01*
X3313648Y2844702D01*
X3313424Y2843000D01*
X3313648Y2841298D01*
X3314305Y2839712D01*
X3315350Y2838350D01*
X3316712Y2837305D01*
X3317675Y2836906D01*
Y2831645D01*
X3263000Y2831645D01*
X3262853Y2831584D01*
X3261580Y2833222D01*
X3262258Y2834236D01*
X3262609Y2836000D01*
X3262258Y2837764D01*
X3263178Y2839155D01*
X3264177Y2839823D01*
X3264845Y2840822D01*
X3265022Y2841714D01*
X3265821Y2842191D01*
X3267079Y2842516D01*
X3268236Y2841742D01*
X3270000Y2841391D01*
X3271764Y2841742D01*
X3273259Y2842741D01*
X3274258Y2844236D01*
X3274608Y2846000D01*
X3274339Y2847355D01*
X3275093Y2848754D01*
X3275600Y2849355D01*
X3289000Y2849355D01*
X3290163Y2849837D01*
X3296163Y2855836D01*
X3296645Y2857000D01*
Y2870000D01*
X3296163Y2871163D01*
X3287645Y2879681D01*
Y2883000D01*
X3287163Y2884163D01*
X3286163Y2885163D01*
X3285845Y2885822D01*
X3286079Y2887000D01*
X3285845Y2888178D01*
X3285296Y2889000D01*
X3285845Y2889822D01*
X3285863Y2889915D01*
X3287930Y2891165D01*
X3288730Y2890837D01*
Y2888730D01*
X3297270D01*
Y2892671D01*
X3297730Y2894480D01*
X3306270D01*
Y2896675D01*
X3319037D01*
X3321730Y2893983D01*
Y2879480D01*
X3336270D01*
Y2896520D01*
X3325768D01*
X3321644Y2900644D01*
X3320890Y2901148D01*
X3320270Y2901480D01*
X3320270Y2903155D01*
Y2918520D01*
X3305730D01*
Y2910075D01*
X3303270D01*
Y2912270D01*
X3297314D01*
X3296210Y2913940D01*
X3296155Y2914270D01*
X3296295Y2914970D01*
X3296295Y2914970D01*
Y2922007D01*
X3299963Y2925675D01*
X3337037D01*
X3343585Y2919127D01*
X3343230Y2918270D01*
X3343230D01*
Y2909730D01*
X3351614D01*
X3352564Y2907852D01*
X3351556Y2906844D01*
X3351052Y2906089D01*
X3350875Y2905200D01*
X3350845Y2905088D01*
X3348651Y2904179D01*
X3346767Y2902733D01*
X3345321Y2900849D01*
X3344412Y2898655D01*
X3344102Y2896300D01*
X3344412Y2893945D01*
X3345321Y2891751D01*
X3346289Y2890489D01*
X3345654Y2888376D01*
X3345536Y2888303D01*
X3344000Y2888608D01*
X3342236Y2888258D01*
X3340741Y2887259D01*
X3339742Y2885764D01*
X3339391Y2884000D01*
X3339742Y2882236D01*
X3340741Y2880741D01*
X3342236Y2879742D01*
X3344000Y2879391D01*
X3345764Y2879742D01*
X3347259Y2880741D01*
X3348258Y2882236D01*
X3348608Y2884000D01*
X3348258Y2885764D01*
X3347566Y2886799D01*
X3348139Y2887655D01*
X3348978Y2888286D01*
X3350845Y2887512D01*
X3353200Y2887202D01*
X3355555Y2887512D01*
X3357749Y2888421D01*
X3359633Y2889867D01*
X3361079Y2891751D01*
X3361988Y2893945D01*
X3362298Y2896300D01*
X3361988Y2898655D01*
X3361079Y2900849D01*
X3359633Y2902733D01*
X3358058Y2903942D01*
X3357397Y2906109D01*
X3359894Y2908606D01*
X3359894Y2908606D01*
X3360398Y2909360D01*
X3360471Y2909730D01*
X3362770D01*
Y2918270D01*
X3359498D01*
X3359286Y2918522D01*
X3358612Y2920270D01*
X3359258Y2921236D01*
X3359608Y2923000D01*
X3359258Y2924763D01*
X3358259Y2926259D01*
X3356764Y2927258D01*
X3355000Y2927609D01*
X3353236Y2927258D01*
X3351741Y2926259D01*
X3351117Y2925325D01*
X3348963D01*
X3342614Y2931673D01*
X3342668Y2932426D01*
X3343129Y2933987D01*
X3344259Y2934741D01*
X3345258Y2936236D01*
X3345609Y2938000D01*
X3345258Y2939763D01*
X3344259Y2941259D01*
X3342764Y2942258D01*
X3341000Y2942609D01*
X3339236Y2942258D01*
X3338535Y2941789D01*
X3338239Y2941821D01*
X3336472Y2942686D01*
X3336258Y2943764D01*
X3335259Y2945259D01*
X3333764Y2946258D01*
X3332000Y2946609D01*
X3330236Y2946258D01*
X3328741Y2945259D01*
X3328510Y2944912D01*
X3328205Y2944926D01*
X3326506Y2945514D01*
X3326258Y2946764D01*
X3325259Y2948259D01*
X3323764Y2949258D01*
X3322000Y2949608D01*
X3320237Y2949258D01*
X3318741Y2948259D01*
X3317742Y2946764D01*
X3317391Y2945000D01*
X3316244Y2944351D01*
X3315414Y2946019D01*
X3315609Y2947000D01*
X3315258Y2948764D01*
X3314259Y2950259D01*
X3312764Y2951258D01*
X3311000Y2951609D01*
X3309236Y2951258D01*
X3307741Y2950259D01*
X3306742Y2948764D01*
X3306671Y2948404D01*
X3305082Y2947331D01*
X3304258Y2948236D01*
X3304608Y2950000D01*
X3304283Y2951635D01*
X3304286Y2951810D01*
X3305413Y2953635D01*
X3337519D01*
X3337616Y2953655D01*
X3342026Y2953220D01*
X3346360Y2951906D01*
X3350355Y2949771D01*
X3353781Y2946959D01*
X3353836Y2946877D01*
X3396356Y2904356D01*
X3396470Y2904280D01*
X3398738Y2901324D01*
X3400215Y2897757D01*
X3400702Y2894063D01*
X3400675Y2893929D01*
Y2881303D01*
X3400557Y2881124D01*
X3399001Y2879926D01*
X3397404Y2880588D01*
X3395050Y2880898D01*
X3392695Y2880588D01*
X3390501Y2879679D01*
X3388617Y2878233D01*
X3387171Y2876349D01*
X3386262Y2874155D01*
X3385952Y2871800D01*
X3386262Y2869445D01*
X3387171Y2867251D01*
X3388617Y2865367D01*
X3390501Y2863921D01*
X3392695Y2863012D01*
X3395050Y2862702D01*
X3397404Y2863012D01*
X3399599Y2863921D01*
X3401483Y2865367D01*
X3402929Y2867251D01*
X3403838Y2869445D01*
X3404148Y2871800D01*
X3403838Y2874155D01*
X3402929Y2876349D01*
X3402910Y2876373D01*
X3403053Y2876515D01*
X3404475Y2877921D01*
X3406024Y2876729D01*
X3407158Y2875594D01*
X3406562Y2874155D01*
X3406252Y2871800D01*
X3406562Y2869445D01*
X3407471Y2867251D01*
X3408917Y2865367D01*
X3410801Y2863921D01*
X3412995Y2863012D01*
X3415350Y2862702D01*
X3417704Y2863012D01*
X3419899Y2863921D01*
X3421783Y2865367D01*
X3423229Y2867251D01*
X3424138Y2869445D01*
X3424448Y2871800D01*
X3424138Y2874155D01*
X3423229Y2876349D01*
X3421783Y2878233D01*
X3419899Y2879679D01*
X3417704Y2880588D01*
X3415350Y2880898D01*
X3412995Y2880588D01*
X3410801Y2879679D01*
X3410149Y2879178D01*
X3408365Y2880963D01*
Y2893929D01*
X3408428D01*
X3407996Y2898318D01*
X3406716Y2902539D01*
X3404637Y2906429D01*
X3401838Y2909839D01*
X3401838Y2909839D01*
X3400379Y2911208D01*
X3359273Y2952314D01*
X3359273Y2952314D01*
X3359308Y2952350D01*
X3355632Y2955490D01*
X3351509Y2958016D01*
X3347041Y2959867D01*
X3343674Y2960675D01*
X3343911Y2962675D01*
X3368479D01*
X3368576Y2962695D01*
X3372986Y2962260D01*
X3377321Y2960946D01*
X3381315Y2958810D01*
X3384741Y2955999D01*
X3384796Y2955917D01*
X3440356Y2900356D01*
X3440356Y2900356D01*
X3440356Y2900356D01*
X3441361Y2898772D01*
X3441678Y2897182D01*
X3441675Y2897172D01*
Y2881270D01*
X3441565Y2881003D01*
X3440223Y2879661D01*
X3440199Y2879679D01*
X3438004Y2880588D01*
X3435650Y2880898D01*
X3433295Y2880588D01*
X3431101Y2879679D01*
X3429217Y2878233D01*
X3427771Y2876349D01*
X3426862Y2874155D01*
X3426552Y2871800D01*
X3426862Y2869445D01*
X3427771Y2867251D01*
X3429217Y2865367D01*
X3431101Y2863921D01*
X3433295Y2863012D01*
X3435650Y2862702D01*
X3438004Y2863012D01*
X3440199Y2863921D01*
X3442083Y2865367D01*
X3443529Y2867251D01*
X3444438Y2869445D01*
X3444748Y2871800D01*
X3444438Y2874155D01*
X3443894Y2875467D01*
X3444759Y2876761D01*
X3446901Y2877134D01*
X3446980Y2877133D01*
X3447937Y2876025D01*
X3447162Y2874155D01*
X3446852Y2871800D01*
X3447162Y2869445D01*
X3448071Y2867251D01*
X3449517Y2865367D01*
X3451401Y2863921D01*
X3453595Y2863012D01*
X3455950Y2862702D01*
X3458305Y2863012D01*
X3460499Y2863921D01*
X3462383Y2865367D01*
X3463829Y2867251D01*
X3464738Y2869445D01*
X3465048Y2871800D01*
X3464738Y2874155D01*
X3463829Y2876349D01*
X3462383Y2878233D01*
X3460499Y2879679D01*
X3458305Y2880588D01*
X3455950Y2880898D01*
X3453595Y2880588D01*
X3451401Y2879679D01*
X3451377Y2879661D01*
X3449365Y2881673D01*
Y2897172D01*
X3449425D01*
X3449007Y2900343D01*
X3447783Y2903298D01*
X3445836Y2905836D01*
X3445836Y2905836D01*
X3444379Y2907208D01*
X3390233Y2961354D01*
X3390233Y2961354D01*
X3390269Y2961389D01*
X3386591Y2964530D01*
X3382469Y2967056D01*
X3378001Y2968907D01*
X3373300Y2970036D01*
X3368479Y2970415D01*
Y2970365D01*
X3329369D01*
X3327520Y2970730D01*
Y2983770D01*
X3306480D01*
Y2980020D01*
X3300183D01*
X3298688Y2980184D01*
X3298270Y2981830D01*
Y2989270D01*
X3298270Y2989270D01*
Y2990730D01*
X3298270D01*
X3298270Y2991270D01*
Y2998170D01*
X3298688Y2999816D01*
X3300183Y2999980D01*
X3306480D01*
Y2996230D01*
X3327520D01*
Y3009270D01*
X3306480D01*
Y3009020D01*
X3298730D01*
Y3008754D01*
X3298500Y3006825D01*
X3297610Y3006648D01*
X3296856Y3006144D01*
X3296856Y3006144D01*
X3292356Y3001644D01*
X3291852Y3000890D01*
X3291675Y3000000D01*
X3289745Y2999770D01*
X3289730D01*
Y2994268D01*
X3284855Y2989393D01*
X3284178Y2989845D01*
X3283000Y2990079D01*
X3271500D01*
X3270322Y2989845D01*
X3269323Y2989177D01*
X3268655Y2988178D01*
X3266764Y2988258D01*
X3265000Y2988609D01*
X3263976Y2988405D01*
X3263838Y2988472D01*
X3262472Y2989838D01*
X3262405Y2989976D01*
X3262609Y2991000D01*
X3262258Y2992764D01*
X3263178Y2993655D01*
X3264177Y2994323D01*
X3264845Y2995322D01*
X3265079Y2996500D01*
Y3007791D01*
X3265923Y3008635D01*
X3269230D01*
Y3007730D01*
X3278270D01*
Y3016270D01*
X3273830D01*
X3272020Y3016730D01*
Y3025270D01*
X3263329D01*
X3262841Y3025394D01*
X3261520Y3026574D01*
Y3034270D01*
X3261520D01*
X3261537Y3036263D01*
X3261650Y3036350D01*
X3262695Y3037712D01*
X3263094Y3038675D01*
X3272480D01*
Y3032480D01*
X3303520D01*
Y3057520D01*
X3286166D01*
X3286077Y3057567D01*
X3285811Y3059553D01*
X3286764Y3059742D01*
X3288259Y3060741D01*
X3289258Y3062236D01*
X3289608Y3064000D01*
X3289315Y3065475D01*
X3289644Y3066287D01*
X3290519Y3067475D01*
X3321296D01*
X3321296Y3067475D01*
X3322186Y3067652D01*
X3322940Y3068156D01*
X3386544Y3131761D01*
X3386741Y3131741D01*
X3388236Y3130742D01*
X3390000Y3130392D01*
X3391764Y3130742D01*
X3393259Y3131741D01*
X3394258Y3133236D01*
X3394608Y3135000D01*
X3394258Y3136764D01*
X3393259Y3138259D01*
X3391764Y3139258D01*
X3390357Y3139538D01*
X3389407Y3140202D01*
X3389202Y3140406D01*
X3388538Y3141357D01*
X3388258Y3142764D01*
X3387259Y3144259D01*
X3385764Y3145258D01*
X3384000Y3145609D01*
X3382609Y3147000D01*
X3382258Y3148764D01*
X3381259Y3150259D01*
X3379763Y3151258D01*
X3378357Y3151537D01*
X3377407Y3152202D01*
X3376609Y3153000D01*
X3376258Y3154763D01*
X3375259Y3156259D01*
X3373764Y3157258D01*
X3372357Y3157538D01*
X3371407Y3158202D01*
X3371202Y3158407D01*
X3370537Y3159357D01*
X3370258Y3160764D01*
X3369259Y3162259D01*
X3367764Y3163258D01*
X3366357Y3163538D01*
X3365406Y3164202D01*
X3364608Y3165000D01*
X3364258Y3166764D01*
X3363259Y3168259D01*
X3361764Y3169258D01*
X3360000Y3169608D01*
X3358236Y3169258D01*
X3356741Y3168259D01*
X3355742Y3166764D01*
X3355392Y3165000D01*
X3355742Y3163236D01*
X3356741Y3161741D01*
X3357675Y3161117D01*
Y3130963D01*
X3314037Y3087325D01*
X3262102D01*
X3262102Y3087325D01*
X3261213Y3087148D01*
X3260458Y3086644D01*
X3260458Y3086644D01*
X3230044Y3056230D01*
X3228252Y3057266D01*
X3228615Y3058609D01*
X3229971Y3060377D01*
X3229968Y3060381D01*
X3301090Y3131503D01*
X3301128Y3131465D01*
X3303685Y3134579D01*
X3305584Y3138134D01*
X3306754Y3141990D01*
X3307149Y3146000D01*
X3307149D01*
X3307179Y3146555D01*
X3307738Y3146895D01*
X3308582Y3146888D01*
X3309412Y3146104D01*
X3309391Y3146000D01*
X3309742Y3144236D01*
X3310234Y3143500D01*
X3309742Y3142764D01*
X3309391Y3141000D01*
X3309742Y3139236D01*
X3310741Y3137741D01*
X3312236Y3136742D01*
X3314000Y3136391D01*
X3315764Y3136742D01*
X3317259Y3137741D01*
X3318258Y3139236D01*
X3318608Y3141000D01*
X3318258Y3142764D01*
X3317766Y3143500D01*
X3318258Y3144236D01*
X3318608Y3146000D01*
X3318258Y3147764D01*
X3317259Y3149259D01*
X3316520Y3149752D01*
Y3166270D01*
X3289980D01*
Y3149730D01*
X3290533D01*
X3290909Y3147730D01*
X3257102Y3113922D01*
X3256000Y3114142D01*
X3254236Y3113791D01*
X3252741Y3112792D01*
X3251742Y3111296D01*
X3251391Y3109533D01*
X3251742Y3107769D01*
X3252741Y3106274D01*
X3254236Y3105275D01*
X3256000Y3104924D01*
X3257764Y3105275D01*
X3259259Y3106274D01*
X3260258Y3107769D01*
X3260609Y3109533D01*
X3260389Y3110635D01*
X3295144Y3145389D01*
X3295144Y3145389D01*
X3295648Y3146143D01*
X3295825Y3147033D01*
X3295825Y3147033D01*
Y3149730D01*
X3297827D01*
X3297852Y3149601D01*
X3298356Y3148846D01*
X3299405Y3147797D01*
Y3146000D01*
X3299422Y3145917D01*
X3298995Y3142677D01*
X3297713Y3139580D01*
X3296843Y3138447D01*
X3295652Y3136940D01*
X3224531Y3065818D01*
X3224505Y3065844D01*
X3222422Y3063305D01*
X3220874Y3060410D01*
X3219921Y3057267D01*
X3219599Y3054000D01*
X3219635D01*
Y3045389D01*
X3219638Y3045374D01*
X3219294Y3041872D01*
X3218268Y3038489D01*
X3218221Y3038403D01*
X3217770Y3038324D01*
X3215770Y3040002D01*
Y3046270D01*
X3215270D01*
Y3054730D01*
X3215270Y3055270D01*
X3215270D01*
Y3056730D01*
X3215270D01*
Y3062232D01*
X3221644Y3068606D01*
X3221644Y3068606D01*
X3222148Y3069360D01*
X3222325Y3070250D01*
X3222325Y3070250D01*
Y3073906D01*
X3223288Y3074305D01*
X3224650Y3075350D01*
X3225695Y3076712D01*
X3226352Y3078298D01*
X3226576Y3080000D01*
X3226352Y3081702D01*
X3225695Y3083288D01*
X3224650Y3084650D01*
X3223288Y3085695D01*
X3221702Y3086352D01*
X3220000Y3086576D01*
X3218298Y3086352D01*
X3216712Y3085695D01*
X3215350Y3084650D01*
X3214305Y3083288D01*
X3213648Y3081702D01*
X3213424Y3080000D01*
X3213648Y3078298D01*
X3214305Y3076712D01*
X3215350Y3075350D01*
X3216712Y3074305D01*
X3217675Y3073906D01*
Y3071213D01*
X3212232Y3065770D01*
X3207270D01*
Y3066270D01*
X3198734D01*
X3196734Y3066281D01*
Y3139037D01*
X3206644Y3148947D01*
X3206644Y3148947D01*
X3207148Y3149701D01*
X3207325Y3150590D01*
Y3157537D01*
X3210148Y3160360D01*
X3210707Y3159931D01*
X3212537Y3159174D01*
X3214500Y3158915D01*
X3216463Y3159174D01*
X3218293Y3159931D01*
X3219863Y3161136D01*
X3221069Y3162708D01*
X3221826Y3164537D01*
X3222085Y3166500D01*
Y3169500D01*
X3221826Y3171463D01*
X3221069Y3173293D01*
X3219863Y3174863D01*
X3218293Y3176069D01*
X3216463Y3176826D01*
X3214500Y3177085D01*
D02*
G37*
G36*
X2907000Y3045609D02*
X2905237Y3045258D01*
X2903741Y3044259D01*
X2902742Y3042764D01*
X2902391Y3041000D01*
X2902610Y3039898D01*
X2896037Y3033325D01*
X2864428D01*
X2864387Y3033387D01*
X2863636Y3033888D01*
X2862750Y3034064D01*
X2853250D01*
X2852364Y3033888D01*
X2851613Y3033387D01*
X2851112Y3032636D01*
X2850935Y3031750D01*
Y3030250D01*
X2851112Y3029364D01*
X2851555Y3028500D01*
X2851112Y3027636D01*
X2850935Y3026750D01*
Y3025250D01*
X2851112Y3024364D01*
X2851555Y3023500D01*
X2851112Y3022636D01*
X2850935Y3021750D01*
Y3020250D01*
X2851112Y3019364D01*
X2851613Y3018613D01*
Y3018387D01*
X2851112Y3017636D01*
X2850935Y3016750D01*
Y3015250D01*
X2851112Y3014364D01*
X2851555Y3013500D01*
X2851112Y3012636D01*
X2850935Y3011750D01*
Y3010250D01*
X2851112Y3009364D01*
X2851613Y3008613D01*
Y3008387D01*
X2851112Y3007636D01*
X2850935Y3006750D01*
Y3005250D01*
X2851112Y3004364D01*
X2851613Y3003613D01*
X2852364Y3003112D01*
X2853250Y3002935D01*
X2862750D01*
X2863636Y3003112D01*
X2864387Y3003613D01*
X2866266Y3003446D01*
X2867386Y3002327D01*
X2867332Y3001575D01*
X2866871Y3000013D01*
X2865741Y2999259D01*
X2863636Y2998888D01*
X2862750Y2999065D01*
X2853250D01*
X2852364Y2998888D01*
X2851613Y2998387D01*
X2851112Y2997636D01*
X2850935Y2996750D01*
X2850852Y2996644D01*
X2848936Y2995422D01*
X2848000Y2995609D01*
X2846236Y2995258D01*
X2844741Y2994259D01*
X2843742Y2992764D01*
X2843391Y2991000D01*
X2843742Y2989236D01*
X2844741Y2987741D01*
X2845684Y2987111D01*
X2845776Y2986804D01*
Y2985196D01*
X2845684Y2984889D01*
X2844741Y2984259D01*
X2843742Y2982764D01*
X2843391Y2981000D01*
X2843742Y2979236D01*
X2842237Y2978257D01*
X2840742Y2977258D01*
X2839743Y2975763D01*
X2839392Y2974000D01*
X2839743Y2972236D01*
X2840742Y2970741D01*
X2842237Y2969742D01*
X2844001Y2969391D01*
X2845764Y2969742D01*
X2846123Y2969982D01*
X2848076Y2969636D01*
X2848830Y2969132D01*
X2849720Y2968955D01*
X2851385D01*
X2851613Y2968613D01*
X2852364Y2968112D01*
X2853250Y2967935D01*
X2862750D01*
X2863636Y2968112D01*
X2864387Y2968613D01*
X2864888Y2969364D01*
X2865064Y2970250D01*
X2865148Y2970356D01*
X2867065Y2971577D01*
X2868000Y2971391D01*
X2869763Y2971742D01*
X2871259Y2972741D01*
X2872258Y2974236D01*
X2872609Y2976000D01*
X2872258Y2977764D01*
X2871259Y2979259D01*
X2869763Y2980258D01*
X2868000Y2980609D01*
X2867065Y2980422D01*
X2866727Y2980638D01*
X2866512Y2981697D01*
X2868152Y2983675D01*
X2870117D01*
X2870741Y2982741D01*
X2872236Y2981742D01*
X2874000Y2981391D01*
X2875764Y2981742D01*
X2877259Y2982741D01*
X2878258Y2984236D01*
X2878608Y2986000D01*
X2878258Y2987764D01*
X2877259Y2989259D01*
X2875764Y2990258D01*
X2874000Y2990609D01*
X2872236Y2990258D01*
X2870741Y2989259D01*
X2870117Y2988325D01*
X2867668D01*
X2866162Y2990128D01*
X2867236Y2991742D01*
X2869000Y2991392D01*
X2870764Y2991742D01*
X2872259Y2992741D01*
X2873258Y2994236D01*
X2873609Y2996000D01*
X2874754Y2997395D01*
X2883117D01*
X2883741Y2996461D01*
X2885236Y2995462D01*
X2887000Y2995111D01*
X2888764Y2995462D01*
X2890259Y2996461D01*
X2891258Y2997956D01*
X2891609Y2999720D01*
X2891258Y3001483D01*
X2890259Y3002979D01*
X2888764Y3003978D01*
X2887000Y3004329D01*
X2885453Y3004021D01*
X2884558Y3004496D01*
X2883557Y3005261D01*
X2883258Y3006764D01*
X2882259Y3008259D01*
X2881201Y3008965D01*
X2880729Y3009854D01*
X2880646Y3011320D01*
X2881258Y3012236D01*
X2881609Y3014000D01*
X2881292Y3015592D01*
X2881382Y3015707D01*
X2883553Y3016160D01*
X2888611Y3011102D01*
X2888391Y3010000D01*
X2888742Y3008236D01*
X2889741Y3006741D01*
X2891236Y3005742D01*
X2893000Y3005392D01*
X2894763Y3005742D01*
X2896259Y3006741D01*
X2897258Y3008236D01*
X2897609Y3010000D01*
X2897258Y3011764D01*
X2896259Y3013259D01*
X2894763Y3014258D01*
X2893000Y3014608D01*
X2891898Y3014389D01*
X2879612Y3026675D01*
X2880441Y3028675D01*
X2897000D01*
X2897000Y3028675D01*
X2897890Y3028852D01*
X2898644Y3029356D01*
X2905898Y3036611D01*
X2907000Y3036391D01*
X2908764Y3036742D01*
X2910259Y3037741D01*
X2911258Y3039236D01*
X2911609Y3041000D01*
X2911258Y3042764D01*
X2910259Y3044259D01*
X2908764Y3045258D01*
X2907000Y3045609D01*
D02*
G37*
G36*
X3465180Y3189720D02*
X3463180Y3189720D01*
X3455220D01*
X3454180Y3189720D01*
X3452180Y3189720D01*
X3444220D01*
X3443180Y3189720D01*
X3441180Y3189720D01*
X3433220D01*
X3432180Y3189720D01*
X3430180Y3189720D01*
X3421180D01*
Y3175680D01*
X3423875D01*
Y3139083D01*
X3422941Y3138459D01*
X3421942Y3136964D01*
X3421591Y3135200D01*
X3421942Y3133436D01*
X3422941Y3131941D01*
X3424436Y3130942D01*
X3426200Y3130591D01*
X3427964Y3130942D01*
X3429459Y3131941D01*
X3430458Y3133436D01*
X3430809Y3135200D01*
X3430458Y3136964D01*
X3429459Y3138459D01*
X3428525Y3139083D01*
Y3174266D01*
X3429939Y3175680D01*
X3431220D01*
X3433461Y3175680D01*
X3434875Y3174266D01*
Y3145083D01*
X3433941Y3144459D01*
X3432942Y3142964D01*
X3432592Y3141200D01*
X3432942Y3139436D01*
X3433941Y3137941D01*
X3435436Y3136942D01*
X3437200Y3136591D01*
X3438964Y3136942D01*
X3440459Y3137941D01*
X3441458Y3139436D01*
X3441808Y3141200D01*
X3441458Y3142964D01*
X3440459Y3144459D01*
X3439525Y3145083D01*
Y3174266D01*
X3440939Y3175680D01*
X3442220D01*
X3444461Y3175680D01*
X3445875Y3174266D01*
Y3151083D01*
X3444941Y3150459D01*
X3443942Y3148964D01*
X3443592Y3147200D01*
X3443942Y3145436D01*
X3444941Y3143941D01*
X3446436Y3142942D01*
X3448200Y3142592D01*
X3449964Y3142942D01*
X3451459Y3143941D01*
X3452458Y3145436D01*
X3452809Y3147200D01*
X3452458Y3148964D01*
X3451459Y3150459D01*
X3450525Y3151083D01*
Y3174266D01*
X3451939Y3175680D01*
X3454180Y3175680D01*
X3454886Y3173680D01*
X3454591Y3172200D01*
X3454942Y3170436D01*
X3455941Y3168941D01*
X3457437Y3167942D01*
X3459200Y3167592D01*
X3460964Y3167942D01*
X3462459Y3168941D01*
X3463458Y3170436D01*
X3463809Y3172200D01*
X3463514Y3173680D01*
X3464220Y3175680D01*
X3466461Y3175680D01*
X3467875Y3174266D01*
Y3157083D01*
X3466941Y3156459D01*
X3465942Y3154964D01*
X3465591Y3153200D01*
X3465942Y3151436D01*
X3466941Y3149941D01*
X3468436Y3148942D01*
X3470200Y3148592D01*
X3471964Y3148942D01*
X3473459Y3149941D01*
X3474458Y3151436D01*
X3474809Y3153200D01*
X3474458Y3154964D01*
X3473459Y3156459D01*
X3472525Y3157083D01*
Y3175680D01*
X3475220D01*
Y3189720D01*
X3465180Y3189720D01*
D02*
G37*
G36*
X2967720Y3062720D02*
X2954180D01*
Y3051880D01*
X2967720D01*
Y3062720D01*
D02*
G37*
G36*
X3438000Y3051609D02*
X3436236Y3051258D01*
X3435379Y3050685D01*
X3434000Y3050408D01*
X3432621Y3050685D01*
X3431764Y3051258D01*
X3430000Y3051609D01*
X3428236Y3051258D01*
X3426741Y3050259D01*
X3425742Y3048764D01*
X3425392Y3047000D01*
X3425742Y3045237D01*
X3426741Y3043741D01*
X3428236Y3042742D01*
X3430000Y3042391D01*
X3431102Y3042610D01*
X3432635Y3041077D01*
Y3027040D01*
X3432635Y3027040D01*
X3432812Y3026151D01*
X3433316Y3025396D01*
X3445176Y3013536D01*
X3445132Y3013047D01*
X3444388Y3011496D01*
X3443298Y3011352D01*
X3441712Y3010695D01*
X3440350Y3009650D01*
X3439305Y3008288D01*
X3438648Y3006702D01*
X3438424Y3005000D01*
X3438648Y3003298D01*
X3439305Y3001712D01*
X3440350Y3000350D01*
X3441712Y2999305D01*
X3443298Y2998648D01*
X3445000Y2998424D01*
X3446702Y2998648D01*
X3448288Y2999305D01*
X3449650Y3000350D01*
X3450695Y3001712D01*
X3451352Y3003298D01*
X3451496Y3004388D01*
X3453047Y3005132D01*
X3453536Y3005176D01*
X3467181Y2991531D01*
X3467181Y2991531D01*
X3467935Y2991027D01*
X3468825Y2990850D01*
X3468825Y2990850D01*
X3469769D01*
X3470032Y2990457D01*
X3471279Y2989624D01*
X3472750Y2989331D01*
X3482750D01*
X3484221Y2989624D01*
X3485468Y2990457D01*
X3486301Y2991704D01*
X3486594Y2993175D01*
X3486487Y2993713D01*
X3486988Y2994324D01*
X3488162Y2995188D01*
X3489525Y2994916D01*
X3491288Y2995267D01*
X3492784Y2996266D01*
X3493783Y2997762D01*
X3494134Y2999525D01*
X3493783Y3001288D01*
X3492784Y3002784D01*
X3491850Y3003408D01*
Y3013475D01*
X3491850Y3013475D01*
X3491673Y3014365D01*
X3491366Y3014824D01*
X3491602Y3016080D01*
X3492007Y3016977D01*
X3492079Y3017036D01*
X3493509Y3017991D01*
X3494508Y3019486D01*
X3494858Y3021250D01*
X3494763Y3021730D01*
X3494770Y3023730D01*
X3494770Y3023730D01*
X3494770Y3023730D01*
Y3032270D01*
X3485730D01*
Y3032270D01*
X3484270D01*
Y3032270D01*
X3482075D01*
Y3034316D01*
X3483489Y3035730D01*
X3485730Y3035730D01*
X3486270Y3035730D01*
X3494770D01*
Y3044270D01*
X3494770Y3044270D01*
X3494763Y3046270D01*
X3494858Y3046750D01*
X3494508Y3048513D01*
X3493509Y3050009D01*
X3492014Y3051008D01*
X3490250Y3051359D01*
X3488486Y3051008D01*
X3486991Y3050009D01*
X3485992Y3048513D01*
X3485641Y3046750D01*
X3485737Y3046270D01*
X3485730Y3044270D01*
X3484270D01*
X3483730Y3044270D01*
X3475230D01*
Y3035730D01*
X3477425D01*
Y3032270D01*
X3475230D01*
Y3023730D01*
X3475524D01*
X3477425Y3023250D01*
X3477602Y3022361D01*
X3478106Y3021606D01*
X3481643Y3018069D01*
X3480815Y3016069D01*
X3472750D01*
X3471279Y3015776D01*
X3470032Y3014943D01*
X3469769Y3014550D01*
X3464557D01*
X3463571Y3016550D01*
X3463695Y3016712D01*
X3464352Y3018298D01*
X3464576Y3020000D01*
X3464352Y3021702D01*
X3463695Y3023288D01*
X3462650Y3024650D01*
X3461288Y3025695D01*
X3459702Y3026352D01*
X3458000Y3026576D01*
X3456298Y3026352D01*
X3454712Y3025695D01*
X3453350Y3024650D01*
X3452305Y3023288D01*
X3451648Y3021702D01*
X3451539Y3020876D01*
X3449483Y3020104D01*
X3440325Y3029262D01*
Y3043117D01*
X3441259Y3043741D01*
X3442258Y3045237D01*
X3442609Y3047000D01*
X3442258Y3048764D01*
X3441259Y3050259D01*
X3439763Y3051258D01*
X3438000Y3051609D01*
D02*
G37*
G36*
X3085000Y3177585D02*
X3083037Y3177326D01*
X3081208Y3176569D01*
X3079637Y3175363D01*
X3078431Y3173792D01*
X3077674Y3171963D01*
X3077415Y3170000D01*
X3077674Y3168037D01*
X3078431Y3166208D01*
X3079637Y3164637D01*
X3081208Y3163431D01*
X3083037Y3162674D01*
X3085000Y3162415D01*
X3086963Y3162674D01*
X3088792Y3163431D01*
X3090363Y3164637D01*
X3091569Y3166208D01*
X3092326Y3168037D01*
X3092585Y3170000D01*
X3092326Y3171963D01*
X3091569Y3173792D01*
X3090363Y3175363D01*
X3088792Y3176569D01*
X3086963Y3177326D01*
X3085000Y3177585D01*
D02*
G37*
%LPD*%
G36*
X3022000Y2848000D02*
X2997000D01*
Y2856000D01*
X3000000Y2859000D01*
X3010000Y2869000D01*
Y2886000D01*
X3022000D01*
Y2848000D01*
D02*
G37*
G36*
X2997000Y2762000D02*
X2972000D01*
Y2770000D01*
X2975000Y2773000D01*
X2985000Y2783000D01*
Y2800000D01*
X2997000D01*
Y2762000D01*
D02*
G37*
G36*
X3296000Y2769000D02*
X3288000D01*
X3285000Y2772000D01*
X3275000Y2782000D01*
X3258000D01*
Y2794000D01*
X3296000D01*
Y2769000D01*
D02*
G37*
G36*
X2916000Y2736000D02*
X2916000Y2700270D01*
X2915980D01*
Y2685000D01*
X2910000D01*
Y2696000D01*
X2895000Y2711000D01*
X2895000Y2735102D01*
X2895898Y2736000D01*
X2916000Y2736000D01*
D02*
G37*
G36*
X3033000Y2795000D02*
X3033000Y2730000D01*
X3028000Y2725000D01*
X3018000D01*
Y2742000D01*
X3017000Y2743000D01*
X3013000D01*
Y2799000D01*
X3014000Y2800000D01*
X3028000Y2800000D01*
X3033000Y2795000D01*
D02*
G37*
G36*
X2890000Y2760000D02*
X2891000Y2759000D01*
X2891000Y2735000D01*
X2890000Y2734000D01*
X2869000Y2734000D01*
X2861000Y2742000D01*
X2861000Y2752000D01*
X2869000Y2760000D01*
X2890000Y2760000D01*
D02*
G37*
G36*
X2982000Y2858000D02*
X2985000Y2855000D01*
Y2848000D01*
X2967000Y2848000D01*
X2963000Y2852000D01*
X2963000Y2874000D01*
X2966000Y2877000D01*
X2982000Y2877000D01*
Y2858000D01*
D02*
G37*
G36*
X2957000Y2772000D02*
X2960000Y2769000D01*
Y2762000D01*
X2942000Y2762000D01*
X2938000Y2766000D01*
X2938000Y2788000D01*
X2941000Y2791000D01*
X2957000Y2791000D01*
Y2772000D01*
D02*
G37*
G36*
X3058000Y2881000D02*
X3058000Y2816000D01*
X3053000Y2811000D01*
X3043000D01*
Y2828000D01*
X3042000Y2829000D01*
X3038000D01*
Y2885000D01*
X3039000Y2886000D01*
X3053000Y2886000D01*
X3058000Y2881000D01*
D02*
G37*
G36*
X3526000Y3043155D02*
X3526547D01*
X3528346Y3041356D01*
X3529100Y3040852D01*
X3529230Y3040826D01*
Y3038730D01*
X3535920D01*
X3537730Y3038270D01*
X3537730Y3036954D01*
Y3029730D01*
X3545076D01*
X3545675Y3029000D01*
X3545675Y3029000D01*
Y3016000D01*
X3545675Y3016000D01*
X3545852Y3015110D01*
X3546356Y3014356D01*
X3552675Y3008037D01*
Y2994688D01*
X3551270Y2993270D01*
X3542730D01*
Y2989150D01*
X3540231D01*
X3539968Y2989543D01*
X3538721Y2990376D01*
X3537250Y2990669D01*
X3527250D01*
X3525779Y2990376D01*
X3524532Y2989543D01*
X3523699Y2988296D01*
X3523406Y2986825D01*
X3523699Y2985354D01*
X3523843Y2985138D01*
X3524279Y2983908D01*
X3523447Y2982268D01*
X3521460Y2981793D01*
X3520764Y2982258D01*
X3519000Y2982609D01*
X3517236Y2982258D01*
X3515741Y2981259D01*
X3514742Y2979763D01*
X3514391Y2978000D01*
X3514742Y2976236D01*
X3515741Y2974741D01*
X3517236Y2973742D01*
X3519000Y2973391D01*
X3520102Y2973611D01*
X3521231Y2972481D01*
X3520716Y2970432D01*
X3520477Y2970100D01*
X3516225D01*
Y2970106D01*
X3513923Y2970409D01*
X3511778Y2971298D01*
X3509936Y2972711D01*
X3508523Y2974553D01*
X3507634Y2976698D01*
X3507331Y2979000D01*
X3507325D01*
Y3024480D01*
X3507320Y3024506D01*
X3507676Y3028125D01*
X3508739Y3031630D01*
X3510466Y3034860D01*
X3512789Y3037691D01*
X3515620Y3040014D01*
X3518850Y3041741D01*
X3522355Y3042804D01*
X3525974Y3043160D01*
X3526000Y3043155D01*
D02*
G37*
%LPC*%
G36*
X3537250Y3016069D02*
X3527250D01*
X3525779Y3015776D01*
X3524532Y3014943D01*
X3523699Y3013696D01*
X3523406Y3012225D01*
X3523699Y3010754D01*
X3523843Y3010538D01*
X3524358Y3009084D01*
X3523475Y3007283D01*
X3521539Y3006740D01*
X3520764Y3007258D01*
X3519000Y3007609D01*
X3517236Y3007258D01*
X3515741Y3006259D01*
X3514742Y3004763D01*
X3514391Y3003000D01*
X3514742Y3001236D01*
X3515741Y2999741D01*
X3517236Y2998742D01*
X3519000Y2998391D01*
X3520102Y2998611D01*
X3520831Y2997881D01*
X3521585Y2997377D01*
X3522475Y2997200D01*
X3522475Y2997200D01*
X3524269D01*
X3524532Y2996807D01*
X3525779Y2995974D01*
X3527250Y2995681D01*
X3537250D01*
X3538721Y2995974D01*
X3539968Y2996807D01*
X3540801Y2998054D01*
X3541094Y2999525D01*
X3540801Y3000996D01*
X3540657Y3001212D01*
X3540130Y3002700D01*
X3540657Y3004188D01*
X3540801Y3004404D01*
X3541094Y3005875D01*
X3540801Y3007346D01*
X3540657Y3007562D01*
X3540130Y3009050D01*
X3540657Y3010538D01*
X3540801Y3010754D01*
X3541094Y3012225D01*
X3540801Y3013696D01*
X3539968Y3014943D01*
X3538721Y3015776D01*
X3537250Y3016069D01*
D02*
G37*
%LPD*%
G36*
X3109021Y2764295D02*
X3111837Y2763129D01*
X3114254Y2761274D01*
X3116109Y2758857D01*
X3117275Y2756041D01*
X3117666Y2753073D01*
X3117655Y2753020D01*
Y2726953D01*
X3115356Y2724654D01*
X3114852Y2723900D01*
X3114826Y2723770D01*
X3112730D01*
Y2715079D01*
X3112606Y2714591D01*
X3111426Y2713270D01*
X3103730D01*
Y2705325D01*
X3095963D01*
X3086150Y2715138D01*
Y2721730D01*
X3090270D01*
Y2730270D01*
X3088439D01*
X3087370Y2732270D01*
X3087376Y2732279D01*
X3087669Y2733750D01*
Y2743750D01*
X3087376Y2745221D01*
X3086543Y2746468D01*
X3085296Y2747301D01*
X3083825Y2747594D01*
X3082354Y2747301D01*
X3082138Y2747157D01*
X3081625Y2746975D01*
X3081162Y2747072D01*
X3079568Y2748142D01*
X3079489Y2749026D01*
X3079524Y2749138D01*
X3080258Y2750236D01*
X3080609Y2752000D01*
X3080258Y2753764D01*
X3079259Y2755259D01*
X3077764Y2756258D01*
X3076000Y2756609D01*
X3074236Y2756258D01*
X3072741Y2755259D01*
X3071742Y2753764D01*
X3071391Y2752000D01*
X3071610Y2750898D01*
X3069481Y2748769D01*
X3067432Y2749284D01*
X3067100Y2749523D01*
Y2760775D01*
X3067107D01*
X3067404Y2762265D01*
X3068247Y2763528D01*
X3069510Y2764372D01*
X3071000Y2764668D01*
Y2764675D01*
X3106000D01*
X3106053Y2764686D01*
X3109021Y2764295D01*
D02*
G37*
G36*
X3296000Y2739000D02*
X3292000Y2735000D01*
X3270000Y2735000D01*
X3267000Y2738000D01*
X3267000Y2754000D01*
X3286000D01*
X3289000Y2757000D01*
X3296000D01*
X3296000Y2739000D01*
D02*
G37*
G36*
X3189102Y3037600D02*
X3189606Y3036846D01*
X3189675Y3036777D01*
Y3030770D01*
X3187730D01*
Y3022270D01*
X3187730Y3021730D01*
Y3020270D01*
X3187730Y3019730D01*
Y3011230D01*
X3187730D01*
X3187307Y3009405D01*
X3187155Y3009178D01*
X3187020Y3008496D01*
X3184980D01*
X3184845Y3009178D01*
X3184177Y3010177D01*
X3183178Y3010845D01*
X3182000Y3011079D01*
X3180822Y3010845D01*
X3180000Y3010296D01*
X3179178Y3010845D01*
X3178000Y3011079D01*
X3176325Y3012735D01*
Y3019750D01*
X3176325Y3019750D01*
X3176148Y3020640D01*
X3175644Y3021394D01*
X3175644Y3021394D01*
X3169425Y3027613D01*
X3169481Y3029680D01*
X3169522Y3029714D01*
X3171270Y3030388D01*
X3172236Y3029742D01*
X3174000Y3029391D01*
X3174730Y3029537D01*
X3176730Y3029480D01*
X3176730Y3029480D01*
X3176730Y3029480D01*
X3185270D01*
Y3036426D01*
X3186730Y3037730D01*
X3187270Y3037730D01*
X3189077D01*
X3189102Y3037600D01*
D02*
G37*
G36*
X3271102Y2884000D02*
X3271500Y2883921D01*
X3283000D01*
X3283398Y2884000D01*
X3285000D01*
X3286000Y2883000D01*
Y2879000D01*
X3295000Y2870000D01*
Y2857000D01*
X3289000Y2851000D01*
X3268000Y2851000D01*
X3265000Y2854000D01*
X3264980D01*
X3264845Y2854678D01*
X3264177Y2855677D01*
X3263178Y2856345D01*
X3262000Y2856579D01*
X3260822Y2856345D01*
X3260000Y2855796D01*
X3259178Y2856345D01*
X3258000Y2856579D01*
X3256822Y2856345D01*
X3255823Y2855677D01*
X3255155Y2854678D01*
X3255020Y2854000D01*
X3255000D01*
Y2853898D01*
X3254921Y2853500D01*
Y2842000D01*
X3255000Y2841602D01*
Y2839431D01*
X3254741Y2839259D01*
X3253742Y2837764D01*
X3253391Y2836000D01*
X3253492Y2835492D01*
X3252000Y2834000D01*
X3246000D01*
X3241000Y2839000D01*
X3241000Y2841602D01*
X3241079Y2842000D01*
Y2853500D01*
X3241000Y2853898D01*
Y2856000D01*
X3245000Y2860000D01*
X3245000Y2863000D01*
X3247000Y2865000D01*
X3263000Y2865000D01*
X3269000Y2871000D01*
X3269000Y2882533D01*
X3270524Y2884000D01*
X3271102D01*
D02*
G37*
G36*
X3112860Y3000102D02*
X3113750Y2999925D01*
X3134921D01*
Y2996500D01*
X3135155Y2995322D01*
X3135178Y2995288D01*
X3135741Y2993259D01*
X3134742Y2991764D01*
X3134391Y2990000D01*
X3134742Y2988236D01*
X3135741Y2986741D01*
X3137236Y2985742D01*
X3139000Y2985392D01*
X3140764Y2985742D01*
X3142259Y2986741D01*
X3142889Y2987684D01*
X3143195Y2987776D01*
X3144804D01*
X3145111Y2987684D01*
X3145741Y2986741D01*
X3147236Y2985742D01*
X3149000Y2985392D01*
X3150764Y2985742D01*
X3152259Y2986741D01*
X3152297Y2986799D01*
X3154703D01*
X3154741Y2986741D01*
X3156236Y2985742D01*
X3157643Y2985462D01*
X3158593Y2984798D01*
X3158798Y2984593D01*
X3159462Y2983643D01*
X3159742Y2982236D01*
X3160741Y2980741D01*
X3162236Y2979742D01*
X3164000Y2979391D01*
X3165764Y2979742D01*
X3167259Y2980741D01*
X3168258Y2982236D01*
X3168499Y2983452D01*
X3169000Y2985392D01*
X3170609Y2985711D01*
X3170876Y2985714D01*
X3172742Y2985236D01*
X3173741Y2983741D01*
X3175236Y2982742D01*
X3177000Y2982391D01*
X3178764Y2982742D01*
X3180259Y2983741D01*
X3181258Y2985237D01*
X3181609Y2987000D01*
X3181258Y2988764D01*
X3180988Y2989167D01*
X3183644Y2991823D01*
X3183644Y2991823D01*
X3184148Y2992578D01*
X3184325Y2993467D01*
X3184325Y2993467D01*
Y2994543D01*
X3184697Y2995101D01*
X3185884Y2995323D01*
X3186884Y2995324D01*
X3187675Y2994275D01*
Y2993000D01*
X3187708Y2992837D01*
X3187699Y2992671D01*
X3187795Y2992396D01*
X3187852Y2992110D01*
X3187945Y2991972D01*
X3188000Y2991815D01*
X3188194Y2991599D01*
X3188356Y2991356D01*
X3188494Y2991264D01*
X3188605Y2991140D01*
X3189487Y2990479D01*
X3189391Y2990000D01*
X3189742Y2988236D01*
X3190741Y2986741D01*
X3192236Y2985742D01*
X3194000Y2985392D01*
X3195764Y2985742D01*
X3197259Y2986741D01*
X3198741D01*
X3200236Y2985742D01*
X3202000Y2985392D01*
X3203764Y2985742D01*
X3205259Y2986741D01*
X3205297Y2986799D01*
X3207703D01*
X3207741Y2986741D01*
X3209236Y2985742D01*
X3211000Y2985392D01*
X3212764Y2985742D01*
X3214259Y2986741D01*
X3214889Y2987684D01*
X3215196Y2987776D01*
X3216805D01*
X3217111Y2987684D01*
X3217741Y2986741D01*
X3219236Y2985742D01*
X3221000Y2985392D01*
X3222764Y2985742D01*
X3224259Y2986741D01*
X3225258Y2988236D01*
X3225609Y2990000D01*
X3225306Y2991519D01*
X3225544Y2992171D01*
X3226490Y2993518D01*
X3227178Y2993655D01*
X3228000Y2994204D01*
X3228822Y2993655D01*
X3229742Y2992764D01*
X3229391Y2991000D01*
X3229742Y2989236D01*
X3230741Y2987741D01*
X3232236Y2986742D01*
X3234000Y2986391D01*
X3235764Y2986742D01*
X3237259Y2987741D01*
X3238258Y2989236D01*
X3238608Y2991000D01*
X3238258Y2992764D01*
X3239178Y2993655D01*
X3240000Y2994204D01*
X3240822Y2993655D01*
X3242000Y2993421D01*
X3243178Y2993655D01*
X3244000Y2994204D01*
X3244821Y2993655D01*
X3245742Y2992764D01*
X3245392Y2991000D01*
X3245742Y2989236D01*
X3246741Y2987741D01*
X3248236Y2986742D01*
X3250000Y2986391D01*
X3251764Y2986742D01*
X3252621Y2987315D01*
X3254000Y2987592D01*
X3255379Y2987315D01*
X3256236Y2986742D01*
X3258000Y2986391D01*
X3259024Y2986595D01*
X3259163Y2986528D01*
X3260528Y2985162D01*
X3260595Y2985023D01*
X3260392Y2984000D01*
X3260742Y2982236D01*
X3261741Y2980741D01*
X3261799Y2980703D01*
Y2978297D01*
X3261741Y2978259D01*
X3260742Y2976764D01*
X3260392Y2975000D01*
X3260742Y2973236D01*
X3261741Y2971741D01*
X3263236Y2970742D01*
X3265000Y2970392D01*
X3266595Y2970709D01*
X3266774Y2970737D01*
X3267760Y2970257D01*
X3268655Y2968178D01*
X3268421Y2967000D01*
X3268655Y2965822D01*
X3269204Y2965000D01*
X3268655Y2964178D01*
X3268421Y2963000D01*
X3268655Y2961822D01*
X3269204Y2961000D01*
X3268655Y2960179D01*
X3267764Y2959258D01*
X3266000Y2959608D01*
X3264236Y2959258D01*
X3262741Y2958259D01*
X3261742Y2956764D01*
X3261391Y2955000D01*
X3261742Y2953236D01*
X3262741Y2951741D01*
X3264236Y2950742D01*
X3266000Y2950392D01*
X3267764Y2950742D01*
X3268655Y2949821D01*
X3269204Y2949000D01*
X3268655Y2948178D01*
X3267764Y2947258D01*
X3266000Y2947609D01*
X3264236Y2947258D01*
X3262741Y2946259D01*
X3261742Y2944763D01*
X3261391Y2943000D01*
X3261742Y2941236D01*
X3262741Y2939741D01*
X3264236Y2938742D01*
X3266000Y2938391D01*
X3267764Y2938742D01*
X3268655Y2937822D01*
X3269204Y2937000D01*
X3268655Y2936178D01*
X3268421Y2935000D01*
X3268655Y2933822D01*
X3269204Y2933000D01*
X3268655Y2932178D01*
X3268518Y2931490D01*
X3267171Y2930544D01*
X3266519Y2930306D01*
X3265000Y2930609D01*
X3263236Y2930258D01*
X3261741Y2929259D01*
X3260742Y2927764D01*
X3260392Y2926000D01*
X3260742Y2924236D01*
X3261741Y2922741D01*
X3262684Y2922111D01*
X3262776Y2921804D01*
Y2920196D01*
X3262684Y2919889D01*
X3261741Y2919259D01*
X3260742Y2917764D01*
X3260392Y2916000D01*
X3260742Y2914236D01*
X3261162Y2913608D01*
X3260110Y2911609D01*
X3254909D01*
X3234608Y2931909D01*
Y2945000D01*
X3234258Y2946764D01*
X3233259Y2948259D01*
X3231764Y2949258D01*
X3230000Y2949608D01*
X3228236Y2949258D01*
X3226741Y2948259D01*
X3225742Y2946764D01*
X3225392Y2945000D01*
Y2930000D01*
X3225742Y2928236D01*
X3226741Y2926741D01*
X3249741Y2903741D01*
X3251236Y2902742D01*
X3253000Y2902391D01*
X3253000Y2902391D01*
X3266000D01*
X3267764Y2902742D01*
X3268655Y2901822D01*
X3269204Y2901000D01*
X3268655Y2900178D01*
X3268421Y2899000D01*
X3268523Y2898488D01*
X3266847Y2897202D01*
X3266764Y2897258D01*
X3265000Y2897609D01*
X3263236Y2897258D01*
X3261741Y2896259D01*
X3260742Y2894763D01*
X3260392Y2893000D01*
X3260742Y2891236D01*
X3261315Y2890379D01*
X3261592Y2889000D01*
X3261315Y2887621D01*
X3260742Y2886764D01*
X3260392Y2885000D01*
X3260742Y2883236D01*
X3261741Y2881741D01*
X3263236Y2880742D01*
X3265000Y2880392D01*
X3265355Y2880462D01*
X3267355Y2878915D01*
X3267355Y2871682D01*
X3262318Y2866645D01*
X3247000Y2866645D01*
X3245836Y2866163D01*
X3244062Y2864389D01*
X3243950Y2864350D01*
X3242726Y2864323D01*
X3241794Y2864458D01*
X3241259Y2865259D01*
X3239763Y2866258D01*
X3238000Y2866609D01*
X3236236Y2866258D01*
X3235379Y2865685D01*
X3234000Y2865408D01*
X3232621Y2865685D01*
X3231764Y2866258D01*
X3230000Y2866609D01*
X3228236Y2866258D01*
X3226741Y2865259D01*
X3225742Y2863764D01*
X3225392Y2862000D01*
X3225742Y2860237D01*
X3226741Y2858741D01*
X3227317Y2858356D01*
X3226537Y2856472D01*
X3226000Y2856579D01*
X3224821Y2856345D01*
X3224000Y2855796D01*
X3223178Y2856345D01*
X3222000Y2856579D01*
X3220822Y2856345D01*
X3220000Y2855796D01*
X3219178Y2856345D01*
X3218491Y2856482D01*
X3217544Y2857829D01*
X3217306Y2858481D01*
X3217609Y2860000D01*
X3217258Y2861764D01*
X3216259Y2863259D01*
X3214763Y2864258D01*
X3213000Y2864608D01*
X3211236Y2864258D01*
X3209741Y2863259D01*
X3209111Y2862316D01*
X3208804Y2862224D01*
X3207196D01*
X3206889Y2862316D01*
X3206259Y2863259D01*
X3204763Y2864258D01*
X3203000Y2864608D01*
X3201236Y2864258D01*
X3199741Y2863259D01*
X3199369Y2862701D01*
X3197391Y2862287D01*
X3196977Y2862447D01*
X3195764Y2863258D01*
X3194000Y2863608D01*
X3192236Y2863258D01*
X3190741Y2862259D01*
X3189742Y2860764D01*
X3189391Y2859000D01*
X3189742Y2857236D01*
X3188822Y2856345D01*
X3188000Y2855796D01*
X3187178Y2856345D01*
X3186000Y2856579D01*
X3184821Y2856345D01*
X3184000Y2855796D01*
X3183178Y2856345D01*
X3182000Y2856579D01*
X3180822Y2856345D01*
X3180000Y2855796D01*
X3179178Y2856345D01*
X3178000Y2856579D01*
X3176822Y2856345D01*
X3176000Y2855796D01*
X3175178Y2856345D01*
X3174000Y2856579D01*
X3172822Y2856345D01*
X3172000Y2855796D01*
X3171178Y2856345D01*
X3170000Y2856579D01*
X3168822Y2856345D01*
X3168000Y2855796D01*
X3167178Y2856345D01*
X3166000Y2856579D01*
X3164821Y2856345D01*
X3164000Y2855796D01*
X3163178Y2856345D01*
X3162258Y2857236D01*
X3162609Y2859000D01*
X3162258Y2860764D01*
X3161259Y2862259D01*
X3159763Y2863258D01*
X3158000Y2863608D01*
X3156236Y2863258D01*
X3154741Y2862259D01*
X3153742Y2860764D01*
X3153391Y2859000D01*
X3153742Y2857236D01*
X3152822Y2856345D01*
X3152000Y2855796D01*
X3151178Y2856345D01*
X3150000Y2856579D01*
X3148822Y2856345D01*
X3148000Y2855796D01*
X3147178Y2856345D01*
X3146000Y2856579D01*
X3144821Y2856345D01*
X3144000Y2855796D01*
X3143178Y2856345D01*
X3142000Y2856579D01*
X3140822Y2856345D01*
X3139644Y2856644D01*
X3139644Y2856644D01*
X3135644Y2860644D01*
X3134890Y2861148D01*
X3134000Y2861325D01*
X3134000Y2861325D01*
X3133235D01*
X3131579Y2863000D01*
X3131345Y2864178D01*
X3130796Y2865000D01*
X3131345Y2865822D01*
X3131579Y2867000D01*
X3131345Y2868178D01*
X3130796Y2869000D01*
X3131345Y2869821D01*
X3132235Y2870742D01*
X3133999Y2870392D01*
X3135762Y2870742D01*
X3137257Y2871741D01*
X3138257Y2873236D01*
X3138607Y2875000D01*
X3138257Y2876764D01*
X3137446Y2877976D01*
X3137285Y2878392D01*
X3137700Y2880368D01*
X3138259Y2880741D01*
X3139258Y2882236D01*
X3139608Y2884000D01*
X3139258Y2885764D01*
X3138259Y2887259D01*
X3137316Y2887889D01*
X3137224Y2888196D01*
Y2889804D01*
X3137316Y2890111D01*
X3138259Y2890741D01*
X3139258Y2892236D01*
X3139608Y2894000D01*
X3139258Y2895764D01*
X3138763Y2896504D01*
X3139425Y2898584D01*
X3139522Y2898694D01*
X3139763Y2898742D01*
X3141259Y2899741D01*
X3142258Y2901236D01*
X3142609Y2903000D01*
X3142258Y2904763D01*
X3141685Y2905621D01*
X3141408Y2907000D01*
X3141685Y2908379D01*
X3142258Y2909236D01*
X3142609Y2911000D01*
X3142258Y2912764D01*
X3141685Y2913621D01*
X3141408Y2915000D01*
X3141685Y2916379D01*
X3142258Y2917236D01*
X3142609Y2919000D01*
X3142258Y2920764D01*
X3141259Y2922259D01*
X3139763Y2923258D01*
X3138000Y2923608D01*
X3136236Y2923258D01*
X3134741Y2922259D01*
X3134007Y2921159D01*
X3132199Y2920966D01*
X3131375Y2921974D01*
X3131579Y2923000D01*
X3131345Y2924178D01*
X3130796Y2925000D01*
X3131345Y2925822D01*
X3131579Y2927000D01*
X3131345Y2928178D01*
X3130796Y2929000D01*
X3131345Y2929821D01*
X3131579Y2931000D01*
X3131345Y2932178D01*
X3130796Y2933000D01*
X3131345Y2933822D01*
X3131579Y2935000D01*
X3131345Y2936178D01*
X3130796Y2937000D01*
X3131345Y2937822D01*
X3132236Y2938741D01*
X3133999Y2938391D01*
X3135763Y2938741D01*
X3137258Y2939741D01*
X3138257Y2941236D01*
X3138608Y2942999D01*
X3138257Y2944763D01*
X3137834Y2945395D01*
X3138882Y2947395D01*
X3141720D01*
X3141720Y2947395D01*
X3142610Y2947572D01*
X3143364Y2948076D01*
X3143898Y2948611D01*
X3145000Y2948391D01*
X3146764Y2948742D01*
X3148259Y2949741D01*
X3149258Y2951236D01*
X3149608Y2953000D01*
X3149258Y2954763D01*
X3148259Y2956259D01*
X3146764Y2957258D01*
X3145685Y2957472D01*
X3144821Y2959239D01*
X3144789Y2959535D01*
X3145258Y2960237D01*
X3145609Y2962000D01*
X3145258Y2963764D01*
X3144259Y2965259D01*
X3142764Y2966258D01*
X3141000Y2966609D01*
X3139236Y2966258D01*
X3137741Y2965259D01*
X3137117Y2964325D01*
X3134000D01*
X3134000Y2964325D01*
X3133380Y2964201D01*
X3132662Y2964193D01*
X3131989Y2965024D01*
X3131390Y2966049D01*
X3131579Y2967000D01*
X3131345Y2968178D01*
X3130796Y2969000D01*
X3131345Y2969821D01*
X3131579Y2971000D01*
X3131345Y2972178D01*
X3130796Y2973000D01*
X3131345Y2973822D01*
X3131579Y2975000D01*
X3131345Y2976178D01*
X3130796Y2977000D01*
X3131345Y2977822D01*
X3131579Y2979000D01*
X3131345Y2980179D01*
X3130796Y2981000D01*
X3131345Y2981822D01*
X3131579Y2983000D01*
X3131345Y2984178D01*
X3130796Y2985000D01*
X3131345Y2985822D01*
X3131579Y2987000D01*
X3131345Y2988178D01*
X3130677Y2989177D01*
X3129678Y2989845D01*
X3128500Y2990079D01*
X3117000D01*
X3115822Y2989845D01*
X3115043Y2989325D01*
X3113963D01*
X3110325Y2992963D01*
Y2999868D01*
X3110821Y3000074D01*
X3112325Y3000460D01*
X3112860Y3000102D01*
D02*
G37*
G36*
X3102008Y2929405D02*
X3102001Y2929196D01*
X3101378Y2927405D01*
X3060439D01*
X3059322Y2929137D01*
X3059291Y2929405D01*
X3059608Y2931000D01*
X3059389Y2932102D01*
X3062843Y2935555D01*
X3095858D01*
X3102008Y2929405D01*
D02*
G37*
G36*
X3333000Y2825000D02*
Y2815000D01*
X3316000D01*
X3315000Y2814000D01*
Y2810000D01*
X3259000D01*
X3258000Y2811000D01*
X3258000Y2825000D01*
X3263000Y2830000D01*
X3328000Y2830000D01*
X3333000Y2825000D01*
D02*
G37*
%LPC*%
G36*
X3096525Y2756133D02*
X3094761Y2755783D01*
X3093266Y2754784D01*
X3092267Y2753289D01*
X3091917Y2751525D01*
X3092267Y2749761D01*
X3093170Y2748410D01*
X3093503Y2747480D01*
X3093807Y2746468D01*
X3092974Y2745221D01*
X3092681Y2743750D01*
Y2733750D01*
X3092974Y2732279D01*
X3093807Y2731032D01*
X3095054Y2730199D01*
X3096525Y2729906D01*
X3097996Y2730199D01*
X3098212Y2730343D01*
X3099700Y2730870D01*
X3101188Y2730343D01*
X3101404Y2730199D01*
X3102875Y2729906D01*
X3104346Y2730199D01*
X3104562Y2730343D01*
X3106050Y2730870D01*
X3107538Y2730343D01*
X3107754Y2730199D01*
X3109225Y2729906D01*
X3110696Y2730199D01*
X3111943Y2731032D01*
X3112776Y2732279D01*
X3113069Y2733750D01*
Y2743750D01*
X3112776Y2745221D01*
X3111943Y2746468D01*
X3110696Y2747301D01*
X3109225Y2747594D01*
X3107754Y2747301D01*
X3107538Y2747157D01*
X3106050Y2746630D01*
X3104562Y2747157D01*
X3104346Y2747301D01*
X3102875Y2747594D01*
X3101566Y2747333D01*
X3101118Y2747690D01*
X3100215Y2748913D01*
X3100783Y2749761D01*
X3101133Y2751525D01*
X3100783Y2753289D01*
X3099784Y2754784D01*
X3098289Y2755783D01*
X3096525Y2756133D01*
D02*
G37*
%LPD*%
D10*
X3123020Y2753020D02*
G03*
X3106000Y2770040I-17020J0D01*
G01*
X3064775Y2776265D02*
G03*
X3071000Y2770040I6225J0D01*
G01*
X3119980Y2753020D02*
G03*
X3106000Y2767000I-13980J0D01*
G01*
X3071000D02*
G03*
X3064775Y2760775I0J-6225D01*
G01*
X3403000Y2893929D02*
G03*
X3398000Y2906000I-17071J0D01*
G01*
X3402824Y2879574D02*
G03*
X3403000Y2880000I-428J426D01*
G01*
X3402823Y2879573D02*
G03*
X3402824Y2879574I-427J427D01*
G01*
X3292000Y2959000D02*
G03*
X3290841Y2959480I-1159J-1159D01*
G01*
X3284581Y2959000D02*
G03*
X3285740Y2959480I0J1639D01*
G01*
X3292000Y2959000D02*
G03*
X3299339Y2955960I7339J7339D01*
G01*
X3355479Y2948521D02*
G03*
X3337519Y2955960I-17960J-17960D01*
G01*
X3413455Y2872585D02*
G03*
X3415350Y2871800I1895J1895D01*
G01*
X3406040Y2893929D02*
G03*
X3400150Y2908150I-20111J0D01*
G01*
X3294149Y2961150D02*
G03*
X3290841Y2962520I-3308J-3308D01*
G01*
X3285740D02*
G03*
X3284581Y2963000I-1159J-1159D01*
G01*
X3357629Y2950670D02*
G03*
X3337519Y2959000I-20110J-20110D01*
G01*
X3294149Y2961150D02*
G03*
X3299339Y2959000I5190J5190D01*
G01*
X3299446Y3133147D02*
G03*
X3304770Y3146000I-12853J12853D01*
G01*
X3228324Y3062025D02*
G03*
X3225000Y3054000I8025J-8025D01*
G01*
X3218150Y3028850D02*
G03*
X3225000Y3045389I-16538J16538D01*
G01*
X3212617Y3023318D02*
G03*
X3210000Y3017000I6317J-6317D01*
G01*
X3444000Y2897172D02*
G03*
X3442000Y2902000I-6828J0D01*
G01*
X3443399Y2879549D02*
G03*
X3444000Y2881000I-1451J1451D01*
G01*
X3284581Y2967000D02*
G03*
X3285740Y2967480I0J1639D01*
G01*
X3291000D02*
G03*
X3296987Y2965000I5987J5987D01*
G01*
X3386440Y2957560D02*
G03*
X3368479Y2965000I-17960J-17960D01*
G01*
X3297296Y3135296D02*
G03*
X3301730Y3146000I-10704J10704D01*
G01*
X3226174Y3064174D02*
G03*
X3221960Y3054000I10174J-10174D01*
G01*
X3216000Y3031000D02*
G03*
X3221960Y3045389I-14389J14389D01*
G01*
X3210467Y3025467D02*
G03*
X3206960Y3017000I8467J-8467D01*
G01*
X3206000Y3010260D02*
G03*
X3206960Y3012578I-2318J2318D01*
G01*
X3447040Y2881000D02*
G03*
X3447245Y2880505I700J0D01*
G01*
X3285740Y2970520D02*
G03*
X3284581Y2971000I-1159J-1159D01*
G01*
X3293150Y2969630D02*
G03*
X3291000Y2970520I-2150J-2150D01*
G01*
X3388589Y2959710D02*
G03*
X3368479Y2968040I-20110J-20110D01*
G01*
X3447040Y2897172D02*
G03*
X3444149Y2904149I-9868J0D01*
G01*
X3293150Y2969630D02*
G03*
X3296987Y2968040I3838J3838D01*
G01*
X3526000Y3045480D02*
G03*
X3505000Y3024480I0J-21000D01*
G01*
Y2979000D02*
G03*
X3516225Y2967775I11225J0D01*
G01*
X3491495Y2968535D02*
G03*
X3501960Y2979000I0J10465D01*
G01*
X3479585Y2968535D02*
G03*
X3477750Y2967775I0J-2595D01*
G01*
X3526000Y3048520D02*
G03*
X3501960Y3024480I0J-24040D01*
G01*
X3532250Y2986825D02*
X3551825D01*
X3551000Y3035000D02*
X3553000Y3037000D01*
X3551000Y3032000D02*
Y3035000D01*
X3548000Y3029000D02*
X3551000Y3032000D01*
X3548000Y3016000D02*
Y3029000D01*
Y3016000D02*
X3555000Y3009000D01*
Y2990000D02*
Y3009000D01*
X3551825Y2986825D02*
X3555000Y2990000D01*
X2869346Y3016000D02*
X2871346Y3014000D01*
X2858000Y3016000D02*
X2869346D01*
X2876720Y3026280D02*
X2893000Y3010000D01*
X2858280Y3026280D02*
X2876720D01*
X2858000Y3026000D02*
X2858280Y3026280D01*
X2860000Y3021000D02*
X2873000D01*
X2858000Y3021000D02*
X2859000Y3020000D01*
X2871346Y3014000D02*
X2877000D01*
X2873280Y2999720D02*
X2887000D01*
X2867000Y3006000D02*
X2873280Y2999720D01*
X2858000Y3006000D02*
X2867000D01*
X3132880Y2838120D02*
X3140120D01*
X3154000Y2838898D02*
Y2847750D01*
X3144102Y2829000D02*
X3154000Y2838898D01*
X3140120Y2838120D02*
X3142000Y2840000D01*
Y2847750D01*
X3141584Y2835080D02*
X3146000Y2839496D01*
Y2847750D01*
X3142843Y2832040D02*
X3150000Y2839197D01*
Y2847750D01*
X3097000Y2893000D02*
X3098000Y2892000D01*
X3086000Y2891000D02*
Y2903000D01*
X3009222Y2909880D02*
X3089521D01*
X3090781Y2912920D02*
X3104701Y2899000D01*
X3010482Y2912920D02*
X3090781D01*
X3092040Y2915960D02*
X3105000Y2903000D01*
X3011741Y2915960D02*
X3092040D01*
X3013000Y2919000D02*
X3122750D01*
X3014259Y2922040D02*
X3112040D01*
X3015518Y2925080D02*
X3110080D01*
X3078000Y2903000D02*
X3082000Y2899000D01*
X3070000Y2903000D02*
X3078960Y2894040D01*
X3055000Y2931000D02*
X3061880Y2937880D01*
X3078960Y2888040D02*
Y2894040D01*
X3092000Y2889701D02*
Y2898000D01*
X3105000Y2903000D02*
X3122750D01*
X3089521Y2909880D02*
X3104402Y2895000D01*
X3104701Y2899000D02*
X3122750D01*
X3082000Y2890000D02*
Y2899000D01*
X3086000Y2891000D02*
X3110000Y2867000D01*
X3082000Y2890000D02*
X3109000Y2863000D01*
X3078960Y2888040D02*
X3108000Y2859000D01*
X3097000Y2893000D02*
X3098000D01*
Y2892000D02*
Y2893000D01*
X3105000Y2889000D02*
X3111000Y2883000D01*
X3104402Y2895000D02*
X3122750D01*
X3108000Y2859000D02*
X3134000D01*
X3138000Y2855000D01*
Y2847750D02*
Y2855000D01*
X3098000Y2888000D02*
Y2892000D01*
X3099000Y2891000D01*
X3098000Y2888000D02*
X3107000Y2879000D01*
X3109000Y2863000D02*
X3122750D01*
X3110000Y2867000D02*
X3122750D01*
X3092000Y2889701D02*
X3110701Y2871000D01*
X3122750D01*
X3107000Y2879000D02*
X3122750D01*
X3111000Y2883000D02*
X3122750D01*
X2844001Y2974000D02*
X2847000D01*
X2848000Y2991000D02*
X2858000D01*
Y2976000D02*
X2868000D01*
X2858000Y2996000D02*
X2869000D01*
X2849720Y2971280D02*
X2857720D01*
X2847000Y2974000D02*
X2849720Y2971280D01*
X2848000Y2981000D02*
X2858000D01*
X2858000Y2986000D02*
X2874000D01*
X3265000Y2955000D02*
X3277250D01*
X3194000Y2847750D02*
Y2860000D01*
X3158000Y2847750D02*
Y2860000D01*
X3258000Y2990000D02*
Y3002250D01*
X3234000Y2990000D02*
Y3002250D01*
X3265000Y2943000D02*
X3277250D01*
X2958000Y2755000D02*
Y2765000D01*
Y2755000D02*
X2968000Y2745000D01*
X2976500D01*
X2993000Y2831000D02*
X3001500D01*
X2983000Y2841000D02*
X2993000Y2831000D01*
X2983000Y2841000D02*
Y2851000D01*
X2971000Y2924000D02*
X2995102D01*
X2977000Y2930000D02*
X2993401D01*
X2983000Y2936000D02*
X2991701D01*
X2858000Y2906000D02*
X2874000D01*
X2848000Y2901000D02*
X2858000D01*
X3061880Y2937880D02*
X3096821D01*
X3103701Y2931000D01*
X3122750D01*
X3098080Y2940920D02*
X3104000Y2935000D01*
X3056920Y2940920D02*
X3098080D01*
X3047000Y2931000D02*
X3056920Y2940920D01*
X3102040Y2943960D02*
X3107000Y2939000D01*
X3051960Y2943960D02*
X3102040D01*
X3039000Y2931000D02*
X3051960Y2943960D01*
X3104000Y2935000D02*
X3122750D01*
X3107000Y2939000D02*
X3122750D01*
X3027234Y2939000D02*
X3041314Y2953080D01*
X3019000Y2939000D02*
X3027234D01*
X3015000Y2935000D02*
X3019000Y2939000D01*
X3041314Y2953080D02*
X3096781D01*
X3110701Y2967000D01*
X2996720Y2939579D02*
Y2947280D01*
X3004000Y2936599D02*
Y2953000D01*
X3110701Y2967000D02*
X3122750D01*
X3023000Y2931000D02*
X3023533D01*
X3042573Y2950040D01*
X3098040D01*
X3111000Y2963000D01*
X3122750D01*
X3031000Y2931000D02*
X3047000Y2947000D01*
X3122750D01*
X3112000Y2927000D02*
X3122750D01*
X3110080Y2925080D02*
X3112000Y2927000D01*
X3113000Y2923000D02*
X3122750D01*
X3112040Y2922040D02*
X3113000Y2923000D01*
X2858000Y2946000D02*
X2874000D01*
X2858000D02*
X2858000D01*
X2858000Y3031000D02*
X2897000D01*
X2870000Y3057000D02*
X2878000Y3065000D01*
X2870000Y3054000D02*
Y3057000D01*
X2867000Y3051000D02*
X2870000Y3054000D01*
X2858000Y3051000D02*
X2867000D01*
X2870000Y3064000D02*
Y3071000D01*
X2862000Y3056000D02*
X2870000Y3064000D01*
X2858000Y3056000D02*
X2862000D01*
X2897000Y3031000D02*
X2907000Y3041000D01*
X2892000Y3041000D02*
X2892000Y3041000D01*
X2858000Y3041000D02*
X2892000D01*
X2873000Y3046000D02*
X2878000Y3051000D01*
X2858000Y3046000D02*
X2873000D01*
X2870000Y3071000D02*
X2878000Y3079000D01*
X3083825Y2714175D02*
Y2738750D01*
X3115000Y2692000D02*
Y2697000D01*
X3109000Y2703000D02*
X3115000Y2697000D01*
X3095000Y2703000D02*
X3109000D01*
X3083825Y2714175D02*
X3095000Y2703000D01*
X3121500Y2692000D02*
Y2700500D01*
X3117000Y2705000D02*
X3121500Y2700500D01*
X3117000Y2705000D02*
Y2708750D01*
X3126000Y2703000D02*
Y2708750D01*
Y2703000D02*
X3128000Y2701000D01*
Y2692000D02*
Y2701000D01*
X3119701Y2812000D02*
X3129741Y2822040D01*
X3113701Y2806000D02*
X3119701Y2812000D01*
Y2812299D01*
X3114000Y2818000D02*
X3119701Y2812299D01*
X3128000Y2816000D02*
X3131000Y2819000D01*
X3109225Y2797225D02*
X3128000Y2816000D01*
X3134000Y2810000D01*
Y2810000D02*
Y2810000D01*
X3162000Y2834496D02*
Y2847750D01*
X3155864Y2828360D02*
X3162000Y2834496D01*
X3147762Y2828360D02*
X3155864D01*
X3141442Y2822040D02*
X3147762Y2828360D01*
X3166000Y2834197D02*
Y2847750D01*
X3157123Y2825320D02*
X3166000Y2834197D01*
X3149021Y2825320D02*
X3157123D01*
X3142701Y2819000D02*
X3149021Y2825320D01*
X3123020Y2725990D02*
Y2753020D01*
X3064775Y2776265D02*
Y2793250D01*
X3071000Y2770040D02*
X3106000D01*
X3119980Y2725990D02*
Y2753020D01*
X3071000Y2767000D02*
X3106000D01*
X3064775Y2738750D02*
Y2760775D01*
X3127750Y2768250D02*
Y2780000D01*
X3146000Y2801000D02*
Y2818000D01*
X3150280Y2822280D01*
X3158382D01*
X3170000Y2833898D01*
Y2847750D01*
X3154000Y2815000D02*
X3155402D01*
X3174000Y2833599D01*
Y2847750D01*
X3163000Y2801000D02*
Y2818299D01*
X3178000Y2833299D01*
Y2847750D01*
X3172000Y2815000D02*
Y2823000D01*
X3182000Y2833000D01*
Y2847750D01*
X3180000Y2801000D02*
X3180000Y2801000D01*
X3180000Y2801000D02*
Y2826000D01*
X3186000Y2832000D01*
Y2847750D01*
X3189000Y2815000D02*
X3189000Y2815000D01*
X3189000Y2815000D02*
Y2829000D01*
X3190000Y2830000D01*
Y2847750D01*
X3197000Y2801000D02*
X3197000Y2801000D01*
X3197000Y2801000D02*
Y2825000D01*
X3198000Y2826000D01*
Y2847750D01*
X3205000Y2815000D02*
Y2826000D01*
X3202000Y2829000D02*
X3205000Y2826000D01*
X3202000Y2829000D02*
Y2847750D01*
X3214000Y2804000D02*
Y2847750D01*
X3203040Y2793040D02*
X3214000Y2804000D01*
X3175741Y2793040D02*
X3203040D01*
X3163000Y2780299D02*
X3175741Y2793040D01*
X3177000Y2790000D02*
X3210000D01*
X3167000Y2780000D02*
X3177000Y2790000D01*
X3221680Y2801320D02*
X3226000Y2797000D01*
X3221680Y2801320D02*
Y2838446D01*
X3226000Y2838467D02*
Y2847750D01*
X3224720Y2837187D02*
X3226000Y2838467D01*
X3224720Y2807280D02*
Y2837187D01*
X3230000Y2835000D02*
Y2847750D01*
X3218000Y2790000D02*
X3223000Y2785000D01*
X3218000Y2790000D02*
Y2847750D01*
X3237000Y2785000D02*
Y2795000D01*
X3224720Y2807280D02*
X3237000Y2795000D01*
X3320000Y2828000D02*
Y2843000D01*
X3293000Y2755000D02*
X3303000D01*
X3313000Y2765000D01*
Y2773500D01*
X3311500Y2775000D02*
X3313000Y2773500D01*
X3060000Y3016000D02*
X3077102D01*
X3095840Y2997262D01*
Y2984160D02*
Y2997262D01*
Y2984160D02*
X3109000Y2971000D01*
X3122750D01*
X3055000Y3023000D02*
X3062701D01*
X3064741Y3020960D01*
X3076442D01*
X3098880Y2998522D01*
Y2986120D02*
Y2998522D01*
Y2986120D02*
X3110000Y2975000D01*
X3122750D01*
X3060000Y3030000D02*
X3066000Y3024000D01*
X3077701D01*
X3101920Y2999781D01*
Y2988080D02*
Y2999781D01*
Y2988080D02*
X3111000Y2979000D01*
X3122750D01*
X3112000Y2983000D02*
X3122750D01*
X3104960Y2990040D02*
X3112000Y2983000D01*
X3113000Y2987000D02*
X3122750D01*
X3108000Y2992000D02*
X3113000Y2987000D01*
X3108000Y2992000D02*
Y3003000D01*
X3104960Y2990040D02*
Y3001040D01*
X3076000Y3030000D02*
X3104960Y3001040D01*
X3075000Y3036000D02*
X3108000Y3003000D01*
X3080280Y3035720D02*
Y3043720D01*
X3080000Y3044000D02*
X3080280Y3043720D01*
Y3035720D02*
X3113750Y3002250D01*
X3138000D01*
X3070000Y3030000D02*
X3076000D01*
X2980200Y3176200D02*
Y3182700D01*
X2970000Y3166000D02*
X2980200Y3176200D01*
X2953000Y3166000D02*
X2970000D01*
X2941000Y3157000D02*
X2946280Y3151720D01*
X3007720D01*
X3008000Y3152000D01*
X2994000Y3157000D02*
X3002000D01*
X3013200Y3168200D01*
Y3182700D01*
X3002200Y3175200D02*
Y3182700D01*
X2985000Y3158000D02*
X3002200Y3175200D01*
X2973000Y3158000D02*
X2985000D01*
X2952000Y3166000D02*
X2953000D01*
X2947000Y3145000D02*
X3000000D01*
X2936200Y3155800D02*
X2947000Y3145000D01*
X2936200Y3155800D02*
Y3182700D01*
X2941000Y3157000D02*
Y3174000D01*
X2947200Y3180200D01*
Y3182700D01*
X2948000Y3158000D02*
X2960000D01*
X2945000Y3161000D02*
X2948000Y3158000D01*
X2945000Y3161000D02*
Y3170000D01*
X2949000Y3174000D01*
X2956000D01*
X2958200Y3176200D01*
Y3182700D01*
X3452299Y3014000D02*
X3454074Y3012225D01*
X3438000Y3028299D02*
X3452299Y3014000D01*
X3458000Y3019701D01*
Y3020000D01*
X3454074Y3012225D02*
X3477750D01*
X3451000Y3011000D02*
X3468825Y2993175D01*
X3434960Y3027040D02*
X3451000Y3011000D01*
Y3011000D02*
Y3011000D01*
X3445000Y3005000D02*
X3451000Y3011000D01*
X3050500Y3070000D02*
X3087000D01*
X3104000Y3155000D02*
X3121500D01*
X3098000Y3149000D02*
X3104000Y3155000D01*
X3098000Y3043000D02*
Y3149000D01*
Y3043000D02*
X3103000Y3038000D01*
X3111750D01*
X3121500Y3125000D02*
X3123000D01*
X3143000Y3105000D01*
Y3039250D02*
Y3105000D01*
X3119500Y3085000D02*
X3121000D01*
X3134000Y3072000D01*
Y3039250D02*
Y3072000D01*
X3403000Y2880000D02*
Y2893929D01*
X3402823Y2879573D02*
X3402824Y2879574D01*
X3395050Y2871800D02*
X3402823Y2879573D01*
X3285740Y2959480D02*
X3290841D01*
X3299339Y2955960D02*
X3337519D01*
X3277250Y2959000D02*
X3284581D01*
X3355479Y2948521D02*
X3398000Y2906000D01*
X3406040Y2880000D02*
X3413455Y2872585D01*
X3406040Y2880000D02*
Y2893929D01*
X3285740Y2962520D02*
X3290841D01*
X3277250Y2963000D02*
X3284581D01*
X3357629Y2950670D02*
X3400150Y2908150D01*
X3299339Y2959000D02*
X3337519D01*
X3225000Y3045389D02*
Y3054000D01*
X3212617Y3023318D02*
X3218150Y3028850D01*
X3210000Y3017000D02*
X3210000Y3017000D01*
X3210000Y3002250D02*
Y3017000D01*
X3444000Y2881000D02*
Y2897172D01*
X3435650Y2871800D02*
X3443399Y2879549D01*
X3285740Y2967480D02*
X3291000D01*
X3296987Y2965000D02*
X3368479D01*
X3277250Y2967000D02*
X3284581D01*
X3386440Y2957560D02*
X3442000Y2902000D01*
X3384032Y3136835D02*
Y3141000D01*
X3221960Y3045389D02*
Y3054000D01*
X3210467Y3025467D02*
X3216000Y3031000D01*
X3206960Y3012578D02*
Y3017000D01*
X3206000Y3002250D02*
Y3010260D01*
X3447040Y2881000D02*
Y2897172D01*
X3285740Y2970520D02*
X3291000D01*
X3277250Y2971000D02*
X3284581D01*
X3388589Y2959710D02*
X3444149Y2904149D01*
X3296987Y2968040D02*
X3368479D01*
X3189500Y3168000D02*
X3201960Y3155540D01*
Y3151850D02*
Y3155540D01*
X3191370Y3141259D02*
X3201960Y3151850D01*
X3191370Y3045630D02*
Y3141259D01*
X3205000Y3158500D02*
X3214500Y3168000D01*
X3205000Y3150590D02*
Y3158500D01*
X3194409Y3140000D02*
X3205000Y3150590D01*
X3272000Y3010960D02*
Y3013000D01*
X3264960Y3010960D02*
X3272000D01*
X3575000Y2924750D02*
X3575750Y2924000D01*
X3568000D02*
X3575750D01*
X3327120Y2937120D02*
X3332000Y2942000D01*
X3317160Y2940160D02*
X3322000Y2945000D01*
X3307200Y2943200D02*
X3311000Y2947000D01*
X3586250Y2907250D02*
Y2924000D01*
X3575750Y2875000D02*
Y2896750D01*
X3586250Y2857250D02*
Y2875000D01*
X3575750Y2825000D02*
Y2846750D01*
X3586250Y2807250D02*
Y2825000D01*
X3575750Y2775000D02*
Y2796750D01*
X3586250Y2757250D02*
Y2775000D01*
X3094000Y2806000D02*
X3113701D01*
X3109225Y2793250D02*
Y2797225D01*
X3156000Y3039250D02*
Y3046000D01*
X3111750Y3029000D02*
Y3038000D01*
Y3029000D02*
X3118750Y3022000D01*
X3124951D01*
X3133071Y3013880D01*
X3147120D01*
X3150000Y3011000D01*
Y3002250D02*
Y3011000D01*
X3122250Y3029000D02*
X3134330Y3016920D01*
X3149080D01*
X3154000Y3012000D01*
Y3002250D02*
Y3012000D01*
X3134000Y3028750D02*
X3142790Y3019960D01*
X3162741D01*
X3166000Y3016701D01*
Y3002250D02*
Y3016701D01*
X3143000Y3028750D02*
X3148750Y3023000D01*
X3164000D01*
X3170000Y3017000D01*
Y3002250D02*
Y3017000D01*
X3163280Y2985720D02*
Y2992187D01*
X3194409Y3051850D02*
X3200750Y3045510D01*
X3191250D02*
X3191370Y3045630D01*
X3156000Y3028750D02*
X3165000D01*
X3174000Y3019750D01*
Y3002250D02*
Y3019750D01*
X3194409Y3051850D02*
Y3140000D01*
X3200750Y3042000D02*
Y3045510D01*
X3191250Y3042000D02*
Y3045510D01*
X3211250Y3042000D02*
Y3050500D01*
X3174000Y3034000D02*
X3181000D01*
X3180750Y3034250D02*
X3181000Y3034000D01*
X3180750Y3034250D02*
Y3042000D01*
X3211250Y3036250D02*
Y3042000D01*
X3191250Y3038490D02*
Y3042000D01*
Y3038490D02*
X3192000Y3037740D01*
Y3026250D02*
Y3037740D01*
X3200750Y3038490D02*
Y3042000D01*
X3200000Y3037740D02*
X3200750Y3038490D01*
X3200000Y3026250D02*
Y3037740D01*
X3372000Y3133401D02*
Y3153000D01*
X3317518Y3078920D02*
X3372000Y3133401D01*
X3378000Y3135102D02*
Y3147000D01*
X3318777Y3075880D02*
X3378000Y3135102D01*
X3320037Y3072840D02*
X3384032Y3136835D01*
X3386496Y3135000D02*
X3390000D01*
X3321296Y3069800D02*
X3386496Y3135000D01*
X3211000Y2990000D02*
X3214000Y2993000D01*
X3194000Y3002250D02*
Y3013750D01*
X3198000Y3002250D02*
Y3013750D01*
X3177780Y2993546D02*
Y3002030D01*
X3176954Y2992720D02*
X3177780Y2993546D01*
X3174720Y2992720D02*
X3176954D01*
X3172000Y2990000D02*
X3174720Y2992720D01*
X3169000Y2990000D02*
X3172000D01*
X3177780Y3002030D02*
X3178000Y3002250D01*
X3177000Y2988467D02*
Y2988608D01*
Y2987000D02*
Y2988467D01*
X3182000Y2993467D01*
Y3002250D01*
X3176804Y2988804D02*
X3177000Y2988608D01*
X3185000Y2989000D02*
Y2990000D01*
X3190000Y2993000D02*
X3194000Y2990000D01*
X3176804Y2988804D02*
X3177000Y2989000D01*
X3202000Y2990000D02*
Y3002250D01*
X3177000Y2989000D02*
X3177000Y2989000D01*
X3186000Y2991000D02*
Y3002250D01*
X3185000Y2990000D02*
X3186000Y2991000D01*
X3134000Y2962000D02*
X3141000D01*
X3131000Y2959000D02*
X3134000Y2962000D01*
X3122750Y2959000D02*
X3131000D01*
X3141720Y2949720D02*
X3145000Y2953000D01*
X3133813Y2949720D02*
X3141720D01*
X3132533Y2951000D02*
X3133813Y2949720D01*
X3122750Y2951000D02*
X3132533D01*
X3122750Y2955000D02*
X3136000D01*
X3090175Y2802175D02*
X3094000Y2806000D01*
X3090175Y2793250D02*
Y2802175D01*
X3071125Y2793250D02*
Y2805000D01*
X2844001Y2894000D02*
X2847000D01*
X2849720Y2891280D01*
X2857720D01*
X2844001Y2934000D02*
X2847000D01*
X2849720Y2931280D01*
X2857720D01*
X2858000Y2906000D02*
X2858000Y2906000D01*
X2858000Y2946000D02*
X2858000Y2946000D01*
Y2956000D02*
X2869000D01*
X2858000Y2956000D02*
X2858000Y2956000D01*
X2858000Y2916000D02*
X2869000D01*
X2858000Y2896000D02*
X2868000D01*
X2848000Y2911000D02*
X2858000D01*
Y2936000D02*
X2868000D01*
X2848000Y2951000D02*
X2858000D01*
X2848000Y2941000D02*
X2858000D01*
X3127750Y2793000D02*
Y2801750D01*
X3138250Y2780000D02*
Y2793000D01*
X3138000Y2758250D02*
Y2769000D01*
Y2740000D02*
Y2747750D01*
X3096525Y2738750D02*
Y2751525D01*
X3126275Y2781475D02*
X3127750Y2780000D01*
X3096525Y2781475D02*
X3126275D01*
X3096525D02*
Y2793250D01*
X3071125Y2747125D02*
X3076000Y2752000D01*
X3071125Y2738750D02*
Y2747125D01*
X3077475Y2729000D02*
Y2738750D01*
Y2725725D02*
Y2729000D01*
X3073000D02*
X3077475D01*
X3071125Y2730875D02*
X3073000Y2729000D01*
X3071125Y2730875D02*
Y2738750D01*
X3126000Y2708750D02*
X3135000D01*
X3108000D02*
X3117000D01*
X3123020Y2725990D02*
X3126000Y2723010D01*
Y2719250D02*
Y2723010D01*
X3117000D02*
X3119980Y2725990D01*
X3117000Y2719250D02*
Y2723010D01*
X3182000Y2847750D02*
X3182220Y2847530D01*
X3210000Y2680000D02*
X3210300Y2680300D01*
X3199000Y2669000D02*
X3210000Y2680000D01*
X3221680Y2838446D02*
X3222000Y2838766D01*
Y2847750D01*
X3177000Y2693000D02*
X3197600D01*
X3235700Y2770900D02*
Y2783700D01*
X3223000Y2770900D02*
Y2785000D01*
X3197600Y2681600D02*
Y2693000D01*
X3320000Y2899000D02*
X3328500Y2890500D01*
X3329000Y2888000D02*
Y2891000D01*
X3302000Y2899000D02*
X3320000D01*
X3265000Y2893000D02*
X3268000D01*
X3270000Y2891000D01*
X3277250D01*
X3265000Y2885000D02*
X3268000D01*
X3270000Y2887000D01*
X3277250D01*
Y2883000D02*
X3283776D01*
X3277250Y2867000D02*
X3284000D01*
X3277250Y2871000D02*
X3284000D01*
X3277250Y2875000D02*
X3284000D01*
X3277250Y2879000D02*
X3284000D01*
X3277250Y2895000D02*
X3292000D01*
X3277250Y2919000D02*
X3277250Y2919000D01*
X3258000Y2836000D02*
Y2847750D01*
X3277250Y2983000D02*
X3293750D01*
X3277250Y2903000D02*
X3294250D01*
X3277250Y2899000D02*
X3302000D01*
X3310750Y2907750D02*
X3313000Y2910000D01*
X3299000Y2907750D02*
X3310750D01*
X3294250Y2903000D02*
X3299000Y2907750D01*
X3257000Y3030000D02*
Y3041000D01*
Y3021000D02*
Y3030000D01*
X3258000Y3002250D02*
X3258000Y3002250D01*
X3315250Y3004500D02*
X3317000Y3002750D01*
X3303000Y3004500D02*
X3315250D01*
X3315250Y2975500D02*
X3317000Y2977250D01*
X3303000Y2975500D02*
X3315250D01*
X3298500D02*
X3303000D01*
X3298500Y3004500D02*
X3303000D01*
X3294000Y3000000D02*
X3298500Y3004500D01*
X3294000Y2995250D02*
Y3000000D01*
X3293750Y2985000D02*
X3294000Y2984750D01*
X3122751Y2942999D02*
X3133999D01*
X3122750Y2875000D02*
X3133999D01*
X3146000Y2993000D02*
Y3002250D01*
Y2993000D02*
X3149000Y2990000D01*
X3142000Y2993000D02*
Y3002250D01*
X3139000Y2990000D02*
X3142000Y2993000D01*
X3265000Y2975000D02*
X3277250D01*
X3257000Y3016000D02*
Y3021000D01*
X3254000Y3013000D02*
X3257000Y3016000D01*
X3254000Y3002250D02*
Y3013000D01*
X3262000Y3008000D02*
X3264960Y3010960D01*
X3262000Y3002250D02*
Y3008000D01*
Y3008250D01*
X3258000Y3002250D02*
Y3011000D01*
X3262000Y3015000D01*
X3266000D01*
X3267500Y3016500D01*
Y3021000D01*
X3258000Y2990000D02*
X3258000Y2990000D01*
Y2991000D01*
X3132000Y2887000D02*
X3135000Y2884000D01*
X3122750Y2887000D02*
X3132000D01*
X3132000Y2891000D02*
X3135000Y2894000D01*
X3122750Y2891000D02*
X3132000D01*
X3214000Y2993000D02*
Y3002250D01*
X3218000Y2993000D02*
X3221000Y2990000D01*
X3218000Y2993000D02*
Y3002250D01*
X3265000Y2926000D02*
X3268000Y2923000D01*
X3277250D01*
X3265000Y2916000D02*
X3268000Y2919000D01*
X3277250D01*
X3238000Y2847750D02*
Y2862000D01*
X3234000Y2847750D02*
Y2858000D01*
X3263000Y2846000D02*
X3270000D01*
X3262000Y2845000D02*
X3263000Y2846000D01*
X3230000Y2847750D02*
X3230000Y2847750D01*
X3210000Y2857000D02*
X3213000Y2860000D01*
X3210000Y2847750D02*
Y2857000D01*
X3203000Y2860000D02*
X3206000Y2857000D01*
Y2847750D02*
Y2857000D01*
X3190000Y2993000D02*
Y3002250D01*
X3122750Y2911000D02*
X3138000D01*
X3122750Y2907000D02*
X3132000D01*
X3136000Y2903000D01*
X3138000D01*
X3122750Y2915000D02*
X3132000D01*
X3136000Y2919000D01*
X3138000D01*
X3257000Y3041000D02*
X3288000D01*
X3545250Y3050000D02*
X3558000D01*
X3544250Y3051000D02*
X3545250Y3050000D01*
X3544750Y3043500D02*
X3558000D01*
X3544250Y3043000D02*
X3544750Y3043500D01*
X3529990Y3043000D02*
X3533750D01*
X3527510Y3045480D02*
X3529990Y3043000D01*
Y3051000D02*
X3533750D01*
X3527510Y3048520D02*
X3529990Y3051000D01*
X3526000Y3045480D02*
X3527510D01*
X3505000Y2979000D02*
Y3024480D01*
X3516225Y2967775D02*
X3532250D01*
X3479585Y2968535D02*
X3491495D01*
X3544250Y3034000D02*
Y3043000D01*
Y3051000D02*
Y3060000D01*
X3210300Y2680300D02*
Y2694000D01*
X3532250Y2974125D02*
X3541125D01*
X3543000Y2976000D01*
Y2980475D01*
X3532250D02*
X3543000D01*
X3522875Y2974125D02*
X3532250D01*
X3519000Y2978000D02*
X3522875Y2974125D01*
X3477750Y2999525D02*
X3489525D01*
X3526000Y3048520D02*
X3527510D01*
X3501960Y2979000D02*
Y3024480D01*
X3522475Y2999525D02*
X3532250D01*
X3519000Y3003000D02*
X3522475Y2999525D01*
X3464875Y2974125D02*
X3477750D01*
X3479750Y3028000D02*
Y3040000D01*
Y3023250D02*
Y3028000D01*
Y3023250D02*
X3489525Y3013475D01*
Y2999525D02*
Y3013475D01*
X3490250Y3021250D02*
Y3028000D01*
Y3040000D02*
Y3046750D01*
X3455750Y2983250D02*
X3463000D01*
X3250000Y2991000D02*
Y3002250D01*
X3242000D02*
Y3011040D01*
X3242960Y3012000D01*
X3238000Y3002250D02*
Y3011339D01*
X3239920Y3013259D01*
X3226000Y3002250D02*
X3226220Y3002470D01*
X3222000Y3002250D02*
X3222220Y3002470D01*
X3426200Y3135200D02*
Y3182700D01*
X3437200Y3141200D02*
Y3182700D01*
X3448200Y3147200D02*
Y3182700D01*
X3470200Y3153200D02*
Y3182700D01*
X3492200Y3159200D02*
Y3182700D01*
X3503200Y3165200D02*
Y3182700D01*
X3430000Y3047000D02*
X3434960Y3042040D01*
X3543000Y2980475D02*
X3549275D01*
X3550750Y2979000D01*
X3434960Y3027040D02*
Y3042040D01*
X3468825Y2993175D02*
X3477750D01*
X3438000Y3028299D02*
Y3047000D01*
X3230000Y3002250D02*
Y3010080D01*
X3236880Y3016960D01*
X3226220Y3002470D02*
Y3010599D01*
X3233840Y3018219D01*
X3222220Y3002470D02*
Y3010898D01*
X3230800Y3019478D01*
X3300000Y3150490D02*
Y3158000D01*
Y3150490D02*
X3301730Y3148760D01*
Y3146000D02*
Y3148760D01*
X3306500Y3150490D02*
Y3158000D01*
X3304770Y3148760D02*
X3306500Y3150490D01*
X3304770Y3146000D02*
Y3148760D01*
X3239920Y3013259D02*
Y3049920D01*
X3236880Y3016960D02*
Y3051179D01*
X3233840Y3018219D02*
Y3052438D01*
X3230800Y3019478D02*
Y3053698D01*
X3242960Y3012000D02*
Y3048661D01*
X3246000Y3002250D02*
Y3047401D01*
X3250000Y3002250D02*
Y3011720D01*
X3249040Y3012680D02*
X3250000Y3011720D01*
X3249040Y3012680D02*
Y3046040D01*
X3230800Y3053698D02*
X3262102Y3085000D01*
X3233840Y3052438D02*
X3263362Y3081960D01*
X3236880Y3051179D02*
X3264621Y3078920D01*
X3239920Y3049920D02*
X3265880Y3075880D01*
X3242960Y3048661D02*
X3267139Y3072840D01*
X3246000Y3047401D02*
X3268398Y3069800D01*
X3249040Y3046040D02*
X3267000Y3064000D01*
X3285000D01*
X3286000D01*
X3262102Y3085000D02*
X3315000D01*
X3360000Y3130000D01*
Y3165000D01*
X3263362Y3081960D02*
X3316259D01*
X3366000Y3131701D01*
Y3159000D01*
X3264621Y3078920D02*
X3317518D01*
X3265880Y3075880D02*
X3318777D01*
X3267139Y3072840D02*
X3320037D01*
X3268398Y3069800D02*
X3321296D01*
X3294000Y2980000D02*
X3298500Y2975500D01*
X3294000Y2980000D02*
Y2984750D01*
X3269000Y2979000D02*
X3277250D01*
X3265000Y2983000D02*
X3269000Y2979000D01*
X3265000Y2983000D02*
Y2984000D01*
X3277250Y2987000D02*
X3285750D01*
X3294000Y2995250D01*
X3447245Y2880505D02*
X3455950Y2871800D01*
X3277250Y2951000D02*
X3289000D01*
X3290000Y2952000D01*
X3277250Y2947000D02*
X3287533D01*
X3287813Y2946720D01*
X3296720D01*
X3300000Y2950000D01*
X3277250Y2911000D02*
X3290000D01*
X3293970Y2914970D01*
Y2922970D02*
X3299000Y2928000D01*
X3293970Y2914970D02*
Y2922970D01*
X3290930Y2924229D02*
X3297741Y2931040D01*
X3347750Y2914000D02*
Y2918250D01*
X3358250Y2910250D02*
Y2914000D01*
X3353200Y2905200D02*
X3358250Y2910250D01*
X3353200Y2896300D02*
Y2905200D01*
X3348000Y2923000D02*
X3355000D01*
X3277250Y2927000D02*
X3289402D01*
X3296482Y2934080D01*
X3277250Y2931000D02*
X3289102D01*
X3295222Y2937120D01*
X3327120D01*
X3277250Y2935000D02*
X3288803D01*
X3293963Y2940160D01*
X3317160D01*
X3277250Y2939000D02*
X3288504D01*
X3292704Y2943200D01*
X3307200D01*
X3299000Y2928000D02*
X3338000D01*
X3347750Y2918250D01*
X3297741Y2931040D02*
X3339960D01*
X3348000Y2923000D01*
X3296482Y2934080D02*
X3337080D01*
X3341000Y2938000D01*
X3277250Y2915000D02*
X3288000D01*
X3290930Y2917930D01*
Y2924229D01*
X2995102Y2924000D02*
X3009222Y2909880D01*
X2993401Y2930000D02*
X3010482Y2912920D01*
X2991701Y2936000D02*
X3011741Y2915960D01*
X2990000Y2942000D02*
X3013000Y2919000D01*
X2996720Y2939579D02*
X3014259Y2922040D01*
X3004000Y2936599D02*
X3015518Y2925080D01*
X3122250Y3038000D02*
Y3047000D01*
X3220000Y3070250D02*
Y3080000D01*
X3211000Y3061250D02*
X3220000Y3070250D01*
X2832500Y2779500D02*
Y2786250D01*
Y2779500D02*
X2834000Y2778000D01*
X2850000D01*
X2851500Y2779500D01*
Y2786250D01*
X2866000Y2847000D02*
X2873000D01*
X2861000Y2842000D02*
X2866000Y2847000D01*
X2861000Y2832000D02*
Y2842000D01*
X2857000Y2828000D02*
X2861000Y2832000D01*
X2836000Y2828000D02*
X2857000D01*
X2832500Y2824500D02*
X2836000Y2828000D01*
X2832500Y2813750D02*
Y2816500D01*
Y2824500D01*
X3167000Y2704000D02*
Y2780000D01*
Y2704000D02*
X3177000Y2693000D01*
X3163000Y2703000D02*
X3169000Y2697000D01*
X3163000Y2703000D02*
Y2780299D01*
X3169000Y2689000D02*
Y2697000D01*
Y2689000D02*
X3189000Y2669000D01*
X3199000D01*
X3265000Y2907000D02*
X3277250D01*
X3129000Y2842000D02*
X3132880Y2838120D01*
X3121000Y2842000D02*
X3127920Y2835080D01*
X3113000Y2842000D02*
X3122960Y2832040D01*
X3105000Y2842000D02*
X3118000Y2829000D01*
X3127920Y2835080D02*
X3141584D01*
X3122960Y2832040D02*
X3142843D01*
X3118000Y2829000D02*
X3144102D01*
X3228324Y3062025D02*
X3299446Y3133147D01*
X3226174Y3064174D02*
X3297296Y3135296D01*
X3256000Y3109533D02*
X3293500Y3147033D01*
Y3158000D01*
X3129741Y2822040D02*
X3141442D01*
X3131000Y2819000D02*
X3142701D01*
X3230000Y2847750D02*
Y2854000D01*
X3230000Y2862000D02*
X3234000Y2858000D01*
X3162000Y2993467D02*
X3163280Y2992187D01*
X3162000Y2993467D02*
Y3002250D01*
X3158000Y2990000D02*
Y3002250D01*
X3560000Y2933000D02*
X3568250Y2924750D01*
X3575000D01*
D11*
X3046000Y2867000D02*
D03*
X3016000D02*
D03*
X3021000Y2781000D02*
D03*
X2991000D02*
D03*
D12*
X3065000Y2879000D02*
D03*
X3040000Y2793000D02*
D03*
X3430000Y2990000D02*
D03*
X3415000D02*
D03*
X3400000D02*
D03*
X3385000D02*
D03*
X3370000D02*
D03*
X3355000D02*
D03*
X3237000Y2785000D02*
D03*
X3196000Y2680000D02*
D03*
X3223000Y2785000D02*
D03*
X3210000Y2680000D02*
D03*
X3257000Y3041000D02*
D03*
X3560000Y2935000D02*
D03*
X3114000Y2818000D02*
D03*
X3134000Y2810000D02*
D03*
X3445000Y3005000D02*
D03*
X3458000Y3020000D02*
D03*
X3320000Y2843000D02*
D03*
X3220000Y3080000D02*
D03*
X2965000Y2812000D02*
D03*
X2881000Y2699000D02*
D03*
D13*
X3275000Y2747000D02*
D03*
Y2765000D02*
D03*
X3307000Y2817000D02*
D03*
Y2799000D02*
D03*
D14*
X3311500Y2751000D02*
D03*
X3292500D02*
D03*
Y2775000D02*
D03*
X3302000D02*
D03*
X3311500D02*
D03*
D15*
X3321000Y2799250D02*
D03*
Y2788750D02*
D03*
X2877000Y2889250D02*
D03*
Y2878750D02*
D03*
X3547000Y2999250D02*
D03*
Y2988750D02*
D03*
X3463000Y2983250D02*
D03*
Y2972750D02*
D03*
X3076000Y2712750D02*
D03*
Y2723250D02*
D03*
X3138000Y2758250D02*
D03*
Y2747750D02*
D03*
X3117000Y2719250D02*
D03*
Y2708750D02*
D03*
X3126000Y2719250D02*
D03*
Y2708750D02*
D03*
X3135000Y2719250D02*
D03*
Y2708750D02*
D03*
X3108000Y2719250D02*
D03*
Y2708750D02*
D03*
X3177000Y2760750D02*
D03*
Y2771250D02*
D03*
Y2704500D02*
D03*
Y2694000D02*
D03*
X3249000Y2823500D02*
D03*
Y2834000D02*
D03*
X3294000Y2984750D02*
D03*
Y2995250D02*
D03*
X3293000Y2882750D02*
D03*
Y2893250D02*
D03*
X3303000Y2986000D02*
D03*
Y2975500D02*
D03*
Y2994000D02*
D03*
Y3004500D02*
D03*
X3302000Y2888500D02*
D03*
Y2899000D02*
D03*
X3299000Y2918250D02*
D03*
Y2907750D02*
D03*
X3286000Y2844750D02*
D03*
Y2855250D02*
D03*
X3278000Y2844750D02*
D03*
Y2855250D02*
D03*
X3237000Y2823500D02*
D03*
Y2834000D02*
D03*
X3203000Y3061750D02*
D03*
Y3072250D02*
D03*
X3200000Y3026250D02*
D03*
Y3015750D02*
D03*
X3192000Y3026250D02*
D03*
Y3015750D02*
D03*
X3165000Y3028750D02*
D03*
Y3039250D02*
D03*
X3211000Y3061250D02*
D03*
Y3050750D02*
D03*
X3143000Y3028750D02*
D03*
Y3039250D02*
D03*
X3134000Y3028750D02*
D03*
Y3039250D02*
D03*
X3181000Y3023500D02*
D03*
Y3034000D02*
D03*
X3156000Y3028750D02*
D03*
Y3039250D02*
D03*
X3329000Y2807750D02*
D03*
Y2818250D02*
D03*
X3321000D02*
D03*
Y2807750D02*
D03*
D16*
X3013200Y3182700D02*
D03*
X3002200D02*
D03*
X2991200D02*
D03*
X2980200D02*
D03*
X2969200D02*
D03*
X2958200D02*
D03*
X2947200D02*
D03*
X2936200D02*
D03*
X3503200D02*
D03*
X3492200D02*
D03*
X3481200D02*
D03*
X3470200D02*
D03*
X3459200D02*
D03*
X3448200D02*
D03*
X3437200D02*
D03*
X3426200D02*
D03*
D17*
X3024000Y3177700D02*
D03*
X3514000D02*
D03*
D18*
X2897400Y3182550D02*
D03*
X3387400D02*
D03*
D19*
X2960950Y3057300D02*
D03*
X3450950D02*
D03*
D20*
X2918300Y3058050D02*
D03*
X3408300D02*
D03*
D21*
X2895200Y3070050D02*
D03*
X3024800D02*
D03*
X3385200D02*
D03*
X3514800D02*
D03*
D22*
X3191250Y3042000D02*
D03*
X3200750D02*
D03*
X3559250Y2979000D02*
D03*
X3548750D02*
D03*
X3479750Y3028000D02*
D03*
X3490250D02*
D03*
X3479750Y3040000D02*
D03*
X3490250D02*
D03*
X3544250Y3043000D02*
D03*
Y3051000D02*
D03*
X3533750Y3060000D02*
D03*
X3544250D02*
D03*
X3531750Y3034000D02*
D03*
X3542250D02*
D03*
X3096250Y2726000D02*
D03*
X3085750D02*
D03*
X3127500Y2769000D02*
D03*
X3138000D02*
D03*
X3127750Y2780000D02*
D03*
X3138250D02*
D03*
Y2793000D02*
D03*
X3127750D02*
D03*
X3267500Y3021000D02*
D03*
X3257000D02*
D03*
X3267500Y3030000D02*
D03*
X3257000D02*
D03*
X3273750Y3012000D02*
D03*
X3284250D02*
D03*
X3122250Y3038000D02*
D03*
X3111750D02*
D03*
X3586250Y2924000D02*
D03*
X3575750D02*
D03*
X3586250Y2875000D02*
D03*
X3575750D02*
D03*
X3586250Y2825000D02*
D03*
X3575750D02*
D03*
X3586250Y2775000D02*
D03*
X3575750D02*
D03*
X3211250Y3042000D02*
D03*
X3122250Y3047000D02*
D03*
X3111750D02*
D03*
X3122250Y3029000D02*
D03*
X3111750D02*
D03*
X3180750Y3042000D02*
D03*
X3533750Y3051000D02*
D03*
Y3043000D02*
D03*
X3347750Y2914000D02*
D03*
X3358250D02*
D03*
X3021250Y2715000D02*
D03*
X3010750D02*
D03*
X2997250D02*
D03*
X2986750D02*
D03*
X3010750Y2729000D02*
D03*
X3021250D02*
D03*
Y2737000D02*
D03*
X3010750D02*
D03*
X3002250D02*
D03*
X2991750D02*
D03*
X3035750Y2815000D02*
D03*
X3046250D02*
D03*
Y2823000D02*
D03*
X3035750D02*
D03*
X3027250D02*
D03*
X3016750D02*
D03*
D23*
X2858000Y3056000D02*
D03*
Y3051000D02*
D03*
Y3046000D02*
D03*
Y3041000D02*
D03*
Y3036000D02*
D03*
Y3031000D02*
D03*
Y3026000D02*
D03*
Y3021000D02*
D03*
Y3016000D02*
D03*
Y3011000D02*
D03*
Y3006000D02*
D03*
Y3001000D02*
D03*
Y2996000D02*
D03*
Y2991000D02*
D03*
Y2986000D02*
D03*
Y2981000D02*
D03*
Y2976000D02*
D03*
Y2971000D02*
D03*
Y2966000D02*
D03*
Y2961000D02*
D03*
Y2956000D02*
D03*
Y2951000D02*
D03*
Y2946000D02*
D03*
Y2941000D02*
D03*
Y2936000D02*
D03*
Y2931000D02*
D03*
Y2926000D02*
D03*
Y2921000D02*
D03*
Y2916000D02*
D03*
Y2911000D02*
D03*
Y2906000D02*
D03*
Y2901000D02*
D03*
Y2896000D02*
D03*
Y2891000D02*
D03*
Y2886000D02*
D03*
Y2881000D02*
D03*
Y2876000D02*
D03*
Y2871000D02*
D03*
Y2866000D02*
D03*
Y2861000D02*
D03*
D24*
X2841000Y2844300D02*
D03*
Y3072700D02*
D03*
D25*
X2889000Y2827000D02*
D03*
Y2863000D02*
D03*
D26*
X2891000Y2813000D02*
D03*
Y2783000D02*
D03*
X3277000Y2818000D02*
D03*
Y2788000D02*
D03*
D27*
X2851500Y2813750D02*
D03*
X2842000D02*
D03*
X2832500D02*
D03*
Y2786250D02*
D03*
X2842000D02*
D03*
X2851500D02*
D03*
D28*
X2864000Y2784000D02*
D03*
Y2800000D02*
D03*
X2873000Y2831000D02*
D03*
Y2847000D02*
D03*
X2906000Y2865000D02*
D03*
Y2849000D02*
D03*
D29*
X3532250Y2967775D02*
D03*
Y2974125D02*
D03*
Y2980475D02*
D03*
Y2986825D02*
D03*
Y2993175D02*
D03*
Y2999525D02*
D03*
Y3005875D02*
D03*
Y3012225D02*
D03*
X3477750Y2967775D02*
D03*
Y2974125D02*
D03*
Y2980475D02*
D03*
Y2986825D02*
D03*
Y2993175D02*
D03*
Y2999525D02*
D03*
Y3005875D02*
D03*
Y3012225D02*
D03*
D30*
X3064775Y2738750D02*
D03*
X3071125D02*
D03*
X3077475D02*
D03*
X3083825D02*
D03*
X3090175D02*
D03*
X3096525D02*
D03*
X3102875D02*
D03*
X3109225D02*
D03*
X3064775Y2793250D02*
D03*
X3071125D02*
D03*
X3077475D02*
D03*
X3083825D02*
D03*
X3090175D02*
D03*
X3096525D02*
D03*
X3102875D02*
D03*
X3109225D02*
D03*
D31*
X3197600Y2694000D02*
D03*
X3210300D02*
D03*
X3223000D02*
D03*
X3235700D02*
D03*
X3197600Y2770900D02*
D03*
X3210300D02*
D03*
X3223000D02*
D03*
X3235700D02*
D03*
D32*
X3216650Y2732450D02*
D03*
D33*
X3317000Y3002750D02*
D03*
Y2977250D02*
D03*
D34*
X3313000Y2910000D02*
D03*
Y2888000D02*
D03*
X3329000D02*
D03*
Y2910000D02*
D03*
D35*
X3200000Y2925000D02*
D03*
D36*
X3138000Y3002250D02*
D03*
X3142000D02*
D03*
X3146000D02*
D03*
X3150000D02*
D03*
X3154000D02*
D03*
X3158000D02*
D03*
X3162000D02*
D03*
X3166000D02*
D03*
X3170000D02*
D03*
X3174000D02*
D03*
X3178000D02*
D03*
X3182000D02*
D03*
X3186000D02*
D03*
X3190000D02*
D03*
X3194000D02*
D03*
X3198000D02*
D03*
X3202000D02*
D03*
X3206000D02*
D03*
X3210000D02*
D03*
X3214000D02*
D03*
X3218000D02*
D03*
X3222000D02*
D03*
X3226000D02*
D03*
X3230000D02*
D03*
X3234000D02*
D03*
X3238000D02*
D03*
X3242000D02*
D03*
X3246000D02*
D03*
X3250000D02*
D03*
X3254000D02*
D03*
X3258000D02*
D03*
X3262000D02*
D03*
Y2847750D02*
D03*
X3258000D02*
D03*
X3254000D02*
D03*
X3250000D02*
D03*
X3246000D02*
D03*
X3242000D02*
D03*
X3238000D02*
D03*
X3234000D02*
D03*
X3230000D02*
D03*
X3226000D02*
D03*
X3222000D02*
D03*
X3218000D02*
D03*
X3214000D02*
D03*
X3210000D02*
D03*
X3206000D02*
D03*
X3202000D02*
D03*
X3198000D02*
D03*
X3194000D02*
D03*
X3190000D02*
D03*
X3186000D02*
D03*
X3182000D02*
D03*
X3178000D02*
D03*
X3174000D02*
D03*
X3170000D02*
D03*
X3166000D02*
D03*
X3162000D02*
D03*
X3158000D02*
D03*
X3154000D02*
D03*
X3150000D02*
D03*
X3146000D02*
D03*
X3142000D02*
D03*
X3138000D02*
D03*
D37*
X3277250Y2987000D02*
D03*
Y2983000D02*
D03*
Y2979000D02*
D03*
Y2975000D02*
D03*
Y2963000D02*
D03*
Y2959000D02*
D03*
Y2955000D02*
D03*
Y2951000D02*
D03*
Y2947000D02*
D03*
Y2943000D02*
D03*
Y2939000D02*
D03*
Y2935000D02*
D03*
Y2931000D02*
D03*
Y2927000D02*
D03*
Y2923000D02*
D03*
Y2919000D02*
D03*
Y2915000D02*
D03*
Y2911000D02*
D03*
Y2907000D02*
D03*
Y2903000D02*
D03*
Y2899000D02*
D03*
Y2895000D02*
D03*
Y2891000D02*
D03*
Y2887000D02*
D03*
Y2883000D02*
D03*
Y2879000D02*
D03*
Y2875000D02*
D03*
Y2871000D02*
D03*
Y2867000D02*
D03*
Y2863000D02*
D03*
X3122750D02*
D03*
Y2867000D02*
D03*
Y2871000D02*
D03*
Y2875000D02*
D03*
Y2879000D02*
D03*
Y2883000D02*
D03*
Y2887000D02*
D03*
Y2891000D02*
D03*
Y2895000D02*
D03*
Y2899000D02*
D03*
Y2903000D02*
D03*
Y2907000D02*
D03*
Y2911000D02*
D03*
Y2915000D02*
D03*
Y2919000D02*
D03*
Y2923000D02*
D03*
Y2927000D02*
D03*
Y2931000D02*
D03*
Y2935000D02*
D03*
Y2939000D02*
D03*
Y2943000D02*
D03*
Y2947000D02*
D03*
Y2951000D02*
D03*
Y2955000D02*
D03*
Y2959000D02*
D03*
Y2963000D02*
D03*
Y2967000D02*
D03*
Y2971000D02*
D03*
Y2975000D02*
D03*
Y2979000D02*
D03*
Y2983000D02*
D03*
Y2987000D02*
D03*
X3277250Y2971000D02*
D03*
Y2967000D02*
D03*
D38*
X3291000Y2865000D02*
D03*
X3307000D02*
D03*
D39*
X2878000Y2747000D02*
D03*
X2836000D02*
D03*
D40*
X2913000Y2692000D02*
D03*
X2919500D02*
D03*
X2926000D02*
D03*
X2932500D02*
D03*
X2939000D02*
D03*
X3313000Y3158000D02*
D03*
X3306500D02*
D03*
X3300000D02*
D03*
X3293500D02*
D03*
X3287000D02*
D03*
X3115000Y2692000D02*
D03*
X3121500D02*
D03*
X3128000D02*
D03*
X3134500D02*
D03*
X3141000D02*
D03*
D41*
X2936000Y2665000D02*
D03*
X2916000D02*
D03*
X3290000Y3185000D02*
D03*
X3310000D02*
D03*
X3138000Y2665000D02*
D03*
X3118000D02*
D03*
D42*
X3050500Y3070000D02*
D03*
X3121500Y3155000D02*
D03*
Y3125000D02*
D03*
X3119500Y3085000D02*
D03*
D43*
X3579000Y2900000D02*
D03*
X3531000D02*
D03*
X3579000Y2850000D02*
D03*
X3531000D02*
D03*
X3579000Y2800000D02*
D03*
X3531000D02*
D03*
X3579000Y2750000D02*
D03*
X3531000D02*
D03*
X3288000Y3045000D02*
D03*
X3336000D02*
D03*
D44*
X3558000Y3037000D02*
D03*
Y3043500D02*
D03*
Y3050000D02*
D03*
Y3056500D02*
D03*
Y3063000D02*
D03*
D45*
X3585000Y3060000D02*
D03*
Y3040000D02*
D03*
D46*
X2954000Y2746500D02*
D03*
Y2765500D02*
D03*
X2978000D02*
D03*
Y2756000D02*
D03*
Y2746500D02*
D03*
X2979000Y2832500D02*
D03*
Y2851500D02*
D03*
X3003000D02*
D03*
Y2842000D02*
D03*
Y2832500D02*
D03*
D47*
X2950000Y2783000D02*
D03*
X2968000D02*
D03*
X3045000Y2837000D02*
D03*
X3027000D02*
D03*
X3020000Y2751000D02*
D03*
X3002000D02*
D03*
X2975000Y2869000D02*
D03*
X2993000D02*
D03*
D48*
X2899000Y2744000D02*
X2917000D01*
X2948000Y2891000D02*
X2960000Y2879000D01*
X2948000Y2891000D02*
Y2965000D01*
X2990000Y3007000D01*
Y3093000D02*
X3020000Y3123000D01*
X2889000Y2750000D02*
X2912000D01*
X2934000Y2761000D02*
X2947000Y2774000D01*
X2960000Y2844000D02*
Y2879000D01*
X2934000Y2818000D02*
Y2969000D01*
X2990000Y3025000D01*
X2948000Y2831000D02*
Y2832000D01*
Y2891000D01*
X2934000Y2818000D02*
X2948000Y2832000D01*
X2960000Y2844000D01*
X2934000Y2761000D02*
Y2818000D01*
X2990000Y3007000D02*
Y3025000D01*
Y3093000D01*
X2917000Y2744000D02*
X2934000Y2761000D01*
X2912000Y2750000D02*
X2932000Y2770000D01*
X2888000Y2744000D02*
X2899000D01*
X2990000Y3007000D02*
X3001000Y3018000D01*
Y3088000D01*
X3036000Y3123000D01*
X3020000D02*
X3036000D01*
X3056000D01*
X2947000Y2774000D02*
Y2812000D01*
Y2830000D01*
D49*
X2869000Y3011000D02*
X2875000Y3005000D01*
X2858000Y3011000D02*
X2869000D01*
X3182000Y3017000D02*
Y3023500D01*
X2866000Y2962000D02*
Y2965000D01*
Y2922000D02*
Y2925000D01*
Y2882000D02*
Y2885000D01*
X2955500Y2746500D02*
X2973000Y2729000D01*
X3010750D01*
Y2737000D01*
X3002250D02*
X3010750D01*
X3030000Y2793000D02*
X3040000D01*
X3055000Y2879000D02*
X3065000D01*
X3027250Y2823000D02*
X3035750D01*
Y2815000D02*
Y2823000D01*
X2998000Y2815000D02*
X3035750D01*
X2980500Y2832500D02*
X2998000Y2815000D01*
X2875000Y3005000D02*
X2879000D01*
X3230000Y2835000D02*
X3236000D01*
X3311500Y2751000D02*
Y2752500D01*
X3329000Y2770000D01*
Y2807750D01*
X3321000Y2799250D02*
Y2807750D01*
X3329000D01*
X2832000Y2817000D02*
X2832500Y2816500D01*
X2874270Y2876020D02*
X2877000Y2878750D01*
X2869020Y2876020D02*
X2874270D01*
X2869000Y2876000D02*
X2869020Y2876020D01*
X2991200Y3173200D02*
Y3182700D01*
X2969200Y3173200D02*
Y3182700D01*
X3105000Y3047000D02*
X3111750D01*
X3165000Y3039250D02*
Y3046000D01*
X3203000Y3072250D02*
X3209750D01*
X3203000Y3055000D02*
Y3061750D01*
X3210500D02*
X3211000Y3061250D01*
X3203000Y3061750D02*
X3210500D01*
X2858000Y2876000D02*
X2869000D01*
X2858000Y2876000D02*
X2858000Y2876000D01*
X2858000Y2966000D02*
X2865000D01*
X2866000Y2965000D01*
X2865000Y2961000D02*
X2866000Y2962000D01*
X2858000Y2961000D02*
X2865000D01*
X2858000Y2926000D02*
X2865000D01*
X2866000Y2925000D01*
X2865000Y2921000D02*
X2866000Y2922000D01*
X2858000Y2921000D02*
X2865000D01*
X2858000Y2881000D02*
X2865000D01*
X2866000Y2882000D01*
X2865000Y2886000D02*
X2866000Y2885000D01*
X2858000Y2886000D02*
X2865000D01*
X2848000Y2871000D02*
X2858000D01*
X2848000Y3036000D02*
X2858000D01*
X2848000Y3001000D02*
X2858000D01*
X3177000Y2754000D02*
Y2760750D01*
Y2778000D02*
X3180000Y2781000D01*
X3177000Y2771250D02*
Y2778000D01*
X3208000Y2781000D02*
X3210300Y2778700D01*
X3197600Y2770900D02*
Y2780600D01*
X3210300Y2770900D02*
Y2778700D01*
X3223300Y2684000D02*
Y2693700D01*
X3236000Y2684000D02*
Y2693700D01*
X3236000Y2835000D02*
X3237000Y2834000D01*
X3083825Y2782175D02*
Y2793250D01*
X3477750Y2986825D02*
X3488825D01*
X3521175Y2993175D02*
X3532250D01*
X3180000Y2781000D02*
X3184000D01*
X3191000D01*
X3208000D01*
X3459200Y3172200D02*
Y3182700D01*
X3481200Y3172200D02*
Y3182700D01*
X3287000Y3148000D02*
Y3158000D01*
X3284000Y3145000D02*
X3287000Y3148000D01*
X3313000Y3147000D02*
X3314000Y3146000D01*
X3313000Y3147000D02*
Y3158000D01*
X2858000Y2866000D02*
X2906000D01*
X2858000Y2861000D02*
X2865000D01*
X2870000Y2856000D01*
Y2848000D02*
Y2856000D01*
X3021250Y2715000D02*
Y2729000D01*
X2997250Y2715000D02*
X3010750D01*
X3176700Y2704500D02*
X3184500D01*
X3189000Y2700000D01*
X2947000Y2812000D02*
X2965000D01*
D50*
X3258000Y2836000D02*
X3258000Y2836000D01*
Y2834000D02*
Y2836000D01*
X3258000Y2834000D02*
X3258000Y2834000D01*
D51*
X2889000Y2819000D02*
Y2827000D01*
X2851500Y2813750D02*
X2890750D01*
X2864000Y2784000D02*
X2891000D01*
X2853750D02*
X2864000D01*
X2876000Y2737000D02*
X2882000D01*
X2888000D01*
X2876000Y2757000D02*
X2882000D01*
X2888000D01*
X2864000Y2763000D02*
X2870000Y2757000D01*
X2864000Y2763000D02*
Y2784000D01*
X3253000Y2907000D02*
X3266000D01*
X3230000Y2930000D02*
X3253000Y2907000D01*
X3230000Y2930000D02*
Y2945000D01*
X2876000Y2737000D02*
Y2757000D01*
X2888000Y2737000D02*
Y2757000D01*
D52*
X2869500Y2747000D02*
D03*
X2844500D02*
D03*
X3353200Y2896300D02*
D03*
X3476250Y2871800D02*
D03*
X3455950D02*
D03*
X3435650D02*
D03*
X3415350D02*
D03*
X3395050D02*
D03*
X3374750D02*
D03*
X3497800Y2896300D02*
D03*
X3472400D02*
D03*
X3378600D02*
D03*
D53*
X2891000Y2665000D02*
D03*
X2961000D02*
D03*
X3335000Y3185000D02*
D03*
X3265000D02*
D03*
X3093000Y2665000D02*
D03*
X3163000D02*
D03*
D54*
X2901000Y2692000D02*
D03*
X2951000D02*
D03*
X3325000Y3158000D02*
D03*
X3275000D02*
D03*
X3558000Y3025000D02*
D03*
Y3075000D02*
D03*
X3103000Y2692000D02*
D03*
X3153000D02*
D03*
D55*
X3362000Y2760000D02*
D03*
X3489000D02*
D03*
D56*
X3344850Y2728300D02*
D03*
X3506150D02*
D03*
D57*
X3085000Y3100000D02*
D03*
Y3170000D02*
D03*
D58*
X3214500Y3168000D02*
D03*
X3189500D02*
D03*
D59*
X3585000Y3015000D02*
D03*
Y3085000D02*
D03*
D60*
X3565000Y2685000D02*
D03*
Y3165000D02*
D03*
X2835000D02*
D03*
Y2685000D02*
D03*
X3200000Y2925000D02*
D03*
D61*
X3547000Y3007000D02*
D03*
X2932000Y2716000D02*
D03*
X2926000D02*
D03*
X3180000Y2965000D02*
D03*
X3240000Y2935000D02*
D03*
Y2955000D02*
D03*
X3250000Y2965000D02*
D03*
X3230000D02*
D03*
X3150000Y2935000D02*
D03*
X3170000Y2875000D02*
D03*
X3190000Y2895000D02*
D03*
X3210000D02*
D03*
X3230000D02*
D03*
Y2915000D02*
D03*
X3170000Y2955000D02*
D03*
Y2935000D02*
D03*
Y2915000D02*
D03*
Y2895000D02*
D03*
X3370000Y2915000D02*
D03*
X3350000Y2875000D02*
D03*
X3370000Y2835000D02*
D03*
X3350000Y2855000D02*
D03*
Y2835000D02*
D03*
X3330000D02*
D03*
Y2855000D02*
D03*
X3290000Y2835000D02*
D03*
X3310000D02*
D03*
X3230000Y2815000D02*
D03*
X3250000D02*
D03*
Y2795000D02*
D03*
Y2775000D02*
D03*
Y2755000D02*
D03*
X3150000Y2775000D02*
D03*
Y2755000D02*
D03*
X3130000D02*
D03*
X3050000D02*
D03*
Y2775000D02*
D03*
Y2795000D02*
D03*
X3070000Y2815000D02*
D03*
X3090000D02*
D03*
Y2835000D02*
D03*
X3070000D02*
D03*
Y2855000D02*
D03*
X3090000D02*
D03*
X3050000Y2895000D02*
D03*
X3030000D02*
D03*
X3010000D02*
D03*
X2970000Y2955000D02*
D03*
X3030000D02*
D03*
X3090000Y2995000D02*
D03*
X3030000Y3035000D02*
D03*
X2990000Y3135000D02*
D03*
X3130000Y2995000D02*
D03*
X3110000Y3015000D02*
D03*
X3090000Y3035000D02*
D03*
Y3055000D02*
D03*
X3070000Y3095000D02*
D03*
X3050000D02*
D03*
X3090000Y3155000D02*
D03*
X3070000D02*
D03*
X3050000D02*
D03*
Y3175000D02*
D03*
X3070000D02*
D03*
X3110000D02*
D03*
X3130000D02*
D03*
X3150000Y3055000D02*
D03*
X3170000D02*
D03*
X3150000Y3075000D02*
D03*
X3170000D02*
D03*
Y3095000D02*
D03*
X3150000D02*
D03*
Y3155000D02*
D03*
Y3175000D02*
D03*
X3170000D02*
D03*
X3230000D02*
D03*
X3250000D02*
D03*
Y3155000D02*
D03*
X3210000Y3095000D02*
D03*
X3230000D02*
D03*
X3310000Y3115000D02*
D03*
X3290000Y3095000D02*
D03*
X3310000D02*
D03*
X3330000Y3115000D02*
D03*
Y3135000D02*
D03*
X3350000D02*
D03*
Y3155000D02*
D03*
Y3175000D02*
D03*
X3370000D02*
D03*
X3410000D02*
D03*
X3330000Y3015000D02*
D03*
X3310000D02*
D03*
Y3035000D02*
D03*
Y3055000D02*
D03*
X3350000Y3075000D02*
D03*
X3450000Y2995000D02*
D03*
X3350000Y3015000D02*
D03*
X3370000D02*
D03*
X3390000D02*
D03*
X3430000D02*
D03*
X3410000D02*
D03*
Y3035000D02*
D03*
X3390000D02*
D03*
X3370000D02*
D03*
Y3055000D02*
D03*
Y3075000D02*
D03*
Y3095000D02*
D03*
X3390000D02*
D03*
X3410000Y3075000D02*
D03*
Y3115000D02*
D03*
X3430000Y3095000D02*
D03*
X3450000D02*
D03*
X3470000Y3075000D02*
D03*
Y3115000D02*
D03*
X3490000Y3095000D02*
D03*
X3530000D02*
D03*
X3510000Y3115000D02*
D03*
X3530000Y3175000D02*
D03*
Y3135000D02*
D03*
X3550000Y3115000D02*
D03*
X3570000Y3095000D02*
D03*
X3590000Y3135000D02*
D03*
Y3115000D02*
D03*
Y2995000D02*
D03*
Y2975000D02*
D03*
X3570000Y3015000D02*
D03*
Y2995000D02*
D03*
Y2975000D02*
D03*
X3510000Y2955000D02*
D03*
X3490000D02*
D03*
X3470000D02*
D03*
X3430000Y2975000D02*
D03*
X3410000Y2915000D02*
D03*
X3390000Y2935000D02*
D03*
X3450000Y2955000D02*
D03*
X3430000D02*
D03*
X3410000D02*
D03*
X3430000Y2935000D02*
D03*
X3450000Y2915000D02*
D03*
Y2935000D02*
D03*
X3470000D02*
D03*
Y2915000D02*
D03*
X3490000D02*
D03*
Y2935000D02*
D03*
X3510000D02*
D03*
X3550000Y2955000D02*
D03*
X3590000D02*
D03*
X3570000D02*
D03*
Y2935000D02*
D03*
X3590000D02*
D03*
X3530000D02*
D03*
X3510000Y2915000D02*
D03*
X3530000D02*
D03*
X3550000D02*
D03*
Y2895000D02*
D03*
X3510000D02*
D03*
X3490000Y2835000D02*
D03*
Y2875000D02*
D03*
X3550000Y2855000D02*
D03*
Y2875000D02*
D03*
X3530000D02*
D03*
X3510000D02*
D03*
Y2855000D02*
D03*
Y2835000D02*
D03*
X3530000Y2815000D02*
D03*
Y2835000D02*
D03*
X3550000D02*
D03*
Y2815000D02*
D03*
Y2795000D02*
D03*
X3510000Y2815000D02*
D03*
X3490000D02*
D03*
X3450000D02*
D03*
X3410000D02*
D03*
X3370000D02*
D03*
X3350000Y2795000D02*
D03*
X3390000D02*
D03*
Y2755000D02*
D03*
X3410000Y2775000D02*
D03*
X3430000Y2795000D02*
D03*
X3510000D02*
D03*
X3470000D02*
D03*
X3450000Y2775000D02*
D03*
X3430000Y2755000D02*
D03*
X3550000Y2735000D02*
D03*
Y2755000D02*
D03*
Y2775000D02*
D03*
X3530000D02*
D03*
X3510000D02*
D03*
Y2755000D02*
D03*
X3590000Y2715000D02*
D03*
X3530000Y2735000D02*
D03*
X3550000Y2715000D02*
D03*
X3530000Y2695000D02*
D03*
X3510000Y2715000D02*
D03*
Y2695000D02*
D03*
Y2675000D02*
D03*
X3490000Y2695000D02*
D03*
Y2735000D02*
D03*
X3470000Y2715000D02*
D03*
Y2675000D02*
D03*
X3450000Y2695000D02*
D03*
Y2735000D02*
D03*
X3430000Y2715000D02*
D03*
Y2675000D02*
D03*
X3410000Y2695000D02*
D03*
Y2735000D02*
D03*
X3390000Y2715000D02*
D03*
Y2675000D02*
D03*
X3330000Y2755000D02*
D03*
X3370000Y2735000D02*
D03*
Y2695000D02*
D03*
X3350000Y2715000D02*
D03*
Y2675000D02*
D03*
X3330000D02*
D03*
Y2695000D02*
D03*
Y2735000D02*
D03*
X3310000D02*
D03*
Y2715000D02*
D03*
Y2695000D02*
D03*
Y2675000D02*
D03*
X3290000Y2715000D02*
D03*
Y2695000D02*
D03*
Y2675000D02*
D03*
X3270000D02*
D03*
Y2695000D02*
D03*
X3250000D02*
D03*
Y2675000D02*
D03*
X3230000D02*
D03*
X3090000Y2695000D02*
D03*
X3070000D02*
D03*
Y2675000D02*
D03*
X3050000D02*
D03*
Y2695000D02*
D03*
X3030000D02*
D03*
Y2675000D02*
D03*
X3010000D02*
D03*
Y2695000D02*
D03*
X2990000D02*
D03*
Y2675000D02*
D03*
X2970000D02*
D03*
Y2695000D02*
D03*
X2870000Y2675000D02*
D03*
Y2695000D02*
D03*
Y2715000D02*
D03*
X2850000Y2735000D02*
D03*
Y2715000D02*
D03*
X2810000D02*
D03*
Y2735000D02*
D03*
Y2755000D02*
D03*
Y2775000D02*
D03*
Y2795000D02*
D03*
Y2815000D02*
D03*
Y2835000D02*
D03*
Y2855000D02*
D03*
X2890000Y2955000D02*
D03*
X2910000D02*
D03*
Y3025000D02*
D03*
X2930000Y3035000D02*
D03*
X2950000D02*
D03*
X2970000D02*
D03*
X2950000Y3055000D02*
D03*
X2930000D02*
D03*
Y3075000D02*
D03*
X2970000D02*
D03*
Y3115000D02*
D03*
X2950000Y3095000D02*
D03*
Y3135000D02*
D03*
X2910000Y3095000D02*
D03*
X2930000Y3115000D02*
D03*
X2910000Y3135000D02*
D03*
X2930000Y3155000D02*
D03*
X2910000Y3175000D02*
D03*
X2890000Y3155000D02*
D03*
X2870000Y3175000D02*
D03*
X2890000Y3115000D02*
D03*
X2870000Y3135000D02*
D03*
Y3095000D02*
D03*
X2850000Y3115000D02*
D03*
X2810000D02*
D03*
X2830000Y3095000D02*
D03*
X2810000Y3075000D02*
D03*
Y3035000D02*
D03*
Y3055000D02*
D03*
X2830000D02*
D03*
Y3035000D02*
D03*
Y3015000D02*
D03*
X2810000D02*
D03*
Y2995000D02*
D03*
X2830000D02*
D03*
Y2975000D02*
D03*
X2810000D02*
D03*
Y2875000D02*
D03*
X2830000D02*
D03*
Y2895000D02*
D03*
X2810000D02*
D03*
Y2915000D02*
D03*
X2830000D02*
D03*
Y2935000D02*
D03*
Y2955000D02*
D03*
X2810000D02*
D03*
Y2935000D02*
D03*
X2873000Y3021000D02*
D03*
X2877000Y3014000D02*
D03*
X2893000Y3010000D02*
D03*
X2887000Y2999720D02*
D03*
X3086000Y2903000D02*
D03*
X3078000D02*
D03*
X3055000Y2931000D02*
D03*
X3070000Y2903000D02*
D03*
X3092000Y2898000D02*
D03*
X3098000Y2893000D02*
D03*
X3105000Y2889000D02*
D03*
X2848000Y2991000D02*
D03*
X2868000Y2976000D02*
D03*
X2844001Y2974000D02*
D03*
X2848000Y2981000D02*
D03*
X2874000Y2986000D02*
D03*
X2869000Y2996000D02*
D03*
X2966000Y2765000D02*
D03*
Y2756000D02*
D03*
X3030000Y2772000D02*
D03*
Y2779000D02*
D03*
Y2786000D02*
D03*
Y2793000D02*
D03*
X2979000Y2791000D02*
D03*
X2966000Y2795000D02*
D03*
X2973000D02*
D03*
X2979000Y2784000D02*
D03*
X2989000Y2757000D02*
D03*
Y2750000D02*
D03*
Y2743000D02*
D03*
X2983000Y2737000D02*
D03*
X2975000D02*
D03*
X3000000Y2823000D02*
D03*
X3008000D02*
D03*
X3014000Y2829000D02*
D03*
Y2836000D02*
D03*
Y2843000D02*
D03*
X3004000Y2870000D02*
D03*
X2998000Y2881000D02*
D03*
X2991000D02*
D03*
X3004000Y2877000D02*
D03*
X3055000Y2879000D02*
D03*
Y2872000D02*
D03*
Y2865000D02*
D03*
Y2858000D02*
D03*
X2991000Y2842000D02*
D03*
Y2851000D02*
D03*
X2869000Y2916000D02*
D03*
X2971000Y2924000D02*
D03*
X2977000Y2930000D02*
D03*
X2983000Y2936000D02*
D03*
X2990000Y2942000D02*
D03*
X2874000Y2906000D02*
D03*
X2848000Y2901000D02*
D03*
X2996720Y2947280D02*
D03*
X3004000Y2953000D02*
D03*
X3015000Y2935000D02*
D03*
X3023000Y2931000D02*
D03*
X3031000D02*
D03*
X3047000D02*
D03*
X3039000D02*
D03*
X2879000Y3005000D02*
D03*
X3210000Y2790000D02*
D03*
X3226000Y2797000D02*
D03*
X3230000Y2835000D02*
D03*
X3293000Y2763000D02*
D03*
X3302000D02*
D03*
X3286000Y2827000D02*
D03*
X3279000D02*
D03*
X3272000D02*
D03*
X3265000D02*
D03*
X3267000Y2776000D02*
D03*
X3263000Y2763000D02*
D03*
Y2770000D02*
D03*
X3274000Y2776000D02*
D03*
X3301000Y2786000D02*
D03*
X3308000D02*
D03*
X3315000D02*
D03*
X3321000Y2780000D02*
D03*
Y2772000D02*
D03*
X3070000Y3030000D02*
D03*
X3075000Y3036000D02*
D03*
X3080000Y3044000D02*
D03*
X3060000Y3016000D02*
D03*
Y3030000D02*
D03*
X3055000Y3023000D02*
D03*
X3026250Y3144250D02*
D03*
X2979000Y3166000D02*
D03*
X2994000Y3157000D02*
D03*
X2981000Y3139000D02*
D03*
X3000000Y3145000D02*
D03*
X3008000Y3152000D02*
D03*
X2973000Y3158000D02*
D03*
X2953000Y3166000D02*
D03*
X2960000Y3158000D02*
D03*
X2991200Y3173200D02*
D03*
X2969200D02*
D03*
X3087000Y3070000D02*
D03*
X3568000Y2924000D02*
D03*
X3430000Y2990000D02*
D03*
X3415000D02*
D03*
X3400000D02*
D03*
X3385000D02*
D03*
X3370000D02*
D03*
X3355000D02*
D03*
X3332000Y2942000D02*
D03*
X3322000Y2945000D02*
D03*
X3311000Y2947000D02*
D03*
X3156000Y3046000D02*
D03*
X3105000Y3047000D02*
D03*
X3164000Y2984000D02*
D03*
X3165000Y3046000D02*
D03*
X3171000Y3155000D02*
D03*
X3233000D02*
D03*
X3209750Y3072250D02*
D03*
X3203000Y3055000D02*
D03*
X3174000Y3034000D02*
D03*
X3211250Y3036250D02*
D03*
X3182000Y3017000D02*
D03*
X3211000Y2990000D02*
D03*
X3177000Y2987000D02*
D03*
X3185000Y2989000D02*
D03*
X3194000Y2990000D02*
D03*
X3202000D02*
D03*
X3169000D02*
D03*
X3141000Y2962000D02*
D03*
X3145000Y2953000D02*
D03*
X3136000Y2955000D02*
D03*
X3062000Y2769000D02*
D03*
X3071125Y2805000D02*
D03*
X2869000Y2876000D02*
D03*
X2844001Y2894000D02*
D03*
Y2934000D02*
D03*
X2874000Y2946000D02*
D03*
X2869000Y2956000D02*
D03*
X2868000Y2896000D02*
D03*
X2848000Y2911000D02*
D03*
X2868000Y2936000D02*
D03*
X2848000Y2951000D02*
D03*
Y2941000D02*
D03*
X2848000Y2871000D02*
D03*
Y3036000D02*
D03*
Y3001000D02*
D03*
X3127750Y2801750D02*
D03*
X3138000Y2740000D02*
D03*
X3096525Y2751525D02*
D03*
Y2781475D02*
D03*
X3076000Y2752000D02*
D03*
X3177000Y2754000D02*
D03*
X3191000Y2781000D02*
D03*
X3184000D02*
D03*
X3223300Y2684000D02*
D03*
X3236000D02*
D03*
X3265000Y2885000D02*
D03*
X3288000Y2872000D02*
D03*
X3249000Y2862000D02*
D03*
X3265000Y2893000D02*
D03*
X3258000Y2836000D02*
D03*
X3318000Y2993000D02*
D03*
Y2987000D02*
D03*
X3312000D02*
D03*
Y2993000D02*
D03*
X3133999Y2942999D02*
D03*
X3133999Y2875000D02*
D03*
X3270999Y2855000D02*
D03*
X3149000Y2990000D02*
D03*
X3139000D02*
D03*
X3266000Y2955000D02*
D03*
X3265000Y2975000D02*
D03*
X3258000Y2991000D02*
D03*
X3234000D02*
D03*
X3266000Y2943000D02*
D03*
Y2907000D02*
D03*
X3194000Y2859000D02*
D03*
X3158000D02*
D03*
X3135000Y2884000D02*
D03*
Y2894000D02*
D03*
X3221000Y2990000D02*
D03*
X3265000Y2926000D02*
D03*
Y2916000D02*
D03*
X3238000Y2862000D02*
D03*
X3270000Y2846000D02*
D03*
X3213000Y2860000D02*
D03*
X3203000D02*
D03*
X3138000Y2911000D02*
D03*
Y2903000D02*
D03*
Y2919000D02*
D03*
X3519000Y2978000D02*
D03*
X3489525Y2999525D02*
D03*
X3083825Y2782175D02*
D03*
X3488825Y2986825D02*
D03*
X3521175Y2993175D02*
D03*
X3519000Y3003000D02*
D03*
X3490250Y3021250D02*
D03*
Y3046750D02*
D03*
X3455750Y2983250D02*
D03*
X3250000Y2991000D02*
D03*
X3366000Y3159000D02*
D03*
X3372000Y3153000D02*
D03*
X3360000Y3165000D02*
D03*
X3378000Y3147000D02*
D03*
X3384000Y3141000D02*
D03*
X3390000Y3135000D02*
D03*
X3426200Y3135200D02*
D03*
X3437200Y3141200D02*
D03*
X3448200Y3147200D02*
D03*
X3470200Y3153200D02*
D03*
X3492200Y3159200D02*
D03*
X3503200Y3165200D02*
D03*
X3459200Y3172200D02*
D03*
X3481200D02*
D03*
X3522000Y3135000D02*
D03*
X3438000Y3047000D02*
D03*
X3430000D02*
D03*
X3242000Y2990000D02*
D03*
X3285000Y3064000D02*
D03*
X3284000Y3145000D02*
D03*
X3314000Y3146000D02*
D03*
X3265000Y2984000D02*
D03*
X3279750Y2994250D02*
D03*
X3395000Y2841000D02*
D03*
X3415000Y2841000D02*
D03*
X3436000D02*
D03*
X3456000Y2841000D02*
D03*
X3375000Y2841000D02*
D03*
X3466000Y2858000D02*
D03*
X3476000Y2841000D02*
D03*
X3290000Y2952000D02*
D03*
X3300000Y2950000D02*
D03*
X3314000Y2922000D02*
D03*
X3322000D02*
D03*
X3330000D02*
D03*
X3306000D02*
D03*
X3338000Y2919000D02*
D03*
X3339000Y2911000D02*
D03*
X3355000Y2923000D02*
D03*
X3361000Y2929000D02*
D03*
X3297000Y2876000D02*
D03*
X3304000D02*
D03*
X3311000D02*
D03*
X3318000D02*
D03*
X3325000D02*
D03*
X3332000D02*
D03*
X3341000Y2938000D02*
D03*
X3349000Y2931000D02*
D03*
X3355000Y2937000D02*
D03*
X3344000Y2884000D02*
D03*
X2878000Y3079000D02*
D03*
Y3065000D02*
D03*
Y3051000D02*
D03*
X2892000Y3041000D02*
D03*
X2907000D02*
D03*
X3146000Y2801000D02*
D03*
X3154000Y2815000D02*
D03*
X3163000Y2801000D02*
D03*
X3172000Y2815000D02*
D03*
X3180000Y2801000D02*
D03*
X3189000Y2815000D02*
D03*
X3197000Y2801000D02*
D03*
X3205000Y2815000D02*
D03*
X2830000Y2800000D02*
D03*
X2838000D02*
D03*
X2846000D02*
D03*
X2854000D02*
D03*
X2869000Y2924000D02*
D03*
Y2964000D02*
D03*
Y2884000D02*
D03*
X2863000Y2824000D02*
D03*
X2870000D02*
D03*
X2908000Y2842000D02*
D03*
X2901000D02*
D03*
X2926000Y2710000D02*
D03*
Y2704000D02*
D03*
X2932000Y2710000D02*
D03*
X2838000Y2737000D02*
D03*
X2832000D02*
D03*
X2826000D02*
D03*
X2838000Y2757000D02*
D03*
X2832000D02*
D03*
X2826000D02*
D03*
X2876000Y2737000D02*
D03*
X2882000D02*
D03*
X2888000D02*
D03*
X2876000Y2757000D02*
D03*
X2882000D02*
D03*
X2888000D02*
D03*
X3129000Y2842000D02*
D03*
X3121000D02*
D03*
X3113000D02*
D03*
X3105000D02*
D03*
X3230000Y2945000D02*
D03*
X3290000Y2738000D02*
D03*
X3272000D02*
D03*
X3278000D02*
D03*
X3284000D02*
D03*
X3256000Y3109533D02*
D03*
X3056000Y3123000D02*
D03*
X3314000Y3141000D02*
D03*
X3060000Y3128000D02*
D03*
Y3118000D02*
D03*
X3052000Y3128000D02*
D03*
Y3118000D02*
D03*
X2932000Y2704000D02*
D03*
X3088000Y2750000D02*
D03*
X3189000Y2700000D02*
D03*
X3230000Y2862000D02*
D03*
X3030000Y2765000D02*
D03*
Y2758000D02*
D03*
Y2751000D02*
D03*
X2938000Y2710000D02*
D03*
Y2704000D02*
D03*
X3158000Y2990000D02*
D03*
X3066000Y2931000D02*
D03*
X2897000Y2997000D02*
D03*
X3017000D02*
D03*
X3081000Y2963000D02*
D03*
M02*
